<svg width="700" height="327" viewBox="0 0 700 327" fill="none" xmlns="http://www.w3.org/2000/svg">
<g clip-path="url(#clip0_13_90)">
<path d="M25.2177 275.353H67.1102V265.097H16.5407C6.09089 265.097 0.39949 268.728 0.39949 281.434C0.39949 281.434 0.212891 288.877 0.212891 295.865C0.212891 302.854 0.30619 310.387 0.30619 310.387C0.30619 323.003 5.99759 326.634 16.5407 326.634C18.5933 326.634 68.603 326.634 68.603 326.634V316.196H25.2177C22.2321 316.196 21.4857 315.47 21.4857 312.566C21.4857 312.566 21.4857 279.801 21.4857 278.984C21.4857 276.079 22.1388 275.444 25.2177 275.353Z" fill="currentColor"/>
<path d="M131.115 326.634H152.388V265.097H131.022V289.24H97.2469V265.097H75.8805V326.634H97.2469V299.133H131.115V326.634Z" fill="currentColor"/>
<path d="M301.204 265.097L280.584 315.379C280.211 316.287 279.745 316.378 278.345 316.378C276.946 316.378 276.479 316.287 276.106 315.379L255.673 265.097H179.072C168.622 265.097 162.931 268.728 162.931 281.434C162.931 281.434 162.838 288.877 162.838 295.865C162.838 302.854 162.931 310.387 162.931 310.387C162.931 323.003 168.622 326.634 179.072 326.634C181.125 326.634 232.814 326.634 232.814 326.634V316.196H187.749C184.764 316.196 184.017 315.47 184.017 312.566C184.017 312.566 184.017 306.394 184.017 299.224H228.802V289.058H184.017C184.017 283.522 184.017 279.256 184.017 278.984C184.017 276.17 184.764 275.444 187.749 275.444C187.749 275.444 224.51 275.444 235.8 275.444C242.424 290.873 254.18 317.557 255.206 319.826C256.699 323.003 259.218 326.724 264.816 326.724H284.69C290.194 326.724 292.154 323.094 293.553 319.917C295.046 316.741 317.345 265.188 317.345 265.188L301.204 265.097Z" fill="currentColor"/>
<path d="M428.747 275.262C431.92 275.262 437.145 275.262 442.276 275.262C447.501 275.262 452.819 275.262 455.898 275.262C458.884 275.262 459.537 275.989 459.537 278.802C459.537 279.619 459.537 312.656 459.537 312.656C459.537 315.561 458.884 316.287 455.898 316.287H428.654C425.668 316.287 425.015 315.561 425.015 312.656C425.015 312.656 425.015 279.619 425.015 278.802C425.015 275.989 425.762 275.353 428.747 275.262ZM480.716 281.434C480.716 268.637 475.025 265.097 464.575 265.097C464.575 265.097 451.98 265.006 442.369 265.006C432.573 265.006 420.07 265.097 420.07 265.097C409.621 265.097 403.929 268.728 403.929 281.434C403.929 281.434 403.743 288.877 403.743 295.865C403.743 302.854 403.836 310.478 403.836 310.478C403.929 323.094 409.621 326.724 420.07 326.724C420.07 326.724 432.853 326.724 442.276 326.724C451.606 326.724 464.482 326.724 464.482 326.724C474.932 326.724 480.716 323.094 480.716 310.478C480.716 310.478 480.81 302.854 480.81 295.865C480.81 288.786 480.716 281.434 480.716 281.434Z" fill="currentColor"/>
<path d="M491.446 326.634H557.13V316.196H512.719V265.097H491.446V326.634Z" fill="currentColor"/>
<path d="M575.418 265.097C564.968 265.097 559.276 268.728 559.276 281.434C559.276 281.434 559.183 288.786 559.183 295.865C559.183 302.854 559.276 310.387 559.276 310.387C559.276 323.003 564.968 326.634 575.418 326.634C577.47 326.634 629.159 326.634 629.159 326.634V316.287H584.095C581.109 316.287 580.363 315.561 580.363 312.656C580.363 312.656 580.363 306.484 580.363 299.224H624.961V288.967H580.363C580.363 283.522 580.363 279.165 580.363 278.893C580.363 276.079 581.109 275.353 584.095 275.353L654.351 275.262V326.543H675.624V275.353H699.975V265.097H575.418Z" fill="currentColor"/>
<path d="M371.18 300.313C370.527 299.859 370.9 299.587 371.554 299.587C371.74 299.587 381.07 299.587 381.07 299.587C388.161 299.587 394.786 297.408 395.252 288.06C395.719 285.519 395.345 279.347 395.345 279.347C395.345 269.181 389.934 265.46 381.91 265.46H319.585V326.724H340.577V275.444H371.647C373.606 275.444 374.073 275.989 374.166 277.078C374.259 278.348 374.353 280.98 374.353 283.249C374.353 285.882 374.353 287.878 374.259 288.877C374.166 289.875 373.046 290.51 371.647 290.51H346.549V299.859L377.525 326.724H406.728C406.728 326.724 371.46 300.494 371.18 300.313Z" fill="currentColor"/>
<path d="M76.7521 146.105L112.833 76.49H264.213V28.1278H433.551V76.695H621.472L585.391 146.31H433.551V194.836H264.213V146.105H76.7521ZM462.156 -0.00488281H235.441V48.5619H65.2679L-0.00305176 174.361H235.441V222.764H462.156V174.361H632.872L698.143 48.6847H462.24L462.156 -0.00488281Z" fill="currentColor"/>
</g>
<defs>
<clipPath id="clip0_13_90">
<rect width="699.98" height="326.73" fill="white"/>
</clipPath>
</defs>
</svg>
