<svg width="500" height="104" viewBox="0 0 500 104" fill="none" xmlns="http://www.w3.org/2000/svg">
<g clip-path="url(#clip0_6_22)">
<path d="M395.137 26.2312C393.655 26.9349 391.802 27.1003 389.303 27.1003H388.211V15.665C388.211 13.6705 388.434 13.166 391.711 13.166C394.748 13.166 399.497 15.1266 399.497 19.8928C399.497 22.3255 398.347 24.6425 395.137 26.2312ZM486.546 23.079L484.833 22.576C479.728 21.1944 476.724 19.6882 476.724 17.2217C476.724 14.8307 479.545 12.903 483.567 12.903C489.764 12.903 492.545 16.4282 494.291 19.6883L497.724 19.3574C496.856 15.9728 496.31 13.5322 495.979 11.6125C494.977 11.414 493.72 11.2151 491.899 10.9172C489.624 10.5068 487.117 10.3281 484.667 10.3281C472.346 10.3281 465.884 14.8712 465.884 20.4972C465.884 25.8016 473.116 28.4326 479.636 30.2695L480.82 30.5879C485.702 31.9039 488.672 33.6158 488.672 36.5781C488.672 39.7886 485.536 41.4524 481.44 41.4524C473.737 41.4524 469.111 35.9749 467.456 33.0954L463.997 33.7442C464.833 36.69 465.735 39.1801 466.356 41.2819C463.782 40.9641 461.689 40.2063 458.015 37.0541C453.149 32.8916 448.036 28.3567 443.237 23.6402C446.472 21.1995 450.353 18.6678 454.531 16.0775C458.578 13.5369 460.952 12.9418 465.379 12.6432V11.0796H444.618V12.6432L447.581 12.8416C449.666 12.9939 448.797 14.3554 447.713 15.2412C443.236 19.0144 438.52 22.6717 432.868 26.7593V19.0144C432.868 13.6273 433.506 12.941 438.578 12.6424V11.0788H414.433V12.6424C419.861 12.9403 420.49 13.6273 420.49 19.0144V35.3563C420.49 38.5093 420.258 40.2968 419.033 40.9998C417.246 41.8359 415.947 41.3105 414.615 40.2799C413.373 39.3366 411.644 37.2596 409.013 34.6614C406.745 32.3366 403.874 28.9276 402.782 27.5209C408.541 26.0977 412.828 23.5239 412.828 19.1469C412.828 16.2257 410.502 14.0079 407.391 12.7588C404.321 11.509 400.291 11.0788 394.201 11.0788H369.436L369.874 12.6424C375.103 12.9403 375.269 13.6273 375.269 19.0144V35.3563C375.269 40.76 374.664 41.4382 369.112 41.7441V43.3085H394.201V41.7441C388.822 41.4396 388.21 40.76 388.21 35.3563V29.432H389.211C390.676 29.432 391.801 30.1767 392.488 31.2279C394.416 33.983 396.634 37.0533 398.951 39.1882C402.07 42.0922 404.594 43.9291 415.458 43.7061C416.269 43.7061 419.372 43.4806 420.084 43.3085H438.983V41.7441C433.505 41.4396 432.711 40.76 432.868 35.3563V27.4215H433.009C438.669 32.8576 446.753 40.1224 449.691 43.3085H467.506V42.2822C468.457 42.547 469.815 42.872 471.544 43.201C473.662 43.671 476.889 44.0697 480.033 44.0697C492.222 44.0697 500 39.5847 500 33.4695C500 27.6773 493.802 25.1059 486.546 23.079Z" fill="currentColor"/>
<path d="M349.924 41.4477C342.129 41.4477 336.726 34.9275 336.726 25.9247C336.726 17.2609 341.823 12.9008 347.938 12.9008C354.765 12.9008 360.491 18.3864 360.491 28.3986C360.491 37.3603 356.759 41.4477 349.924 41.4477ZM162.331 31.3937L167.056 21.7955H167.279L172.087 31.3937H162.331ZM95.6956 26.9675C94.2392 27.654 92.4106 27.8112 89.9531 27.8112H88.8856V16.2348C88.8856 14.2569 89.1254 13.7193 92.328 13.7193C95.3234 13.7193 100.007 15.7137 100.007 20.5289C100.007 22.9782 98.8316 25.3537 95.6956 26.9675ZM35.2414 40.5952C29.9872 40.5952 27.5462 39.0729 27.5462 33.0907V7.25683C27.5462 5.57742 27.6619 4.03831 28.208 3.91386C28.961 3.63584 30.4175 3.42377 32.9247 3.42377C42.2502 3.42377 54.2071 7.44539 54.2071 21.9345C54.2071 33.8334 44.6745 40.5952 35.2414 40.5952ZM375.261 26.7853C375.261 16.9796 364.057 10.3267 349.518 10.3267C338.075 10.3267 330.437 13.6699 326.143 18.1051C328.758 13.0245 330.52 9.78057 330.769 9.39133C334.459 3.42569 335.419 2.85529 341.517 2.30056V0H315.51V2.30056L319.647 2.5652C324.339 2.85647 324.662 3.96382 323.247 7.82772C321.708 11.8492 317.686 21.4315 313.888 29.4002L313.64 29.0362L297.132 0.0662613H289.503L275.246 29.0362L275.031 29.4002L264.687 6.55381C263.405 3.74045 263.719 2.91273 267.724 2.5652L271.233 2.30056V0H237.282V2.30056C242.28 2.70436 244.241 3.3431 247.187 8.99497L248.511 11.5602H232.284L220.17 31.485L206.294 11.5602H187.676V13.1654C193.923 13.5162 194.585 14.4396 193.981 20.7859L193.137 30.9469C192.748 35.5065 192.26 38.1709 191.846 39.7265C191.723 40.2627 191.622 40.9096 191.168 41.0089C190.622 41.0817 189.414 39.2136 188.388 37.3766C185.491 32.2133 182.215 26.3053 178.93 20.3224L173.758 10.8155L168.52 11.5186L153.27 37.5261C153.08 37.8373 152.923 38.0682 152.774 38.3277C152.161 39.1055 151.582 40.0741 150.987 40.4958C149.274 41.6873 144.88 41.985 141.793 41.985C139.402 41.985 137.59 41.9194 136.365 41.5487C134.958 41.0853 134.818 39.471 134.818 36.8562V28.681H138.69C145.351 28.681 145.583 28.9728 146.361 33.4066H149.729V21.524H146.361C145.583 25.3548 145.351 25.6447 138.69 25.6447H134.818V15.9464C134.818 14.1763 134.959 13.8123 137.921 13.8123H139.22C143.349 13.8123 145.873 14.1101 147.122 14.9872C148.347 15.7895 149.208 17.56 149.985 20.0093L153.378 19.857C153.006 16.1169 152.608 12.4353 152.55 11.5582H115.861V13.1634C121.041 13.4811 121.653 14.1729 121.653 19.6255V36.2074C121.653 40.9901 121.182 41.8431 116.978 42.1741C116.233 41.8233 115.555 41.3797 114.843 40.8335C113.602 39.824 111.922 38.1192 109.332 35.4462C107.106 33.1458 104.285 29.6792 103.209 28.256C108.869 26.7997 113.089 24.1844 113.089 19.7665C113.089 16.7876 110.789 14.5447 107.735 13.287C104.74 12.0213 100.76 11.5582 94.7772 11.5582H71.3599C69.6802 9.37367 67.4214 7.48693 64.9722 6.04715C57.6243 1.69472 46.4123 0.0642412 32.9247 0.0642412H0.885357V2.66257C8.0346 3.08623 8.90338 3.57293 8.90338 10.8135V33.022C8.90338 40.2705 8.03474 41.1147 0.00012207 41.5285V43.787H28.3159C53.661 43.787 74.4136 36.5972 74.4136 19.8243C74.4136 17.4994 73.702 15.3146 72.5353 13.3036C76.1512 13.7008 76.6475 14.8262 76.6475 19.6255V36.2074C76.6475 41.6355 76.0188 42.3642 70.6072 42.6541V44.2508H94.7772V42.6541C89.5063 42.3628 88.8856 41.6355 88.8856 36.2074V30.1671H89.8953C91.3268 30.1671 92.4107 30.9451 93.1058 31.9877C95.0089 34.7931 97.1602 37.9123 99.4523 40.0723C102.53 43.0015 105.038 44.5152 115.927 44.6476C117.499 44.5814 118.484 44.3899 119.047 44.2508H163.473V42.6541L161.255 42.5216C157.763 42.2767 157.681 41.3793 158.748 39.2279L161.04 34.4127H173.535L176.273 39.5342C177.266 41.3215 177.118 42.2068 174.304 42.4796L172.012 42.6517V44.2484H205.64V42.6517C200.502 42.4134 198.755 41.5594 198.441 39.7224C198.118 38.1668 198.027 35.7591 198.283 31.4398L198.83 20.2691H198.995L213.509 43.6949H217.795L233.086 18.5148H233.401L233.641 36.2057C233.716 41.7749 233.5 42.3121 227.542 42.6517V44.2484H252.358V42.6517C246.648 42.3141 246.491 41.7749 246.234 36.2057L245.44 19.3673C245.267 14.8077 245.447 13.7736 249.404 13.3513L265.572 44.7373H273.946L288.526 17.0837H288.741L304.736 44.7373H313.126C316.254 37.9601 319.332 31.6136 322.03 26.21C321.99 26.68 321.955 27.1621 321.955 27.6168C321.955 36.7606 332.348 44.0585 348.375 44.0585C363.659 44.0585 375.261 37.4099 375.261 26.7853Z" fill="currentColor"/>
<path d="M99.841 88.5057L105.757 89.4075C106.378 89.4075 107.147 89.4074 108.041 89.3412C116.853 88.8183 124.706 85.2041 124.706 78.1786C124.706 74.6457 122.513 72.2542 119.145 70.6079C115.976 69.0854 111.649 68.3574 104.243 68.3574H81.2729V70.4172C86.2128 70.7151 86.8583 71.0879 86.8583 76.7556V94.0822C86.8583 99.7506 86.2126 100.115 80.8507 100.43V102.473H107.023V100.43C100.461 100.118 99.841 99.7506 99.841 94.0822V88.5057ZM99.841 72.8753C99.841 71.2535 100.014 70.9796 102.613 70.9796C106.146 70.9796 110.639 72.6767 110.639 78.1293C110.639 85.0635 105.757 86.3207 103.225 86.3207C101.967 86.3207 100.784 86.0894 99.841 85.8908V72.8753Z" fill="currentColor"/>
<path d="M142.489 76.7556C142.489 71.0879 143.125 70.7151 148.537 70.4172V68.3574H123.035V70.4172C128.471 70.7151 129.1 71.0879 129.1 76.7556V94.0822C129.1 99.7506 128.471 100.115 123.035 100.43V102.473H148.537V100.43C143.125 100.118 142.489 99.7506 142.489 94.0822V76.7556Z" fill="currentColor"/>
<path d="M191.987 78.0787C191.507 74.132 191.193 71.84 190.564 68.9273C188.363 68.6096 183.075 67.5625 176.538 67.5625C158.376 67.5625 145.625 75.026 145.625 85.8902C145.625 94.3468 153.957 103.267 175.132 103.267C180.411 103.267 187.494 102.174 189.455 101.794C190.804 99.7999 192.682 95.2819 193.725 92.1786L190.241 91.815C186.236 97.5992 182.297 100.528 175.438 100.528C167.345 100.528 160.254 94.3467 160.254 84.6741C160.254 77.1277 166.079 70.3091 175.521 70.3091C181.123 70.3091 186.012 71.9808 188.511 78.3688L191.987 78.0787Z" fill="currentColor"/>
<path d="M222.827 71.0869H224.705C228.495 71.0869 231.101 71.385 232.425 72.3362C233.617 73.2385 234.477 74.5955 235.644 77.7478L239.119 77.5886C238.73 73.7075 238.325 69.2392 238.242 67.0547H235.809C234.535 68.0476 234.163 68.3541 232.119 68.3541H200.7C198.574 68.3541 197.788 68.2615 196.621 67.0547H194.196C194.006 69.7191 193.551 73.3433 193.22 77.7454H196.538C197.548 74.7996 198.508 73.4518 199.434 72.674C200.7 71.7141 202.81 71.0845 208.114 71.0845H209.438V94.0796C209.438 99.748 208.809 100.113 202.504 100.427V102.47H230.067V100.427C223.455 100.116 222.827 99.748 222.827 94.0796V71.0869Z" fill="currentColor"/>
<path d="M238.449 68.3574V70.4172C243.968 70.7151 244.614 71.0879 244.614 76.7556V88.2245C244.614 94.3808 246.409 98.1788 250.58 100.43C254.452 102.572 259.814 103.267 265.457 103.267C270.968 103.267 276.967 101.836 280.426 99.3039C284.828 96.0768 286.102 91.2941 286.102 86.8007V82.7386C286.102 77.5918 286.417 74.7121 286.715 73.0903C287.128 71.2533 289.155 70.5085 292.945 70.4172V68.3574H273.028V70.4172C278.225 70.5562 280.351 71.2533 280.724 73.0903C281.047 74.7121 281.386 77.5918 281.386 82.7386V85.8908C281.386 94.5381 276.967 99.1633 268.932 99.1633C261.932 99.1633 257.977 94.9017 257.977 87.4625V76.7556C257.977 71.0879 258.622 70.7151 263.81 70.4172V68.3574H238.449Z" fill="currentColor"/>
<path d="M310.562 87.7933H311.58C313.086 87.7933 314.194 88.5547 314.898 89.6721C316.867 92.6092 319.06 95.8697 321.435 98.1204C324.571 101.157 327.177 102.746 338.331 102.886L341.732 102.959L341.889 101.089C339.911 100.685 338.662 99.9968 337.263 98.888C335.989 97.8454 334.235 96.0746 331.579 93.2857C329.303 90.8781 326.391 87.2541 325.282 85.7812C331.116 84.2587 335.435 81.5354 335.435 76.9103C335.435 73.8156 333.077 71.4407 329.924 70.1419C326.862 68.8345 322.766 68.3545 316.618 68.3545H292.059V70.4151C297.33 70.7129 297.968 71.085 297.968 76.7527V94.08C297.968 99.7485 297.331 100.113 291.737 100.427V102.47H316.618V100.427C311.182 100.116 310.562 99.7485 310.562 94.08V87.7933ZM310.562 73.2384C310.562 71.1367 310.801 70.9791 314.111 70.9791C317.165 70.9791 321.989 72.6757 321.989 77.6901C321.989 80.2631 320.806 82.7382 317.562 84.4342C316.073 85.1544 314.194 85.3109 311.662 85.3109H310.562V73.2384Z" fill="currentColor"/>
<path d="M347.789 94.0815C347.789 99.7499 347.152 100.114 341.111 100.429V102.472H381.168C381.855 101.049 383.51 95.7121 383.932 93.1304L380.448 92.7797C379.273 95.2786 377.933 97.2153 376.601 98.1751C374.863 99.4163 371.404 99.7468 368.243 99.7468C365.827 99.7468 364.007 99.681 362.757 99.2507C361.343 98.7939 361.185 97.4801 361.185 94.7409V86.1843H365.124C371.876 86.1843 372.108 86.5156 372.877 91.1329H376.361V78.721H372.877C372.108 82.7345 371.876 83.032 365.124 83.032H361.185V72.9118C361.185 71.0835 361.343 71.084 364.321 71.084H365.646C369.824 71.084 372.414 71.382 373.697 72.3001C374.93 73.1362 375.823 74.5924 376.601 77.1655L380.068 77.0329C379.654 73.0863 379.273 69.2386 379.191 68.3535H341.873V70.4133C347.152 70.7112 347.789 71.084 347.789 76.7517V94.0815Z" fill="currentColor"/>
<path d="M382.65 92.3529C383.585 95.8693 384.603 98.6909 385.232 101.091C386.183 101.415 387.846 101.835 390.205 102.365C392.315 102.835 395.559 103.267 398.695 103.267C410.891 103.267 418.694 98.5422 418.694 92.096C418.694 85.9562 412.472 83.2178 405.223 81.0578L403.494 80.5277C398.372 79.0634 395.393 77.4753 395.393 74.885C395.393 72.3364 398.231 70.3089 402.244 70.3089C408.475 70.3089 411.214 74.0161 412.935 77.4748L416.41 77.1241C415.558 73.5661 414.996 70.976 414.673 68.9239C413.647 68.7319 412.405 68.5131 410.577 68.1789C408.301 67.7751 405.794 67.5566 403.345 67.5566C390.983 67.5566 384.528 72.3894 384.528 78.3306C384.528 83.9407 391.769 86.7206 398.297 88.6568L399.48 89.0342C404.371 90.3992 407.358 92.2528 407.358 95.3395C407.358 98.7235 404.23 100.519 400.118 100.519C392.397 100.519 387.747 94.6855 386.1 91.6491L382.65 92.344" fill="currentColor"/>
<path d="M0.0167236 53.123H498.808V56.3262H0.0167236V53.123Z" fill="currentColor"/>
</g>
<defs>
<clipPath id="clip0_6_22">
<rect width="500" height="103.267" fill="white"/>
</clipPath>
</defs>
</svg>
