<svg width="496" height="496" viewBox="0 0 496 496" fill="none" xmlns="http://www.w3.org/2000/svg">
<g clip-path="url(#clip0_6_39)">
<path d="M63.9994 0C28.6537 0 0 28.6537 0 63.9994V431.996C0 467.341 28.6537 495.995 63.9994 495.995H431.996C467.341 495.995 495.995 467.341 495.995 431.996V63.9994C495.995 28.6537 467.341 0 431.996 0H63.9994ZM63.9994 31.9997H431.996C449.668 31.9997 463.995 46.3265 463.995 63.9994V431.996C463.995 449.668 449.668 463.995 431.996 463.995H63.9994C46.3265 463.995 31.9997 449.668 31.9997 431.996V63.9994C31.9997 46.3265 46.3265 31.9997 63.9994 31.9997Z" fill="currentColor"/>
<path d="M223.998 335.997V367.997H399.996V335.997H223.998ZM223.998 127.999V299.997H259.997V159.999H295.997V299.997H331.997V159.999H355.996C362.623 159.999 367.996 165.372 367.996 171.999V299.997H403.996V167.999C403.996 145.908 386.087 127.999 363.996 127.999H223.998ZM131.999 127.999C109.908 127.999 91.999 145.908 91.999 167.999V259.998C91.999 282.088 109.908 299.997 131.999 299.997H163.998V307.997C163.998 323.461 149.671 335.997 131.999 335.997H111.999V367.997H131.999C169.553 367.997 199.998 341.134 199.998 307.997V127.999H131.999ZM139.999 159.999H163.998V267.998H139.999C133.372 267.998 127.999 262.625 127.999 255.998V171.999C127.999 165.372 133.372 159.999 139.999 159.999Z" fill="currentColor"/>
</g>
<defs>
<clipPath id="clip0_6_39">
<rect width="496" height="496" fill="white"/>
</clipPath>
</defs>
</svg>
