<svg width="358" height="149" viewBox="0 0 358 149" fill="none" xmlns="http://www.w3.org/2000/svg">
<g clip-path="url(#clip0_11_44)">
<path d="M28.8 2.2002H0.700012V30.3002H28.8V2.2002Z" fill="currentColor"/>
<path d="M28.1 148.6V47.2996H1.40002V148.5H28.1V148.6ZM204.9 149.6V124.8C201 124.8 197.7 124.6 195.3 124.2C192.5 123.8 190.4 122.8 189 121.4C187.6 120 186.7 118 186.2 115.3C185.8 112.8 185.6 109.5 185.6 105.5V70.1996H204.9V47.2996H185.6V7.8996H158.9V105.8C158.9 114.1 159.6 121.1 161 126.7C162.4 132.2 164.8 136.7 168.1 140.1C171.4 143.5 175.8 145.9 181.1 147.4C186.5 148.9 193.3 149.6 201.4 149.6H204.9ZM357.7 148.6V0.0996094H331V148.6H357.7ZM133.2 57.2996C125.8 49.2996 115.4 45.2996 102.2 45.2996C95.8 45.2996 89.9 46.5996 84.7 49.1996C79.4 51.7996 75 55.3996 71.4 59.9996L70 61.8996V60.1996V47.2996H43.7V148.5H70.2V94.5996V98.3C70.2 97.7 70.2 97.1 70.2 96.4996C70.5 86.9996 72.8 79.9996 77.2 75.4996C81.9 70.6996 87.6 68.2996 94.1 68.2996C101.8 68.2996 107.7 70.6996 111.6 75.2996C115.4 79.8996 117.4 86.3996 117.4 94.6996V94.9996V148.5H144.3V91.0996C144.4 76.6996 140.6 65.2996 133.2 57.2996ZM317.2 97.8C317.2 90.4996 315.9 83.6996 313.4 77.2996C310.8 70.9996 307.2 65.3996 302.7 60.5996C298.1 55.7996 292.6 52.0996 286.2 49.3996C279.8 46.6996 272.7 45.3996 265 45.3996C257.7 45.3996 250.8 46.7996 244.4 49.4996C238 52.2996 232.4 55.9996 227.7 60.6996C223 65.3996 219.2 70.9996 216.5 77.3996C213.7 83.7996 212.4 90.6996 212.4 98C212.4 105.3 213.7 112.2 216.3 118.6C218.9 125 222.6 130.6 227.2 135.3C231.8 140 237.5 143.8 244.1 146.5C250.7 149.3 258 150.7 265.8 150.7C288.4 150.7 302.4 140.4 310.8 130.8L291.6 116.2C287.6 121 278 127.5 266 127.5C258.5 127.5 252.3 125.8 247.6 122.3C242.9 118.9 239.7 114.1 238 108.2L237.7 107.3H317.2V97.8ZM237.9 88.4996C237.9 81.0996 246.4 68.1996 264.7 68.0996C283 68.0996 291.6 80.9996 291.6 88.3996L237.9 88.4996Z" fill="currentColor"/>
</g>
<defs>
<clipPath id="clip0_11_44">
<rect width="358" height="149" fill="white"/>
</clipPath>
</defs>
</svg>
