<svg width="1874" height="182" viewBox="0 0 1874 182" fill="none" xmlns="http://www.w3.org/2000/svg">
<g clip-path="url(#clip0_14_112)">
<path d="M-143.009 90.4912V-142.009H936.991H2016.99V90.4912V322.991H936.991H-143.009V90.4912ZM2010.99 90.9912V-136.009L936.741 -136.009L-137.509 -136.009L-137.254 90.9912L-137 317.991H936.995H2010.99V90.9912ZM1059.99 181.409C1058.62 181.167 1054.79 180.492 1051.49 179.91C1043.06 178.425 1033.85 175.502 1026.43 171.962C1020.09 168.934 1005.49 158.57 1005.49 157.093C1005.49 156.663 1010.36 152.207 1016.31 147.193L1027.12 138.075L1032.59 142.532C1041.85 150.072 1049.71 153.167 1064.45 155.075C1074.27 156.346 1088.68 155.685 1096.58 153.598C1108.03 150.576 1112.99 145.738 1112.99 137.589C1112.99 133.429 1112.52 131.899 1110.73 130.213C1106.22 125.974 1101.24 124.859 1078.09 122.892C1065.7 121.84 1052.63 120.259 1049.03 119.379C1025.26 113.561 1012.7 97.0622 1016.06 76.0569C1018.07 63.5082 1026.78 52.8419 1040.26 46.4403C1051.18 41.2546 1060.02 39.6163 1076.99 39.6334C1093.59 39.6501 1104.99 41.5205 1117.47 46.2754C1125.54 49.3471 1139.99 57.4718 1139.99 58.9344C1139.99 59.5812 1127.95 70.1677 1120.74 75.853C1119.24 77.038 1117.94 76.6853 1110.75 73.135C1099.58 67.6164 1091.03 65.7221 1076.99 65.6537C1062.43 65.5828 1055.23 67.5151 1049.79 72.9612C1046.43 76.3206 1045.99 77.3175 1045.99 81.6511C1045.99 91.8883 1051.42 94.3098 1079.27 96.4904C1089.84 97.3181 1101.62 98.5008 1105.45 99.1187C1130.98 103.241 1143.23 115.494 1143.32 136.991C1143.36 148.404 1140.78 155.01 1133 163.319C1121.52 175.595 1105.71 180.915 1078.99 181.493C1069.92 181.69 1061.37 181.652 1059.99 181.409ZM1249.39 180.601C1238.97 178.897 1228.14 175.592 1220.53 171.789C1214.12 168.592 1199.99 158.501 1199.99 157.127C1199.99 156.678 1203.48 153.385 1207.74 149.81C1212 146.234 1216.88 142.136 1218.57 140.703L1221.65 138.096L1226.56 142.148C1238.3 151.853 1249.91 155.348 1270.49 155.378C1296.05 155.417 1307.98 149.625 1307.99 137.164C1307.99 133.745 1307.4 132.244 1305.16 130.009C1300.73 125.577 1297.16 124.907 1262.14 121.938C1234.99 119.637 1220.97 112.811 1213.9 98.4582C1205.56 81.5238 1211.2 61.6585 1227.49 50.5219C1251.41 34.175 1299.46 35.9437 1328.29 54.2321C1331.97 56.572 1334.99 58.7195 1334.99 59.0045C1334.99 59.801 1314.16 76.9912 1313.2 76.9912C1312.73 76.9912 1309.84 75.6336 1306.78 73.9743C1289.35 64.5369 1264.37 62.5521 1249.38 69.4146C1242.93 72.3654 1240.49 75.8545 1240.49 82.1167C1240.49 91.8978 1246.31 94.3613 1274.49 96.5236C1297.05 98.2542 1305.59 99.528 1312.99 102.268C1324.09 106.376 1330.46 111.833 1334.85 120.991C1337.19 125.859 1337.49 127.7 1337.49 137.012C1337.49 146.881 1337.29 147.946 1334.21 154.197C1328.47 165.868 1316.1 174.482 1298.49 179.083C1288.22 181.766 1261.56 182.591 1249.39 180.601ZM0.657883 180.325C0.291213 179.958 -0.00878906 148.458 -0.00878906 110.325V40.9912H15.4912H30.9912V110.991V180.991H16.1579C7.99954 180.991 1.02454 180.691 0.657883 180.325ZM117.991 111.017V40.9912H133.491H148.991V44.5115V48.0319L153.241 45.8549C167.262 38.6732 193.583 37.1845 209.864 42.6524C224.344 47.5152 237.008 57.8635 242.316 69.1687C247.305 79.7961 247.491 82.0916 247.491 132.991V180.491L232.241 180.767L216.991 181.043L216.979 135.767C216.966 86.2008 216.651 82.92 211.247 76.0866C209.684 74.1091 205.736 71.1489 202.475 69.5082C197.279 66.8944 195.26 66.4776 186.155 66.1406C168.645 65.4924 158.199 69.6771 152.308 79.6991L149.491 84.4912L148.991 132.491L148.491 180.491L133.241 180.767L117.991 181.043V111.017ZM371.147 179.93C363.403 178.907 353.653 174.488 348.128 169.495C342.899 164.772 338.154 155.179 336.96 146.916C336.449 143.382 336.022 123.504 336.011 102.741L335.991 64.9912H325.991H315.991V52.9912V40.9912H325.991H335.991V20.9912V0.991211H351.491H366.991V20.9912V40.9912H383.991H400.991V52.9912V64.9912H383.991H366.991V105.041C366.991 149.585 367.028 149.855 373.526 152.57C375.827 153.532 380.826 153.991 388.988 153.991H401.049L400.77 167.241L400.491 180.491L388.991 180.629C382.666 180.705 374.636 180.39 371.147 179.93ZM474.991 111.017V40.9912H490.498H506.005L505.748 110.741L505.491 180.491L490.241 180.767L474.991 181.043V111.017ZM592.991 110.991V40.9912H607.991H622.991V44.4362V47.8811L628.241 45.5715C645.47 37.992 668.458 37.2396 686.31 43.671C693.914 46.4103 702.232 51.28 705.396 54.845C707.902 57.6678 708.419 57.5876 713.323 53.6137C719.243 48.8166 728.207 44.4496 737.491 41.8394C747.735 38.9594 767.722 38.7132 778.391 41.3358C798.64 46.3133 812.679 58.653 818.252 76.3712C820.442 83.3358 820.491 84.5499 820.491 131.991V180.491L805.812 180.768L791.132 181.044L790.758 134.268C790.339 82.0111 790.301 81.7061 783.285 74.4822C776.85 67.856 772.41 66.5083 756.991 66.5013C745.014 66.4959 742.927 66.7546 738.491 68.7944C732.501 71.5489 727.594 76.0512 724.654 81.4912C722.536 85.4091 722.485 86.472 722.204 133.241L721.918 180.991H707.025H692.132L691.757 134.241C691.335 81.535 691.341 81.5761 683.782 74.0171C677.743 67.9782 669.222 65.6442 655.202 66.1884C642.723 66.6728 636.461 68.8731 630.683 74.803C623.359 82.3189 623.526 81.0096 623.196 133.741L622.9 180.991H607.946H592.991V110.991ZM905.991 110.991V40.9912H920.991H935.991V110.991V180.991H920.991H905.991V110.991ZM1412.99 110.991V40.9912H1427.99H1442.99V110.991V180.991H1427.99H1412.99V110.991ZM1529.99 111.017V40.9912H1545.49H1560.99V44.5115V48.0319L1564.92 46.0285C1578.23 39.2363 1602.52 37.3409 1618.49 41.8474C1627.24 44.3169 1635.16 48.3459 1641.73 53.6702L1645.97 57.1075L1652.55 52.4118C1659.84 47.2111 1669.61 42.8822 1678.6 40.8775C1688.25 38.7238 1708.05 39.2012 1717.29 41.8103C1738.31 47.7456 1751.71 60.3066 1756.46 78.5328C1757.73 83.4187 1757.99 92.5659 1757.99 132.701V180.991H1742.99H1727.99V135.173C1727.99 84.0104 1727.78 82.0849 1721.43 75.0512C1716.01 69.051 1709.43 66.6795 1696.86 66.1912C1680.04 65.5375 1669.03 69.9587 1663.33 79.6636L1660.49 84.4912L1659.99 132.491L1659.49 180.491L1644.24 180.767L1628.99 181.043V135.199C1628.99 84.0078 1628.78 82.0854 1622.43 75.0512C1617.01 69.051 1610.43 66.6795 1597.86 66.1912C1579.21 65.4664 1568.42 70.6155 1562.65 82.9912C1561.85 84.7307 1561.34 99.9402 1560.99 132.991L1560.49 180.491L1545.24 180.767L1529.99 181.043V111.017ZM1843.99 110.991V40.9912H1858.99H1873.99V110.991V180.991H1858.99H1843.99V110.991Z" fill="currentColor"/>
</g>
<defs>
<clipPath id="clip0_14_112">
<rect width="1874" height="182" fill="white"/>
</clipPath>
</defs>
</svg>
