<svg width="426" height="287" viewBox="0 0 426 287" fill="none" xmlns="http://www.w3.org/2000/svg">
<g clip-path="url(#clip0_17_198)">
<mask id="mask0_17_198" style="mask-type:luminance" maskUnits="userSpaceOnUse" x="0" y="0" width="426" height="327">
<path d="M426 0H0V327H426V0Z" fill="white"/>
</mask>
<g mask="url(#mask0_17_198)">
<path d="M136.22 173.719V287.234L155.363 272.805V193.058L136.22 173.719Z" fill="currentColor"/>
<path d="M177.348 200.227L202.276 194.533L212.344 186.28V171.316L177.348 200.227Z" fill="currentColor"/>
<path d="M174.218 19.7041L139 3.47266L170.836 39.1479L182.889 27.2518L174.218 19.7041Z" fill="currentColor"/>
<path d="M417.627 38.0257C414.414 35.8319 408.656 34.735 402.962 35.2312C397.543 35.6883 393.939 38.3391 390.975 40.7941C391.014 40.7679 383.257 48.4462 383.257 48.4462L381.181 51.763C381.155 51.8022 374.26 60.4206 374.26 60.4206L374.182 60.512V12.7188L353.027 0L353.04 86.8114L352.766 87.2292L347.7 93.1838V0H216.934L170.421 46.2785L129.104 0H0.12793V286.916H131.298V160.525L169.911 200.353L217.326 159.938V286.916H347.726L347.713 165.84C348.731 164.103 349.567 162.719 349.567 162.719C349.58 162.68 350.677 161.1 350.677 161.1C350.742 161.021 351.852 159.245 353.067 157.313L353.08 286.916L374.182 272.343V119.47C375.109 118.086 376.493 116.023 376.493 116.023C376.689 115.696 379.745 111.126 379.745 111.126L384.602 103.983C384.655 103.865 386.457 101.58 386.457 101.58L390.949 95.2209C391.837 93.1707 394.37 91.8127 395.336 91.3034L395.793 91.0553L396.407 90.6113L398.744 88.2478C398.784 88.1955 402.805 84.8004 402.805 84.8004L409.674 81.6011L416.086 78.0754C416.112 78.0623 421.962 70.8542 421.962 70.8542L425.083 61.1649L425.997 51.776C425.801 47.0098 422.197 41.1075 417.627 38.0257ZM260.497 116.062C260.64 116.976 261.136 125.464 261.11 126.861C261.084 131.066 261.371 135.701 261.241 137.569C261.136 138.992 261.332 143.902 261.332 143.902C261.685 147.78 262.521 152.024 262.599 152.782C262.769 154.766 262.024 162.301 262.246 164.012C262.272 164.364 262.886 167.511 262.756 168.256C262.416 170.214 262.991 172.578 262.925 173.466C262.821 175.02 262.756 176.796 262.703 178.689C262.599 181.497 262.508 184.396 262.246 186.929C262.168 187.569 262.259 191.996 262.259 191.996C261.75 196.448 261.202 201.045 261.959 205.654C262.103 206.582 261.92 209.624 261.998 210.16C262.116 210.852 263.095 214.43 263.239 215.213C263.448 216.388 263.892 221.834 264.479 223.087C265.054 224.354 267.391 229.904 267.6 230.57C268.292 232.672 269.35 237.739 268.397 240.324C267.496 242.766 266.138 248.577 265.184 250.026C264.362 251.293 263.121 252.037 262.534 252.951C261.972 253.8 260.862 254.584 259.935 254.949C257.062 256.072 251.97 256.856 247.556 255.511C245.767 254.976 243.064 255.145 240.021 253.304C237.54 251.802 236.691 247.689 236.339 245.482C236.169 244.451 236.469 241.695 236.404 241.264C236.326 240.638 235.386 236.563 235.386 235.258C235.372 234.605 235.608 231.849 235.307 230.034C234.929 227.697 233.792 223.897 233.792 223.897C233.479 222.343 232.643 218.974 232.604 218.869C231.703 216.349 231.259 213.894 230.998 211.805C230.515 207.966 231.468 204.767 232.317 201.933C232.8 200.301 233.257 198.773 233.453 197.232C233.584 196.122 232.722 190.859 232.891 189.097C232.944 188.378 233.531 186.093 233.557 185.793C233.779 184.304 233.832 180.335 233.845 179.721C233.858 178.924 234.393 175.581 234.328 172.121C234.302 170.763 234.158 169.353 234.328 167.929C234.498 166.414 234.628 162.549 234.341 160.76C233.884 158.031 234.067 155.589 234.054 155.472C233.858 152.612 233.688 149.608 233.858 147.049C233.884 146.644 233.388 142.309 233.375 140.964C233.348 140.115 233.296 134.8 233.244 134.174C232.108 120.946 230.319 118.412 229.601 117.929C228.883 117.459 226.937 117.485 225.827 118.007C224.978 118.399 222.771 120.319 220.904 121.324C219.076 122.291 215.668 123.91 214.505 124.772C213.16 125.79 210.954 127.501 206.657 129.851C205.574 130.439 204.751 131.444 203.771 132.332C202.348 133.586 199.684 136.276 195.375 138.457C193.26 139.514 191.379 140.755 189.864 142.231C189.238 142.857 186.926 146.723 185.438 148.172C183.988 149.556 183.074 151.502 182.813 152.103C182.056 153.722 181.233 155.537 179.64 156.725C177.172 158.566 171.792 158.906 168.54 157.548C166.464 156.686 162.325 153.905 160.523 149.086C158.707 144.281 160.222 138.117 163.813 134.121C166.177 131.497 169.859 130.439 173.437 129.433C175.644 128.807 177.746 128.206 179.366 127.305C180.162 126.861 182.709 124.954 183.244 124.602C184.054 124.066 186.939 122.669 187.501 122.304C188.023 121.951 191.066 119.3 193.103 118.151C196.472 116.271 199.149 114.756 200.729 113.764C200.729 113.764 205.365 111.152 208.368 108.305C209.047 107.652 211.933 106.581 215.093 104.792C215.89 104.335 219.193 103.225 220.029 102.86C220.604 102.586 222.902 100.901 223.581 100.549C226.545 99.0078 228.034 97.1666 227.198 92.5831C226.898 90.99 226.415 89.3708 226.584 87.4512C226.636 86.9811 227.316 84.0952 228.412 82.1104C228.961 81.0918 229.823 81.1179 230.306 80.1777C230.789 79.2114 232.487 78.4018 233.61 78.1146C234.393 77.3572 236.012 76.5476 237.906 76.2211C242.058 75.529 247.399 78.5716 248.17 78.7283C249.632 79.0548 252.113 78.8328 253.419 78.4541C253.68 78.4018 255.378 77.2919 256.005 77.0568C256.84 76.7434 259.517 76.0122 260.066 75.8163C260.888 75.529 264.701 73.5311 265.668 73.1655C266.66 72.7868 268.958 72.3688 270.094 72.1077C271.909 70.8149 275.318 69.705 276.624 68.582C278.099 67.2893 280.097 64.1945 280.515 63.646C281.285 62.6275 285.046 60.0942 285.582 59.6894C286.809 58.7231 289.617 56.7513 291.523 56.2028C292.437 55.9416 295.114 56.4901 296.746 56.477C298.574 56.477 301.134 56.5815 303.067 59.5065C304.033 60.9821 305.652 62.4838 306.07 64.5209C307.324 70.8803 302.57 77.1873 298.966 79.4333C298.601 79.6553 296.851 80.1647 295.78 80.5173C294.278 81.0135 292.75 82.1104 291.732 82.3846C289.708 82.92 288.715 84.3303 287.88 84.7743C287.057 85.2052 284.263 86.9289 283.362 87.4251C282.67 87.7907 281.533 89.41 279.483 90.0106C278.099 90.4285 275.213 91.2512 272.915 93.2752C271.962 94.1109 268.083 94.9075 266.973 95.1556C266.556 95.2601 261.607 97.3494 261.11 100.248C260.588 103.291 261.019 104.1 260.444 108.462C260.092 111.178 260.275 114.377 260.497 116.062ZM421.727 60.4598C421.348 62.2357 420.356 66.6233 418.946 69.1958C418.332 70.3318 415.89 73.9359 414.036 75.3201C412.234 76.652 409.622 77.9709 408.525 78.3627C407.506 78.7283 402.518 81.0527 401.173 81.7709C398.757 83.0767 397.465 84.5392 396.198 85.9365C395.545 86.6677 394.905 87.3468 394.135 88.0258C393.834 88.287 389.408 90.102 387.802 93.8498C386.822 96.1219 382.408 100.836 381.664 102.194C380.567 104.153 378.948 107.104 377.329 108.684C376.846 109.154 376.323 109.872 375.775 110.708C375.266 111.465 374.743 112.314 374.182 113.241C374.025 113.489 373.895 113.698 373.738 113.946C372.693 115.67 371.518 117.629 370.839 118.347C369.154 120.162 368.175 122.513 367.378 124.432C367.065 125.176 364.297 129.133 363.252 131.888C362.795 133.129 360.392 137.151 360.131 137.765C359.622 139.057 356.527 142.061 356.227 142.648C355.783 143.549 355.378 144.777 354.96 146.057C354.594 147.219 353.641 149.504 353.315 150.392C352.91 151.058 352.388 151.907 351.839 152.808C351.813 152.847 351.8 152.873 351.774 152.899C351.369 153.565 350.964 154.231 350.533 154.923C349.567 156.49 348.588 158.031 347.948 159.023C347.517 159.572 347.086 160.212 346.707 160.786C346.093 161.687 341.601 169.353 340.57 171.181C340.113 172.016 339.551 172.852 338.977 173.727C337.606 175.777 336.195 177.88 335.516 180.478C335.085 182.097 333.845 184.774 333.753 185.009C331.991 189.345 331.312 194.007 331.129 195.325C330.854 197.48 330.92 199.661 331.011 201.75C331.103 204.009 331.181 206.151 330.815 208.044C330.136 211.557 328.765 215.017 326.95 217.786C326.467 218.543 324.756 220.88 322.732 222.761C321.257 224.132 318.841 224.693 314.414 224.733C308.42 224.759 305.848 222.539 302.662 217.851C302.139 217.094 301.121 215.122 299.88 212.471C298.287 209.089 296.981 205.994 295.845 201.92C295.493 200.692 294.997 199.334 294.539 198.015C294.017 196.579 292.894 192.531 292.803 191.865C292.698 191.199 291.288 186.485 291.197 186.028C290.648 183.142 289.891 180.465 289.146 177.88C288.389 175.216 287.671 172.695 287.227 170.097C286.796 167.603 285.464 163.568 284.485 160.643C284.485 160.643 282.604 154.675 282.004 152.547C281.181 149.661 278.491 141.695 278.491 141.695C277.485 138.979 275.109 132.607 274.939 131.588C273.529 123.309 273.542 116.636 275.03 113.724C275.696 112.392 277.982 111.126 279.823 110.107C280.437 109.755 283.466 107.796 284.119 107.626C285.999 107.117 289.146 106.96 291.797 107.234C292.15 107.274 295.401 107.3 296.577 108.135C300.951 111.178 301.264 115.109 301.839 122.251C301.839 122.251 302.596 129.93 302.962 132.816C303.223 134.944 303.51 137.151 303.732 139.332C303.876 140.833 303.954 142.479 304.02 144.059C304.137 146.918 305.117 152.377 305.117 152.377C306.096 155.654 307.036 158.775 310.875 160.395C311.92 160.825 313.108 160.747 314.231 160.12C316.856 158.723 319.246 154.466 320.16 149.556C320.212 149.282 320.604 148.72 320.982 148.172C321.897 146.905 323.137 145.156 323.777 142.283C323.973 141.565 325.736 139.136 326.78 137.686C327.851 136.211 328.844 134.826 329.431 133.782C329.627 133.429 333.988 126.626 333.988 126.626C333.988 126.626 335.673 122.878 336.391 121.481C337.109 120.058 337.736 118.36 337.801 118.073C338.154 116.61 338.872 113.542 340.309 111.844C342.267 109.533 344.396 104.335 344.5 104.113C344.97 103.225 346.25 101.019 347.438 99.0731C347.504 98.9947 347.621 98.825 347.7 98.7205V98.7074C347.726 98.6813 347.765 98.6291 347.791 98.603C348.313 97.9109 348.992 96.9968 349.515 96.37L353.276 91.9171C354.046 91.0814 354.816 90.2196 355.508 89.2794C356.24 88.3131 357.794 86.0279 359.165 84.0038C360.001 82.7372 362.416 79.5901 363.161 78.8067C363.892 78.0493 369.376 70.6713 370.225 69.5483C370.578 69.0913 372.824 66.8061 374.182 65.435L374.195 65.4089C376.075 63.5154 376.767 62.8233 377.015 62.4969C378.112 61.0213 379.301 59.5849 380.45 58.1877C381.599 56.7904 382.774 55.3671 383.897 53.8654C384.393 53.2386 385.66 50.9665 386 50.5225C387.188 48.9555 392.999 43.5885 393.169 43.4449C395.872 41.2119 398.862 39.0312 403.249 38.6525C408.055 38.2346 413.174 39.1487 415.707 40.8724C419.337 43.3143 422.406 48.2764 422.563 51.9197C422.719 55.4193 422.458 56.8427 421.727 60.4598Z" fill="currentColor"/>
</g>
</g>
<defs>
<clipPath id="clip0_17_198">
<rect width="426" height="287" fill="white"/>
</clipPath>
</defs>
</svg>
