<svg width="1000" height="116" viewBox="0 0 1000 116" fill="none" xmlns="http://www.w3.org/2000/svg">
<g clip-path="url(#clip0_18_222)">
<path d="M582.748 91.4975C581.954 91.6959 578.78 91.696 577.391 91.696H475.01V115.506H579.177C579.97 115.506 586.121 115.506 587.312 115.307C608.542 113.323 618.264 95.6642 618.264 80.188C618.264 64.3149 608.145 47.2513 588.899 45.4656C585.129 45.0688 581.954 45.0688 580.566 45.0688H512.51C509.533 45.0688 506.16 44.8704 504.97 44.4736C499.613 43.0847 497.629 38.3227 497.629 34.3545C497.629 30.783 499.613 26.0211 505.168 24.4338C506.756 24.037 508.541 23.8386 512.311 23.8386H610.526V0.425781H510.724C506.557 0.425781 503.383 0.624201 500.803 1.02103C483.74 3.40199 471.835 17.0925 471.835 34.5529C471.835 48.8387 480.764 65.5054 500.406 68.2832C503.978 68.68 508.938 68.68 511.121 68.68H577.391C578.581 68.68 581.558 68.68 582.153 68.8784C589.693 69.8705 592.272 75.4261 592.272 80.3864C592.272 85.1483 589.296 90.3071 582.748 91.4975Z" fill="currentColor"/>
<path d="M388.7 91.4975C387.907 91.6959 384.732 91.696 383.541 91.696H280.962V115.506H385.129C385.922 115.506 392.073 115.506 393.264 115.307C414.494 113.323 424.216 95.6642 424.216 80.188C424.216 64.3149 414.097 47.2513 394.851 45.4656C391.081 45.0688 387.907 45.0688 386.518 45.0688H318.462C315.486 45.0688 312.113 44.8704 310.922 44.4736C305.565 43.0847 303.581 38.3227 303.581 34.3545C303.581 30.783 305.565 26.0211 311.121 24.4338C312.708 24.037 314.494 23.8386 318.263 23.8386H416.478V0.425781H316.676C312.509 0.425781 309.335 0.624201 306.755 1.02103C289.692 3.40199 277.787 17.0925 277.787 34.5529C277.787 48.8387 286.716 65.5054 306.359 68.2832C309.93 68.68 314.89 68.68 317.073 68.68H383.343C384.534 68.68 387.51 68.68 388.105 68.8784C395.645 69.8705 398.224 75.4261 398.224 80.3864C398.224 85.1483 395.446 90.3071 388.7 91.4975Z" fill="currentColor"/>
<path d="M227.588 -0.367188H201.794V116.102H227.588V-0.367188Z" fill="currentColor"/>
<path d="M144.85 116.102V-0.367188H119.056V86.5379L33.1429 -0.367188H0.0078125V116.102H25.8016V28.7996L112.31 116.102H144.85Z" fill="currentColor"/>
<path d="M974.416 -0.367188V86.5379L888.503 -0.367188H855.368V116.102H881.162V28.7996L967.472 116.102H1000.01V-0.367188H974.416Z" fill="currentColor"/>
<path d="M721.042 -0.367188L648.423 116.102H679.772L692.669 95.2681H777.392L790.288 116.102H821.439L748.82 -0.367188H721.042ZM764.098 73.2442H705.963L735.13 26.4186L764.098 73.2442Z" fill="currentColor"/>
</g>
<defs>
<clipPath id="clip0_18_222">
<rect width="1000" height="116" fill="white"/>
</clipPath>
</defs>
</svg>
