<svg viewBox="0 0 886 181" fill="none" xmlns="http://www.w3.org/2000/svg">
<path fill-rule="evenodd" clip-rule="evenodd" d="M64.7113 158.694C74.5627 159.984 84.5169 160.83 94.3089 161.829L97.1456 173.792C80.7745 172.766 63.9849 172.527 47.5284 172.527C31.8581 172.527 15.8802 172.706 0.235481 173.792L2.49115 161.855C10.7279 160.804 18.9817 160.103 27.2698 158.779C28.0217 144.339 28.15 99.4045 28.15 78.9663V69.5932C28.15 62.6295 28.0217 25.5811 27.2698 13.7645C19.0416 12.0471 10.4802 11.6881 2.16658 10.9362L0.474655 -0.7014L59.1316 -0.914707C84.8759 -0.914707 107.271 1.13581 119.54 6.14285C142.174 15.5758 144.831 31.4598 144.831 38.3891C144.831 79.5644 104.468 98.345 69.325 103.232L70.7948 90.3903C92.0787 85.0842 107.604 73.2074 107.604 46.9249C107.604 33.7495 101.119 23.257 90.4552 17.9509C84.1495 14.8495 74.1099 13.4311 64.6769 13.132C63.9849 23.8636 63.8056 52.3508 63.8056 70.2512V80.2309C63.8056 98.5587 63.9849 145.792 64.7113 158.694ZM234.052 158.813C242.16 160.257 250.448 161.009 258.523 161.829L261.394 173.945C244.689 172.348 226.934 172.527 210.298 172.527C196.585 172.527 182.751 172.946 169.183 173.792L171.473 161.676C179.641 161.257 187.989 160.103 196.072 158.719C196.918 145.364 197.157 106.334 197.157 84.9304V71.0031C197.157 63.8343 196.918 26.1877 196.192 13.9778C187.989 12.7391 179.88 11.8075 171.746 10.9362L168.909 -1.24813C185.639 0.563206 203.813 0.264151 220.423 0.264151C233.958 0.264151 248.004 0.290017 261.513 -1.27364L258.523 10.9362C250.354 11.8075 242.16 13.1664 234.018 14.2173C233.419 22.4796 233.146 46.3527 233.146 72.2418V86.8016C233.146 114.861 233.419 149.227 234.052 158.813ZM404.325 133.402C391.731 118.51 380.965 104.856 374.821 97.5588C366.439 108.897 345.822 141.272 336.534 159.232C342.327 160.317 348.111 161.257 353.99 161.855L355.648 173.459H351.7C347.932 173.459 327.767 172.527 314.233 172.527C303.92 172.527 293.855 173.065 283.516 173.885L287.524 161.855C292.77 161.103 298.494 160.556 303.408 158.694C313.481 151.91 354.016 98.1912 364.688 84.5116C356.493 74.0191 345.463 59.5536 335.03 46.1046C324.333 32.4253 314.378 19.9164 309.047 14.1231C303.647 12.4655 297.982 11.748 292.496 10.6882L290.779 -1.4873C303.775 0.68297 318.146 0.264151 331.023 0.264151C345.822 0.264151 360.715 -0.282581 375.513 -0.914707L372.044 10.9362C366.26 11.5684 360.467 12.2862 354.716 13.4056C361.227 23.8636 378.461 49.3003 385.997 59.3998C394.02 48.5229 410.084 25.4617 417.081 13.3117L412.92 12.4655C409.417 11.8334 405.957 11.2952 402.582 10.7825L400.257 -1.09435C412.587 -0.0689198 425.036 0.264151 437.511 0.264151C446.978 0.264151 456.445 -0.282581 465.912 -1.09435L464.793 10.5089C459.214 11.9528 453.643 12.9782 447.969 14.3711L446.047 16.2934C437.784 24.0174 430.308 32.6985 422.866 41.1064C411.955 53.4616 400.77 66.4829 395.678 72.5154C421.841 108.325 447.465 144.732 474.32 179.909L455.24 183.677C436.546 169.545 419.491 151.004 404.325 133.402ZM620.265 159.052C613.096 138.162 606.73 116.314 597.87 96.021C587.446 96.2346 558.566 97.5588 548.074 98.738C545.365 107.299 535.744 141.537 532.822 159.052C539.187 160.531 545.784 161.103 552.269 161.829L554.559 173.792C540.537 172.946 526.345 172.527 512.384 172.527C501.866 172.527 491.313 172.946 480.889 173.885L482.572 161.829C489.69 161.103 496.654 160.138 503.643 158.694C512.896 140.452 551.816 35.766 560.189 13.3117C554.379 12.1665 548.586 11.5684 542.768 10.8679L542.289 -1.00045C554.345 -0.188683 566.64 0.264151 578.791 0.264151C594.316 0.264151 610.046 0.0848601 625.425 -1.00045L623.699 10.8679C618.154 11.5085 612.549 12.1665 607.098 13.4056C611.284 26.8801 622.615 59.4338 630.817 81.8286C637.234 99.6096 651.221 137.649 661.953 158.694C669.156 160.103 676.298 161.009 683.536 161.949L685.287 174.21C671.087 171.835 653.844 172.527 639.737 172.527C625.058 172.527 609.986 172.706 595.307 173.885L598.143 161.77C605.585 161.103 612.908 160.471 620.265 159.052ZM727.429 13.9778C719.193 12.7731 710.64 12.1665 702.343 11.4745L700.686 -0.282581L757.838 -0.521754C780.02 -0.521754 811.13 -0.28258 827.979 6.40754C841.454 11.748 850.434 21.7192 850.434 36.5264C850.434 52.496 833.678 71.7635 816.162 82.5206C832.832 110.7 864.694 154.866 886.064 177.5L865.719 180.243C848.751 172.433 796.604 113.323 781.618 95.2092C775.107 95.696 768.417 96.2346 763.956 96.3884V99.1568C763.956 113.357 764.349 145.758 764.982 158.993C773.005 160.317 781.259 161.103 789.402 161.829L791.691 173.885C776.893 172.681 761.607 172.527 746.808 172.527C731.496 172.527 715.613 172.527 700.361 173.885L702.616 161.77C710.879 161.103 719.321 160.377 727.361 158.813C728.087 147.082 728.361 106.454 728.361 83.7257V69.3197C728.361 61.3564 728.087 24.1032 727.429 13.9778ZM573.971 24.949C567.153 43.7551 557.601 69.7126 553.678 81.1026L593.469 81.8286C588.557 67.1494 579.209 40.739 573.971 24.949ZM788.069 77.9069C797.57 74.4121 812.727 64.4069 812.727 43.1569C812.727 31.1607 802.175 14.1231 764.956 13.132C764.349 26.7858 763.956 63.1423 763.956 78.3597V82.1277C771.433 81.914 779.721 80.9828 788.069 77.9069Z" fill="currentColor"/>
</svg>
