<svg width="140" height="16" viewBox="0 0 140 16" fill="none" xmlns="http://www.w3.org/2000/svg">
<g clip-path="url(#clip0_15_190)">
<g clip-path="url(#clip1_15_190)">
<path fill-rule="evenodd" clip-rule="evenodd" d="M25.4747 0.148L17.2777 15.998H22.7567L24.0667 13.099H30.1567L30.6787 15.999H36.1567L32.9907 0.149H25.4747V0.148ZM25.4287 10.066L28.8027 3.411H28.8487L29.8657 10.066H25.4287ZM45.2167 0.148H39.9397L37.5617 15.997H50.6507L51.1937 12.193H43.3817L45.2167 0.148ZM89.6387 0.148L84.5687 12.036H84.5227L83.1187 0.148H76.3927L70.5307 15.997H75.6917L79.5397 4.56H79.5857L80.8077 15.996H87.0577L91.8137 4.833H91.8567L92.6497 15.996H97.9247L96.5447 0.148H89.6387ZM135.244 0.148L133.456 11.763H133.412L128.386 0.148H121.252L118.876 15.997H123.901L125.44 4.63H125.486L130.242 15.996H137.622L140 0.148H135.244ZM71.4997 5.775C71.9517 3.33 71.2817 1.858 69.8467 0.998C68.4127 0.138 66.2007 0.002 63.5517 0.002C60.9027 0.002 58.6387 0.138 56.8717 0.998C55.1057 1.858 53.8857 3.338 53.4317 5.775L52.5917 10.361C52.1407 12.804 52.8117 14.254 54.2697 15.114C55.7277 15.974 57.9137 16.134 60.5627 16.134C63.2107 16.134 65.5217 15.974 67.2657 15.114C69.0107 14.254 70.2097 12.804 70.6617 10.361L71.4997 5.775ZM66.1327 6.212L65.3857 10.04C64.8877 12.553 63.8247 12.8 61.0847 12.8C58.3447 12.8 57.3487 12.582 57.8457 10.04L58.6037 6.212C59.1037 3.699 60.2567 3.472 62.9057 3.472C65.7027 3.474 66.6087 3.722 66.1327 6.212ZM116.769 1.007C115.319 0.147 113.123 0.011 110.474 0.011C107.826 0.011 105.561 0.146 103.795 1.007C102.028 1.867 100.805 3.339 100.353 5.775L99.5147 10.361C99.0627 12.804 99.7327 14.254 101.192 15.114C102.651 15.974 104.836 16.134 107.485 16.134C110.134 16.134 112.444 15.974 114.186 15.114C115.929 14.254 117.123 12.802 117.584 10.361L118.42 5.775C118.87 3.339 118.195 1.867 116.769 1.007ZM113.057 6.214L112.319 10.042C111.821 12.555 110.756 12.802 108.018 12.802C105.28 12.802 104.282 12.584 104.779 10.042L105.515 6.212C106.013 3.699 107.168 3.472 109.817 3.472C112.625 3.474 113.531 3.723 113.055 6.212L113.057 6.214ZM15.8767 8.865L8.18972 5.08C6.94372 4.469 6.85172 4.22 6.96572 3.652C7.03272 3.312 7.23772 3.13 8.07572 3.04C8.59872 2.995 9.57272 2.97 10.5247 2.97C11.1147 2.97 11.8627 2.995 12.2477 3.019C13.6317 3.109 13.7887 3.311 13.6077 4.219L13.3377 5.58H18.2567L18.7537 3.084C19.1627 1.022 18.4377 0 15.7627 0H6.89772C3.63272 0 2.76972 0.59 2.27272 3.083L1.97772 4.557C1.68372 6.055 2.09172 6.915 4.33672 8.027L10.0267 10.815C11.6817 11.632 11.8167 11.835 11.7037 12.381C11.6137 12.857 11.4327 12.992 10.6117 13.06C9.80398 13.1081 8.9949 13.1305 8.18572 13.127C6.89272 13.127 6.22072 13.106 5.66772 13.014C5.01272 12.9 4.85372 12.606 4.94372 12.154L5.25972 10.566H0.549723L0.095723 12.833C-0.358277 15.101 0.775723 16.121 3.72272 16.121H12.6127C15.7847 16.121 16.5427 15.213 17.0317 12.787L17.3477 11.245C17.5747 10.09 17.3937 9.615 15.8767 8.865Z" fill="currentColor"/>
</g>
</g>
<defs>
<clipPath id="clip0_15_190">
<rect width="140" height="16" fill="white"/>
</clipPath>
<clipPath id="clip1_15_190">
<rect width="140" height="17" fill="white"/>
</clipPath>
</defs>
</svg>
