<svg width="7052" height="1080" viewBox="0 0 7052 1080" fill="none" xmlns="http://www.w3.org/2000/svg">
<g clip-path="url(#clip0_13_101)">
<mask id="mask0_13_101" style="mask-type:luminance" maskUnits="userSpaceOnUse" x="-541" y="-541" width="8133" height="2162">
<path d="M-540.036 -540.145H7591.91V1620.02H-540.036V-540.145Z" fill="white"/>
</mask>
<g mask="url(#mask0_13_101)">
<path d="M6694.82 474.348V621.366H6798.14V767.233C6798.46 780.267 6797.75 794.325 6795.51 805.573C6791.41 832.782 6765.56 879.108 6692.22 879.108C6619.32 879.108 6593.93 832.782 6589.53 805.573C6587.68 794.325 6586.89 780.267 6586.89 767.233V306.515C6586.89 290.219 6587.99 272.382 6591.45 258.881C6596.46 234.326 6618.22 185.902 6691.67 185.902C6768.78 185.902 6788.03 236.954 6792.44 258.881C6795.34 273.404 6795.51 297.765 6795.51 297.765V353.709H7049.38V320.637C7049.38 320.637 7050.54 286.128 7047.45 253.923C7028.38 64.8238 6872.57 4.9963 6693.91 4.9963C6514.94 4.9963 6362.29 65.3804 6340.05 253.923C6338.04 271.165 6334.98 302.179 6334.98 320.637V744.451C6334.98 762.91 6335.57 777.2 6338.99 810.932C6355.56 994.828 6514.94 1060.01 6693.2 1060.01C6872.57 1060.01 7030.85 994.828 7047.7 810.932C7050.69 777.2 7051 762.91 7051.4 744.451V474.348H6694.82ZM4944.33 32.1141H4689.38V777.86C4689.79 790.856 4689.38 805.457 4687.15 816.161C4681.83 841.195 4660.61 889.373 4590.27 889.373C4520.84 889.373 4499.07 841.195 4494.15 816.161C4491.6 805.457 4491.28 790.856 4491.6 777.86V32.1141H4236.73V754.716C4236.41 773.342 4237.87 811.398 4238.97 821.365C4256.56 1009.66 4404.97 1070.8 4590.27 1070.8C4775.94 1070.8 4924.26 1009.66 4942.17 821.365C4943.58 811.398 4945.43 773.342 4944.33 754.716V32.1141ZM2601.85 32.1141L2474.67 820.096L2347.57 32.1141H1936.33L1914.52 1040.17H2166.46L2173.28 106.982L2346.63 1040.17H2602.25L2775.75 106.982L2782.6 1040.17H3035.17L3012.63 32.1141H2601.85ZM1079.22 32.1141L892.493 1040.17H1164.8L1305.51 106.982L1442.85 1040.17H1713.26L1527.31 32.1141H1079.22ZM5835.32 843.719L5597.93 32.1141H5223.84V1029.66H5471.31L5456.94 192.09L5711.89 1029.66H6070.66V32.1141H5821.58L5835.32 843.719ZM3546.32 294.464C3541.84 274.556 3543.14 253.406 3545.45 242.351C3552.66 210.082 3574.35 174.887 3636.81 174.887C3695.04 174.887 3729.17 211.182 3729.17 265.651V327.29H3977.69V257.03C3977.69 39.8288 3782.96 5.70823 3641.98 5.70823C3464.41 5.70823 3319.4 64.2413 3292.92 227.673C3285.91 272.149 3284.18 311.628 3295.32 362.006C3338.5 565.785 3693.26 624.9 3744.75 753.771C3753.84 778.183 3751.24 809.314 3746.6 827.656C3738.89 861.194 3716.33 894.926 3649.45 894.926C3586.72 894.926 3548.96 858.864 3548.96 804.512L3548.88 707.768H3281.38V784.668C3281.38 1007.5 3455.92 1074.73 3643.91 1074.73C3823.95 1074.73 3972.65 1013.21 3996.5 846.437C4007.88 760.269 3999.3 704.144 3994.73 683.006C3953.05 473.998 3574.94 411.129 3546.32 294.464ZM267.942 291.992C263.062 271.67 264.201 250.221 266.919 239.038C273.806 206.924 295.616 171.107 359.185 171.107C418.145 171.107 452.861 207.752 452.861 262.661V325.051H704.299V254.234C704.299 34.9489 506.592 -0.000120376 364.065 -0.000120376C185.01 -0.000120376 38.7032 59.439 11.9349 224.049C4.60853 269.236 3.35255 308.987 13.9408 359.922C57.5881 566.018 415.854 625.612 467.979 756.023C477.739 780.267 474.788 811.398 469.947 830.452C461.676 864.339 438.933 898.55 371.495 898.55C308.522 898.55 270.855 861.867 270.855 806.764L270.505 709.761H0.000488281V786.843C0.000488281 1012.22 177.01 1080 366.459 1080C548.595 1080 698.163 1017.93 722.563 849.233C734.692 762.275 725.592 705.684 721.502 684.223C678.955 472.652 296.639 409.99 267.942 291.992Z" fill="currentColor"/>
</g>
</g>
<defs>
<clipPath id="clip0_13_101">
<rect width="7051.4" height="1080" fill="white"/>
</clipPath>
</defs>
</svg>
