<svg width="2341" height="684" viewBox="0 0 2341 684" fill="none" xmlns="http://www.w3.org/2000/svg">
<g clip-path="url(#clip0_13_110)">
<path d="M1393.46 682.624C1376.93 679.305 1363.15 670.454 1357.55 659.566C1355.25 655.114 1353.01 644.729 1353.86 642.518C1354.27 641.447 1356.73 641.117 1364.3 641.117H1374.2L1374.85 645.209C1377.4 661.138 1392.27 669.342 1418.49 669.286C1435.65 669.249 1450.63 664.97 1454.91 658.886C1459.76 651.993 1458.81 643.212 1452.68 638.14C1447.7 634.023 1439.75 631.694 1416.46 627.54C1387.65 622.401 1382.57 621.213 1375.83 618.029C1364.47 612.662 1359.51 605.352 1359.48 593.905C1359.39 568.066 1386.49 553.054 1426.04 557.026C1439.5 558.379 1446.9 560.224 1455.17 564.297C1465.75 569.504 1473.32 579.88 1474.92 591.367L1475.58 596.117H1465.02C1455.63 596.117 1454.45 595.923 1454.45 594.367C1454.42 590.383 1449.52 582.177 1445.36 579.166C1429.12 567.399 1391.5 569.661 1383.27 582.9C1379.96 588.224 1380.04 595.965 1383.46 599.672C1387.68 604.267 1393.02 605.84 1421.99 611.026C1457.16 617.322 1465.38 620.099 1472.22 627.999C1477.61 634.207 1478.94 638.108 1478.94 647.617C1478.94 655.439 1478.59 657.284 1476.26 661.707C1472.83 668.231 1467.86 672.547 1458.88 676.814C1447.71 682.118 1435.99 684.106 1416.46 684.01C1407.22 683.965 1397.09 683.354 1393.46 682.624ZM845.456 620.617V560.117H886.508C932.639 560.117 936.847 560.577 947.112 566.747C955.15 571.577 957.061 573.571 960.661 580.883C963.336 586.318 963.774 588.287 963.732 594.715C963.64 609.059 955.15 620.639 940.357 626.599L932.956 629.58L900.706 629.922L868.456 630.264V655.691V681.117H856.956H845.456V620.617ZM925.112 613.626C935.926 610.415 940.882 604.293 940.908 594.113C940.927 586.612 938.023 582.031 931.1 578.644C924.125 575.231 913.833 574.134 888.706 574.125L868.456 574.117V594.617V615.117H894.274C914.241 615.117 921.23 614.779 925.112 613.626ZM963.036 677.961C964.599 674.94 984.478 634.401 1009.18 583.867L1020.79 560.117H1033.44H1046.09L1055.19 579.367C1078.59 628.885 1102.46 679.952 1102.46 680.505C1102.46 680.842 1097.11 681.117 1090.59 681.117H1078.72L1070.88 663.617L1063.05 646.117L1032 646.137L1000.96 646.156L992.956 663.613L984.956 681.069L973.18 681.093L961.404 681.117L963.036 677.961ZM1044.13 605.617C1038.04 591.592 1032.81 580.12 1032.5 580.122C1032.06 580.127 1010.56 625.084 1008.76 629.779C1008.34 630.873 1012.52 631.117 1031.72 631.117H1055.2L1044.13 605.617ZM1130.46 620.617V560.117H1173.77C1219.79 560.117 1224.19 560.461 1235.82 564.961C1248.77 569.975 1255.46 579.39 1255.46 592.617C1255.46 604.451 1249.77 613.854 1239.43 619.13L1235.21 621.281L1240.28 623.625C1246.15 626.349 1250.99 632.306 1251.88 637.905C1252.2 639.947 1252.89 648.306 1253.42 656.482C1254.42 671.998 1255.41 675.334 1259.43 676.609C1260.54 676.963 1261.46 678.122 1261.46 679.185C1261.46 680.999 1260.63 681.117 1247.97 681.117H1234.49L1233.89 678.367C1233.56 676.855 1233.08 674.962 1232.82 674.162C1232.57 673.361 1231.96 666.079 1231.48 657.979C1230.57 642.732 1229.98 640.513 1225.62 635.844C1220.73 630.598 1215.94 629.875 1182.71 629.366L1152.46 628.903V655.01V681.117H1141.46H1130.46V620.617ZM1218.22 612.693C1224.67 610.657 1229.94 606.198 1231.51 601.461C1233.19 596.367 1232.28 586.702 1229.8 583.354C1226.66 579.111 1220.45 576.191 1212.32 575.135C1208.27 574.609 1193.14 574.165 1178.71 574.148L1152.46 574.117V594.74V615.364L1182.71 614.86C1207.08 614.453 1213.98 614.033 1218.22 612.693ZM1295.46 620.617V560.117H1306.46H1317.46V620.617V681.117H1306.46H1295.46V620.617ZM2015.46 583.456C2012.98 583.285 2007.24 582.873 2002.71 582.541L1994.46 581.938V554.096V526.254L2010.87 526.836C2029.51 527.497 2038.6 526.432 2050.62 522.178C2070.28 515.22 2085.5 501.205 2096.47 479.957C2101.06 471.046 2107.34 454.14 2108.95 446.353L2109.62 443.088L2102.79 443.58C2099.03 443.851 2086.17 444.321 2074.21 444.625L2052.46 445.177L2044.57 428.897C2040.23 419.943 2031.85 402.717 2025.95 390.617C2020.04 378.517 2011.95 361.867 2007.96 353.617C2003.96 345.367 1995.19 327.367 1988.45 313.617C1981.72 299.867 1972.94 281.867 1968.95 273.617C1964.96 265.367 1956.41 247.817 1949.95 234.617C1912.29 157.651 1900.46 133.121 1900.46 132.045C1900.46 131.485 1924.31 131.121 1960.71 131.128L2020.96 131.139L2032.39 157.378C2061.77 224.832 2083.28 273.932 2094.46 299.117C2101.18 314.242 2109.74 334.042 2113.49 343.117C2126.3 374.178 2136.08 396.492 2137.02 396.791C2137.53 396.956 2142.21 383.259 2147.4 366.354C2152.6 349.449 2159.73 327.292 2163.25 317.117C2178.73 272.348 2192.29 232.798 2204.93 195.617C2212.4 173.617 2220.25 150.667 2222.36 144.617L2226.19 133.617L2283.82 133.359C2315.52 133.217 2341.46 133.311 2341.46 133.568C2341.46 133.825 2336.34 147.666 2330.08 164.326C2323.83 180.986 2313.51 208.567 2307.16 225.617C2300.8 242.667 2286.54 280.917 2275.46 310.617C2264.38 340.317 2252.81 371.367 2249.75 379.617C2209.16 488.957 2205.91 496.866 2193.11 517.617C2165.39 562.559 2133.54 578.833 2064.96 583.112C2050.18 584.033 2026.2 584.2 2015.46 583.456ZM161.956 448.448C117.134 446.673 79.0793 441.311 55.1106 433.394C22.1446 422.504 3.95118 399.983 0.469395 365.754C-0.125875 359.902 -0.314534 352.864 0.0501365 350.115L0.713177 345.117H59.0844C91.1885 345.117 117.45 345.23 117.444 345.367C117.437 345.505 116.767 348.092 115.956 351.117C112.977 362.213 114.465 370.574 120.673 377.626C132.727 391.321 162.161 398.105 209.56 398.114C257.836 398.123 290.122 391.51 305.321 378.5C314.897 370.304 317.59 355.852 311.903 343.18C307.241 332.791 298.019 326.279 281.956 322.031C275.024 320.198 269.548 319.799 240.956 319.042C144.06 316.475 113.036 314.255 79.6803 307.502C53.0498 302.111 39.1333 295.738 26.4352 283.117C19.6509 276.374 17.009 272.86 13.6554 266.117C6.39214 251.513 5.07975 244.756 5.01311 221.617C4.96124 203.606 5.18456 200.826 7.25867 193.662C8.52541 189.287 11.2043 182.537 13.2118 178.662C17.9147 169.585 30.3939 156.864 39.6221 151.74C57.8386 141.626 85.3031 135.624 132.564 131.43C157.394 129.226 263.059 128.86 286.956 130.894C331.553 134.691 357.849 140.161 375.956 149.408C391.564 157.379 404.454 173.846 408.936 191.542C410.562 197.958 412.456 211.573 412.456 216.841V220.117H357.126H301.796L300.029 211.892C296.662 196.224 290.698 188.434 279.525 185.112C268.658 181.88 258.547 181.036 223.456 180.433C187.866 179.822 173.162 180.636 157.302 184.098C143.498 187.11 134.161 191.476 127.424 198.069C120.652 204.695 119.009 209.011 119.161 219.778C119.38 235.304 124.754 244.424 135.5 247.507C145.968 250.509 178.98 252.975 237.456 255.124C326.491 258.395 375.974 265.765 398.541 279.115C407.792 284.588 416.506 294.245 421.338 304.38C427.973 318.296 428.938 323.715 428.947 347.117C428.957 370.186 427.688 377.024 420.912 390.436C402.003 427.861 359.727 443.055 260.456 448.106C243.216 448.983 180.923 449.2 161.956 448.448ZM868.956 448.067C769.721 442.591 732.074 425.961 719.412 382.01C717.86 376.625 717.133 370.612 716.733 359.867L716.184 345.117H774.82C807.069 345.117 833.456 345.39 833.456 345.723C833.456 346.056 832.734 349.093 831.852 352.473C825.625 376.337 843.005 390.288 886.456 396.302C900.957 398.31 955.5 398.007 971.026 395.833C1002.77 391.389 1022.19 382.461 1028.53 369.394C1032.01 362.224 1031.83 350.45 1028.13 342.879C1023.08 332.567 1014 326.302 997.866 322.015C991.026 320.197 985.488 319.794 956.956 319.034C876.626 316.895 848.416 315.356 820.456 311.584C773.524 305.254 750.251 295.429 735.853 275.871C725.952 262.421 721.614 248.24 720.75 226.494C719.4 192.53 728.297 171.067 750.222 155.397C767.954 142.724 798.186 135.602 853.456 131.077C874.502 129.354 959.422 128.679 984.956 130.031C1071.34 134.608 1105.36 146.828 1120.41 178.683C1124.43 187.194 1127.32 199.261 1128.12 210.876L1128.76 220.134L1073.44 219.876L1018.13 219.617L1015.81 210.164C1009.32 183.685 1000.79 180.702 931.456 180.647C898.589 180.622 891.355 180.887 882.014 182.459C862.723 185.706 848.511 191.734 841.606 199.599C836.664 205.227 835.152 210.75 835.656 221.328C836.398 236.905 841.072 244.519 851.772 247.586C861.965 250.507 895.451 252.99 953.456 255.126C1044.67 258.485 1094.9 266.18 1116.19 280.053C1125.63 286.208 1132.05 293.456 1137 303.564C1142.36 314.477 1144.08 320.942 1145.54 335.535C1147.71 357.196 1144.13 377.666 1135.25 394.368C1130.77 402.795 1116.98 416.661 1107.82 421.949C1084.81 435.236 1051.56 442.701 995.456 447.175C977.845 448.579 889.521 449.202 868.956 448.067ZM1619.46 448.516C1556.31 445.139 1519.68 438.375 1492.96 425.153C1475.2 416.368 1465.46 406.813 1455.97 388.86C1447.71 373.232 1442.53 354.917 1438.8 328.117C1436.28 310.008 1436.26 260.435 1438.78 243.723C1444.05 208.677 1455.21 183.715 1472.9 167.432C1481.59 159.431 1487.99 155.384 1500.47 150.005C1521.87 140.78 1551.21 134.761 1593.46 130.932C1613.26 129.136 1699.81 129.135 1718.96 130.93C1771.09 135.817 1805.74 145.142 1825.4 159.575C1845.67 174.456 1858.64 199.318 1864.54 234.617C1866.24 244.733 1868.18 277.307 1868.42 299.367L1868.46 303.117H1710.5H1552.55L1551.86 306.775C1550.64 313.26 1552.2 338.013 1554.39 346.858C1558.12 361.971 1565.08 372.697 1575.45 379.313C1591.16 389.33 1630.19 394.135 1679.48 392.116C1730.3 390.035 1744.8 384.682 1751.53 365.522C1752.67 362.274 1753.86 356.13 1754.17 351.867L1754.74 344.117H1811.65H1868.56L1867.94 355.367C1866.87 374.544 1864.29 383.574 1856.69 394.778C1837.54 422.965 1795.3 439.68 1725.46 446.696C1710.83 448.166 1636.71 449.438 1619.46 448.516ZM1755.14 242.367C1753.62 208.02 1744.65 195.834 1716.73 190.189C1689.65 184.714 1634.83 183.708 1605.46 188.149C1586.32 191.041 1573.1 196.265 1566.91 203.367C1559.48 211.903 1554.75 226.82 1553.77 244.867L1553.15 256.117H1654.45H1755.75L1755.14 242.367ZM516.456 289.117V133.117H573.456H630.456V289.117V445.117H573.456H516.456V289.117ZM1232.46 222.617V0.117188H1289.46H1346.46V222.617V445.117H1289.46H1232.46V222.617ZM516.456 31.6172V0.117188H573.456H630.456V31.6172V63.1172H573.456H516.456V31.6172Z" fill="currentColor"/>
</g>
<defs>
<clipPath id="clip0_13_110">
<rect width="2341" height="684" fill="white"/>
</clipPath>
</defs>
</svg>
