<svg width="1280" height="226" viewBox="0 0 1280 226" fill="none" xmlns="http://www.w3.org/2000/svg">
<g clip-path="url(#clip0_12_86)">
<path d="M456.013 225.28C409.6 225.28 366.592 211.456 337.92 185.677C327.667 176.464 319.498 165.17 313.957 152.549C308.417 139.927 305.633 126.269 305.792 112.486C305.76 98.7603 308.602 85.1796 314.136 72.6183C319.669 60.0569 327.771 48.7932 337.92 39.552C364.544 15.36 411.648 0 456.013 0C505.088 0 544.384 12.3648 574.413 39.6032C584.522 48.8413 592.57 60.1071 598.031 72.6655C603.492 85.2239 606.243 98.7927 606.106 112.486C606.037 126.194 603.194 139.745 597.747 152.324C592.3 164.903 584.363 176.248 574.413 185.677C546.432 211.61 502.502 225.28 456.013 225.28V195.635C480.615 195.635 503.45 187.136 519.398 171.264C535.347 155.392 542.592 136.141 542.592 112.384C542.592 89.7024 534.63 68.5056 519.398 53.504C503.654 38.016 480.282 29.2864 456.013 29.2864C431.744 29.2864 408.269 37.9392 392.525 53.504C377.344 68.5312 369.485 89.8048 369.485 112.384C369.257 123.232 371.175 134.019 375.129 144.123C379.083 154.228 384.995 163.451 392.525 171.264C408.269 186.957 431.591 195.635 456.013 195.635V225.28ZM117.12 0C92.3137 0 64.1281 4.6592 40.3202 15.36C18.0994 25.2928 0.000157746 41.2416 0.000157746 67.6864C-0.0332269 81.5348 5.23353 94.8712 14.7202 104.96C21.1458 110.899 31.5138 120.986 58.5986 126.925C70.7074 129.485 96.5889 133.606 122.368 136.32C148.147 139.034 173.133 141.44 183.373 144.179C191.514 146.253 205.21 149.069 205.21 164.429C205.21 179.789 190.797 184.397 188.288 185.395C185.779 186.394 168.474 194.33 137.395 194.33C116.804 193.758 96.3998 190.25 76.8001 183.91C65.2033 179.763 53.0434 174.31 41.7026 160.461C37.1258 153.939 34.5867 146.206 34.4066 138.24H6.24656V217.088H37.5298V206.413C37.5248 205.621 37.731 204.842 38.1272 204.156C38.5233 203.471 39.0951 202.903 39.7836 202.512C40.472 202.121 41.2523 201.92 42.0441 201.931C42.8359 201.942 43.6105 202.163 44.2882 202.573C59.0267 208.986 74.3573 213.942 90.061 217.37C106.496 220.8 117.12 223.283 137.549 223.283C159.106 223.693 180.59 220.66 201.191 214.298C214.87 210.548 227.705 204.213 239.002 195.635C245.356 190.755 250.491 184.467 254.005 177.267C257.518 170.066 259.314 162.149 259.251 154.138C259.358 138.917 253.484 124.263 242.893 113.331C237.004 107.616 230.181 102.949 222.72 99.5328C214.699 95.9088 206.372 93.0046 197.837 90.8544C181.607 86.8864 145.152 81.92 127.719 80.1792C109.44 78.2848 77.7218 75.648 65.0498 71.7312C61.2098 70.528 53.3762 66.816 53.3762 57.728C53.3762 51.2512 56.9602 45.7728 64.0257 41.344C75.2641 34.304 97.9458 29.9264 121.6 29.9264C144.496 29.65 167.204 34.0853 188.314 42.9568C193.985 45.4275 199.319 48.6104 204.186 52.4288C212.12 59.2052 217.614 68.3954 219.827 78.592H245.095V9.9584H216.935V17.92C216.935 20.48 214.375 23.8592 209.255 21.0688C196.557 14.464 160.871 0.1792 117.12 0ZM735.334 12.5952L872.96 136.781L871.552 53.1712C871.398 42.1888 869.402 37.6064 857.523 37.6064H831.667V12.5952H949.427V37.6064H924.16C912.077 37.6064 911.36 41.4976 911.155 53.1712L913.28 212.941H872.96L714.419 71.4752V171.853C714.547 182.784 715.059 187.93 726.298 187.93H754.458V212.941H639.027V187.93H666.061C676.147 187.93 675.738 178.304 675.738 171.29V54.1184C675.738 46.4384 674.662 37.632 658.842 37.632H636.928V12.5952H735.334ZM1083.78 187.878C1086.1 187.879 1088.43 187.733 1090.74 187.443C1091.94 187.083 1093.05 186.466 1093.98 185.635C1094.92 184.804 1095.67 183.779 1096.17 182.63C1096.52 180.852 1096.7 179.042 1096.7 177.229V137.677C1096.7 136.346 1096.7 136.32 1095.01 134.221C1093.32 132.122 1022.92 52.3008 1019.72 48.7168C1015.73 44.3648 1008.72 37.632 998.042 37.632H973.594V12.5952H1111.58V37.5808H1094.94C1091.1 37.5808 1088.54 41.2416 1091.81 45.2608C1091.81 45.2608 1138.25 100.813 1138.69 101.402C1139.12 101.99 1139.51 102.118 1140.1 101.581C1140.68 101.043 1187.69 45.7728 1188.04 45.2608C1188.6 44.5317 1188.93 43.6584 1189.01 42.7447C1189.08 41.831 1188.89 40.9153 1188.46 40.1065C1188.03 39.2977 1187.38 38.6297 1186.58 38.182C1185.78 37.7343 1184.86 37.5256 1183.95 37.5808H1166.87V12.5952H1280V37.632H1254.73C1245.57 37.632 1241.93 39.3216 1234.94 47.104L1158.78 133.99C1158.04 135.066 1157.71 136.377 1157.86 137.677V177.203C1157.88 179.018 1158.06 180.827 1158.43 182.605C1158.92 183.754 1159.66 184.781 1160.59 185.613C1161.52 186.444 1162.63 187.061 1163.83 187.418C1166.12 187.72 1168.43 187.866 1170.74 187.853H1196.57V212.89H1059.3V187.853L1083.78 187.878Z" fill="currentColor"/>
</g>
<defs>
<clipPath id="clip0_12_86">
<rect width="1280" height="225.28" fill="white"/>
</clipPath>
</defs>
</svg>
