<svg width="391" height="184" viewBox="0 0 391 184" fill="none" xmlns="http://www.w3.org/2000/svg">
<path d="M169.2 3.69922C175.2 7.99922 182.5 13.0992 185.8 22.1992C191.2 37.2992 182.3 60.2992 189.5 75.6992C180.9 70.6992 174.1 64.2992 172.9 52.2992C171 35.6992 179.4 14.5992 169.2 3.69922ZM206.1 3.69922C208.6 19.8992 200.9 31.3992 194.4 40.5992C186.7 25.2992 202.7 15.8992 206.1 3.69922ZM257.1 8.69922C258.2 10.7992 255 10.4992 254 11.1992C231.2 26.1992 206.3 44.3992 194.9 71.4992C192.8 32.6992 221.6 14.1992 257.1 8.69922Z" fill="currentColor"/>
<path d="M164.3 0C88.9 35.3 52.1 109.3 15.4 183.4C9.5 130.2 4.8 75.8 0 21.6C7.3 22.6 16.4 22 24.6 22.2C26.4 59.1 29.9 94.4 32 131.1C60.1 71.4 98.8 22.3 164.3 0Z" fill="currentColor"/>
<path d="M337.7 50.5C331.9 68.2 326 85.9 320.5 104C342.6 105.4 367.5 104.2 390.6 104.6C390.4 111.7 382.3 110.1 376.4 110.1H319.2C314 129.2 306.8 162.2 326.6 170.4C340.7 175.2 358 170.2 367.8 164.9C373.1 161.9 377 156.4 383.2 156.3C383.9 159.6 379.5 162.1 377 164.3C367.2 172.5 355.2 177.6 342.5 179.1C322 181.1 300.3 173.8 293.9 156.3C289.2 143.3 293.5 123.7 297.6 110.8C269.5 109.3 238.8 110.6 209.6 110.2C196.6 132.4 197.5 181.1 236.1 171.1C240.9 169.9 246.4 167.7 250.9 165.6C257.7 162.3 262.8 154.6 270 156.4C271 159.1 266.1 161.3 263.2 163.8C254.2 172.2 242.8 177.6 230.6 179.2C207.4 181.5 181.9 169.9 178.9 148.4C176.8 132.8 182 120.3 187.5 110.3H100.1C85.9 133.7 89 181.7 128.4 170.6C133.9 169 140.3 166.5 145 163.8C149.9 161 153.7 154.9 160.4 155.8C161 159.2 156.8 161.6 154.2 163.8C143.9 172.4 130.2 180.9 109.3 179.2C85.2 177.1 66.2 163 69.3 133.7C69.9 128.6 71.8 122.3 73.6 117.7C83.9 93.3 106.4 76.2 132.7 72.8C148.1 71 162.7 75.8 170.8 83.3C176.5 88.4 179.5 94.7 181.3 104.8H189.9C201.6 84.9 240.5 61.7 271.7 77.1C282.4 82.4 289.7 92.9 290.8 104.8H298.2C301.6 94.3 305.2 84.3 308 73.4C318.7 66.3 326.2 56.4 337.7 50.5ZM145.8 77.6C126.7 72.6 108.9 91.8 103.3 104.7H158.7C159.5 89.7 155.6 80 145.8 77.6ZM256.5 77.6C236.8 71.7 218.5 91.9 212.8 104.7H268.2C269.2 90.4 265.2 80.1 256.5 77.6Z" fill="currentColor"/>
</svg>
