<svg width="24" height="24" viewBox="0 0 24 24" fill="none" xmlns="http://www.w3.org/2000/svg">
<path fill-rule="evenodd" clip-rule="evenodd" d="M3 5C3 3.89543 3.89543 3 5 3H19C20.1046 3 21 3.89543 21 5V19C21 20.1046 20.1046 21 19 21H5C3.89543 21 3 20.1046 3 19V5ZM11.3396 8.35224C11.671 7.91042 11.5814 7.28361 11.1396 6.95224C10.6978 6.62087 10.071 6.71042 9.73959 7.15224L8.43554 8.89096L8.09765 8.6657C7.63812 8.35935 7.01726 8.48352 6.7109 8.94305C6.40455 9.40258 6.52872 10.0235 6.98825 10.3298L8.11325 11.0798C8.55485 11.3742 9.14951 11.2723 9.46795 10.8478L11.3396 8.35224ZM14.0579 8C13.5057 8 13.0579 8.44771 13.0579 9C13.0579 9.55228 13.5057 10 14.0579 10H16.0579C16.6102 10 17.0579 9.55228 17.0579 9C17.0579 8.44771 16.6102 8 16.0579 8H14.0579ZM11.3396 14.3534C11.671 13.9115 11.5814 13.2847 11.1396 12.9534C10.6978 12.622 10.071 12.7115 9.73959 13.1534L8.43554 14.8921L8.09765 14.6668C7.63812 14.3605 7.01726 14.4847 6.7109 14.9442C6.40455 15.4037 6.52872 16.0246 6.98825 16.3309L8.11325 17.0809C8.55485 17.3753 9.14951 17.2735 9.46795 16.8489L11.3396 14.3534ZM14 14C13.4477 14 13 14.4477 13 15C13 15.5523 13.4477 16 14 16H16C16.5523 16 17 15.5523 17 15C17 14.4477 16.5523 14 16 14H14Z" fill="currentColor"/>
</svg>
