<svg width="24" height="24" viewBox="0 0 24 24" fill="none" xmlns="http://www.w3.org/2000/svg">
<path d="M19.4438 17.0583C19.8082 15.0944 19.9987 13.0694 19.9987 11C19.9987 6.58172 16.417 3 11.9987 3C10.7433 3 9.55541 3.28918 8.49805 3.80456" stroke="currentColor" stroke-width="2" stroke-linecap="round" stroke-linejoin="round"/>
<path d="M15.9422 12.8357C15.9801 12.2287 15.9993 11.6166 15.9993 11C15.9993 8.79086 14.2085 7 11.9993 7C9.7902 7 7.99934 8.79086 7.99934 11C7.99934 12.1925 7.89994 13.3618 7.70898 14.5" stroke="currentColor" stroke-width="2" stroke-linecap="round" stroke-linejoin="round"/>
<path d="M14.3379 20.693C14.6041 19.9422 14.8402 19.1772 15.0448 18.3994C15.2305 17.6937 15.3902 16.9776 15.5229 16.252" stroke="currentColor" stroke-width="2" stroke-linecap="round" stroke-linejoin="round"/>
<path d="M3.52148 15.0242C3.83468 13.734 4.00067 12.3863 4.00067 10.9997C4.00067 9.25942 4.55637 7.64891 5.5 6.33594" stroke="currentColor" stroke-width="2" stroke-linecap="round" stroke-linejoin="round"/>
<path d="M11.9991 11C11.9991 13.7604 11.5518 16.4163 10.7255 18.8992C10.5129 19.5381 10.2753 20.1655 10.0137 20.7803" stroke="currentColor" stroke-width="2" stroke-linecap="round" stroke-linejoin="round"/>
<path d="M6.9074 17.6973C6.75353 18.1549 6.58432 18.6055 6.40039 19.0484" stroke="currentColor" stroke-width="2" stroke-linecap="round" stroke-linejoin="round"/>
</svg>
