<svg width="24" height="24" viewBox="0 0 24 24" fill="none" xmlns="http://www.w3.org/2000/svg">
<path fill-rule="evenodd" clip-rule="evenodd" d="M12 2C7.58172 2 4 5.57095 4 9.97594V20.0025C4 21.6244 5.83874 22.5678 7.16248 21.6251L8.62332 20.5848L11.2122 21.6909C11.7153 21.9059 12.2847 21.9059 12.7878 21.6909L15.3767 20.5848L16.8375 21.6251C18.1613 22.5678 20 21.6244 20 20.0025V9.97594C20 5.57095 16.4183 2 12 2ZM11 10.5C11 11.3284 10.3284 12 9.5 12C8.67157 12 8 11.3284 8 10.5C8 9.67157 8.67157 9 9.5 9C10.3284 9 11 9.67157 11 10.5ZM14.5 12C15.3284 12 16 11.3284 16 10.5C16 9.67157 15.3284 9 14.5 9C13.6716 9 13 9.67157 13 10.5C13 11.3284 13.6716 12 14.5 12Z" fill="currentColor"/>
</svg>
