<svg width="64" height="64" viewBox="0 0 64 64" fill="none" xmlns="http://www.w3.org/2000/svg">
<g clip-path="url(#clip0_334_239)">
<path opacity="0.5" d="M54.6671 45.333C49.9756 45.333 46.0731 48.8295 45.4286 53.3485C45.3845 53.3445 45.3403 53.3426 45.2961 53.343L43.9461 53.388C43.5928 53.3996 43.2585 53.551 43.0168 53.809C42.7751 54.0669 42.6457 54.4102 42.6571 54.7635C42.6687 55.1169 42.8201 55.4512 43.0782 55.6929C43.3362 55.9346 43.6797 56.064 44.0331 56.0525L45.3831 56.009C45.3992 56.0083 45.4154 56.0073 45.4316 56.006C46.0851 60.5145 49.9826 64 54.6671 64C59.8061 64 64.0001 59.806 64.0001 54.667C64.0001 49.528 59.8061 45.333 54.6671 45.333ZM54.6671 48C55.5433 47.9974 56.4113 48.1681 57.2213 48.5023C58.0313 48.8364 58.7672 49.3274 59.3867 49.947C60.0062 50.5667 60.4971 51.3027 60.8312 52.1127C61.1652 52.9227 61.3358 53.7908 61.3331 54.667C61.3358 55.5432 61.1653 56.4112 60.8313 57.2213C60.4973 58.0313 60.0064 58.7672 59.3868 59.3868C58.7673 60.0063 58.0313 60.4972 57.2213 60.8312C56.4113 61.1653 55.5432 61.3358 54.6671 61.333C53.7909 61.3357 52.9228 61.1651 52.1127 60.8311C51.3027 60.4971 50.5667 60.0062 49.9471 59.3867C49.3275 58.7672 48.8365 58.0312 48.5023 57.2212C48.1682 56.4113 47.9975 55.5432 48.0001 54.667C47.9974 53.7907 48.1681 52.9226 48.5022 52.1125C48.8363 51.3025 49.3273 50.5665 49.9469 49.9468C50.5665 49.3272 51.3025 48.8362 52.1126 48.5021C52.9227 48.168 53.7908 47.9974 54.6671 48Z" fill="currentColor"/>
<path d="M13.333 0C20.681 4.14294e-06 26.667 5.98501 26.667 13.333C26.667 20.639 20.749 26.5961 13.459 26.6641C14.0565 29.7055 16.7366 32 19.9531 32H21.4307C22.0817 27.4885 25.9805 24 30.667 24C35.3535 24 39.2518 27.4885 39.9023 32H45.4307C46.0817 27.4885 49.9805 24 54.667 24C59.806 24 64 28.194 64 33.333C64 38.472 59.806 42.667 54.667 42.667C49.9805 42.667 46.0822 39.1785 45.4307 34.667H39.9023C39.2518 39.1785 35.353 42.667 30.667 42.667C25.9805 42.667 22.0822 39.1785 21.4307 34.667H19.9531C18.7203 34.6682 17.4991 34.4232 16.3623 33.9463C15.2257 33.4693 14.1958 32.77 13.333 31.8896V45.333C13.333 49.757 16.9645 53.333 21.333 53.333H21.4307C22.0822 48.8215 25.981 45.333 30.667 45.333C35.806 45.333 40 49.528 40 54.667C40 59.806 35.806 64 30.667 64C25.9805 64 22.0817 60.5115 21.4307 56H21.333C15.507 56 10.667 51.218 10.667 45.333V26.3984C4.59049 25.1589 3.62837e-06 19.768 0 13.333C0 5.98501 5.98501 0 13.333 0ZM28 52.667C26.9035 52.667 26 53.5705 26 54.667C26 55.7645 26.904 56.667 28 56.667C29.096 56.667 30 55.7645 30 54.667C30 53.5705 29.0965 52.667 28 52.667ZM33.333 52.667C32.2365 52.667 31.333 53.5705 31.333 54.667C31.333 55.7645 32.237 56.667 33.333 56.667C34.429 56.667 35.333 55.7645 35.333 54.667C35.333 53.5705 34.4295 52.667 33.333 52.667ZM33.3828 30.1426C33.2077 30.1425 33.0339 30.1772 32.8721 30.2441C32.7104 30.311 32.5632 30.4086 32.4395 30.5322L29.2891 33.6797L28.2432 32.6377C27.9927 32.3882 27.6533 32.2485 27.2998 32.249C26.9462 32.2496 26.6071 32.3903 26.3574 32.6406C26.2339 32.7647 26.136 32.9123 26.0693 33.0742C26.0028 33.2359 25.9684 33.4091 25.9688 33.584C25.9691 33.7591 26.0039 33.9331 26.0713 34.0947C26.1386 34.2563 26.2373 34.4029 26.3613 34.5264L28.3486 36.5068C28.5986 36.7558 28.9372 36.8956 29.29 36.8955C29.643 36.8954 29.9815 36.7551 30.2314 36.5059L34.3242 32.4189C34.4481 32.2952 34.5462 32.148 34.6133 31.9863C34.6803 31.8247 34.7147 31.6515 34.7148 31.4766C34.7149 31.3015 34.6812 31.1276 34.6143 30.9658C34.5473 30.804 34.4489 30.6571 34.3252 30.5332C34.0752 30.2836 33.7361 30.1427 33.3828 30.1426ZM57.3828 30.1426C57.2077 30.1425 57.0339 30.1772 56.8721 30.2441C56.7104 30.311 56.5632 30.4086 56.4395 30.5322L53.2891 33.6797L52.2432 32.6377C51.9927 32.3882 51.6533 32.2485 51.2998 32.249C50.9462 32.2496 50.6071 32.3903 50.3574 32.6406C50.2339 32.7647 50.136 32.9123 50.0693 33.0742C50.0028 33.2359 49.9684 33.4091 49.9688 33.584C49.9691 33.7591 50.0039 33.9331 50.0713 34.0947C50.1386 34.2563 50.2373 34.4029 50.3613 34.5264L52.3486 36.5068C52.5986 36.7558 52.9372 36.8956 53.29 36.8955C53.643 36.8954 53.9815 36.7551 54.2314 36.5059L58.3242 32.4189C58.4481 32.2952 58.5462 32.148 58.6133 31.9863C58.6803 31.8247 58.7147 31.6515 58.7148 31.4766C58.7149 31.3015 58.6812 31.1276 58.6143 30.9658C58.5473 30.804 58.4489 30.6571 58.3252 30.5332C58.0752 30.2836 57.7361 30.1427 57.3828 30.1426ZM11.249 8C10.1017 8.00581 9.00021 8.89515 9 10.1064V16.8926C9 18.5024 10.9434 19.5454 12.3613 18.6973L17.9873 15.3311C19.3314 14.5267 19.3389 12.543 18.001 11.7295L12.374 8.30957C12.0377 8.10447 11.6469 7.99688 11.249 8Z" fill="currentColor"/>
</g>
<defs>
<clipPath id="clip0_334_239">
<rect width="64" height="64" fill="white"/>
</clipPath>
</defs>
</svg>
