<svg width="64" height="64" viewBox="0 0 64 64" fill="none" xmlns="http://www.w3.org/2000/svg">
<path fill-rule="evenodd" clip-rule="evenodd" d="M57.396 18.1019C61.4873 28.3521 56.4159 43.7796 32.6534 57.162C32.2472 57.3908 31.7511 57.3908 31.3449 57.162C7.58225 43.7797 2.51076 28.3522 6.602 18.1019C8.61724 13.0529 12.8332 9.46406 17.7698 8.35808C22.4046 7.31972 27.5633 8.49315 31.999 12.4886C36.4347 8.49315 41.5934 7.31972 46.2282 8.35807C51.1648 9.46404 55.3808 13.0529 57.396 18.1019ZM29.1925 22.0704C28.9667 21.6187 28.505 21.3333 28 21.3333C27.4949 21.3333 27.0332 21.6187 26.8074 22.0704L23.1759 29.3333H17.3333C16.5969 29.3333 16 29.9303 16 30.6667C16 31.403 16.5969 32 17.3333 32H24C24.505 32 24.9667 31.7147 25.1925 31.263L28 25.6481L34.8074 39.263C35.0332 39.7147 35.4949 40 36 40C36.505 40 36.9667 39.7147 37.1925 39.263L40.824 32H46.6666C47.403 32 48 31.403 48 30.6667C48 29.9303 47.403 29.3333 46.6666 29.3333H40C39.4949 29.3333 39.0332 29.6187 38.8074 30.0704L36 35.6852L29.1925 22.0704Z" fill="currentColor"/>
</svg>
