<svg width="346" height="210" viewBox="0 0 346 210" fill="none" xmlns="http://www.w3.org/2000/svg">
<circle cx="173" cy="102.896" r="173" fill="#C6D5EA"/>
<circle cx="173" cy="102.896" r="172.708" stroke="#1F71E3" stroke-opacity="0.05" stroke-width="0.583474"/>
<g filter="url(#filter0_d_2353_3430)">
<circle cx="173" cy="102.896" r="139.159" fill="#C6D5EA"/>
<circle cx="173" cy="102.896" r="138.867" stroke="#1F71E3" stroke-opacity="0.05" stroke-width="0.583474"/>
</g>
<g filter="url(#filter1_d_2353_3430)">
<circle cx="173" cy="102.896" r="105.317" fill="#C6D5EA"/>
<circle cx="173" cy="102.896" r="105.025" stroke="#1F71E3" stroke-opacity="0.05" stroke-width="0.583474"/>
</g>
<g filter="url(#filter2_d_2353_3430)">
<circle cx="173" cy="102.896" r="72.059" fill="#C6D5EA"/>
<circle cx="173" cy="102.896" r="71.7673" stroke="#1F71E3" stroke-opacity="0.05" stroke-width="0.583474"/>
</g>
<g filter="url(#filter3_d_2353_3430)">
<circle cx="173" cy="102.896" r="37.6341" fill="#1F71E3"/>
<circle cx="173" cy="102.896" r="37.3423" stroke="#1F71E3" stroke-opacity="0.05" stroke-width="0.583474"/>
</g>
<circle cx="260" cy="41" r="29" fill="white"/>
<circle cx="260" cy="41" r="28.5" stroke="#848B95" stroke-opacity="0.2"/>
<circle cx="260" cy="163" r="29" fill="white"/>
<circle cx="260" cy="163" r="28.5" stroke="#848B95" stroke-opacity="0.2"/>
<circle cx="86" cy="41" r="29" fill="white"/>
<circle cx="86" cy="41" r="28.5" stroke="#848B95" stroke-opacity="0.2"/>
<circle cx="86" cy="163" r="29" fill="white"/>
<circle cx="86" cy="163" r="28.5" stroke="#848B95" stroke-opacity="0.2"/>
<g clip-path="url(#clip0_2353_3430)">
<path fill-rule="evenodd" clip-rule="evenodd" d="M259.949 146C250.577 146 243 153.562 243 162.918C243 170.397 247.855 176.727 254.589 178.968C255.432 179.136 255.74 178.604 255.74 178.156C255.74 177.764 255.712 176.419 255.712 175.019C250.997 176.027 250.015 173.002 250.015 173.002C249.258 171.041 248.135 170.537 248.135 170.537C246.592 169.501 248.247 169.501 248.247 169.501C249.959 169.613 250.857 171.237 250.857 171.237C252.373 173.814 254.814 173.086 255.796 172.638C255.936 171.545 256.386 170.789 256.863 170.369C253.102 169.977 249.146 168.52 249.146 162.022C249.146 160.173 249.819 158.661 250.885 157.484C250.717 157.064 250.128 155.327 251.054 153.003C251.054 153.003 252.485 152.554 255.712 154.739C257.093 154.369 258.518 154.18 259.949 154.179C261.38 154.179 262.839 154.375 264.187 154.739C267.414 152.554 268.845 153.003 268.845 153.003C269.771 155.327 269.181 157.064 269.013 157.484C270.108 158.661 270.753 160.173 270.753 162.022C270.753 168.52 266.797 169.949 263.008 170.369C263.626 170.901 264.158 171.909 264.158 173.506C264.158 175.775 264.131 177.596 264.131 178.156C264.131 178.604 264.439 179.136 265.281 178.968C272.016 176.727 276.871 170.397 276.871 162.918C276.898 153.562 269.294 146 259.949 146Z" fill="#1F71E3"/>
</g>
<path d="M161.406 111V94.0898H172.48V97.0078H164.945V101.543H171.824V104.344H164.945V111H161.406ZM179.652 111.258C175.809 111.258 173.477 108.762 173.477 104.742V104.73C173.477 100.734 175.832 98.1797 179.512 98.1797C183.191 98.1797 185.5 100.676 185.5 104.473V105.527H176.852C176.887 107.531 177.977 108.703 179.723 108.703C181.129 108.703 181.984 107.93 182.23 107.227L182.254 107.156H185.395L185.359 107.285C184.973 109.137 183.238 111.258 179.652 111.258ZM179.57 100.734C178.164 100.734 177.109 101.672 176.887 103.371H182.219C182.008 101.637 180.988 100.734 179.57 100.734Z" fill="white"/>
<path d="M88.7778 149.645C88.5412 149.248 88.2072 148.92 87.8081 148.692C87.409 148.464 86.9584 148.345 86.5 148.345C86.0416 148.345 85.591 148.464 85.1919 148.692C84.7928 148.92 84.4588 149.248 84.2222 149.645L80.4753 156.128C83.3378 157.571 85.7767 159.746 87.5498 162.436C89.3229 165.127 90.3686 168.239 90.5829 171.463H87.9521C87.7381 168.699 86.8133 166.039 85.2693 163.747C83.7252 161.455 81.6153 159.61 79.1485 158.394L75.6806 164.451C77.0674 165.079 78.2755 166.05 79.1939 167.273C80.1124 168.496 80.7116 169.933 80.9365 171.452H74.8947C74.8231 171.447 74.7538 171.424 74.6932 171.385C74.6326 171.346 74.5825 171.292 74.5474 171.229C74.5124 171.166 74.4935 171.094 74.4925 171.022C74.4915 170.949 74.5084 170.878 74.5417 170.813L76.2158 167.937C75.6486 167.459 75.0004 167.089 74.3025 166.844L72.6454 169.72C72.4729 170.019 72.3609 170.35 72.316 170.693C72.271 171.036 72.2939 171.384 72.3835 171.718C72.473 172.052 72.6274 172.365 72.8375 172.638C73.0477 172.911 73.3095 173.14 73.6078 173.31C74.0008 173.533 74.4437 173.652 74.8947 173.655H83.1688C83.3224 171.739 82.9838 169.816 82.1857 168.072C81.3876 166.327 80.157 164.821 78.6132 163.698L79.9286 161.397C81.8769 162.748 83.4426 164.59 84.4712 166.74C85.4998 168.889 85.9557 171.273 85.7939 173.655H92.8038C92.967 170.046 92.1899 166.458 90.5501 163.248C88.9103 160.038 86.4652 157.319 83.4592 155.362L86.1185 150.761C86.1777 150.66 86.2738 150.588 86.3858 150.559C86.4978 150.53 86.6166 150.546 86.7164 150.605C87.0182 150.772 98.2704 170.606 98.4811 170.836C98.5182 170.904 98.5371 170.979 98.5359 171.056C98.5346 171.133 98.5133 171.209 98.474 171.275C98.4347 171.341 98.3788 171.395 98.3121 171.432C98.2454 171.469 98.1701 171.488 98.0939 171.486H95.3833C95.4175 172.219 95.4175 172.949 95.3833 173.678H98.1053C98.4509 173.68 98.7936 173.613 99.1134 173.481C99.4333 173.348 99.7239 173.153 99.9686 172.907C100.213 172.66 100.407 172.367 100.539 172.044C100.671 171.721 100.738 171.375 100.736 171.026C100.736 170.565 100.615 170.112 100.383 169.715L88.7778 149.645Z" fill="#1F71E3"/>
<path d="M107.349 38.1476C106.368 37.4783 103.792 37.1926 101.919 37.7043C101.818 35.8131 100.855 34.2192 99.0952 32.8284L98.4438 32.3853L98.0096 33.0503C97.1562 34.3632 96.7962 36.1133 96.9236 37.7043C97.0242 38.6847 97.3602 39.786 98.0096 40.5854C95.5717 42.019 93.3239 41.6935 83.3706 41.6935H68.0034C67.9588 43.9719 68.3199 48.3536 71.0689 51.9207C71.3729 52.3149 71.7054 52.696 72.0671 53.0631C74.3024 55.3319 77.6796 56.9956 82.7295 57C90.4338 57.0073 97.0342 52.7859 101.05 42.5805C102.371 42.602 105.859 42.8205 107.566 39.4774C107.607 39.4212 108 38.5913 108 38.5913L107.349 38.1482V38.1476ZM78.0324 36.0644H73.711V40.4444H78.0324V36.0644ZM83.6143 36.0644H79.2932V40.4444H83.6143V36.0644ZM89.197 36.0644H84.8759V40.4444H89.197V36.0644ZM94.7801 36.0644H90.4587V40.4444H94.7801V36.0644ZM72.4494 36.0644H68.1282V40.4444H72.4494V36.0644ZM78.0324 30.5325H73.711V34.9124H78.0324V30.5325ZM83.6143 30.5325H79.2932V34.9124H83.6143V30.5325ZM89.197 30.5325H84.8759V34.9124H89.197V30.5325ZM89.197 25H84.8759V29.3799H89.197V25Z" fill="#1F71E3"/>
<path d="M260.379 23.003C260.069 23.0186 259.766 23.0954 259.487 23.2289L247.319 29.0483C247.004 29.1988 246.728 29.4179 246.51 29.6892C246.292 29.9604 246.138 30.277 246.06 30.6153L243.058 43.6872C242.989 43.9884 242.981 44.3003 243.036 44.6045C243.09 44.9087 243.205 45.199 243.374 45.4582C243.415 45.5216 243.46 45.5829 243.507 45.642L251.929 56.1235C252.147 56.3948 252.423 56.6137 252.738 56.7642C253.053 56.9147 253.398 56.9928 253.748 56.9927L267.254 56.9896C267.603 56.9898 267.948 56.912 268.263 56.7618C268.578 56.6116 268.855 56.3929 269.073 56.122L277.492 45.6389C277.71 45.3676 277.864 45.0509 277.942 44.7125C278.019 44.374 278.019 44.0225 277.942 43.6841L274.935 30.6122C274.857 30.2739 274.704 29.9573 274.486 29.686C274.268 29.4148 273.991 29.1957 273.676 29.0452L261.507 23.2289C261.156 23.061 260.768 22.9833 260.379 23.003Z" fill="#1F71E3"/>
<path d="M260.499 27.4512C260.097 27.4512 259.771 27.8138 259.771 28.2612C259.771 28.268 259.772 28.2746 259.773 28.2814C259.772 28.3422 259.769 28.4154 259.771 28.4683C259.781 28.7263 259.837 28.9238 259.871 29.1615C259.932 29.6702 259.983 30.092 259.951 30.4839C259.921 30.6317 259.812 30.7669 259.715 30.8609L259.698 31.1693C259.261 31.2056 258.821 31.2719 258.381 31.3718C256.49 31.8016 254.862 32.7766 253.623 34.093C253.542 34.0381 253.401 33.9371 253.36 33.9061C253.229 33.9237 253.098 33.9639 252.927 33.8641C252.601 33.6445 252.304 33.3413 251.945 32.9762C251.78 32.8015 251.661 32.6352 251.466 32.4668C251.421 32.4286 251.353 32.3769 251.304 32.3376C251.151 32.2156 250.971 32.1519 250.797 32.146C250.573 32.1383 250.357 32.2259 250.216 32.403C249.965 32.7178 250.046 33.1989 250.395 33.4778C250.399 33.4806 250.402 33.4828 250.406 33.4855C250.454 33.5245 250.513 33.5744 250.557 33.607C250.764 33.7604 250.954 33.8389 251.161 33.9606C251.596 34.2299 251.957 34.4531 252.244 34.7223C252.356 34.8417 252.375 35.052 252.39 35.1429L252.623 35.3516C251.374 37.234 250.796 39.559 251.137 41.9281L250.832 42.0169C250.752 42.1208 250.638 42.2843 250.52 42.3331C250.145 42.4512 249.723 42.4946 249.214 42.548C248.975 42.5679 248.769 42.556 248.515 42.6041C248.459 42.6147 248.382 42.6349 248.321 42.6493C248.319 42.6497 248.317 42.6503 248.314 42.6508C248.311 42.6516 248.307 42.6532 248.304 42.6539C247.874 42.7578 247.598 43.1527 247.687 43.5418C247.776 43.931 248.195 44.1677 248.627 44.0745C248.63 44.0738 248.635 44.0737 248.638 44.073C248.643 44.0719 248.647 44.0695 248.652 44.0683C248.712 44.0551 248.788 44.0404 248.84 44.0262C249.09 43.9595 249.27 43.8614 249.494 43.7755C249.976 43.6025 250.375 43.4579 250.764 43.4016C250.926 43.3889 251.097 43.5019 251.182 43.5496L251.5 43.4951C252.23 45.7622 253.761 47.5946 255.7 48.7444L255.568 49.0622C255.615 49.1855 255.668 49.3525 255.632 49.4743C255.491 49.8413 255.249 50.2286 254.973 50.6603C254.84 50.8598 254.703 51.0146 254.583 51.2429C254.554 51.2975 254.517 51.3814 254.489 51.4392C254.302 51.84 254.439 52.3017 254.799 52.475C255.161 52.6493 255.61 52.4655 255.804 52.0638C255.805 52.0632 255.806 52.0628 255.806 52.0622C255.806 52.0618 255.806 52.0611 255.806 52.0607C255.834 52.0037 255.873 51.9289 255.896 51.8753C255.999 51.6387 256.034 51.4359 256.106 51.2071C256.299 50.7226 256.405 50.2142 256.67 49.8974C256.743 49.8107 256.861 49.7773 256.984 49.7444L257.149 49.4453C258.839 50.0947 260.731 50.2689 262.62 49.8394C263.051 49.7415 263.468 49.6147 263.87 49.4625C263.916 49.5448 264.002 49.703 264.026 49.7429C264.15 49.7835 264.286 49.8045 264.397 49.9687C264.596 50.3081 264.732 50.7096 264.897 51.1946C264.97 51.4234 265.005 51.6262 265.109 51.8628C265.132 51.9168 265.171 51.9927 265.199 52.0498C265.393 52.4527 265.843 52.6373 266.206 52.4625C266.565 52.2892 266.703 51.8275 266.515 51.4267C266.488 51.369 266.449 51.2851 266.42 51.2304C266.3 51.0021 266.163 50.8489 266.03 50.6494C265.754 50.2177 265.525 49.859 265.384 49.4921C265.325 49.3028 265.394 49.1851 265.44 49.0622C265.413 49.0305 265.354 48.8518 265.319 48.7678C267.333 47.5771 268.819 45.6763 269.517 43.4811C269.612 43.4959 269.775 43.5249 269.829 43.5356C269.938 43.4633 270.039 43.3689 270.236 43.3845C270.625 43.4408 271.024 43.5854 271.506 43.7583C271.73 43.8442 271.911 43.9439 272.16 44.0107C272.212 44.0248 272.288 44.0379 272.348 44.0512C272.353 44.0524 272.357 44.0547 272.362 44.0558C272.365 44.0566 272.37 44.0567 272.373 44.0574C272.805 44.1505 273.224 43.9139 273.313 43.5247C273.401 43.1355 273.126 42.7405 272.697 42.6368C272.634 42.6226 272.546 42.5985 272.485 42.587C272.231 42.5389 272.025 42.5508 271.786 42.5309C271.277 42.4775 270.855 42.4341 270.481 42.3159C270.328 42.2566 270.219 42.0746 270.166 41.9997L269.872 41.9141C270.025 40.8098 269.983 39.6605 269.72 38.5106C269.453 37.3499 268.983 36.2884 268.355 35.3532C268.43 35.2845 268.573 35.1582 268.613 35.1211C268.625 34.9903 268.615 34.8532 268.75 34.7083C269.036 34.4391 269.398 34.2159 269.833 33.9466C270.04 33.8249 270.231 33.7464 270.439 33.593C270.485 33.5583 270.55 33.5034 270.599 33.4637C270.948 33.1848 271.029 32.7037 270.778 32.389C270.527 32.0742 270.041 32.0446 269.692 32.3235C269.642 32.363 269.574 32.4144 269.53 32.4528C269.334 32.6212 269.213 32.7875 269.049 32.9622C268.69 33.3273 268.393 33.632 268.067 33.8516C267.926 33.9339 267.719 33.9054 267.625 33.8999L267.348 34.0977C265.768 32.4398 263.618 31.3799 261.302 31.174C261.296 31.0768 261.287 30.9013 261.285 30.8484C261.19 30.7576 261.076 30.6801 261.047 30.4839C261.015 30.092 261.068 29.6702 261.13 29.1615C261.163 28.9238 261.22 28.7263 261.229 28.4683C261.231 28.4097 261.228 28.3246 261.228 28.2612C261.227 27.8138 260.901 27.4511 260.499 27.4512ZM259.587 33.1055L259.371 36.9295L259.355 36.9373C259.341 37.2794 259.06 37.5526 258.714 37.5526C258.573 37.5526 258.442 37.5071 258.336 37.4295L258.33 37.4327L255.197 35.2099C256.16 34.2623 257.392 33.562 258.811 33.2394C259.07 33.1805 259.329 33.1368 259.587 33.1055ZM261.413 33.1055C263.07 33.3095 264.602 34.0605 265.776 35.2114L262.664 37.4202L262.653 37.4155C262.377 37.6175 261.988 37.5674 261.772 37.2971C261.684 37.1864 261.638 37.0563 261.632 36.9249L261.629 36.9233L261.413 33.1055ZM254.061 36.6383L256.922 39.199L256.918 39.2146C257.177 39.4393 257.215 39.8291 256.999 40.0994C256.911 40.2101 256.793 40.2843 256.666 40.319L256.663 40.3315L252.997 41.3907C252.81 39.6827 253.212 38.0225 254.061 36.6383ZM266.917 36.6398C267.342 37.3293 267.664 38.0994 267.855 38.9342C268.045 39.7591 268.092 40.5825 268.014 41.3782L264.329 40.3159L264.326 40.3003C263.996 40.21 263.793 39.8741 263.87 39.5371C263.901 39.399 263.975 39.2822 264.074 39.1959L264.072 39.1881L266.917 36.6398ZM259.913 39.3969H261.084L261.813 40.3081L261.551 41.4452L260.499 41.9514L259.444 41.4436L259.183 40.3065L259.913 39.3969ZM263.669 42.5153C263.719 42.5128 263.769 42.5173 263.817 42.5262L263.823 42.5184L267.616 43.1602C267.061 44.721 265.999 46.0731 264.58 46.978L263.107 43.4187L263.112 43.4125C262.977 43.098 263.112 42.7292 263.423 42.5792C263.503 42.5408 263.586 42.5195 263.669 42.5153ZM257.3 42.5309C257.589 42.5349 257.849 42.736 257.916 43.0309C257.947 43.1689 257.932 43.3057 257.88 43.4265L257.891 43.4406L256.435 46.964C255.073 46.0893 253.988 44.7796 253.408 43.1726L257.167 42.534L257.174 42.5418C257.216 42.534 257.258 42.5303 257.3 42.5309ZM260.476 44.0745C260.577 44.0708 260.679 44.0915 260.776 44.1384C260.904 44.1998 261.002 44.2966 261.064 44.4125H261.078L262.932 47.7646C262.691 47.8453 262.444 47.9143 262.191 47.9718C260.773 48.2939 259.36 48.1963 258.081 47.76L259.93 44.4141H259.933C260.044 44.2065 260.254 44.0827 260.476 44.0745Z" fill="white" stroke="white" stroke-width="0.25"/>
<defs>
<filter id="filter0_d_2353_3430" x="-137.159" y="-207.263" width="620.317" height="620.317" filterUnits="userSpaceOnUse" color-interpolation-filters="sRGB">
<feFlood flood-opacity="0" result="BackgroundImageFix"/>
<feColorMatrix in="SourceAlpha" type="matrix" values="0 0 0 0 0 0 0 0 0 0 0 0 0 0 0 0 0 0 127 0" result="hardAlpha"/>
<feMorphology radius="43" operator="dilate" in="SourceAlpha" result="effect1_dropShadow_2353_3430"/>
<feOffset/>
<feGaussianBlur stdDeviation="64"/>
<feComposite in2="hardAlpha" operator="out"/>
<feColorMatrix type="matrix" values="0 0 0 0 0.968627 0 0 0 0 0.968627 0 0 0 0 0.968627 0 0 0 1 0"/>
<feBlend mode="normal" in2="BackgroundImageFix" result="effect1_dropShadow_2353_3430"/>
<feBlend mode="normal" in="SourceGraphic" in2="effect1_dropShadow_2353_3430" result="shape"/>
</filter>
<filter id="filter1_d_2353_3430" x="-103.317" y="-173.421" width="552.634" height="552.634" filterUnits="userSpaceOnUse" color-interpolation-filters="sRGB">
<feFlood flood-opacity="0" result="BackgroundImageFix"/>
<feColorMatrix in="SourceAlpha" type="matrix" values="0 0 0 0 0 0 0 0 0 0 0 0 0 0 0 0 0 0 127 0" result="hardAlpha"/>
<feMorphology radius="43" operator="dilate" in="SourceAlpha" result="effect1_dropShadow_2353_3430"/>
<feOffset/>
<feGaussianBlur stdDeviation="64"/>
<feComposite in2="hardAlpha" operator="out"/>
<feColorMatrix type="matrix" values="0 0 0 0 0.968627 0 0 0 0 0.968627 0 0 0 0 0.968627 0 0 0 1 0"/>
<feBlend mode="normal" in2="BackgroundImageFix" result="effect1_dropShadow_2353_3430"/>
<feBlend mode="normal" in="SourceGraphic" in2="effect1_dropShadow_2353_3430" result="shape"/>
</filter>
<filter id="filter2_d_2353_3430" x="-70.059" y="-140.163" width="486.118" height="486.118" filterUnits="userSpaceOnUse" color-interpolation-filters="sRGB">
<feFlood flood-opacity="0" result="BackgroundImageFix"/>
<feColorMatrix in="SourceAlpha" type="matrix" values="0 0 0 0 0 0 0 0 0 0 0 0 0 0 0 0 0 0 127 0" result="hardAlpha"/>
<feMorphology radius="43" operator="dilate" in="SourceAlpha" result="effect1_dropShadow_2353_3430"/>
<feOffset/>
<feGaussianBlur stdDeviation="64"/>
<feComposite in2="hardAlpha" operator="out"/>
<feColorMatrix type="matrix" values="0 0 0 0 0.968627 0 0 0 0 0.968627 0 0 0 0 0.968627 0 0 0 1 0"/>
<feBlend mode="normal" in2="BackgroundImageFix" result="effect1_dropShadow_2353_3430"/>
<feBlend mode="normal" in="SourceGraphic" in2="effect1_dropShadow_2353_3430" result="shape"/>
</filter>
<filter id="filter3_d_2353_3430" x="-35.634" y="-105.738" width="417.268" height="417.269" filterUnits="userSpaceOnUse" color-interpolation-filters="sRGB">
<feFlood flood-opacity="0" result="BackgroundImageFix"/>
<feColorMatrix in="SourceAlpha" type="matrix" values="0 0 0 0 0 0 0 0 0 0 0 0 0 0 0 0 0 0 127 0" result="hardAlpha"/>
<feMorphology radius="43" operator="dilate" in="SourceAlpha" result="effect1_dropShadow_2353_3430"/>
<feOffset/>
<feGaussianBlur stdDeviation="64"/>
<feComposite in2="hardAlpha" operator="out"/>
<feColorMatrix type="matrix" values="0 0 0 0 0.968627 0 0 0 0 0.968627 0 0 0 0 0.968627 0 0 0 1 0"/>
<feBlend mode="normal" in2="BackgroundImageFix" result="effect1_dropShadow_2353_3430"/>
<feBlend mode="normal" in="SourceGraphic" in2="effect1_dropShadow_2353_3430" result="shape"/>
</filter>
<clipPath id="clip0_2353_3430">
<rect width="34" height="33" fill="white" transform="translate(243 146)"/>
</clipPath>
</defs>
</svg>
