<svg width="192" height="192" viewBox="0 0 192 192" fill="none" xmlns="http://www.w3.org/2000/svg">
<rect width="192" height="192" rx="16" fill="#F04832"/>
<path d="M50.8594 131V60.541H97.002V72.6992H65.6055V91.5957H94.2676V103.266H65.6055V131H50.8594Z" fill="white"/>
<path d="M126.885 132.074C110.869 132.074 101.152 121.674 101.152 104.926V104.877C101.152 88.2266 110.967 77.582 126.299 77.582C141.631 77.582 151.25 87.9824 151.25 103.803V108.197H115.215C115.361 116.547 119.902 121.43 127.178 121.43C133.037 121.43 136.602 118.207 137.627 115.277L137.725 114.984H150.811L150.664 115.521C149.053 123.236 141.826 132.074 126.885 132.074ZM126.543 88.2266C120.684 88.2266 116.289 92.1328 115.361 99.2129H137.578C136.699 91.9863 132.451 88.2266 126.543 88.2266Z" fill="white"/>
</svg>
