<svg width="297" height="175" viewBox="0 0 297 175" fill="none" xmlns="http://www.w3.org/2000/svg">
<g clip-path="url(#clip0_2353_3405)">
<path opacity="0.6" d="M43.0002 3.49982C43.0001 20.1665 43.0001 36.8332 43 53.4998C46.6701 53.4998 50.2193 53.4998 53.6547 53.4998C117.705 53.5001 181.386 53.4992 245.31 53.4996C248.904 53.4997 252.298 53.4997 256 53.4997C256 36.833 256 20.1664 256 3.49969C252.298 3.49967 248.905 3.49965 245.311 3.49964C181.386 3.49918 117.705 3.50009 53.6548 3.49984C50.2194 3.49983 46.6702 3.49983 43.0002 3.49982Z" fill="url(#paint0_linear_2353_3405)"/>
<path opacity="0.3" d="M42.5011 55.4971C42.5011 62.8304 42.5011 70.1637 42.5011 77.4971C46.0911 77.4975 49.4631 77.529 52.9903 77.5961C115.861 76.3422 175.869 101.341 243.006 102.357C246.753 102.454 250.247 102.499 254 102.5C254 95.1662 254 87.8329 254 80.4995C250.438 80.4988 247.128 80.4567 243.585 80.3644C182.026 79.8881 119.653 54.5358 53.4112 55.6001C49.7369 55.5303 46.2295 55.4975 42.5011 55.4971Z" fill="url(#paint1_linear_2353_3405)"/>
<path opacity="0.3" d="M43.4994 79.5007C43.4994 88.8341 43.4994 98.1674 43.4994 107.501C47.1003 107.503 50.363 107.594 53.9078 107.8C115.959 106.38 164.962 173.385 242.042 173.192C246.109 173.403 249.899 173.497 253.999 173.499C253.999 164.166 253.999 154.833 253.999 145.499C250.375 145.498 247.049 145.414 243.504 145.23C179.76 147.938 133.428 82.0078 55.5485 79.8479C51.412 79.6078 47.6346 79.5033 43.4994 79.5007Z" fill="url(#paint2_linear_2353_3405)"/>
<path opacity="0.3" d="M43.0001 134.5C43.0001 147.167 43.0001 159.833 43.0001 172.5C46.9232 172.482 50.537 172.418 54.4423 172.295C125.743 172.077 185.006 138.087 247.026 139.676C250.552 139.574 253.898 139.517 257.501 139.5C257.501 127.5 257.501 115.5 257.501 103.5C253.61 103.484 249.982 103.51 246.141 103.587C175.819 102.129 114.138 135.922 53.4007 134.41C49.8671 134.489 46.5822 134.516 43.0001 134.5Z" fill="url(#paint3_linear_2353_3405)"/>
<path opacity="0.6" d="M43.9997 114.002C43.9997 120.336 43.9997 126.669 43.9997 133.002C48.0241 133 51.7072 132.91 55.7227 132.704C129.849 131.643 180.959 72.6001 246.711 74.7437C250.36 74.5766 253.785 74.5004 257.501 74.499C257.501 68.1656 257.501 61.8323 257.501 55.499C253.499 55.5005 249.795 55.5825 245.833 55.7639C172.117 54.9359 119.379 114.547 54.7392 113.729C51.077 113.917 47.7032 114 43.9997 114.002Z" fill="url(#paint4_linear_2353_3405)"/>
<rect y="1.69238" width="52" height="107" rx="12" fill="#1F71E3" stroke="#F7F7F7" stroke-width="3"/>
<rect y="113" width="52" height="61" rx="12" fill="#2697DD" stroke="#F7F7F7" stroke-width="3"/>
<rect x="245" y="79.6924" width="52" height="60" rx="12" fill="#FF8E1C"/>
<rect x="245" y="79.6924" width="52" height="60" rx="12" fill="#F7F7F7" fill-opacity="0.5"/>
<rect x="245" y="79.6924" width="52" height="60" rx="12" stroke="#F7F7F7" stroke-width="3"/>
<rect x="245" y="144" width="52" height="30" rx="12" fill="#555659"/>
<rect x="245" y="144" width="52" height="30" rx="12" fill="#F7F7F7" fill-opacity="0.5"/>
<rect x="245" y="144" width="52" height="30" rx="12" stroke="#F7F7F7" stroke-width="3"/>
<rect x="245" y="1.69238" width="52" height="74" rx="12" fill="#F64632" stroke="#F7F7F7" stroke-width="3"/>
<path d="M16.8247 26.1587C14.6157 26.1587 13.0034 24.6035 13.0034 21.4995V21.4868C13.0034 18.4844 14.457 16.6816 16.8438 16.6816C18.6147 16.6816 19.9478 17.7036 20.2207 19.1191L20.2334 19.1826H18.3418L18.3228 19.1255C18.0942 18.5732 17.5864 18.1987 16.8374 18.1987C15.498 18.1987 14.9141 19.4746 14.8442 21.0933C14.8379 21.2202 14.8315 21.3472 14.8315 21.4424H14.8696C15.2314 20.5918 16.1328 19.9697 17.3706 19.9697C19.1416 19.9697 20.354 21.2266 20.354 22.9404V22.9531C20.354 24.8257 18.8623 26.1587 16.8247 26.1587ZM15.1235 22.9976C15.1235 23.918 15.8599 24.6353 16.7993 24.6353C17.7324 24.6353 18.4878 23.9243 18.4878 23.0229V23.0103C18.4878 22.0581 17.7705 21.3853 16.8184 21.3853C15.8599 21.3853 15.1235 22.0518 15.1235 22.9849V22.9976Z" fill="white" fill-opacity="0.9"/>
<path d="M25.978 26V24.3179H21.4204V22.7183L25.0957 16.8403H27.7998V22.7881H29.0059V24.3179H27.7998V26H25.978ZM23.0898 22.8389H26.0161V18.2241H25.9717L23.0898 22.7881V22.8389Z" fill="white" fill-opacity="0.9"/>
<path d="M32.1543 21.6582C30.7515 21.6582 29.8882 20.7188 29.8882 19.208V19.2017C29.8882 17.6973 30.7515 16.7515 32.1543 16.7515C33.5571 16.7515 34.4141 17.6973 34.4141 19.2017V19.208C34.4141 20.7188 33.5571 21.6582 32.1543 21.6582ZM33.3857 26H31.7671L37.5181 16.8403H39.124L33.3857 26ZM32.1543 20.4521C32.605 20.4521 32.8525 20.0269 32.8525 19.2144V19.208C32.8525 18.3892 32.605 17.9702 32.1543 17.9702C31.6973 17.9702 31.4497 18.3892 31.4497 19.208V19.2144C31.4497 20.0269 31.6973 20.4521 32.1543 20.4521ZM38.7495 26.0889C37.3467 26.0889 36.4771 25.1431 36.4771 23.6323V23.626C36.4771 22.1216 37.3467 21.1821 38.7495 21.1821C40.1523 21.1821 41.0093 22.1216 41.0093 23.626V23.6323C41.0093 25.1431 40.1523 26.0889 38.7495 26.0889ZM38.7495 24.8765C39.2002 24.8765 39.4414 24.4512 39.4414 23.6387V23.6323C39.4414 22.8198 39.2002 22.3945 38.7495 22.3945C38.2925 22.3945 38.0449 22.8198 38.0449 23.6323V23.6387C38.0449 24.4512 38.2925 24.8765 38.7495 24.8765Z" fill="white" fill-opacity="0.9"/>
<path d="M261.675 26.0005V24.3184H257.118V22.7188L260.793 16.8408H263.497V22.7886H264.703V24.3184H263.497V26.0005H261.675ZM258.787 22.8394H261.713V18.2246H261.669L258.787 22.7886V22.8394Z" fill="white" fill-opacity="0.9"/>
<path d="M269.242 26.1592C267.249 26.1592 265.928 24.9976 265.814 23.4678L265.808 23.3726H267.579L267.591 23.417C267.725 24.1089 268.366 24.6421 269.248 24.6421C270.251 24.6421 270.956 23.9565 270.956 22.979V22.9663C270.949 22.0015 270.245 21.3223 269.254 21.3223C268.785 21.3223 268.385 21.4619 268.074 21.7095C267.89 21.8491 267.744 22.0269 267.636 22.2173H265.966L266.385 16.8408H272.231V18.3643H267.909L267.687 20.9414H267.725C268.105 20.3257 268.861 19.9512 269.788 19.9512C271.527 19.9512 272.784 21.2017 272.784 22.9282V22.9409C272.784 24.8579 271.336 26.1592 269.242 26.1592Z" fill="white" fill-opacity="0.9"/>
<path d="M275.977 21.6587C274.574 21.6587 273.71 20.7192 273.71 19.2085V19.2021C273.71 17.6978 274.574 16.752 275.977 16.752C277.379 16.752 278.236 17.6978 278.236 19.2021V19.2085C278.236 20.7192 277.379 21.6587 275.977 21.6587ZM277.208 26.0005H275.589L281.34 16.8408H282.946L277.208 26.0005ZM275.977 20.4526C276.427 20.4526 276.675 20.0273 276.675 19.2148V19.2085C276.675 18.3896 276.427 17.9707 275.977 17.9707C275.52 17.9707 275.272 18.3896 275.272 19.2085V19.2148C275.272 20.0273 275.52 20.4526 275.977 20.4526ZM282.572 26.0894C281.169 26.0894 280.299 25.1436 280.299 23.6328V23.6265C280.299 22.1221 281.169 21.1826 282.572 21.1826C283.975 21.1826 284.832 22.1221 284.832 23.6265V23.6328C284.832 25.1436 283.975 26.0894 282.572 26.0894ZM282.572 24.877C283.022 24.877 283.264 24.4517 283.264 23.6392V23.6328C283.264 22.8203 283.022 22.395 282.572 22.395C282.115 22.395 281.867 22.8203 281.867 23.6328V23.6392C281.867 24.4517 282.115 24.877 282.572 24.877Z" fill="white" fill-opacity="0.9"/>
<path d="M260.672 103.159C258.597 103.159 257.238 102.067 257.111 100.486L257.105 100.404H258.933L258.946 100.474C259.028 101.127 259.676 101.616 260.666 101.616C261.65 101.616 262.285 101.089 262.285 100.34V100.328C262.285 99.4517 261.631 98.9692 260.526 98.9692H259.479V97.6045H260.501C261.459 97.6045 262.082 97.0967 262.082 96.354V96.3413C262.082 95.5986 261.555 95.1543 260.653 95.1543C259.758 95.1543 259.149 95.6177 259.073 96.3286L259.066 96.3857H257.308L257.314 96.3096C257.441 94.7227 258.73 93.6816 260.653 93.6816C262.627 93.6816 263.897 94.6465 263.897 96.0874V96.1001C263.897 97.2427 263.059 97.9854 261.986 98.2075V98.2456C263.345 98.3726 264.233 99.1597 264.233 100.404V100.417C264.233 102.054 262.812 103.159 260.672 103.159Z" fill="white" fill-opacity="0.7"/>
<path d="M269.108 103.159C266.899 103.159 265.287 101.604 265.287 98.4995V98.4868C265.287 95.4844 266.741 93.6816 269.127 93.6816C270.898 93.6816 272.231 94.7036 272.504 96.1191L272.517 96.1826H270.625L270.606 96.1255C270.378 95.5732 269.87 95.1987 269.121 95.1987C267.782 95.1987 267.198 96.4746 267.128 98.0933C267.122 98.2202 267.115 98.3472 267.115 98.4424H267.153C267.515 97.5918 268.417 96.9697 269.654 96.9697C271.425 96.9697 272.638 98.2266 272.638 99.9404V99.9531C272.638 101.826 271.146 103.159 269.108 103.159ZM267.407 99.9976C267.407 100.918 268.144 101.635 269.083 101.635C270.016 101.635 270.771 100.924 270.771 100.023V100.01C270.771 99.0581 270.054 98.3853 269.102 98.3853C268.144 98.3853 267.407 99.0518 267.407 99.9849V99.9976Z" fill="white" fill-opacity="0.7"/>
<path d="M276.021 98.6582C274.618 98.6582 273.755 97.7188 273.755 96.208V96.2017C273.755 94.6973 274.618 93.7515 276.021 93.7515C277.424 93.7515 278.281 94.6973 278.281 96.2017V96.208C278.281 97.7188 277.424 98.6582 276.021 98.6582ZM277.252 103H275.634L281.385 93.8403H282.991L277.252 103ZM276.021 97.4521C276.472 97.4521 276.719 97.0269 276.719 96.2144V96.208C276.719 95.3892 276.472 94.9702 276.021 94.9702C275.564 94.9702 275.316 95.3892 275.316 96.208V96.2144C275.316 97.0269 275.564 97.4521 276.021 97.4521ZM282.616 103.089C281.213 103.089 280.344 102.143 280.344 100.632V100.626C280.344 99.1216 281.213 98.1821 282.616 98.1821C284.019 98.1821 284.876 99.1216 284.876 100.626V100.632C284.876 102.143 284.019 103.089 282.616 103.089ZM282.616 101.876C283.067 101.876 283.308 101.451 283.308 100.639V100.632C283.308 99.8198 283.067 99.3945 282.616 99.3945C282.159 99.3945 281.912 99.8198 281.912 100.632V100.639C281.912 101.451 282.159 101.876 282.616 101.876Z" fill="white" fill-opacity="0.7"/>
<path d="M260.526 164V156.599H260.488L258.152 158.186V156.484L260.52 154.84H262.424V164H260.526Z" fill="white" fill-opacity="0.7"/>
<path d="M267.934 154.682C270.143 154.682 271.755 156.23 271.755 159.334V159.347C271.755 162.35 270.302 164.159 267.915 164.159C266.144 164.159 264.811 163.13 264.538 161.715L264.525 161.658H266.417L266.436 161.708C266.665 162.261 267.172 162.635 267.921 162.635C269.261 162.635 269.845 161.359 269.915 159.741C269.921 159.62 269.927 159.493 269.921 159.392H269.889C269.527 160.242 268.626 160.864 267.388 160.864C265.617 160.864 264.405 159.614 264.405 157.894V157.881C264.405 156.008 265.896 154.682 267.934 154.682ZM267.94 159.449C268.899 159.449 269.635 158.782 269.635 157.849V157.843C269.635 156.916 268.899 156.205 267.959 156.205C267.026 156.205 266.271 156.91 266.271 157.817V157.83C266.271 158.782 266.988 159.449 267.94 159.449Z" fill="white" fill-opacity="0.7"/>
<path d="M275.05 159.658C273.647 159.658 272.784 158.719 272.784 157.208V157.202C272.784 155.697 273.647 154.751 275.05 154.751C276.453 154.751 277.31 155.697 277.31 157.202V157.208C277.31 158.719 276.453 159.658 275.05 159.658ZM276.281 164H274.663L280.414 154.84H282.02L276.281 164ZM275.05 158.452C275.5 158.452 275.748 158.027 275.748 157.214V157.208C275.748 156.389 275.5 155.97 275.05 155.97C274.593 155.97 274.345 156.389 274.345 157.208V157.214C274.345 158.027 274.593 158.452 275.05 158.452ZM281.645 164.089C280.242 164.089 279.373 163.143 279.373 161.632V161.626C279.373 160.122 280.242 159.182 281.645 159.182C283.048 159.182 283.905 160.122 283.905 161.626V161.632C283.905 163.143 283.048 164.089 281.645 164.089ZM281.645 162.876C282.096 162.876 282.337 162.451 282.337 161.639V161.632C282.337 160.82 282.096 160.395 281.645 160.395C281.188 160.395 280.94 160.82 280.94 161.632V161.639C280.94 162.451 281.188 162.876 281.645 162.876Z" fill="white" fill-opacity="0.7"/>
<path d="M13.4351 136V134.686L16.6724 131.658C17.853 130.554 18.1006 130.103 18.1006 129.468V129.456C18.0942 128.707 17.5229 128.173 16.7104 128.173C15.771 128.173 15.1362 128.789 15.1108 129.614L15.1045 129.671H13.3271V129.621C13.3271 127.894 14.7617 126.682 16.6978 126.682C18.6338 126.682 19.9668 127.786 19.9668 129.348V129.36C19.9668 130.471 19.4399 131.195 17.8594 132.648L15.9424 134.4V134.477H20.0938V136H13.4351Z" fill="white" fill-opacity="0.9"/>
<path d="M24.937 136.159C22.728 136.159 21.1157 134.604 21.1157 131.5V131.487C21.1157 128.484 22.5693 126.682 24.9561 126.682C26.7271 126.682 28.0601 127.704 28.333 129.119L28.3457 129.183H26.4541L26.4351 129.125C26.2065 128.573 25.6987 128.199 24.9497 128.199C23.6104 128.199 23.0264 129.475 22.9565 131.093C22.9502 131.22 22.9438 131.347 22.9438 131.442H22.9819C23.3438 130.592 24.2451 129.97 25.4829 129.97C27.2539 129.97 28.4663 131.227 28.4663 132.94V132.953C28.4663 134.826 26.9746 136.159 24.937 136.159ZM23.2358 132.998C23.2358 133.918 23.9722 134.635 24.9116 134.635C25.8447 134.635 26.6001 133.924 26.6001 133.023V133.01C26.6001 132.058 25.8828 131.385 24.9307 131.385C23.9722 131.385 23.2358 132.052 23.2358 132.985V132.998Z" fill="white" fill-opacity="0.9"/>
<path d="M31.8496 131.658C30.4468 131.658 29.5835 130.719 29.5835 129.208V129.202C29.5835 127.697 30.4468 126.751 31.8496 126.751C33.2524 126.751 34.1094 127.697 34.1094 129.202V129.208C34.1094 130.719 33.2524 131.658 31.8496 131.658ZM33.0811 136H31.4624L37.2134 126.84H38.8193L33.0811 136ZM31.8496 130.452C32.3003 130.452 32.5479 130.027 32.5479 129.214V129.208C32.5479 128.389 32.3003 127.97 31.8496 127.97C31.3926 127.97 31.145 128.389 31.145 129.208V129.214C31.145 130.027 31.3926 130.452 31.8496 130.452ZM38.4448 136.089C37.042 136.089 36.1724 135.143 36.1724 133.632V133.626C36.1724 132.122 37.042 131.182 38.4448 131.182C39.8477 131.182 40.7046 132.122 40.7046 133.626V133.632C40.7046 135.143 39.8477 136.089 38.4448 136.089ZM38.4448 134.876C38.8955 134.876 39.1367 134.451 39.1367 133.639V133.632C39.1367 132.82 38.8955 132.395 38.4448 132.395C37.9878 132.395 37.7402 132.82 37.7402 133.632V133.639C37.7402 134.451 37.9878 134.876 38.4448 134.876Z" fill="white" fill-opacity="0.9"/>
</g>
<defs>
<linearGradient id="paint0_linear_2353_3405" x1="50" y1="28" x2="248" y2="28" gradientUnits="userSpaceOnUse">
<stop stop-color="#0060E5"/>
<stop offset="1" stop-color="#F64632"/>
</linearGradient>
<linearGradient id="paint1_linear_2353_3405" x1="51" y1="67.5" x2="249" y2="96" gradientUnits="userSpaceOnUse">
<stop stop-color="#1F71E3"/>
<stop offset="1" stop-color="#FF8D1C"/>
</linearGradient>
<linearGradient id="paint2_linear_2353_3405" x1="54" y1="92" x2="247" y2="162" gradientUnits="userSpaceOnUse">
<stop stop-color="#1F71E3"/>
<stop offset="1" stop-color="#555659"/>
</linearGradient>
<linearGradient id="paint3_linear_2353_3405" x1="51" y1="153" x2="247" y2="119.5" gradientUnits="userSpaceOnUse">
<stop stop-color="#2697DD"/>
<stop offset="1" stop-color="#FF8D1C"/>
</linearGradient>
<linearGradient id="paint4_linear_2353_3405" x1="47.5" y1="127" x2="249" y2="65" gradientUnits="userSpaceOnUse">
<stop stop-color="#2697DD"/>
<stop offset="1" stop-color="#F64632"/>
</linearGradient>
<clipPath id="clip0_2353_3405">
<rect width="297" height="175" fill="white"/>
</clipPath>
</defs>
</svg>
