<svg width="364" height="113" viewBox="0 0 364 113" fill="none" xmlns="http://www.w3.org/2000/svg">
<rect width="10" height="10" transform="translate(4 4)" fill="white"/>
<rect x="4" y="4" width="10" height="10" rx="2" fill="#888888"/>
<rect width="10" height="10" transform="translate(19 4)" fill="white"/>
<rect x="19" y="4" width="10" height="10" rx="2" fill="#F59822"/>
<rect width="10" height="10" transform="translate(30 4)" fill="white"/>
<rect x="30" y="4" width="10" height="10" rx="2" fill="#F59822"/>
<rect width="10" height="10" transform="translate(41 4)" fill="white"/>
<rect x="41" y="4" width="10" height="10" rx="2" fill="#F59822"/>
<rect width="10" height="10" transform="translate(52 4)" fill="white"/>
<rect x="52" y="4" width="10" height="10" rx="2" fill="#F59822"/>
<rect width="10" height="10" transform="translate(63 4)" fill="white"/>
<rect x="63" y="4" width="10" height="10" rx="2" fill="#F59822"/>
<rect width="10" height="10" transform="translate(74 4)" fill="white"/>
<rect x="74" y="4" width="10" height="10" rx="2" fill="#F59822"/>
<rect width="10" height="10" transform="translate(85 4)" fill="white"/>
<rect x="85" y="4" width="10" height="10" rx="2" fill="#F59822"/>
<rect width="10" height="10" transform="translate(96 4)" fill="white"/>
<rect x="96" y="4" width="10" height="10" rx="2" fill="#F59822"/>
<rect width="10" height="10" transform="translate(111 4)" fill="white"/>
<rect x="111" y="4" width="10" height="10" rx="2" fill="#F04832"/>
<rect width="10" height="10" transform="translate(122 4)" fill="white"/>
<rect x="122" y="4" width="10" height="10" rx="2" fill="#F04832"/>
<rect width="10" height="10" transform="translate(133 4)" fill="white"/>
<rect x="133" y="4" width="10" height="10" rx="2" fill="#F04832"/>
<rect width="10" height="10" transform="translate(144 4)" fill="white"/>
<rect x="144" y="4" width="10" height="10" rx="2" fill="#F04832"/>
<rect width="10" height="10" transform="translate(155 4)" fill="white"/>
<rect x="155" y="4" width="10" height="10" rx="2" fill="#F04832"/>
<rect width="10" height="10" transform="translate(166 4)" fill="white"/>
<rect x="166" y="4" width="10" height="10" rx="2" fill="#F04832"/>
<rect width="10" height="10" transform="translate(177 4)" fill="white"/>
<rect x="177" y="4" width="10" height="10" rx="2" fill="#F04832"/>
<rect width="10" height="10" transform="translate(188 4)" fill="white"/>
<rect x="188" y="4" width="10" height="10" rx="2" fill="#F04832"/>
<rect width="10" height="10" transform="translate(199 4)" fill="white"/>
<rect x="199" y="4" width="10" height="10" rx="2" fill="#F04832"/>
<rect width="10" height="10" transform="translate(210 4)" fill="white"/>
<rect x="210" y="4" width="10" height="10" rx="2" fill="#F04832"/>
<rect width="10" height="10" transform="translate(221 4)" fill="white"/>
<rect x="221" y="4" width="10" height="10" rx="2" fill="#F04832"/>
<rect width="10" height="10" transform="translate(232 4)" fill="white"/>
<rect x="232" y="4" width="10" height="10" rx="2" fill="#F04832"/>
<rect width="10" height="10" transform="translate(243 4)" fill="white"/>
<rect x="243" y="4" width="10" height="10" rx="2" fill="#F04832"/>
<rect width="10" height="10" transform="translate(254 4)" fill="white"/>
<rect x="254" y="4" width="10" height="10" rx="2" fill="#F04832"/>
<rect width="10" height="10" transform="translate(265 4)" fill="white"/>
<rect x="265" y="4" width="10" height="10" rx="2" fill="#F04832"/>
<rect width="10" height="10" transform="translate(276 4)" fill="white"/>
<rect x="276" y="4" width="10" height="10" rx="2" fill="#F04832"/>
<rect width="10" height="10" transform="translate(287 4)" fill="white"/>
<rect x="287" y="4" width="10" height="10" rx="2" fill="#F04832"/>
<rect width="10" height="10" transform="translate(298 4)" fill="white"/>
<rect x="298" y="4" width="10" height="10" rx="2" fill="#F04832"/>
<rect width="10" height="10" transform="translate(309 4)" fill="white"/>
<rect x="309" y="4" width="10" height="10" rx="2" fill="#F04832"/>
<rect width="10" height="10" transform="translate(320 4)" fill="white"/>
<rect x="320" y="4" width="10" height="10" rx="2" fill="#F04832"/>
<rect width="10" height="10" transform="translate(331 4)" fill="white"/>
<rect x="331" y="4" width="10" height="10" rx="2" fill="#F04832"/>
<rect width="10" height="10" transform="translate(342 4)" fill="white"/>
<rect x="342" y="4" width="10" height="10" rx="2" fill="#F04832"/>
<rect width="10" height="10" transform="translate(353 4)" fill="white"/>
<rect x="353" y="4" width="10" height="10" rx="2" fill="#F04832"/>
<path d="M36.3828 34L34.1562 25.625H36.4531L37.7188 31.8359H37.7656L39.25 25.625H41.4375L42.9297 31.8359H42.9766L44.25 25.625H46.5L44.2812 34H41.8516L40.3359 28.0781H40.2891L38.7812 34H36.3828Z" fill="#F59822"/>
<path d="M48.5781 24.5469C47.8906 24.5469 47.3594 24.0078 47.3594 23.3594C47.3594 22.7109 47.8906 22.1719 48.5781 22.1719C49.2656 22.1719 49.7969 22.7109 49.7969 23.3594C49.7969 24.0078 49.2656 24.5469 48.5781 24.5469ZM47.4375 34V25.625H49.7188V34H47.4375Z" fill="#F59822"/>
<path d="M51.25 34V25.625H53.5312V27H53.5781C54.0078 26.0391 54.8672 25.4531 56.1328 25.4531C57.9766 25.4531 59.0234 26.6328 59.0234 28.5938V34H56.7422V29.0625C56.7422 27.9688 56.2266 27.3438 55.2031 27.3438C54.1797 27.3438 53.5312 28.0938 53.5312 29.1875V34H51.25Z" fill="#F59822"/>
<path d="M63.5703 34.1719C61.4609 34.1719 60.1641 32.5312 60.1641 29.8125V29.8047C60.1641 27.0781 61.4609 25.4531 63.5703 25.4531C64.7578 25.4531 65.6953 26.0625 66.1484 27.0781H66.1953V22.7266H68.4766V34H66.1953V32.5703H66.1484C65.7031 33.5625 64.7812 34.1719 63.5703 34.1719ZM64.3359 32.2812C65.4453 32.2812 66.2031 31.3281 66.2031 29.8125V29.8047C66.2031 28.2969 65.4375 27.3438 64.3359 27.3438C63.2031 27.3438 62.4844 28.2734 62.4844 29.8047V29.8125C62.4844 31.3359 63.1953 32.2812 64.3359 32.2812Z" fill="#F59822"/>
<path d="M73.8438 34.1719C71.2969 34.1719 69.6953 32.5391 69.6953 29.8125V29.7969C69.6953 27.1016 71.3359 25.4531 73.8359 25.4531C76.3438 25.4531 77.9922 27.0859 77.9922 29.7969V29.8125C77.9922 32.5469 76.375 34.1719 73.8438 34.1719ZM73.8516 32.3828C74.9609 32.3828 75.6719 31.4453 75.6719 29.8125V29.7969C75.6719 28.1797 74.9453 27.2422 73.8359 27.2422C72.7344 27.2422 72.0156 28.1797 72.0156 29.7969V29.8125C72.0156 31.4531 72.7266 32.3828 73.8516 32.3828Z" fill="#F59822"/>
<path d="M80.7266 34L78.5 25.625H80.7969L82.0625 31.8359H82.1094L83.5938 25.625H85.7812L87.2734 31.8359H87.3203L88.5938 25.625H90.8438L88.625 34H86.1953L84.6797 28.0781H84.6328L83.125 34H80.7266Z" fill="#F59822"/>
<path d="M218.891 34.1719C216.344 34.1719 214.742 32.5391 214.742 29.8125V29.7969C214.742 27.1016 216.383 25.4531 218.883 25.4531C221.391 25.4531 223.039 27.0859 223.039 29.7969V29.8125C223.039 32.5469 221.422 34.1719 218.891 34.1719ZM218.898 32.3828C220.008 32.3828 220.719 31.4453 220.719 29.8125V29.7969C220.719 28.1797 219.992 27.2422 218.883 27.2422C217.781 27.2422 217.062 28.1797 217.062 29.7969V29.8125C217.062 31.4531 217.773 32.3828 218.898 32.3828Z" fill="#F04832"/>
<path d="M224.828 34V27.3438H223.688V25.625H224.828V24.9531C224.828 23.3125 225.609 22.5547 227.586 22.5547C228.008 22.5547 228.469 22.5938 228.734 22.6484V24.1562C228.578 24.125 228.359 24.1172 228.148 24.1172C227.391 24.1172 227.055 24.4375 227.055 25.0391V25.625H228.719V27.3438H227.109V34H224.828Z" fill="#F04832"/>
<path d="M230.531 34V27.3438H229.391V25.625H230.531V24.9531C230.531 23.3125 231.312 22.5547 233.289 22.5547C233.711 22.5547 234.172 22.5938 234.438 22.6484V24.1562C234.281 24.125 234.062 24.1172 233.852 24.1172C233.094 24.1172 232.758 24.4375 232.758 25.0391V25.625H234.422V27.3438H232.812V34H230.531Z" fill="#F04832"/>
<path d="M239.07 34.1719C236.75 34.1719 235.461 33.1016 235.281 31.5156L235.273 31.4453H237.5L237.516 31.5156C237.664 32.1719 238.156 32.5547 239.07 32.5547C239.93 32.5547 240.453 32.2188 240.453 31.6797V31.6719C240.453 31.2266 240.172 30.9688 239.352 30.7891L237.93 30.4922C236.305 30.1484 235.484 29.3359 235.484 28.0859V28.0781C235.484 26.4844 236.859 25.4531 238.992 25.4531C241.219 25.4531 242.461 26.6328 242.516 28.1016V28.1797H240.414L240.406 28.1172C240.328 27.5156 239.836 27.0625 238.992 27.0625C238.203 27.0625 237.711 27.4141 237.711 27.9531V27.9609C237.711 28.3906 238 28.6719 238.844 28.8516L240.266 29.1562C242.016 29.5234 242.734 30.2109 242.734 31.4453V31.4531C242.734 33.0938 241.227 34.1719 239.07 34.1719Z" fill="#F04832"/>
<path d="M247.672 34.1719C245.109 34.1719 243.555 32.5078 243.555 29.8281V29.8203C243.555 27.1562 245.125 25.4531 247.578 25.4531C250.031 25.4531 251.57 27.1172 251.57 29.6484V30.3516H245.805C245.828 31.6875 246.555 32.4688 247.719 32.4688C248.656 32.4688 249.227 31.9531 249.391 31.4844L249.406 31.4375H251.5L251.477 31.5234C251.219 32.7578 250.062 34.1719 247.672 34.1719ZM247.617 27.1562C246.68 27.1562 245.977 27.7812 245.828 28.9141H249.383C249.242 27.7578 248.562 27.1562 247.617 27.1562Z" fill="#F04832"/>
<path d="M256.078 34.1719C254.219 34.1719 253.344 33.4531 253.344 31.6562V27.3438H252.18V25.625H253.344V23.5781H255.648V25.625H257.18V27.3438H255.648V31.4062C255.648 32.1875 256 32.4531 256.688 32.4531C256.891 32.4531 257.039 32.4297 257.18 32.4141V34.0859C256.922 34.125 256.555 34.1719 256.078 34.1719Z" fill="#F04832"/>
<path d="M4.49316 106.164C2.22363 106.164 0.876953 104.202 0.876953 101.071V101.058C0.876953 97.9268 2.22363 95.9717 4.49316 95.9717C6.7627 95.9717 8.12305 97.9268 8.12305 101.058V101.071C8.12305 104.202 6.7627 106.164 4.49316 106.164ZM4.49316 105.091C5.99707 105.091 6.88574 103.546 6.88574 101.071V101.058C6.88574 98.583 5.99707 97.0518 4.49316 97.0518C2.98926 97.0518 2.11426 98.583 2.11426 101.058V101.071C2.11426 103.546 2.98926 105.091 4.49316 105.091Z" fill="black" fill-opacity="0.8"/>
<path d="M36.7119 106V97.4414H36.6846L34.0732 99.2598V98.0225L36.6982 96.1357H37.9014V106H36.7119Z" fill="black" fill-opacity="0.8"/>
<path d="M65.835 106V105.152L69.3076 101.529C70.6406 100.142 70.9482 99.6084 70.9482 98.7881V98.7744C70.9414 97.7695 70.1826 97.0449 69.1094 97.0449C67.8789 97.0449 66.9629 97.8926 66.9629 98.9521V98.9863H65.7734V98.9453C65.7734 97.2363 67.25 95.9717 69.0889 95.9717C70.873 95.9717 72.1787 97.168 72.1787 98.7129V98.7266C72.1787 99.8066 71.6797 100.62 69.8682 102.473L67.5234 104.879V104.906H72.3428V106H65.835Z" fill="black" fill-opacity="0.8"/>
<path d="M131.868 106V104.188H126.96V102.466L130.918 96.1357H133.83V102.541H135.129V104.188H133.83V106H131.868ZM128.758 102.596H131.909V97.626H131.861L128.758 102.541V102.596Z" fill="#F59822"/>
<path d="M260 106.171C257.648 106.171 256.021 105.002 256.021 103.307V103.293C256.021 102.015 256.972 101.071 258.298 100.812V100.771C257.156 100.49 256.384 99.6631 256.384 98.6104V98.5967C256.384 97.0723 257.867 95.9648 260 95.9648C262.126 95.9648 263.616 97.0723 263.616 98.5967V98.6104C263.616 99.6631 262.837 100.49 261.702 100.771V100.812C263.021 101.071 263.972 102.015 263.972 103.293V103.307C263.972 105.002 262.352 106.171 260 106.171ZM260 100.148C260.93 100.148 261.572 99.5947 261.572 98.8018V98.7881C261.572 98.002 260.923 97.4551 260 97.4551C259.077 97.4551 258.421 98.002 258.421 98.7881V98.8018C258.421 99.5947 259.07 100.148 260 100.148ZM260 104.667C261.073 104.667 261.832 104.038 261.832 103.17V103.156C261.832 102.281 261.087 101.646 260 101.646C258.913 101.646 258.161 102.281 258.161 103.156V103.17C258.161 104.038 258.92 104.667 260 104.667Z" fill="#F59822"/>
<rect x="16" width="1" height="39" fill="black" fill-opacity="0.8"/>
<rect x="108" width="1" height="39" fill="black" fill-opacity="0.8"/>
<rect x="4" y="87" width="126" height="1" fill="black" fill-opacity="0.8"/>
<rect x="263" y="87" width="95" height="1" fill="black" fill-opacity="0.8"/>
<rect x="68" y="83" width="1" height="9" fill="#333333"/>
<rect x="131" y="83" width="3" height="9" fill="#F59822"/>
<rect x="259" y="83" width="3" height="9" fill="#F59822"/>
<rect x="134" y="86" width="125" height="3" fill="#F59822"/>
<rect x="4" y="83" width="1" height="9" fill="#333333"/>
<rect x="36" y="83" width="1" height="9" fill="#333333"/>
<rect x="68" y="83" width="1" height="9" fill="#333333"/>
<path d="M358 84L363 87.5L358 91V84Z" fill="black" fill-opacity="0.8"/>
<rect x="201" y="83" width="9" height="9" rx="4.5" fill="#F04832" stroke="white" stroke-width="2"/>
</svg>
