<svg width="359" height="39" viewBox="0 0 359 39" fill="none" xmlns="http://www.w3.org/2000/svg">
<rect width="10" height="10" transform="translate(0 4)" fill="white"/>
<rect y="4" width="10" height="10" rx="2" fill="#888888"/>
<rect width="10" height="10" transform="translate(15 4)" fill="white"/>
<rect x="15" y="4" width="10" height="10" rx="2" fill="#F59822"/>
<rect width="10" height="10" transform="translate(26 4)" fill="white"/>
<rect x="26" y="4" width="10" height="10" rx="2" fill="#F59822"/>
<rect width="10" height="10" transform="translate(37 4)" fill="white"/>
<rect x="37" y="4" width="10" height="10" rx="2" fill="#F59822"/>
<rect width="10" height="10" transform="translate(48 4)" fill="white"/>
<rect x="48" y="4" width="10" height="10" rx="2" fill="#F59822"/>
<rect width="10" height="10" transform="translate(59 4)" fill="white"/>
<rect x="59" y="4" width="10" height="10" rx="2" fill="#F59822"/>
<rect width="10" height="10" transform="translate(70 4)" fill="white"/>
<rect x="70" y="4" width="10" height="10" rx="2" fill="#F59822"/>
<rect width="10" height="10" transform="translate(81 4)" fill="white"/>
<rect x="81" y="4" width="10" height="10" rx="2" fill="#F59822"/>
<rect width="10" height="10" transform="translate(92 4)" fill="white"/>
<rect x="92" y="4" width="10" height="10" rx="2" fill="#F59822"/>
<rect width="10" height="10" transform="translate(107 4)" fill="white"/>
<rect x="107" y="4" width="10" height="10" rx="2" fill="#F04832"/>
<rect width="10" height="10" transform="translate(118 4)" fill="white"/>
<rect x="118" y="4" width="10" height="10" rx="2" fill="#F04832"/>
<rect width="10" height="10" transform="translate(129 4)" fill="white"/>
<rect x="129" y="4" width="10" height="10" rx="2" fill="#F04832"/>
<rect width="10" height="10" transform="translate(140 4)" fill="white"/>
<rect x="140" y="4" width="10" height="10" rx="2" fill="#F04832"/>
<rect width="10" height="10" transform="translate(151 4)" fill="white"/>
<rect x="151" y="4" width="10" height="10" rx="2" fill="#F04832"/>
<rect width="10" height="10" transform="translate(162 4)" fill="white"/>
<rect x="162" y="4" width="10" height="10" rx="2" fill="#F04832"/>
<rect width="10" height="10" transform="translate(173 4)" fill="white"/>
<rect x="173" y="4" width="10" height="10" rx="2" fill="#F04832"/>
<rect width="10" height="10" transform="translate(184 4)" fill="white"/>
<rect x="184" y="4" width="10" height="10" rx="2" fill="#F04832"/>
<rect width="10" height="10" transform="translate(195 4)" fill="white"/>
<rect x="195" y="4" width="10" height="10" rx="2" fill="#F04832"/>
<rect width="10" height="10" transform="translate(206 4)" fill="white"/>
<rect x="206" y="4" width="10" height="10" rx="2" fill="#F04832"/>
<rect width="10" height="10" transform="translate(217 4)" fill="white"/>
<rect x="217" y="4" width="10" height="10" rx="2" fill="#F04832"/>
<rect width="10" height="10" transform="translate(228 4)" fill="white"/>
<rect x="228" y="4" width="10" height="10" rx="2" fill="#F04832"/>
<rect width="10" height="10" transform="translate(239 4)" fill="white"/>
<rect x="239" y="4" width="10" height="10" rx="2" fill="#F04832"/>
<rect width="10" height="10" transform="translate(250 4)" fill="white"/>
<rect x="250" y="4" width="10" height="10" rx="2" fill="#F04832"/>
<rect width="10" height="10" transform="translate(261 4)" fill="white"/>
<rect x="261" y="4" width="10" height="10" rx="2" fill="#F04832"/>
<rect width="10" height="10" transform="translate(272 4)" fill="white"/>
<rect x="272" y="4" width="10" height="10" rx="2" fill="#F04832"/>
<rect width="10" height="10" transform="translate(283 4)" fill="white"/>
<rect x="283" y="4" width="10" height="10" rx="2" fill="#F04832"/>
<rect width="10" height="10" transform="translate(294 4)" fill="white"/>
<rect x="294" y="4" width="10" height="10" rx="2" fill="#F04832"/>
<rect width="10" height="10" transform="translate(305 4)" fill="white"/>
<rect x="305" y="4" width="10" height="10" rx="2" fill="#F04832"/>
<rect width="10" height="10" transform="translate(316 4)" fill="white"/>
<rect x="316" y="4" width="10" height="10" rx="2" fill="#F04832"/>
<rect width="10" height="10" transform="translate(327 4)" fill="white"/>
<rect x="327" y="4" width="10" height="10" rx="2" fill="#F04832"/>
<rect width="10" height="10" transform="translate(338 4)" fill="white"/>
<rect x="338" y="4" width="10" height="10" rx="2" fill="#F04832"/>
<rect width="10" height="10" transform="translate(349 4)" fill="white"/>
<rect x="349" y="4" width="10" height="10" rx="2" fill="#F04832"/>
<path d="M28.6016 34.1719C26.0391 34.1719 24.4844 32.5078 24.4844 29.8281V29.8203C24.4844 27.1562 26.0547 25.4531 28.5078 25.4531C30.9609 25.4531 32.5 27.1172 32.5 29.6484V30.3516H26.7344C26.7578 31.6875 27.4844 32.4688 28.6484 32.4688C29.5859 32.4688 30.1562 31.9531 30.3203 31.4844L30.3359 31.4375H32.4297L32.4062 31.5234C32.1484 32.7578 30.9922 34.1719 28.6016 34.1719ZM28.5469 27.1562C27.6094 27.1562 26.9062 27.7812 26.7578 28.9141H30.3125C30.1719 27.7578 29.4922 27.1562 28.5469 27.1562Z" fill="#F59822"/>
<path d="M32.9844 34L35.6094 29.8281L33 25.625H35.5703L37.0781 28.4531H37.125L38.6094 25.625H41.0938L38.4766 29.7656L41.0703 34H38.5938L37 31.0938H36.9531L35.3828 34H32.9844Z" fill="#F59822"/>
<path d="M42.0078 36.7344V25.625H44.2891V27.0859H44.3438C44.7969 26.0703 45.7109 25.4531 46.8984 25.4531C49.0234 25.4531 50.3203 27.0781 50.3203 29.8047V29.8125C50.3203 32.5312 49.0234 34.1719 46.9297 34.1719C45.7344 34.1719 44.7891 33.5625 44.3359 32.5703H44.2891V36.7344H42.0078ZM46.1484 32.2812C47.2812 32.2812 48 31.3359 48 29.8125V29.8047C48 28.2734 47.2812 27.3438 46.1484 27.3438C45.0391 27.3438 44.2812 28.2969 44.2812 29.8125V29.8203C44.2812 31.3281 45.0391 32.2812 46.1484 32.2812Z" fill="#F59822"/>
<path d="M55.3516 34.1719C52.8047 34.1719 51.2031 32.5391 51.2031 29.8125V29.7969C51.2031 27.1016 52.8438 25.4531 55.3438 25.4531C57.8516 25.4531 59.5 27.0859 59.5 29.7969V29.8125C59.5 32.5469 57.8828 34.1719 55.3516 34.1719ZM55.3594 32.3828C56.4688 32.3828 57.1797 31.4453 57.1797 29.8125V29.7969C57.1797 28.1797 56.4531 27.2422 55.3438 27.2422C54.2422 27.2422 53.5234 28.1797 53.5234 29.7969V29.8125C53.5234 31.4531 54.2344 32.3828 55.3594 32.3828Z" fill="#F59822"/>
<path d="M60.6797 34V25.625H62.9609V27H63.0078C63.4375 26.0391 64.2969 25.4531 65.5625 25.4531C67.4062 25.4531 68.4531 26.6328 68.4531 28.5938V34H66.1719V29.0625C66.1719 27.9688 65.6562 27.3438 64.6328 27.3438C63.6094 27.3438 62.9609 28.0938 62.9609 29.1875V34H60.6797Z" fill="#F59822"/>
<path d="M73.7109 34.1719C71.1484 34.1719 69.5938 32.5078 69.5938 29.8281V29.8203C69.5938 27.1562 71.1641 25.4531 73.6172 25.4531C76.0703 25.4531 77.6094 27.1172 77.6094 29.6484V30.3516H71.8438C71.8672 31.6875 72.5938 32.4688 73.7578 32.4688C74.6953 32.4688 75.2656 31.9531 75.4297 31.4844L75.4453 31.4375H77.5391L77.5156 31.5234C77.2578 32.7578 76.1016 34.1719 73.7109 34.1719ZM73.6562 27.1562C72.7188 27.1562 72.0156 27.7812 71.8672 28.9141H75.4219C75.2812 27.7578 74.6016 27.1562 73.6562 27.1562Z" fill="#F59822"/>
<path d="M78.7891 34V25.625H81.0703V27H81.1172C81.5469 26.0391 82.4062 25.4531 83.6719 25.4531C85.5156 25.4531 86.5625 26.6328 86.5625 28.5938V34H84.2812V29.0625C84.2812 27.9688 83.7656 27.3438 82.7422 27.3438C81.7188 27.3438 81.0703 28.0938 81.0703 29.1875V34H78.7891Z" fill="#F59822"/>
<path d="M91.3359 34.1719C89.4766 34.1719 88.6016 33.4531 88.6016 31.6562V27.3438H87.4375V25.625H88.6016V23.5781H90.9062V25.625H92.4375V27.3438H90.9062V31.4062C90.9062 32.1875 91.2578 32.4531 91.9453 32.4531C92.1484 32.4531 92.2969 32.4297 92.4375 32.4141V34.0859C92.1797 34.125 91.8125 34.1719 91.3359 34.1719Z" fill="#F59822"/>
<path d="M199.453 34V25.625H201.734V27.0312H201.781C202.125 26.0781 203 25.4531 204.125 25.4531C205.297 25.4531 206.148 26.0781 206.43 27.1797H206.477C206.852 26.125 207.852 25.4531 209.078 25.4531C210.719 25.4531 211.82 26.5859 211.82 28.2734V34H209.539V28.8438C209.539 27.875 209.055 27.3438 208.172 27.3438C207.305 27.3438 206.734 27.9766 206.734 28.9062V34H204.539V28.7734C204.539 27.875 204.031 27.3438 203.188 27.3438C202.32 27.3438 201.734 28 201.734 28.9453V34H199.453Z" fill="#F04832"/>
<path d="M215.758 34.1328C214.078 34.1328 212.945 33.0781 212.945 31.6016V31.5859C212.945 30.0625 214.125 29.1719 216.203 29.0391L218.273 28.9141V28.3984C218.273 27.6562 217.789 27.1953 216.898 27.1953C216.047 27.1953 215.531 27.5938 215.422 28.1328L215.406 28.2031H213.32L213.328 28.1094C213.453 26.5625 214.781 25.4531 216.992 25.4531C219.156 25.4531 220.555 26.5703 220.555 28.2578V34H218.273V32.75H218.227C217.75 33.6094 216.859 34.1328 215.758 34.1328ZM215.203 31.4844C215.203 32.1016 215.711 32.4688 216.5 32.4688C217.523 32.4688 218.273 31.8125 218.273 30.9375V30.3359L216.547 30.4453C215.664 30.5 215.203 30.875 215.203 31.4688V31.4844Z" fill="#F04832"/>
<path d="M222.031 34V25.625H224.312V27H224.359C224.789 26.0391 225.648 25.4531 226.914 25.4531C228.758 25.4531 229.805 26.6328 229.805 28.5938V34H227.523V29.0625C227.523 27.9688 227.008 27.3438 225.984 27.3438C224.961 27.3438 224.312 28.0938 224.312 29.1875V34H222.031Z" fill="#F04832"/>
<path d="M234.578 34.1719C232.719 34.1719 231.844 33.4531 231.844 31.6562V27.3438H230.68V25.625H231.844V23.5781H234.148V25.625H235.68V27.3438H234.148V31.4062C234.148 32.1875 234.5 32.4531 235.188 32.4531C235.391 32.4531 235.539 32.4297 235.68 32.4141V34.0859C235.422 34.125 235.055 34.1719 234.578 34.1719Z" fill="#F04832"/>
<path d="M238.125 24.5469C237.438 24.5469 236.906 24.0078 236.906 23.3594C236.906 22.7109 237.438 22.1719 238.125 22.1719C238.812 22.1719 239.344 22.7109 239.344 23.3594C239.344 24.0078 238.812 24.5469 238.125 24.5469ZM236.984 34V25.625H239.266V34H236.984Z" fill="#F04832"/>
<path d="M244.242 34.1719C241.922 34.1719 240.633 33.1016 240.453 31.5156L240.445 31.4453H242.672L242.688 31.5156C242.836 32.1719 243.328 32.5547 244.242 32.5547C245.102 32.5547 245.625 32.2188 245.625 31.6797V31.6719C245.625 31.2266 245.344 30.9688 244.523 30.7891L243.102 30.4922C241.477 30.1484 240.656 29.3359 240.656 28.0859V28.0781C240.656 26.4844 242.031 25.4531 244.164 25.4531C246.391 25.4531 247.633 26.6328 247.688 28.1016V28.1797H245.586L245.578 28.1172C245.5 27.5156 245.008 27.0625 244.164 27.0625C243.375 27.0625 242.883 27.4141 242.883 27.9531V27.9609C242.883 28.3906 243.172 28.6719 244.016 28.8516L245.438 29.1562C247.188 29.5234 247.906 30.2109 247.906 31.4453V31.4531C247.906 33.0938 246.398 34.1719 244.242 34.1719Z" fill="#F04832"/>
<path d="M252.477 34.1719C250.156 34.1719 248.867 33.1016 248.688 31.5156L248.68 31.4453H250.906L250.922 31.5156C251.07 32.1719 251.562 32.5547 252.477 32.5547C253.336 32.5547 253.859 32.2188 253.859 31.6797V31.6719C253.859 31.2266 253.578 30.9688 252.758 30.7891L251.336 30.4922C249.711 30.1484 248.891 29.3359 248.891 28.0859V28.0781C248.891 26.4844 250.266 25.4531 252.398 25.4531C254.625 25.4531 255.867 26.6328 255.922 28.1016V28.1797H253.82L253.812 28.1172C253.734 27.5156 253.242 27.0625 252.398 27.0625C251.609 27.0625 251.117 27.4141 251.117 27.9531V27.9609C251.117 28.3906 251.406 28.6719 252.25 28.8516L253.672 29.1562C255.422 29.5234 256.141 30.2109 256.141 31.4453V31.4531C256.141 33.0938 254.633 34.1719 252.477 34.1719Z" fill="#F04832"/>
<path d="M259.758 34.1328C258.078 34.1328 256.945 33.0781 256.945 31.6016V31.5859C256.945 30.0625 258.125 29.1719 260.203 29.0391L262.273 28.9141V28.3984C262.273 27.6562 261.789 27.1953 260.898 27.1953C260.047 27.1953 259.531 27.5938 259.422 28.1328L259.406 28.2031H257.32L257.328 28.1094C257.453 26.5625 258.781 25.4531 260.992 25.4531C263.156 25.4531 264.555 26.5703 264.555 28.2578V34H262.273V32.75H262.227C261.75 33.6094 260.859 34.1328 259.758 34.1328ZM259.203 31.4844C259.203 32.1016 259.711 32.4688 260.5 32.4688C261.523 32.4688 262.273 31.8125 262.273 30.9375V30.3359L260.547 30.4453C259.664 30.5 259.203 30.875 259.203 31.4688V31.4844Z" fill="#F04832"/>
<rect x="12" width="1" height="39" fill="black" fill-opacity="0.8"/>
<rect x="104" width="1" height="39" fill="black" fill-opacity="0.8"/>
</svg>
