<svg width="602" height="192" viewBox="0 0 602 192" fill="none" xmlns="http://www.w3.org/2000/svg">
<rect width="192" height="192" rx="16" fill="var(--badge-background)"/>
<path d="M50.8594 131V60.541H97.002V72.6992H65.6055V91.5957H94.2676V103.266H65.6055V131H50.8594Z" fill="var(--badge-letter)"/>
<path d="M126.885 132.074C110.869 132.074 101.152 121.674 101.152 104.926V104.877C101.152 88.2266 110.967 77.582 126.299 77.582C141.631 77.582 151.25 87.9824 151.25 103.803V108.197H115.215C115.361 116.547 119.902 121.43 127.178 121.43C133.037 121.43 136.602 118.207 137.627 115.277L137.725 114.984H150.811L150.664 115.521C149.053 123.236 141.826 132.074 126.885 132.074ZM126.543 88.2266C120.684 88.2266 116.289 92.1328 115.361 99.2129H137.578C136.699 91.9863 132.451 88.2266 126.543 88.2266Z" fill="var(--badge-letter)"/>
<path d="M224.859 131V60.541H271.002V72.6992H239.605V91.5957H268.268V103.266H239.605V131H224.859Z" fill="var(--name-letter)"/>
<path d="M300.885 132.074C284.869 132.074 275.152 121.674 275.152 104.926V104.877C275.152 88.2266 284.967 77.582 300.299 77.582C315.631 77.582 325.25 87.9824 325.25 103.803V108.197H289.215C289.361 116.547 293.902 121.43 301.178 121.43C307.037 121.43 310.602 118.207 311.627 115.277L311.725 114.984H324.811L324.664 115.521C323.053 123.236 315.826 132.074 300.885 132.074ZM300.543 88.2266C294.684 88.2266 290.289 92.1328 289.361 99.2129H311.578C310.699 91.9863 306.451 88.2266 300.543 88.2266Z" fill="var(--name-letter)"/>
<path d="M332.623 131V78.6562H346.881V87.7871H347.174C348.736 81.3418 352.984 77.582 359.088 77.582C360.65 77.582 362.115 77.8262 363.189 78.1191V90.668C362.018 90.1797 360.064 89.8867 358.014 89.8867C350.982 89.8867 346.881 94.0859 346.881 101.703V131H332.623Z" fill="var(--name-letter)"/>
<path d="M369.049 131V78.6562H383.307V87.7871H383.6C385.162 81.3418 389.41 77.582 395.514 77.582C397.076 77.582 398.541 77.8262 399.615 78.1191V90.668C398.443 90.1797 396.49 89.8867 394.439 89.8867C387.408 89.8867 383.307 94.0859 383.307 101.703V131H369.049Z" fill="var(--name-letter)"/>
<path d="M412.896 71.918C408.6 71.918 405.279 68.5488 405.279 64.4961C405.279 60.4434 408.6 57.0742 412.896 57.0742C417.193 57.0742 420.514 60.4434 420.514 64.4961C420.514 68.5488 417.193 71.918 412.896 71.918ZM405.768 131V78.6562H420.025V131H405.768Z" fill="var(--name-letter)"/>
<path d="M451.129 132.074C436.627 132.074 428.57 125.385 427.447 115.473L427.398 115.033H441.314L441.412 115.473C442.34 119.574 445.416 121.967 451.129 121.967C456.5 121.967 459.771 119.867 459.771 116.498V116.449C459.771 113.666 458.014 112.055 452.887 110.932L444 109.076C433.844 106.928 428.717 101.85 428.717 94.0371V93.9883C428.717 84.0273 437.311 77.582 450.641 77.582C464.557 77.582 472.32 84.9551 472.662 94.1348V94.623H459.527L459.479 94.2324C458.99 90.4727 455.914 87.6406 450.641 87.6406C445.709 87.6406 442.633 89.8379 442.633 93.207V93.2559C442.633 95.9414 444.439 97.6992 449.713 98.8223L458.6 100.727C469.537 103.021 474.029 107.318 474.029 115.033V115.082C474.029 125.336 464.605 132.074 451.129 132.074Z" fill="var(--name-letter)"/>
<path d="M505.084 132.074C489.166 132.074 479.156 121.869 479.156 104.828V104.73C479.156 87.8848 489.41 77.582 505.035 77.582C520.709 77.582 531.012 87.7871 531.012 104.73V104.828C531.012 121.918 520.904 132.074 505.084 132.074ZM505.133 120.893C512.066 120.893 516.51 115.033 516.51 104.828V104.73C516.51 94.623 511.969 88.7637 505.035 88.7637C498.15 88.7637 493.658 94.623 493.658 104.73V104.828C493.658 115.082 498.102 120.893 505.133 120.893Z" fill="var(--name-letter)"/>
<path d="M542.193 131V89.3984H535.064V78.6562H542.193V74.457C542.193 64.2031 547.076 59.4668 559.43 59.4668C562.066 59.4668 564.947 59.7109 566.607 60.0527V69.4766C565.631 69.2812 564.264 69.2324 562.945 69.2324C558.209 69.2324 556.109 71.2344 556.109 74.9941V78.6562H566.51V89.3984H556.451V131H542.193Z" fill="var(--name-letter)"/>
<path d="M594.83 132.074C583.209 132.074 577.74 127.582 577.74 116.352V89.3984H566.51V78.6562H577.74V65.8633H592.145V78.6562H601.715V89.3984H592.145V114.789C592.145 119.672 594.342 121.332 598.639 121.332C599.908 121.332 600.836 121.186 601.715 121.088V131.537C600.104 131.781 597.809 132.074 594.83 132.074Z" fill="var(--name-letter)"/>
</svg>
