<?xml version="1.0" encoding="UTF-8"?><svg xmlns="http://www.w3.org/2000/svg" viewBox="0 0 180 180"><g fill="var(--color-secondary)"><path d="M139.06 90.02c-3.63-12.9.46-27.02-3.08-39.94-1.28-4.66-3.55-9.32-2.79-14.09.33-2.07 1.22-4.14.75-6.17-.55-2.4-2.79-3.97-4.91-5.21-17.87-10.47-39.49-14.14-59.93-10.79-5.81.95-11.86 2.64-15.89 6.94-4.02 4.3-4.99 11.9-.6 15.83-.95.13-1.89.27-2.84.4-1.2 15.95-2.4 31.9-3.59 47.84-.23 3-.48 6.09-1.85 8.77s-4.18 4.86-7.17 4.55l.19 1.59c11.17 16.02 30.26 26.23 49.79 26.62s39.01-9.05 50.81-24.61c.94-1.24 1.85-2.55 2.21-4.06.62-2.54-.39-5.15-1.09-7.66Zm-22.64 4.12c-3.7 2.3-8.7 3.49-12.29 1.02-3.45-2.37-4.22-7.16-3.84-11.33.89-9.71 6.62-18.86 14.97-23.89h1.61c2.35-1.04 5.23-.18 7.09 1.58 1.87 1.76 2.86 4.27 3.41 6.78 2.11 9.74-2.49 20.58-10.95 25.84"/><path d="M140.51 89.62c-3.26-11.9-.19-24.38-2.3-36.43-.53-3.01-1.52-5.86-2.43-8.76-.9-2.91-1.62-5.89-.98-8.93.58-2.76 1.37-5.52-.27-8.09-1.38-2.17-3.68-3.51-5.86-4.74-9.93-5.61-20.95-9.19-32.24-10.71a93 93 0 0 0-17.11-.73c-5.55.28-11.27.89-16.62 2.46s-10.73 4.55-13.09 9.8c-2.09 4.64-1.98 10.49 1.94 14.15l.66-2.51c-.95.13-1.89.27-2.84.4-.68.1-1.06.85-1.1 1.45l-1.98 26.41-.99 13.21c-.31 4.15-.33 8.45-1.1 12.54-.67 3.55-2.82 7.79-7.04 7.5-.74-.05-1.59.73-1.5 1.5l.18 1.48c.13 1.01.86 1.78 1.46 2.58 1.31 1.74 2.7 3.43 4.19 5.03 3.01 3.25 6.38 6.15 9.99 8.72 7.21 5.12 15.53 8.77 24.19 10.58 17.6 3.68 36.29-.69 50.71-11.36 4.03-2.98 7.72-6.39 10.93-10.23 1.61-1.93 3.44-4 4.19-6.45.92-2.98-.16-6-.98-8.87-.53-1.85-3.43-1.06-2.89.8.66 2.29 1.75 4.88.98 7.27-.66 2.04-2.31 3.82-3.67 5.43-2.69 3.18-5.7 6.08-8.98 8.64-6.57 5.12-14.19 8.89-22.23 11.05-16.14 4.33-33.37 1.49-47.52-7.31a61 61 0 0 1-10.85-8.58c-1.59-1.58-3.1-3.25-4.51-5-.36-.45-.72-.91-1.06-1.37-.15-.21-.31-.41-.46-.62l-.23-.31c-.18-.39-.26-.43-.23-.12.07.07.04.29-.04-.01-.04-.17-.04-.36-.07-.54l-.1-.79-1.5 1.5c3.6.25 6.86-2.2 8.46-5.3 1.94-3.75 1.95-8.16 2.26-12.27.72-9.55 1.43-19.1 2.15-28.66.41-5.48.82-10.96 1.24-16.45l-1.1 1.45c.95-.13 1.89-.27 2.84-.4 1.13-.16 1.42-1.8.66-2.51-3.11-2.91-2.97-7.71-1.1-11.28 2.21-4.2 6.74-6.45 11.12-7.72 4.98-1.44 10.25-2.02 15.42-2.29s10.73-.09 16.05.56c10.63 1.3 21.07 4.55 30.5 9.63 2.05 1.1 4.48 2.22 5.98 4.06 1.82 2.25.39 5.03.05 7.54-.79 5.78 2.23 11.12 3.38 16.63 2.61 12.45-.84 25.38 2.55 37.75.51 1.86 3.41 1.07 2.89-.8Z"/><path d="M115.67 92.85c-2.64 1.6-6.03 2.84-9.11 1.85-2.91-.93-4.28-3.82-4.7-6.65-.88-6.04 1.48-12.64 4.73-17.64a30.4 30.4 0 0 1 6.33-7.01c.64-.52 1.3-1 1.99-1.45.15-.1.34-.19.48-.31.02-.02.55-.47.13-.2-.12.07-.29 0-.07 0h.4c1.16 0 2.19-.47 3.33-.45 3.47.06 5.54 3.35 6.41 6.33s1.02 6.01.59 8.99c-.96 6.68-4.77 12.91-10.5 16.53-1.63 1.03-.12 3.63 1.51 2.59 6.07-3.84 10.34-10.24 11.7-17.29 1.28-6.61.43-16.69-6.83-19.57-1.82-.72-3.45-.59-5.23-.19-.33.07-.88.03-1.3.05-.78.03-1.33.39-1.98.81-3.19 2.09-5.95 4.74-8.24 7.78-4.3 5.7-7.27 13.48-6.49 20.71.43 3.96 2.2 7.88 6.06 9.52 4.05 1.71 8.71.36 12.3-1.82 1.65-1 .14-3.6-1.51-2.59Z"/></g><g fill="var(--color-secondary)"><path d="M24.22 135.58c3.92 8.6 11.28 15.33 19.66 19.69s17.76 6.51 27.14 7.65c10.92 1.32 22.11 1.31 32.8-1.29s20.88-7.91 28.27-16.07c2.01-2.22 3.86-4.75 4.43-7.69s-.46-6.36-3.07-7.84c-1.6-.9-3.51-.97-5.34-1.02l-53.51-1.35c21.23-1.66 43.42-6.46 59.1-20.86 4.82-4.43 9.07-10.11 9.51-16.64 3.09.82 5.43 3.49 6.66 6.44 1.23 2.96 1.51 6.2 1.75 9.4 1.09 14.66 1.09 30.63-7.68 42.43-9.38 12.61-26.31 16.94-42 17.77-16.7.88-33.55-1.25-49.51-6.26"/><path d="M23.33 136.1c4.97 11.32 15.48 19.03 26.77 23.31 6.44 2.44 13.21 3.83 20.02 4.72 7.25.95 14.61 1.33 21.91.74 13-1.05 25.86-5.19 36.03-13.56 4.39-3.61 9.83-8.71 9.99-14.82.07-2.64-.94-5.41-3.05-7.08-2.62-2.07-6.25-1.79-9.39-1.88-17.01-.48-34.02-.93-51.03-1.36v2.98c21.79-1.72 45.6-6.61 61.62-22.68 4.44-4.45 7.97-9.92 8.53-16.31l-1.95 1.49c5.11 1.53 6.59 7.4 7.04 12.07.49 5.06.73 10.19.66 15.28-.13 9.69-1.71 19.71-7.39 27.8-11.2 15.98-33.7 18.32-51.58 17.94-13.12-.28-26.15-2.43-38.68-6.33-1.96-.61-2.8 2.46-.85 3.07 11.88 3.72 24.25 5.88 36.69 6.41 10.64.45 21.58-.06 31.89-2.91 9.2-2.54 18.09-7.17 24.06-14.8 6.58-8.4 8.72-19.1 9.02-29.55.18-6.06-.05-12.26-.81-18.28-.72-5.73-3.15-11.94-9.25-13.67-1.02-.29-1.88.51-1.95 1.49-.39 5.35-3.52 9.99-7.16 13.74s-7.93 6.94-12.45 9.58c-9.09 5.31-19.27 8.44-29.57 10.38-5.91 1.11-11.89 1.82-17.89 2.3-1.89.15-1.94 2.94 0 2.98 14.2.36 28.4.71 42.61 1.03 3.47.08 6.94.15 10.4.24 2.9.07 6.02.23 7.21 3.36 2.1 5.51-3.34 10.78-7.02 14.1-9.02 8.16-20.94 12.57-32.9 13.97-6.81.8-13.71.73-20.54.11s-13.03-1.67-19.31-3.56c-12.47-3.75-24.11-11.34-29.93-23.33-.58-1.2-2.29-.15-1.77 1.03Z"/></g><path fill="var(--color-primary)" d="M37.51 97.3c2.91-16.28 4.15-32.85 5.94-49.28.43-3.92.86-7.79 1.53-11.69.63-3.69 1.34-7.67 3.36-10.88 4.27-6.8 11.63-9.44 19.11-11.18 16.91-3.93 34.9-3.05 51.35 2.49 3.62 1.22 7.35 2.71 10.2 5.33 2.66 2.43 3.66 5.75 4.27 9.21.7 3.97.98 8.02 1.43 12.02.43 3.8.87 7.59 1.32 11.38.75 6.26 1.4 12.56 2.51 18.76 1.09 6.1 1.9 12.25 2.74 18.39.24 1.75.49 3.49.75 5.24.23 1.5 2.84 1.16 2.67-.36-.75-6.68-1.87-13.34-2.48-20.04-.58-6.28-1.33-12.52-2.08-18.78-.97-8.05-1.76-16.12-2.74-24.17-.45-3.69-1.07-7.49-2.9-10.78s-5.38-5.85-8.87-7.51c-7.88-3.76-16.87-5.64-25.5-6.66-8.96-1.05-18.03-.82-26.93.61-7.87 1.26-16.85 3.06-22.98 8.53-3.03 2.7-4.6 6.32-5.89 10.08-1.27 3.68-1.92 7.54-2.49 11.39-.62 4.16-1.37 8.28-1.82 12.47-.47 4.33-.87 8.66-1.27 13-.79 8.61-1.5 17.24-2.45 25.83-.22 2.02-.47 4.04-.74 6.06-.17 1.26 1.73 1.85 1.96.54"/><path fill="var(--color-primary)" d="M35.21 99.68c1.01 10.01 9.19 16.72 17.51 21.1 7.32 3.85 15.44 6.22 23.6 7.42 16.71 2.45 34.66.4 49.58-7.86 8.64-4.78 15.61-11.61 20.09-20.44.87-1.71-1.66-3.22-2.59-1.51-7.8 14.31-23.09 22.59-38.63 25.66-15.44 3.05-32.37 1.71-46.88-4.53-3.95-1.7-7.86-3.69-11.28-6.31-2.25-1.72-4.32-3.8-5.99-6.09-1.74-2.39-2.88-4.82-3.7-7.66-.26-.9-1.8-.78-1.7.23Z"/><path fill="var(--color-primary)" d="M36.34 87.52c-7.94 3.9-12.02 12.71-13.22 21.11-.65 4.57-.74 9.25-1.16 13.85-.4 4.34-.3 8.72.43 13.02.71 4.19 2.03 8.54 4.32 12.15s5.19 6.29 8.48 8.65c7.15 5.13 15.82 8.39 24.2 10.86 18.06 5.33 37.64 6.23 56.04 2.12 16.87-3.77 33.6-13.22 40.38-29.92 3.63-8.94 3.17-18.79 1.59-28.13-.79-4.65-1.61-9.4-3.26-13.83-1.33-3.59-3.26-7.3-6.34-9.7-1.43-1.11-3.05-1.88-4.77-2.44-2.12-.69-3.07 2.71-.92 3.34 7.6 2.24 9.66 11.42 11.06 18.22 1.83 8.91 3.07 18.38.63 27.31-4.35 15.9-19.07 25.92-34.18 30.29-16.77 4.85-35.11 4.9-52.1 1.15-8.36-1.85-16.69-4.56-24.32-8.47-6.92-3.55-13.26-8.54-16.41-15.85-1.61-3.72-2.07-7.85-2.22-11.87-.15-4.12.03-8.22.51-12.32.26-2.24.78-4.39 1.21-6.59s.9-4.57 1.58-6.8c1.14-3.75 2.83-7.45 5.45-10.4 1.25-1.42 2.62-2.66 4.23-3.67 1.32-.83.17-2.76-1.21-2.08m15.39-69.33c-3.51 3.24-5.61 7.98-4.18 12.73 1.37 4.54 5.04 8.12 8.86 10.72 4.37 2.98 9.02 4.65 14.13 5.97 6.57 1.69 13.36 2.69 20.16 2.74 9.06.06 17.98-1.64 26.42-4.9 3.73-1.44 7.42-3.14 10.69-5.47 2.84-2.02 5.5-4.49 6.78-7.8 1.51-3.91.3-8.12-2.1-11.39-3.57-4.84-10.06-7.14-15.83-7.73-1.65-.17-2 2.53-.39 2.89 4.7 1.03 9.85 2.2 13.22 5.94 1.95 2.16 3.36 5.34 2.71 8.28-1.39 6.31-8.92 9.98-14.28 12.27-6.88 2.93-14.31 4.83-21.77 5.37-6.25.45-12.63.13-18.8-.92-3.14-.53-6.25-1.24-9.31-2.12-2.2-.63-4.39-1.28-6.44-2.33-4.25-2.17-8.02-5.7-10.33-9.89-1.03-1.87-1.83-4.04-1.77-6.21.07-2.72 1.62-5.03 3.47-6.91.79-.81-.41-2-1.24-1.24"/><path fill="var(--color-primary)" d="M49.38 57.81c1.06-5.59 3.68-10.85 7.42-15.13 1.86-2.13 4-4.03 6.36-5.6 2.55-1.7 5.61-3.42 8.78-3.27 1.47.07 2.85.63 3.97 1.57 1.02.85 1.82 1.92 2.53 3.03.73 1.14 1.36 2.33 2.05 3.5s1.47 2.34 2.34 3.43c3.51 4.41 8.36 7.73 13.72 9.47 2.95.96 6.04 1.37 9.14 1.35 3.61-.02 7.2-.58 10.74-1.25.9-.17 1.79-.34 2.68-.52.24-.05.14-.41-.1-.36-6.89 1.34-14.01 2.66-20.94.83-5.59-1.48-10.7-4.72-14.45-9.13-.93-1.1-1.77-2.27-2.52-3.5s-1.36-2.4-2.08-3.58c-1.35-2.19-3.08-4.35-5.69-5.01-3.11-.78-6.32.68-8.94 2.22a32 32 0 0 0-6.61 5.2c-3.96 4.04-6.88 9.11-8.31 14.59-.18.68-.33 1.37-.46 2.06-.04.24.32.34.36.1Zm-.55 1.46c-.65 5.6-1.28 11.69 1.76 16.75 1.23 2.05 3 3.75 5.23 4.65 2.57 1.04 5.4.9 8.09.48 2.86-.45 5.67-1.22 8.56-1.43 2.64-.19 5.31.11 7.85.86s4.95 1.94 7.07 3.52c2.28 1.7 4.12 3.87 5.82 6.13 3.17 4.23 6.19 9.08 11.15 11.42.56.26 1.13.49 1.72.67.23.07.33-.29.1-.36-5.24-1.64-8.58-6.36-11.67-10.59-1.64-2.25-3.32-4.5-5.41-6.36-1.91-1.71-4.12-3.06-6.49-4.03-2.39-.97-4.94-1.55-7.52-1.67-2.75-.14-5.43.36-8.11.89-2.74.54-5.56 1.14-8.36.8-2.59-.31-4.88-1.56-6.56-3.55-3.73-4.41-3.69-10.47-3.12-15.9.08-.76.17-1.52.26-2.28.03-.24-.35-.24-.38 0Zm72.15-4.81c4.5.46 7.91 3.99 9.68 7.95 1.83 4.09 2.39 8.78 2.05 13.22s-1.66 8.78-3.86 12.64c-2.08 3.66-4.98 6.83-8.39 9.29s-7.17 4.16-11.21 5.04c-.5.11-1.01.21-1.52.29-.24.04-.14.4.1.36 4.18-.69 8.2-2.29 11.74-4.63 3.55-2.34 6.62-5.41 8.9-9.01 2.42-3.82 3.93-8.2 4.47-12.69.54-4.51.12-9.25-1.49-13.52-1.54-4.09-4.55-7.88-8.94-9.03-.51-.13-1.02-.22-1.54-.28-.24-.02-.24.35 0 .38Z"/><path fill="var(--color-primary)" d="M116.21 59.9c-2.72 1.5-5.16 3.5-7.21 5.83s-3.79 5.09-5.03 8c-1.24 2.9-2.04 5.99-2.31 9.14-.14 1.64-.16 3.31.02 4.95s.58 3.33 1.46 4.77c1.65 2.68 4.89 3.91 7.95 3.59 3.4-.36 6.41-2.41 8.78-4.78 2.23-2.23 3.99-4.91 5.24-7.8 1.26-2.93 2-6.07 2.17-9.26.17-3.22-.2-6.61-1.41-9.62-.61-1.53-1.49-3.01-2.78-4.07-1.17-.97-2.68-1.59-4.21-1.57-.74.01-1.46.18-2.12.51-.22.11-.03.43.19.32 1.43-.7 3.12-.54 4.53.14 1.46.7 2.57 1.93 3.35 3.33.81 1.44 1.29 3.05 1.62 4.66.31 1.51.47 3.04.49 4.58.08 6.12-2.02 12.32-5.97 17.03-2.08 2.47-4.74 4.73-7.86 5.72-2.9.92-6.33.53-8.59-1.66-2.39-2.33-2.66-6.04-2.58-9.18.08-3.05.68-6.07 1.7-8.93 2.04-5.69 5.83-10.83 10.87-14.21.61-.41 1.25-.8 1.89-1.15.21-.12.02-.44-.19-.32ZM80.4 80.36c-.27-4.05.2-8.15 1.3-12.06 1.1-3.92 2.84-7.7 5.29-10.96 1.33-1.78 2.89-3.4 4.65-4.75.19-.14 0-.47-.19-.32-3.21 2.46-5.71 5.73-7.54 9.31-1.89 3.7-3.1 7.74-3.64 11.85-.3 2.3-.39 4.62-.24 6.93.02.24.39.24.38 0Z"/><path fill="var(--color-primary)" d="M49.68 55.85c3.82 0 7.64.25 11.43.78a76.2 76.2 0 0 1 20.43 5.86c3.16 1.4 6.22 3.01 9.18 4.78 3.01 1.8 5.92 3.77 8.73 5.88.36.27.71.53 1.06.8.19.15.38-.18.19-.32a106 106 0 0 0-8.72-6.03c-2.98-1.84-6.07-3.51-9.25-4.97s-6.42-2.71-9.76-3.74a76 76 0 0 0-10.55-2.43c-3.73-.59-7.49-.9-11.27-.96-.49 0-.98-.01-1.47-.01-.24 0-.24.37 0 .38Zm51.34 18.62c.71.21 1.41.42 2.12.64.23.07.33-.29.1-.36-.71-.21-1.41-.42-2.12-.64-.23-.07-.33.29-.1.36M66.15 46.16c5.87-4.25 11.71-8.54 17.51-12.9 5.75-4.31 11.45-8.67 17.12-13.09 3.21-2.5 6.41-5.02 9.6-7.55.19-.15-.08-.41-.27-.27q-8.49 6.75-17.1 13.35c-5.72 4.38-11.48 8.72-17.28 13-3.24 2.39-6.5 4.77-9.77 7.13-.19.14 0 .47.19.32Z"/><path fill="var(--color-primary)" d="M53.42 18.99c5.01 1.16 10.02 2.31 15.04 3.47l14.96 3.45c5.01 1.16 10.02 2.31 15.04 3.47 4.99 1.15 9.98 2.3 14.96 3.45s10.02 2.31 15.04 3.47l1.87.43c.23.05.34-.31.1-.36-5.01-1.16-10.02-2.31-15.04-3.47s-9.98-2.3-14.96-3.45c-5.01-1.16-10.02-2.31-15.04-3.47-4.99-1.15-9.98-2.3-14.96-3.45-5.01-1.16-10.02-2.31-15.04-3.47l-1.87-.43c-.23-.05-.34.31-.1.36m-22.07 74.7c-2.46 4.77-2.37 10.42-.61 15.41 1.82 5.13 5.38 9.36 9.65 12.66 4.52 3.49 9.75 5.98 15.06 8.02a91 91 0 0 0 17.09 4.7 95 95 0 0 0 35.21-.53c5.86-1.2 11.61-2.97 17.12-5.3 2.53-1.07 4.97-2.24 7.26-3.76 2.42-1.61 4.67-3.46 6.76-5.47 2.11-2.02 4.07-4.21 5.85-6.53 1.7-2.22 3.39-4.59 4.48-7.18 1.01-2.4 1.44-4.99 1.08-7.58s-1.46-5.07-2.87-7.28a34 34 0 0 0-2.61-3.51c-.15-.19-.42.08-.27.27 3.52 4.21 6.39 9.41 5.23 15.06-.57 2.79-2 5.25-3.59 7.58a54.5 54.5 0 0 1-5.32 6.62c-3.79 4.06-8.2 7.77-13.25 10.15-5.21 2.45-10.69 4.35-16.28 5.73-11.15 2.77-22.81 3.45-34.22 2.04a92.7 92.7 0 0 1-16.87-3.71c-5.37-1.73-10.68-3.91-15.52-6.82-4.69-2.82-9.05-6.51-11.81-11.3-2.64-4.58-3.89-10.21-2.62-15.42.31-1.27.77-2.49 1.37-3.65.11-.21-.21-.4-.32-.19Z"/><path fill="var(--color-primary)" d="M133.27 112.04c3.08.99 6.17 1.99 9.25 2.98.23.07.33-.29.1-.36-3.08-.99-6.17-1.99-9.25-2.98-.23-.07-.33.29-.1.36m9.72 2.49c.45 4.89.75 9.79.91 14.7q.24 7.365.06 14.73c-.07 2.76-.19 5.53-.35 8.29-.01.24.36.24.38 0 .28-4.9.43-9.81.43-14.72s-.15-9.82-.43-14.72c-.16-2.76-.37-5.52-.62-8.27-.02-.24-.4-.24-.38 0ZM66.58 47.36c-1.24 9.81-2.36 19.64-3.37 29.47q-1.5 14.685-2.67 29.4-.66 8.295-1.2 16.59c-.02.24.36.24.38 0 .65-9.87 1.42-19.73 2.3-29.58.88-9.8 1.86-19.59 2.97-29.37.62-5.51 1.28-11.01 1.97-16.51.03-.24-.35-.24-.38 0m-7.64 74.42c-2.23 2.07-4.46 4.15-6.7 6.22-.18.16.09.43.27.27 2.23-2.07 4.46-4.15 6.7-6.22.18-.16-.09-.43-.27-.27m-7.49 6.5c-.78 4.36-1.49 8.73-2.1 13.12s-1.14 8.74-1.59 13.12c-.25 2.49-.48 4.98-.67 7.47-.02.24.36.24.38 0 .35-4.37.78-8.74 1.29-13.1a344 344 0 0 1 3.06-20.51c.04-.24-.32-.34-.36-.1Z"/><path fill="var(--color-primary)" d="M24.12 122.45c4.23 9.28 11.55 16.87 20.14 22.26 9.72 6.1 21 9.28 32.33 10.58 11.53 1.32 23.47 1.08 34.84-1.36 10.56-2.27 20.75-6.69 28.87-13.91 7.35-6.53 13.01-15.23 14.93-24.96.23-1.15.4-2.31.52-3.47.03-.24-.35-.24-.38 0-1.04 9.87-6.02 18.92-12.95 25.9-7.54 7.6-17.24 12.52-27.53 15.23-11.03 2.91-22.68 3.46-34.02 2.61-11.51-.86-23.07-3.49-33.25-9.07-8.83-4.84-16.62-11.87-21.54-20.72q-.885-1.605-1.65-3.27c-.1-.22-.42-.03-.32.19Zm12.87-34.01a28.23 28.23 0 0 1 12.05-7.76c1.28-.42 2.6-.74 3.93-.97.24-.04.14-.4-.1-.36-4.8.83-9.35 2.92-13.12 5.98-1.08.87-2.08 1.83-3.02 2.85-.16.18.1.44.27.27Zm95.18-6.08c3.59.67 6.96 2.3 9.71 4.7.18.16.45-.11.27-.27-2.8-2.45-6.22-4.12-9.88-4.8-.24-.04-.34.32-.1.36Z"/><path fill="var(--color-primary)" d="M39.05 86.59c6.32 1.59 12.63 3.2 18.94 4.84q9.465 2.46 18.9 5.01c6.29 1.7 12.58 3.42 18.85 5.17q9.42 2.625 18.81 5.34c6.23 1.8 12.45 3.62 18.67 5.48.79.24 1.58.47 2.38.71.23.07.33-.29.1-.36q-9.36-2.805-18.75-5.52c-6.26-1.81-12.53-3.6-18.8-5.36s-12.56-3.49-18.85-5.19-12.59-3.38-18.89-5.03c-6.27-1.64-12.56-3.25-18.84-4.84l-2.4-.6c-.23-.06-.33.3-.1.36Z"/><path fill="var(--color-primary)" d="M60.78 120.64c4.29-3.65 8.59-7.3 12.88-10.95s8.59-7.3 12.88-10.95l7.22-6.14c.18-.16-.08-.42-.27-.27-4.29 3.65-8.59 7.3-12.88 10.95s-8.59 7.3-12.88 10.95l-7.22 6.14c-.18.16.08.42.27.27m68.89-84.67c.49 4.89 1 9.77 1.5 14.65.51 4.91 1.02 9.83 1.5 14.75s.94 9.92 1.33 14.89c.39 4.92.73 9.85.98 14.79s.41 9.82.46 14.73c0 .6 0 1.2.01 1.8 0 .24.38.24.38 0-.02-4.9-.16-9.81-.38-14.71-.23-4.93-.55-9.86-.92-14.78-.38-4.97-.82-9.93-1.3-14.89-.47-4.92-.98-9.84-1.49-14.76-.51-4.89-1.02-9.78-1.51-14.68l-.18-1.79c-.02-.24-.4-.24-.38 0"/></svg>
