<?xml version="1.0" encoding="UTF-8"?><svg xmlns="http://www.w3.org/2000/svg" viewBox="0 0 180 180"><g fill="var(--color-secondary)"><path d="M39.63 91.4c5.77-1.48 12.33-3.62 14.53-9.15 1.46-3.66.53-7.77.52-11.71-.04-9.31 5.65-18.4 14.03-22.44-1.01 5.1.06 10.58 2.9 14.92 1.26 1.92 2.87 3.67 3.53 5.87.7 2.31.24 4.81.56 7.21.63 4.75 4.65 8.85 9.39 9.57s9.79-2 11.81-6.35c2.01-4.35.81-9.96-2.8-13.11-1.65-1.43-3.68-2.36-5.34-3.77-2.75-2.35-4.29-5.87-7.03-8.23-2.56-2.2-5.91-3.18-9.11-4.26-1.39-.47-3.02-1.27-3.08-2.74-.07-1.46 1.48-2.42 2.84-2.96 10.75-4.26 23.55-2.89 33.15 3.56 9.6 6.44 15.72 17.77 15.84 29.33.03 2.34-.17 4.75.67 6.93 1.72 4.49 6.96 6.34 11.58 7.65-2.65 14.43-13.34 26.94-26.91 32.52s-29.59 4.36-42.54-2.54c-11.93-6.36-21.31-17.42-25.47-30.29"/><path d="M39.9 92.37c6.65-1.28 14.98-4.15 16.38-11.78.77-4.19-.33-8.41.14-12.62.41-3.66 1.8-7.21 3.81-10.28 2.31-3.52 5.52-6.34 9.3-8.2l-2.39-1.83c-.66 3.53-.54 7.15.5 10.6.51 1.7 1.23 3.36 2.14 4.88s1.98 2.76 2.86 4.2c2.03 3.32.78 7.13 1.83 10.71.88 2.99 2.87 5.56 5.46 7.28 5.25 3.49 12.57 2.24 16.61-2.55 4.11-4.87 3.79-12.35-.55-16.99-1.23-1.32-2.8-2.25-4.3-3.22-1.49-.97-2.75-2.06-3.86-3.46-2.21-2.76-3.98-5.71-7.08-7.59-1.5-.91-3.15-1.57-4.8-2.15-1.38-.49-3.21-.76-4.38-1.7-1.23-.98 1.03-1.81 1.8-2.1a33 33 0 0 1 4.96-1.44c13.35-2.83 27.59 2.67 35.28 13.99 3.69 5.43 5.9 11.86 6.09 18.44.1 3.47-.24 7.1 1.85 10.11 1.77 2.54 4.46 4.07 7.28 5.2 1.42.57 2.88 1.01 4.35 1.43l-1.14-2.01c-2.88 15.34-14.89 28.18-29.72 32.73-16.37 5.03-34.75.52-47.41-10.86C48.3 107.22 42.99 99.47 40.22 91c-.63-1.91-3.66-1.09-3.03.83 2.67 8.16 7.04 15.5 13.1 21.61 6.21 6.26 13.9 10.98 22.32 13.6 17.13 5.32 36.4 1.68 49.43-10.9 6.68-6.45 11.41-14.85 13.14-23.99.17-.87-.24-1.75-1.14-2.01-2.77-.79-5.72-1.67-8.02-3.47-2.76-2.17-3.02-5.13-3.01-8.44.03-6.55-1.55-12.93-4.7-18.68-6.48-11.81-18.87-19.16-32.33-19.36-3.39-.05-6.81.35-10.08 1.21-2.62.69-6.84 1.64-7.8 4.59-1.13 3.5 2.64 5.02 5.23 5.88 3.24 1.08 6.36 2.25 8.67 4.87 2.3 2.62 3.92 5.64 6.79 7.74 2.73 1.99 5.61 3.35 6.83 6.74 2.08 5.78-1.5 11.92-7.63 12.86-2.85.44-5.7-.6-7.76-2.58-2.49-2.39-3.04-5.25-3.06-8.58-.01-1.85-.12-3.68-.83-5.41-.65-1.58-1.66-2.92-2.65-4.3-2.02-2.85-3.38-6.09-3.67-9.6-.14-1.7-.07-3.4.24-5.08.27-1.42-1.07-2.48-2.39-1.83-6.65 3.27-11.68 9.46-13.77 16.55-1.15 3.89-1.05 7.71-.81 11.71.24 3.99-.17 7.7-3.28 10.51-2.89 2.61-7.05 3.78-10.67 4.96-1.24.41-.73 2.19.54 1.94Z"/></g><g fill="var(--color-secondary)"><path d="M70.95 141.42c1.38 1.09 2.8 2.22 3.68 3.74s1.13 3.55.14 5.01c-.96 1.4-2.79 1.95-3.87 3.25-1.71 2.07-.99 5.14-.18 7.7.55 1.74 1.18 3.6 2.64 4.7 1.33 1 3.09 1.18 4.75 1.3 5.42.38 10.85.47 16.28.28 2.96-.1 6.01-.31 8.65-1.65s4.77-4.09 4.5-7.04c-.35-3.76-4.33-6.57-4.24-10.34.07-2.99 2.74-5.86 1.66-8.65-11.21 1.61-22.6 1.99-33.9 1.14"/><path d="M70.2 142.16c1.12.93 2.5 1.93 3.22 3.24.71 1.29.97 3.17-.11 4.32-.91.97-2.25 1.45-3.18 2.41-1.03 1.06-1.56 2.41-1.69 3.87-.25 2.71.77 5.86 1.93 8.28 1.39 2.88 3.93 3.95 6.97 4.24 3.69.35 7.43.43 11.13.44 3.57.01 7.23.07 10.76-.5 3.07-.5 6.03-1.78 7.98-4.28 1.77-2.27 2.31-5.13 1.25-7.83-1.01-2.58-3.77-5.07-3.67-7.98.12-3.2 2.74-5.7 1.63-9.05-.28-.86-1.01-1.18-1.87-1.06-11.09 1.54-22.33 1.86-33.5 1.01-2.04-.15-2.04 3.04 0 3.19 11.45.81 22.94.36 34.3-1.27l-1.87-1.06c.81 2.39-1.27 4.97-1.6 7.33-.36 2.54.78 4.75 2.08 6.84s2.81 4.32 1.68 6.84c-1.2 2.68-4.05 3.92-6.77 4.41-3.23.59-6.65.48-9.92.48-3.46 0-6.91-.11-10.36-.34-1.29-.09-2.69-.12-3.86-.72-1.23-.63-1.83-1.94-2.27-3.18-.74-2.08-2.02-5.32-.54-7.34.85-1.16 2.38-1.68 3.38-2.71s1.59-2.54 1.47-4.03c-.25-3.21-2.92-5.38-5.3-7.18-.95-.72-2.2.89-1.28 1.66Z"/></g><g fill="var(--color-secondary)"><path d="M90 10.75c20.03 1.31 39.22 12.25 50.55 28.82 11.34 16.57 14.58 38.41 8.54 57.56 3.66-5.69 4.9-12.67 4.7-19.43s-1.74-13.4-3.28-19.99c-.1 4.12 1.21 8.26 3.67 11.56-1.22-19.67-12.39-38.48-29.07-48.97"/><path d="M89.8 11.5c7.38 1.21 14.62 2.82 21.48 5.87 6.8 3.03 13.03 7.31 18.49 12.35 11.45 10.54 18.68 25.23 20.45 40.68 1.01 8.82.07 17.85-2.55 26.32-.51 1.65 1.84 2.54 2.71 1.14 7.73-12.3 4.61-27.32 1.53-40.55-.37-1.61-2.81-1.22-2.84.38-.06 4.4 1.25 8.74 3.85 12.3.77 1.05 2.84.86 2.73-.74-1.1-15.77-8.1-30.89-19.36-41.99a63.5 63.5 0 0 0-10.42-8.28c-1.63-1.04-3.15 1.56-1.51 2.59 12.67 7.99 22.06 20.76 26.2 35.13 1.18 4.1 1.91 8.29 2.17 12.54l2.73-.74c-2.3-3.19-3.54-6.87-3.49-10.82l-2.84.38c2.92 12.47 6.04 26.69-1.31 38.28l2.71 1.14c4.92-15.68 3.89-33.3-2.7-48.34-3.21-7.33-7.8-14.04-13.42-19.73s-11.98-9.95-19.06-13.33c-7.81-3.73-16.62-6.38-25.34-6.15-.84.02-1.11 1.39-.21 1.53Z"/></g><path fill="var(--color-primary)" d="M48.6 36.31c-4.01 4.74-7.9 9.92-10.54 15.57-2.46 5.26-4.2 10.78-4.96 16.54s-.47 11.09.82 16.56c1.33 5.64 3.45 11.34 6.05 16.51 5.11 10.15 13.1 18.41 23.27 23.54 9.7 4.89 20.4 6.51 31.13 4.94 19.29-2.81 36.76-15.49 43.8-33.89 8.23-21.51.85-46.74-16.68-61.32-8.34-6.94-18.54-11.52-29.32-12.88-11.11-1.4-23.25.64-33.05 6.16-2.44 1.37-4.69 2.89-6.82 4.71-1.11.95.32 2.74 1.54 2 9.3-5.63 19.42-9.5 30.39-9.8 10.34-.28 20.53 2.47 29.29 7.97s15.73 13.35 20.03 22.67c4.69 10.17 6.02 21.98 3.56 32.91-4.13 18.3-18.91 32.11-36.76 37.01-9.4 2.58-19.4 2.78-28.78.01-10.18-3.01-19.16-9.4-25.29-18.07-6.44-9.11-10.1-19.96-10.14-31.14-.05-11.1 3.58-21.6 9.16-31.12 1.53-2.61 3.23-5.1 5.05-7.52.76-1.01-.94-2.32-1.75-1.35Z"/><path fill="var(--color-primary)" d="M41.48 28c-2.26 2.2-4.6 4.47-6.53 6.96a54 54 0 0 0-5.03 7.85c-2.94 5.55-5.06 11.52-6.35 17.66-2.58 12.29-1.98 25.3 1.97 37.23 4.11 12.41 11.76 23.24 22.25 31.06 11.96 8.91 27.02 13.68 41.92 13.43 13.5-.23 26.68-4.79 37.63-12.64 10.4-7.46 18.87-17.62 24.22-29.27 5.42-11.8 7.63-24.89 5.81-37.78-2.04-14.48-9.51-28.01-20.28-37.84-5.17-4.71-11.08-8.56-17.53-11.27-7.33-3.08-15.3-4.47-23.22-4.93-14.95-.87-31.14 1.48-43.88 9.8-3.07 2.01-5.84 4.28-8.57 6.72-1.12 1 .53 2.64 1.65 1.65 10.68-9.54 25.61-13.91 39.65-14.77 14.74-.9 29.81 1.3 42.32 9.55 11.52 7.59 20.47 19.42 24.54 32.61 3.71 12.02 3.36 24.96-.44 36.91-3.7 11.66-10.59 22.23-19.58 30.5-9.04 8.31-20.26 14.17-32.36 16.41-14.01 2.6-28.91.07-41.49-6.52-11.46-6-20.72-15.3-26.38-26.94-5.22-10.73-7.24-22.92-6.28-34.78.97-11.95 5.19-23.28 11.95-33.15 1.71-2.49 3.35-4.83 5.45-7.01.92-.95-.5-2.37-1.45-1.45Z"/><path fill="var(--color-primary)" d="M69.8 138.7c-.3.35-.42.65-.47 1.11-.02.2-.04.4-.05.6-.04.52.02 1.02.12 1.53.17.96.57 1.92 1.26 2.62.4.4.96.68 1.49.88.41.15.92.3 1.35.25.12-.02.25-.03.37-.05-.16.02-.17.03-.05.04.08.01.17.01.25.02.2 0 .39.01.59.03.46.04.95.1 1.41.02.35-.06.6-.45.6-.78 0-.38-.26-.65-.6-.78s-.74-.14-1.09-.21c-.17-.04-.33-.08-.49-.14-.05-.02-.11-.04-.16-.06.09.04.11.05.04.02-.04-.02-.08-.03-.11-.05.1.08.12.1.06.05-.18-.18-.39-.31-.59-.44-.07-.04-.14-.11-.2-.14.29.15.1.08.01 0-.13-.11-.26-.24-.38-.37-.03-.03-.06-.06-.08-.09-.1-.12-.07-.09.08.1-.03-.11-.34-.46-.33-.45-.2-.22.2.3.04.05-.05-.07-.09-.14-.14-.21-.09-.15-.18-.31-.26-.47-.04-.08-.1-.17-.13-.26l.09.21c-.02-.05-.04-.1-.06-.16-.06-.16-.11-.32-.16-.48-.1-.36-.2-.71-.31-1.07-.05-.16-.09-.33-.14-.49-.05-.15-.1-.3-.18-.44q-.075-.165-.21-.3c-.28-.21-.31-.24-.1-.08-.4-.34-1.06-.44-1.45 0Zm8.4 7.34c6.77 1.01 13.54 1.62 20.39 1.37 1.7-.06 3.41-.16 5.11-.29 1.42-.11 2.86-.22 4.05-1.07 1.09-.77 1.76-2 2-3.3.27-1.43.24-3.52-.61-4.75-.55-.8-1.95-.79-2.2.29-.31 1.35.35 2.7-.03 4.07-.36 1.27-1.31 1.62-2.52 1.78-2.88.38-5.82.51-8.72.61-5.75.2-11.53.26-17.27-.21-.84-.07-1.05 1.36-.2 1.49Z"/><path fill="var(--color-primary)" d="M73.97 144.62c-.44.49-.44 1.21-.52 1.84-.06.5-.12.99-.15 1.49l-.09 1.49c-.03.55-.15 1.21.02 1.74.15.47.6.88 1.12.85.56-.03.91-.36 1.12-.85.12-.28.11-.66.12-.97.01-.26.02-.51.02-.77l.04-1.43c.01-.48 0-.95-.02-1.43-.01-.26-.01-.52-.03-.77-.03-.32-.06-.74-.25-1-.32-.43-.97-.64-1.39-.18Zm29.74 2.29c-.31.79-.26 1.69-.2 2.52.03.46.08.93.15 1.39.03.2.07.4.11.59.02.08.03.17.05.25.07.28.2.46.38.68.25.32.78.4 1.15.3s.74-.43.83-.83c.06-.28.06-.48 0-.76l-.06-.3-.09-.51c-.07-.38-.14-.76-.2-1.14-.05-.31.02.18 0-.07 0-.09-.02-.17-.03-.26-.03-.26-.05-.52-.09-.78-.02-.1-.03-.19-.05-.29-.04-.23.03.21 0-.05a4 4 0 0 0-.18-.76c-.13-.37-.46-.68-.87-.67s-.72.28-.87.67Z"/><path fill="var(--color-primary)" d="M73.74 150.03c-2.2-1.35-4.76.49-5.61 2.6-1.1 2.74-.39 6.05-.13 8.88.23 2.57.27 5.41 2.92 6.67s6.07 1.82 9.02 2.38c6.06 1.15 12.31 1.44 18.44.7 3.1-.37 6.33-.88 9.29-1.92 1.07-.38 2.08-.88 2.82-1.76 1-1.21 1.04-2.76 1.18-4.25.16-1.75.32-3.49.47-5.24.15-1.69.45-3.59-.07-5.24-.84-2.72-3.78-3.39-6.29-3.54-1.77-.1-1.68 2.5 0 2.7 1.73.21 3.82.47 3.69 2.64-.14 2.41-.58 4.84-.83 7.25-.1 1 .02 2.54-.47 3.45-.45.82-1.71 1.03-2.53 1.25-2.31.62-4.67 1.09-7.05 1.37-4.75.55-9.57.49-14.32-.06-2.4-.28-4.78-.62-7.15-1.1-1.14-.23-2.27-.49-3.4-.77-.94-.23-2.15-.32-2.53-1.34-.42-1.14-.29-2.67-.37-3.87-.1-1.3-.23-2.59-.31-3.88-.16-2.41.25-5 3.04-5.47.7-.12.72-1.12.19-1.44Zm-3.69-98.88c-.53.83-.49 2.03-.45 2.98.04 1.07.21 2.17.47 3.21.49 1.95 1.36 3.87 2.4 5.59.95 1.55 2.01 3.03 3.1 4.47.58.77 1.17 1.54 1.79 2.28.55.66 1.12 1.54 1.9 1.93.97.48 2.28-.32 1.93-1.48-.25-.81-.88-1.43-1.39-2.09s-.98-1.26-1.46-1.9c-1.07-1.42-2.1-2.87-3.04-4.38-.95-1.54-1.8-3.13-2.39-4.83-.32-.91-.58-1.83-.77-2.78s-.14-2.08-.57-2.98c-.3-.62-1.18-.51-1.51 0Z"/><path fill="var(--color-primary)" d="M69.92 52.51c.63.44 1.53.57 2.25.81s1.44.57 2.13.92c1.42.72 2.71 1.65 3.87 2.74 2.56 2.39 4.42 5.24 6.53 8 .35.46.96.87 1.58.64.24-.09.43-.17.62-.36.43-.45.53-1.15.22-1.69-1.91-3.26-4.29-6.6-7.22-9.03-1.38-1.15-2.88-2.15-4.53-2.87-1.54-.68-3.81-1.47-5.45-.76-.7.3-.5 1.25 0 1.61Z"/><path fill="var(--color-primary)" d="M79.65 68.98c-3.25 2.68-3.76 7.65-1.7 11.21 2 3.46 6.13 5.58 10.1 5.14 4.26-.47 7.94-3.27 9.43-7.3 1.35-3.67.71-8.58-2.23-11.34-2.95-2.77-7.77-3.23-11.47-1.86-.79.29-1.33 1.06-1.09 1.92.21.78 1.12 1.36 1.92 1.09 2.44-.83 5.32-.92 7.59.45s3.14 4.64 2.6 7.23c-.62 2.99-2.82 5.41-5.78 6.21-2.75.75-5.7-.21-7.5-2.42-2.09-2.55-1.8-6.3-.06-8.95.76-1.16-.86-2.17-1.8-1.39ZM50.38 90.03c-.43.09-.85.29-1.22.53-.16.11-.32.23-.47.36s-.27.3-.38.47c-.16.24-.27.52-.36.79-.03.08-.04.16-.06.24-.04.21-.08.42-.06.63.02.29.05.59.15.87s.2.55.37.78c.12.17.24.33.4.46.11.09.23.2.36.27.27.16.5.19.8.21l-.74-.2c.4.3.87.41 1.36.46q.195.015.39 0c.24-.03.48-.05.71-.14.32-.12.61-.24.85-.5.21-.22.44-.51.51-.81.07-.28.08-.58.02-.86-.08-.35-.42-.7-.77-.78-.09-.02-.22-.04-.31-.04-.22 0-.4.08-.6.17l.27-.12c-.06.02-.11.04-.17.05-.16.05-.31.13-.46.2l.32-.13c-.2.08-.39.14-.59.23l.33-.14c-.11.05-.23.08-.35.1l.37-.05c-.12.02-.24.02-.37 0l.38.05c-.11-.02-.21-.04-.31-.08l.34.14c-.11-.04-.2-.1-.29-.17l.29.23s-.09-.07-.13-.12l.38.64c-.04-.22-.18-.44-.3-.63-.07-.11-.13-.21-.18-.33l.16.37a1.6 1.6 0 0 1-.11-.43l.06.41c-.02-.19-.03-.39 0-.58l-.05.4c.02-.15.06-.3.12-.44l-.15.35c.09-.21.19-.42.27-.64l-.14.34c.05-.13.12-.25.19-.36l-.21.27c.11-.13.23-.25.36-.35l-.25.19c.07-.06.15-.11.23-.16.51-.31.72-.95.49-1.49s-.82-.81-1.41-.69Zm76.89 1.66c-.43.09-.85.29-1.22.53-.16.11-.32.23-.47.36s-.27.3-.38.47c-.16.24-.27.52-.36.79-.03.08-.04.16-.06.24-.04.21-.08.42-.06.63.02.29.05.59.15.87s.2.55.37.78c.12.17.24.33.4.46.11.09.23.2.36.27.27.16.5.19.8.21l-.74-.2c.4.3.87.41 1.36.46q.195.015.39 0c.24-.03.48-.05.71-.14.32-.12.61-.24.85-.5.21-.22.44-.51.51-.81.07-.28.08-.58.02-.86-.08-.35-.42-.7-.77-.78-.09-.02-.22-.04-.31-.04-.22 0-.4.08-.6.17l.27-.12c-.06.02-.11.04-.17.05-.16.05-.31.13-.46.2l.32-.13c-.2.08-.39.14-.59.23l.33-.14c-.11.05-.23.08-.35.1l.37-.05c-.12.02-.24.02-.37 0l.38.05c-.11-.02-.21-.04-.31-.08l.34.14c-.11-.04-.2-.1-.29-.17l.29.23s-.09-.07-.13-.12l.38.64c-.04-.22-.18-.44-.3-.63-.07-.11-.13-.21-.18-.33l.16.37a1.6 1.6 0 0 1-.11-.43l.06.41c-.02-.19-.03-.39 0-.58l-.05.4c.02-.15.06-.3.12-.44l-.15.35c.09-.21.19-.42.27-.64l-.14.34c.05-.13.12-.25.19-.36l-.21.27c.11-.13.23-.25.36-.35L128 94c.07-.06.15-.11.23-.16.51-.31.72-.95.49-1.49s-.82-.81-1.41-.69Zm-45.5 18.07c-.43.09-.85.29-1.22.53-.16.11-.32.23-.47.36s-.27.3-.38.47c-.16.24-.27.52-.36.79-.03.08-.04.16-.06.24-.04.21-.08.42-.06.63.02.29.05.59.15.87s.2.55.37.78c.12.17.24.33.4.46.11.09.23.2.36.27.27.16.5.19.8.21l-.74-.2c.4.3.87.41 1.36.46q.195.015.39 0c.24-.03.48-.05.71-.14.32-.12.61-.24.85-.5.21-.22.44-.51.51-.81.07-.28.08-.58.02-.86-.08-.35-.42-.7-.77-.78-.09-.02-.22-.04-.31-.04-.22 0-.4.08-.6.17l.27-.12c-.06.02-.11.04-.17.05-.16.05-.31.13-.46.2l.32-.13c-.2.08-.39.14-.59.23l.33-.14c-.11.05-.23.08-.35.1l.37-.05c-.12.02-.24.02-.37 0l.38.05c-.11-.02-.21-.04-.31-.08l.34.14c-.11-.04-.2-.1-.29-.17l.29.23s-.09-.07-.13-.12l.38.64c-.04-.22-.18-.44-.3-.63-.07-.11-.13-.21-.18-.33l.16.37a1.6 1.6 0 0 1-.11-.43l.06.41c-.02-.19-.03-.39 0-.58l-.05.4c.02-.15.06-.3.12-.44l-.15.35c.09-.21.19-.42.27-.64l-.14.34c.05-.13.12-.25.19-.36l-.21.27c.11-.13.23-.25.36-.35l-.25.19c.07-.06.15-.11.23-.16.51-.31.72-.95.49-1.49s-.82-.81-1.41-.69Zm13.21.74c-.43.09-.85.29-1.22.53-.16.11-.32.23-.47.36s-.27.3-.38.47c-.16.24-.27.52-.36.79-.03.08-.04.16-.06.24-.04.21-.08.42-.06.63.02.29.05.59.15.87s.2.55.37.78c.12.17.24.33.4.46.11.09.23.2.36.27.27.16.5.19.8.21l-.74-.2c.4.3.87.41 1.36.46q.195.015.39 0c.24-.03.48-.05.71-.14.32-.12.61-.24.85-.5.21-.22.44-.51.51-.81.07-.28.08-.58.02-.86-.08-.35-.42-.7-.77-.78-.09-.02-.22-.04-.31-.04-.22 0-.4.08-.6.17l.27-.12c-.06.02-.11.04-.17.05-.16.05-.31.13-.46.2l.32-.13c-.2.08-.39.14-.59.23l.33-.14c-.11.05-.23.08-.35.1l.37-.05c-.12.02-.24.02-.37 0l.38.05c-.11-.02-.21-.04-.31-.08l.34.14c-.11-.04-.2-.1-.29-.17l.29.23s-.09-.07-.13-.12l.38.64c-.04-.22-.18-.44-.3-.63-.07-.11-.13-.21-.18-.33l.16.37a1.6 1.6 0 0 1-.11-.43l.06.41c-.02-.19-.03-.39 0-.58l-.05.4c.02-.15.06-.3.12-.44l-.15.35c.09-.21.19-.42.27-.64l-.14.34c.05-.13.12-.25.19-.36l-.21.27c.11-.13.23-.25.36-.35l-.25.19c.07-.06.15-.11.23-.16.51-.31.72-.95.49-1.49s-.82-.81-1.41-.69Z"/><path fill="var(--color-primary)" d="M71.99 13.14c10.88-2 22.21-1.19 32.74 2.18 10.32 3.3 19.76 9.06 27.32 16.83 7.27 7.49 12.78 16.68 15.98 26.61 3.31 10.26 4.01 21.23 2.11 31.84-1.91 10.66-6.36 20.88-12.98 29.47-.83 1.08-1.7 2.13-2.6 3.16-.16.18.11.45.27.27 7.26-8.29 12.37-18.38 14.9-29.09 2.5-10.54 2.46-21.61-.28-32.09-2.65-10.16-7.69-19.69-14.57-27.63-7.1-8.19-16.16-14.5-26.28-18.4-10.35-3.98-21.69-5.46-32.7-4.12-1.34.16-2.67.37-4 .61-.24.04-.14.41.1.36Zm-.54 39.63c2.68 3.78 5.36 7.55 8.06 11.32.77 1.08 1.54 2.15 2.31 3.23.14.19.46 0 .32-.19-2.7-3.76-5.39-7.53-8.08-11.31-.77-1.08-1.53-2.16-2.3-3.24-.14-.2-.46 0-.32.19Zm9.52 16.89c.75-1 1.81-1.78 2.99-2.2.23-.08.13-.44-.1-.36a6.9 6.9 0 0 0-3.21 2.37c-.14.19.18.38.32.19m2.42.47c1.98-1.39 4.57-1.73 6.86-.97s3.97 2.61 4.69 4.87c.4 1.24.48 2.57.21 3.85-.05.24.31.34.36.1.51-2.4-.17-4.95-1.73-6.83-1.61-1.94-4.11-2.92-6.61-2.73-1.42.11-2.8.57-3.97 1.39-.2.14 0 .46.19.32M39.85 90.1c5-1.53 10.01-3.07 15.01-4.6.23-.07.13-.43-.1-.36-5 1.53-10.01 3.07-15.01 4.6-.23.07-.13.43.1.36m15.83-5.55v-.42s-.02-.1-.05-.13-.09-.06-.13-.05c-.1 0-.19.08-.19.19v.42s.02.1.05.13.09.06.13.05c.1 0 .19-.08.19-.19"/><path fill="var(--color-primary)" d="M55.97 82.75c-1.21-3.86-1.63-7.95-1.3-11.98a33.1 33.1 0 0 1 3.19-11.7c1.75-3.61 4.18-6.86 7.15-9.56a33.8 33.8 0 0 1 10.16-6.32c3.71-1.48 7.67-2.32 11.67-2.42 3.97-.1 7.93.56 11.68 1.85 3.78 1.3 7.34 3.26 10.47 5.74 3.16 2.5 5.88 5.54 7.98 8.98 2.17 3.55 3.69 7.48 4.53 11.55s.99 8.29.42 12.41c-.14 1.01-.32 2.01-.55 3-.05.23.31.34.36.1.93-4.11 1.14-8.37.63-12.55-.51-4.16-1.7-8.23-3.57-11.99a34.6 34.6 0 0 0-7.36-9.9c-2.94-2.75-6.36-5-10.05-6.62-3.67-1.61-7.61-2.62-11.61-2.88-4.03-.27-8.11.24-11.98 1.42a34.6 34.6 0 0 0-10.75 5.48c-3.24 2.45-6.01 5.49-8.11 8.97s-3.55 7.42-4.25 11.46c-.69 4.02-.66 8.16.17 12.15.2.99.46 1.96.76 2.92.07.23.43.13.36-.1Zm65.71 2.92.14.14s.04.03.06.04.05.02.07.02c.03 0 .05 0 .07-.02.02 0 .04-.02.06-.04.03-.04.06-.08.05-.13s-.02-.1-.05-.13l-.14-.14s-.04-.03-.06-.04a.2.2 0 0 0-.07-.02c-.03 0-.05 0-.07.02-.02 0-.04.02-.06.04-.03.04-.06.08-.05.13s.02.1.05.13m1.79 1.13c4.33 1.29 8.66 2.57 13 3.86.23.07.33-.29.1-.36-4.33-1.29-8.66-2.57-13-3.86-.23-.07-.33.29-.1.36"/><path fill="var(--color-primary)" d="m39.12 57.47 12.9 4.56 3.64 1.29c.23.08.33-.28.1-.36l-12.9-4.56-3.64-1.29c-.23-.08-.33.28-.1.36m18.11-25.42c3.04 3.42 5.83 7.05 8.35 10.86.71 1.07 1.4 2.16 2.06 3.26.12.21.45.02.32-.19a99 99 0 0 0-7.93-11.22c-.83-1.01-1.67-2-2.54-2.98-.16-.18-.43.09-.27.27Zm30.75-7.82L89 40.15c.02.24.39.24.38 0l-1.02-15.92c-.02-.24-.39-.24-.38 0m20.74 23.35c2.78-4.13 5.85-8.05 9.2-11.72.16-.18-.1-.44-.27-.27a103 103 0 0 0-7.36 9.06c-.65.9-1.28 1.81-1.9 2.73-.14.2.19.39.32.19Zm11.84 17.38 11.98-3.63 3.4-1.03c.23-.07.13-.43-.1-.36l-11.98 3.63c-1.13.34-2.27.69-3.4 1.03-.23.07-.13.43.1.36m-47.18 86.77c4.22.92 8.52 1.51 12.84 1.74 4.36.24 8.74.13 13.08-.34 2.42-.26 4.82-.63 7.2-1.1.24-.05.14-.41-.1-.36-4.23.84-8.52 1.34-12.83 1.49-4.28.15-8.58-.03-12.83-.56-2.44-.3-4.86-.72-7.26-1.24-.24-.05-.34.31-.1.36Z"/><path fill="var(--color-primary)" d="M70.07 152.69c5.2 1.21 10.5 1.99 15.83 2.35 5.31.36 10.65.29 15.96-.21 2.98-.28 5.96-.69 8.9-1.24.24-.04.14-.41-.1-.36-5.22.97-10.52 1.51-15.82 1.63-5.31.12-10.62-.18-15.88-.91-2.95-.41-5.88-.95-8.79-1.63-.23-.05-.34.31-.1.36ZM81.08 141c-.02 1.39.19 2.77.64 4.08.08.23.44.13.36-.1a11.7 11.7 0 0 1-.63-3.98c0-.24-.37-.24-.38 0Z"/><path fill="var(--color-primary)" d="M82.14 145.78v7c0 .24.38.24.38 0v-7c0-.24-.38-.24-.38 0"/><path fill="var(--color-primary)" d="m82.05 152.78-.96 1.59c-.13.21.2.4.32.19l.96-1.59c.13-.21-.2-.4-.32-.19"/><path fill="var(--color-primary)" d="M80.69 154.69c-.19 4.42-.2 8.84-.02 13.26 0 .24.38.24.38 0-.18-4.42-.17-8.84.02-13.26.01-.24-.36-.24-.38 0"/><path fill="var(--color-primary)" d="M69.53 159.6c5.33 1.07 10.67 2.12 16.08 2.68 5.18.53 10.42.61 15.58-.16 2.86-.43 5.67-1.12 8.38-2.12.22-.08.13-.45-.1-.36-4.8 1.77-9.91 2.55-15.02 2.66s-10.64-.49-15.89-1.37c-2.99-.5-5.96-1.09-8.93-1.69-.24-.05-.34.31-.1.36m34.15-18.87c.25 1.42.28 2.87.09 4.3-.03.24.34.24.38 0 .19-1.46.15-2.94-.1-4.4-.04-.24-.4-.14-.36.1Zm-2.11 5.26c-.19 2.12-.03 4.25.47 6.32.06.23.42.14.36-.1-.49-2.04-.64-4.13-.46-6.22.02-.24-.35-.24-.38 0Z"/><path fill="var(--color-primary)" d="M101.96 152.76c.58.59 1.16 1.17 1.74 1.76.17.17.44-.09.27-.27-.58-.59-1.16-1.17-1.74-1.76-.17-.17-.44.09-.27.27m1.46 2.03c.18 4.05-.17 8.1-1.03 12.06-.05.24.31.34.36.1.86-3.99 1.22-8.08 1.04-12.16-.01-.24-.39-.24-.38 0ZM87.52 12.85c.07 2.53.14 5.06.2 7.58 0 .24.38.24.38 0-.07-2.53-.14-5.06-.2-7.58 0-.24-.38-.24-.38 0M24.26 78.58c2.95-.05 5.9-.09 8.85-.14.24 0 .24-.38 0-.38-2.95.05-5.9.09-8.85.14-.24 0-.24.38 0 .38m116.27.31 9.9.23c.24 0 .24-.37 0-.38l-9.9-.23c-.24 0-.24.37 0 .38m13.9 2.6c.24 0 .24-.38 0-.38s-.24.38 0 .38m-67.56 48.68.33 9.06c0 .24.38.24.38 0l-.33-9.06c0-.24-.38-.24-.38 0M55.07 77.3c5.73-.16 11.47-.33 17.2-.49 1.62-.05 3.24-.09 4.86-.14.24 0 .24-.38 0-.38-5.73.16-11.47.33-17.2.49-1.62.05-3.24.09-4.86.14-.24 0-.24.38 0 .38m34-35.03.3 18.31.09 5.23c0 .24.38.24.38 0l-.3-18.31-.09-5.23c0-.24-.38-.24-.38 0m8.22 35.54c3.61-.36 7.22-.58 10.85-.59 2.86-.01 5.73.09 8.59.13 1.74.02 3.49.01 5.23-.04.24 0 .24-.38 0-.38-2.97.09-5.94.04-8.91-.03-3.04-.07-6.08-.09-9.13.05-2.21.1-4.42.27-6.63.49-.24.02-.24.4 0 .38Zm-8.83 5.62c.42 6.05.73 12.11.93 18.17.2 6.02.29 12.04.26 18.06-.01 3.41-.06 6.81-.14 10.22 0 .24.37.24.38 0 .14-6.06.18-12.13.1-18.19s-.26-12.04-.55-18.06q-.255-5.1-.6-10.2c-.02-.24-.39-.24-.38 0"/></svg>
