<svg width="162" height="162" viewBox="0 0 162 162" fill="none" xmlns="http://www.w3.org/2000/svg">
<g clip-path="url(#clip0_2450_3806)">
<rect width="162" height="162" rx="42" fill="#1F71E3"/>
<g opacity="0.3">
<path fill-rule="evenodd" clip-rule="evenodd" d="M81 64.3827C90.1774 64.3827 97.6172 71.8224 97.6172 80.9999C97.6172 90.1773 90.1774 97.617 81 97.6171C71.8226 97.617 64.3828 90.1773 64.3828 80.9999C64.3828 71.8224 71.8226 64.3827 81 64.3827ZM81 65.3436C72.3533 65.3436 65.3437 72.3532 65.3437 80.9999C65.3437 89.6466 72.3533 96.6561 81 96.6561C89.6467 96.6561 96.6562 89.6466 96.6562 80.9999C96.6562 72.3532 89.6467 65.3436 81 65.3436Z" fill="white"/>
<path fill-rule="evenodd" clip-rule="evenodd" d="M81 40.0194C103.633 40.0194 121.98 58.367 121.98 80.9999C121.98 103.633 103.633 121.98 81 121.98C58.3671 121.98 40.0195 103.633 40.0195 80.9999C40.0195 58.367 58.3671 40.0194 81 40.0194ZM81 40.9803C58.8978 40.9803 40.9805 58.8977 40.9805 80.9999C40.9805 103.102 58.8978 121.019 81 121.019C103.102 121.019 121.02 103.102 121.02 80.9999C121.02 58.8977 103.102 40.9803 81 40.9803Z" fill="white"/>
<path fill-rule="evenodd" clip-rule="evenodd" d="M81 15.6561C117.088 15.6561 146.344 44.9115 146.344 80.9999C146.344 117.088 117.088 146.344 81 146.344C44.9116 146.344 15.6562 117.088 15.6562 80.9999C15.6562 44.9115 44.9116 15.6561 81 15.6561ZM81 16.6171C45.4423 16.6171 16.6172 45.4422 16.6172 80.9999C16.6172 116.558 45.4423 145.383 81 145.383C116.558 145.383 145.383 116.558 145.383 80.9999C145.383 45.4422 116.558 16.6171 81 16.6171Z" fill="white"/>
<path d="M162.34 0.339844L81.6798 81L162.34 161.66L161.66 162.34L81.0001 81.6797L0.339966 162.34L-0.339722 161.66L80.3204 81L-0.339722 0.339844L0.339966 -0.339844L81.0001 80.3203L161.66 -0.339844L162.34 0.339844Z" fill="white"/>
<path fill-rule="evenodd" clip-rule="evenodd" d="M20.7305 19.7694H40.0195V-0.000137329H40.9805V19.7694H60.2695V-0.000137329H61.2305V19.7694H80.5195V-0.000137329H81.4805V19.7694H100.77V-0.000137329H101.73V19.7694H121.02V-0.000137329H121.98V19.7694H141.27V-0.000137329H142.23V19.7694H162V20.7303H142.23V40.0194H162V40.9803H142.23V60.2694H162V61.2303H142.23V80.5194H162V81.4803H142.23V100.769H162V101.73H142.23V121.019H162V121.98H142.23V141.269H162V142.23H142.23V162H141.27V142.23H121.98V162H121.02V142.23H101.73V162H100.77V142.23H81.4805V162H80.5195V142.23H61.2305V162H60.2695V142.23H40.9805V162H40.0195V142.23H20.7305V162H19.7695V142.23H-1.52588e-05V141.269H19.7695V121.98H-1.52588e-05V121.019H19.7695V101.73H-1.52588e-05V100.769H19.7695V81.4803H-1.52588e-05V80.5194H19.7695V61.2303H-1.52588e-05V60.2694H19.7695V40.9803H-1.52588e-05V40.0194H19.7695V20.7303H-1.52588e-05V19.7694H19.7695V-0.000137329H20.7305V19.7694ZM20.7305 141.269H40.0195V121.98H20.7305V141.269ZM40.9805 141.269H60.2695V121.98H40.9805V141.269ZM61.2305 141.269H80.5195V121.98H61.2305V141.269ZM81.4805 141.269H100.77V121.98H81.4805V141.269ZM101.73 141.269H121.02V121.98H101.73V141.269ZM121.98 141.269H141.27V121.98H121.98V141.269ZM20.7305 121.019H40.0195V101.73H20.7305V121.019ZM40.9805 121.019H60.2695V101.73H40.9805V121.019ZM61.2305 121.019H80.5195V101.73H61.2305V121.019ZM81.4805 121.019H100.77V101.73H81.4805V121.019ZM101.73 121.019H121.02V101.73H101.73V121.019ZM121.98 121.019H141.27V101.73H121.98V121.019ZM20.7305 100.769H40.0195V81.4803H20.7305V100.769ZM40.9805 100.769H60.2695V81.4803H40.9805V100.769ZM61.2305 100.769H80.5195V81.4803H61.2305V100.769ZM81.4805 100.769H100.77V81.4803H81.4805V100.769ZM101.73 100.769H121.02V81.4803H101.73V100.769ZM121.98 100.769H141.27V81.4803H121.98V100.769ZM20.7305 80.5194H40.0195V61.2303H20.7305V80.5194ZM40.9805 80.5194H60.2695V61.2303H40.9805V80.5194ZM61.2305 80.5194H80.5195V61.2303H61.2305V80.5194ZM81.4805 80.5194H100.77V61.2303H81.4805V80.5194ZM101.73 80.5194H121.02V61.2303H101.73V80.5194ZM121.98 80.5194H141.27V61.2303H121.98V80.5194ZM20.7305 60.2694H40.0195V40.9803H20.7305V60.2694ZM40.9805 60.2694H60.2695V40.9803H40.9805V60.2694ZM61.2305 60.2694H80.5195V40.9803H61.2305V60.2694ZM81.4805 60.2694H100.77V40.9803H81.4805V60.2694ZM101.73 60.2694H121.02V40.9803H101.73V60.2694ZM121.98 60.2694H141.27V40.9803H121.98V60.2694ZM20.7305 40.0194H40.0195V20.7303H20.7305V40.0194ZM40.9805 40.0194H60.2695V20.7303H40.9805V40.0194ZM61.2305 40.0194H80.5195V20.7303H61.2305V40.0194ZM81.4805 40.0194H100.77V20.7303H81.4805V40.0194ZM101.73 40.0194H121.02V20.7303H101.73V40.0194ZM121.98 40.0194H141.27V20.7303H121.98V40.0194Z" fill="white"/>
<rect x="0.75" y="0.75" width="160.5" height="160.5" rx="41.25" stroke="white" stroke-width="1.5"/>
</g>
<path d="M43.7479 111.772L92.7479 58.7721C86.3479 54.3721 87.4146 50.2723 88.7479 48.7725L92.7479 43.7725L90.7479 42.2725H80.7479C79.7479 42.2725 76.7479 41.2721 78.2479 37.2721C79.4479 34.0721 90.4146 34.9388 95.7479 35.7721C102.748 40.7721 116.748 50.8721 116.748 51.2721C116.748 51.7721 116.748 54.7721 118.748 56.7721C120.748 58.7721 128.248 60.7725 128.248 64.2721C128.248 69.9992 120.248 76.7721 116.748 76.7721C114.915 75.2721 110.848 71.9721 109.248 70.7721C107.248 69.2721 110.748 66.2721 108.248 67.7721C106.248 68.9721 102.415 67.2721 100.748 66.2721C86.9146 85.2721 59.0479 123.372 58.2479 123.772C57.2479 124.272 55.846 126.272 53.2479 124.772C50.6498 123.272 45.2479 118.772 43.7479 116.272C42.5479 114.272 43.2479 112.439 43.7479 111.772Z" fill="#1F71E3" stroke="#1F71E3" stroke-width="6"/>
<path d="M52.2479 50.7721L45.7479 44.2721C45.7479 41.7725 48.7479 40.7721 56.2479 44.2721C62.2479 47.0721 62.7479 55.7721 62.2479 59.7721L107.748 97.2721C106.748 96.2721 114.248 96.5521 117.248 97.2721C127.248 99.6721 124.748 111.272 122.248 113.772C122.748 113.272 120.748 112.272 115.248 108.772C109.373 105.033 105.748 113.772 107.748 116.772L112.748 120.272C115.248 123.272 116.348 128.372 106.748 124.772C97.1479 121.172 96.0813 111.939 96.7479 107.772L53.2479 69.2721C49.7479 69.2721 42.8733 70.2725 40.2479 68.2721C31.8479 61.8721 33.2479 53.2721 36.7479 53.2721C40.2479 56.2725 43.2479 59.6784 44.7479 59.7721C51.1479 60.1721 52.4146 53.9388 52.2479 50.7721Z" fill="#1F71E3" stroke="#1F71E3" stroke-width="6"/>
<path d="M44.5001 109L92.5001 57.9997C87.0001 53.4997 86.6668 49.9995 88.0001 48.4997L92.0001 43.4997L86.0001 42.4997C83.0001 42.4997 81.548 42.2721 80.748 42.2721C79.748 42.2721 76.748 41.2718 78.248 37.2718C79.448 34.0718 90.6668 34.1665 96.0001 34.9998C103.5 37.2718 117.34 50.6331 117.5 50.9998C118.252 52.7279 118 54.9998 119.5 55.9998C121.853 57.5688 129 61.0004 129 64.5C129 70.2271 121 77.5 117.5 77.5C115.667 76 110.6 71.2 109 70C107 68.5 109 68.5 106 68.5C103.668 68.5 103.667 68 102 67C88.1668 86 58.8001 125.1 58.0001 125.5C57.0001 126 54.0982 127 51.5001 125.5C48.902 124 43.748 121 42 116.5C41.1555 114.326 44.0001 109.667 44.5001 109Z" fill="#1F71E3" stroke="#1F71E3" stroke-width="6"/>
<path d="M51.5001 51.5L45.0001 45.0005C44.0001 43.0003 47.5001 38 57.5001 43.5002C63.3016 46.6912 64.0001 55 63.5001 59L109.5 97.5001C112.252 97.5001 114.676 96.2575 117.5 97.5001C130 103 126.5 115 123.5 115.5C121.5 115.833 122 114 116.5 110.5C113.357 108.5 106.748 111.5 109.5 117.5L112.748 120.272C119 123.5 115 129.188 106.5 126C96.9001 122.4 96.5001 113 96.5001 108.5L74.998 88.5222L53.0001 70.0001C49.5001 70.0001 42.8734 70.2725 40.248 68.2722C31.848 61.8722 32.0001 53 36.748 53.2722C38.0001 53.344 43.0001 58.4063 44.5001 58.5001C50.9001 58.9001 51.6668 54.6667 51.5001 51.5Z" fill="#1F71E3" stroke="#1F71E3" stroke-width="6"/>
<path d="M93.062 58.4336L93.9139 63.1806C94.3075 65.3837 94.707 67.5927 94.8245 69.8252C94.9244 71.6935 94.7951 73.6851 93.72 75.2185C96.0935 72.3515 98.3495 69.3846 100.476 66.3296C100.611 66.1416 100.747 65.9066 100.664 65.6892C100.606 65.5423 100.459 65.4542 100.324 65.372C97.9792 63.9751 95.8516 62.2432 94.0079 60.2313" fill="white" fill-opacity="0.1"/>
<path d="M92.4334 58.6097C92.9093 61.5119 93.4498 64.4083 93.8258 67.3282C94.1371 69.784 94.4838 72.6509 93.0444 74.8247C92.5568 75.5649 93.7141 76.4873 94.2899 75.7823C95.5119 74.2901 96.7045 72.7743 97.8678 71.2351C98.4553 70.4537 99.0428 69.6723 99.6185 68.8851C100.194 68.0978 100.852 67.3576 101.287 66.5233C101.634 65.8653 101.452 65.2014 100.864 64.7784C100.165 64.2791 99.407 63.8619 98.7079 63.3508C97.2156 62.2639 95.8409 61.0185 94.5836 59.6672C93.8786 58.9093 92.7624 60.0432 93.4556 60.7952C94.4955 61.9232 95.6118 62.9689 96.822 63.9148C97.4154 64.3731 98.0146 64.8196 98.6374 65.2308C98.9899 65.4658 99.3483 65.7067 99.7125 65.9123C100.065 66.1062 99.783 65.9534 99.8065 65.9299C99.6596 66.1062 99.5363 66.3118 99.407 66.4998C97.4389 69.3022 95.3533 72.0165 93.1678 74.6543L94.4133 75.6119C95.9819 73.2796 95.7351 70.2481 95.4003 67.5926C95.0066 64.4553 94.3016 61.3533 93.6965 58.2513C93.532 57.4229 92.3041 57.7813 92.4393 58.598L92.4334 58.6097Z" fill="white" fill-opacity="0.1"/>
<path d="M44.7225 115.784C45.2102 116.431 46.1384 116.701 46.8904 116.413C47.4015 116.219 47.801 115.814 48.1829 115.426C53.5233 109.95 58.8813 104.451 63.3404 98.2416C64.2804 96.9314 65.191 95.5802 66.3367 94.4404C66.7773 93.9998 67.2943 93.5768 67.917 93.5122C68.3988 93.4593 68.8805 93.6414 69.3212 93.8412C71.489 94.8223 73.369 96.4321 74.6733 98.4296C74.826 98.6646 74.9729 98.9113 75.0317 99.1874C75.1609 99.8396 74.7497 100.462 74.356 100.997C70.4785 106.302 66.5599 111.584 63.1759 117.212C62.1243 118.963 61.1079 120.766 59.6627 122.206C58.2174 123.645 56.2317 124.697 54.1989 124.52C53.3705 124.45 52.5657 124.18 51.796 123.857C48.5413 122.482 45.5568 119.668 45.3277 116.143" fill="white" fill-opacity="0.1"/>
<path d="M44.3348 116.173C45.0456 117.054 46.2383 117.459 47.2958 117.013C48.5471 116.484 49.5048 115.144 50.433 114.199C52.5656 112.013 54.6806 109.822 56.731 107.56C58.7814 105.298 60.7436 102.977 62.606 100.563C63.5108 99.3935 64.3568 98.1833 65.2439 97.0024C65.661 96.4501 66.0958 95.9096 66.5716 95.4044C67.0475 94.8991 67.6115 94.2353 68.3988 94.4115C68.9863 94.5408 69.5796 94.9462 70.0908 95.2517C70.6548 95.5865 71.1894 95.9625 71.6829 96.3914C72.147 96.7909 72.5876 97.2256 72.9871 97.6898C73.3455 98.1069 73.9506 98.7062 74.1034 99.2467C74.2796 99.8753 73.5041 100.627 73.1575 101.097C72.6934 101.732 72.2293 102.366 71.7593 103.001C70.831 104.27 69.9028 105.539 68.9863 106.82C67.1826 109.334 65.4143 111.884 63.7516 114.498C62.2124 116.919 60.9316 119.715 58.8166 121.707C57.7591 122.7 56.3668 123.516 54.8863 123.587C53.4058 123.657 51.9664 122.993 50.7268 122.271C48.5119 120.972 46.438 118.822 46.2206 116.143C46.1266 114.986 44.3113 114.974 44.4053 116.143C44.6226 118.834 46.062 121.131 48.1476 122.788C50.2333 124.445 53.0768 125.86 55.8263 125.367C58.8813 124.815 61.0491 122.353 62.6354 119.868C64.4155 117.083 66.0723 114.234 67.9346 111.496C69.8323 108.705 71.818 105.974 73.8096 103.242C74.6439 102.102 76.0774 100.721 75.9129 99.1879C75.7719 97.9013 74.497 96.6205 73.6158 95.7569C71.8826 94.0473 68.6279 91.5093 66.2603 93.3775C65.097 94.294 64.2099 95.5865 63.358 96.7909C62.3886 98.1598 61.4193 99.5228 60.3794 100.839C58.0705 103.77 55.5795 106.555 53.0298 109.275C51.7549 110.638 50.4565 111.984 49.1581 113.329C48.5413 113.964 47.9479 114.622 47.3016 115.233C46.6554 115.844 45.7683 116.161 45.0868 115.403C44.6109 114.868 43.8824 115.638 44.3171 116.173H44.3348Z" fill="white" fill-opacity="0.1"/>
<path d="M92.2278 56.2123C91.3289 55.0902 91.229 53.4804 91.6461 52.1057C92.0633 50.7309 92.9386 49.5442 93.8551 48.4338C94.3604 47.8287 94.8833 47.2235 95.2005 46.5009C95.8762 44.9617 95.4473 43.0817 94.378 41.7892C93.3088 40.4967 91.6931 39.7447 90.0423 39.445C89.0376 39.2629 88.0095 39.2335 86.9873 39.2042L81.2944 39.0455C81.0006 39.0397 80.6658 39.0044 80.5071 38.7577C80.2839 38.411 80.6129 37.9704 80.9419 37.7178C82.4753 36.5369 84.4551 36.1139 86.3763 35.9435C93.4674 35.3032 100.782 37.7413 106.063 42.5177C106.616 43.017 107.15 43.5458 107.685 44.0687C109.312 45.6784 110.946 47.2823 112.573 48.892C114.012 50.3079 115.458 51.7414 116.591 53.4158C117.009 54.0385 117.402 54.7729 117.232 55.5073C117.097 56.1007 116.633 56.5472 116.174 56.9467C113.959 58.8737 111.374 60.5422 109.976 63.1272C109.289 64.402 108.807 65.9765 107.491 66.5875C105.958 67.2984 104.207 66.2879 102.838 65.295C99.8535 63.1389 96.9513 60.877 94.1254 58.5094C93.0268 57.5929 91.84 56.412 92.0045 54.9903" fill="white" fill-opacity="0.1"/>
<path d="M92.686 55.9422C91.7225 54.4558 92.0633 52.5582 92.874 51.0836C93.6848 49.609 95.1888 48.3928 95.8879 46.789C97.2156 43.7457 95.0889 40.5497 92.3041 39.316C90.6121 38.564 88.8085 38.4347 86.9755 38.3701C86.0296 38.3348 85.0779 38.3055 84.132 38.2761C83.8911 38.2702 81.218 38.0352 81.1593 38.1821L81.2709 38.329C81.3473 38.5228 81.4471 38.5228 81.5646 38.329C81.7585 38.2643 81.9876 38.047 82.1698 37.9412C82.5223 37.7415 82.8924 37.577 83.2743 37.4418C84.1144 37.1481 85.0015 36.966 85.8886 36.8602C87.5395 36.6663 89.2139 36.6605 90.8706 36.8073C94.1783 37.1011 97.4448 38.0705 100.382 39.6215C103.614 41.3252 106.11 43.7575 108.69 46.3013C110.088 47.682 111.498 49.0508 112.884 50.4491C113.501 51.0718 114.112 51.7063 114.682 52.3761C115.252 53.0458 116.069 53.8977 116.315 54.779C116.562 55.6602 115.769 56.142 115.187 56.6355C114.535 57.1877 113.86 57.7223 113.196 58.2687C111.944 59.3027 110.752 60.3896 109.806 61.7173C109.289 62.44 108.93 63.2331 108.537 64.0203C108.19 64.7077 107.785 65.5361 107.021 65.8298C105.288 66.5055 103.161 64.4668 101.904 63.5386C100.065 62.1815 98.2614 60.7832 96.4871 59.3438C95.6646 58.68 94.8069 58.0278 94.0431 57.2935C93.3851 56.6648 92.7918 55.9598 92.8446 55.0022C92.9034 53.9036 91.229 53.9212 91.1468 55.0022C90.994 56.9703 92.5626 58.3568 93.9315 59.5025C95.6529 60.9418 97.4095 62.3401 99.1955 63.7031C101.698 65.6183 106.251 69.9247 109.183 66.3351C110.246 65.0367 110.675 63.3565 111.762 62.0581C112.961 60.6305 114.465 59.4966 115.898 58.3216C116.539 57.7987 117.261 57.27 117.714 56.565C118.301 55.6367 118.213 54.5851 117.737 53.6333C116.862 51.8826 115.311 50.3903 113.942 49.0215C112.344 47.4235 110.722 45.849 109.113 44.2627C107.685 42.8586 106.275 41.4662 104.665 40.2736C101.663 38.0411 98.1439 36.4666 94.4955 35.65C90.8471 34.8333 86.8286 34.5748 83.2801 35.6323C81.9994 36.0142 79.2088 37.0306 79.6024 38.8166C79.8139 39.7625 80.7656 39.8976 81.5764 39.927C82.7161 39.9622 83.85 39.9798 84.9898 40.0033C87.2516 40.0503 89.7191 39.8565 91.8224 40.8317C93.6495 41.6777 95.177 43.5695 94.6835 45.6903C94.4426 46.7243 93.6495 47.5057 93.0091 48.3106C92.3394 49.1566 91.7108 50.0378 91.276 51.0307C90.4594 52.8931 90.4888 54.9963 91.8459 56.5943C92.2395 57.0526 93.0091 56.4533 92.6801 55.9481L92.686 55.9422Z" fill="white" fill-opacity="0.1"/>
<path d="M117.608 75.6061C116.204 73.5205 114.753 71.288 114.647 68.7794C114.576 67.1226 115.111 65.507 115.728 63.9678C116.586 61.8175 117.661 59.6849 119.376 58.128C119.535 57.9811 119.717 57.8343 119.934 57.8049C120.263 57.7579 120.563 57.9929 120.816 58.2161C122.737 59.914 124.658 61.6119 126.573 63.3098C126.79 63.5036 127.014 63.7034 127.161 63.956C127.36 64.2968 127.401 64.708 127.396 65.1016C127.372 68.1155 125.057 70.5536 122.889 72.6451C121.632 73.8613 120.257 75.1303 118.536 75.4358" fill="white" fill-opacity="0.1"/>
<path d="M118.137 75.301C116.727 73.0156 115.123 70.5481 115.446 67.7399C115.604 66.3416 116.139 64.9845 116.691 63.7038C117.197 62.5288 117.778 61.3773 118.518 60.3315C118.871 59.838 119.265 59.3798 119.699 58.9568C120.005 58.663 119.999 58.6395 120.304 58.9156C120.61 59.1918 120.933 59.4973 121.244 59.7793C122.372 60.7956 123.518 61.7944 124.658 62.799C125.163 63.2455 125.709 63.6685 126.179 64.1561C126.649 64.6438 126.532 65.384 126.414 65.9891C126.185 67.1876 125.563 68.2745 124.828 69.238C123.994 70.3366 122.989 71.306 121.991 72.2578C120.915 73.2859 119.787 74.2611 118.289 74.5666C117.155 74.7958 117.637 76.5348 118.765 76.2998C120.346 75.9766 121.65 75.0131 122.819 73.938C123.988 72.8629 125.063 71.8054 126.015 70.601C126.967 69.3966 127.742 68.1453 128.083 66.6883C128.259 65.948 128.353 65.1373 128.224 64.3853C128.077 63.5569 127.589 63.0281 126.978 62.4876C125.592 61.2597 124.205 60.0378 122.819 58.8099C121.767 57.8816 120.404 56.2308 118.947 57.3881C116.55 59.2916 115.129 62.752 114.318 65.6131C113.807 67.405 113.73 69.2556 114.318 71.0416C114.905 72.8276 115.969 74.3963 117.079 75.912C117.531 76.5348 118.554 75.9766 118.131 75.2951L118.137 75.301Z" fill="white" fill-opacity="0.1"/>
<path d="M81.7938 94.3179C83.8206 94.453 85.8475 94.5822 87.8744 94.7173C88.3033 94.7467 88.7439 94.7761 89.1493 94.9406C89.537 95.0992 89.866 95.3695 90.1833 95.6397C92.4275 97.5139 94.6659 99.3939 96.9101 101.268C98.655 102.731 100.488 104.317 101.158 106.491C101.98 109.17 100.852 112.101 101.399 114.845C101.645 116.073 102.221 117.219 102.926 118.253C104.706 120.861 107.379 122.847 110.387 123.81C110.963 123.992 111.698 124.098 112.074 123.628C112.361 123.27 112.279 122.718 112.021 122.336C111.762 121.954 111.363 121.689 110.998 121.407C107.943 119.046 106.792 114.428 108.619 111.026C108.878 110.55 109.189 110.092 109.624 109.769C110.493 109.117 111.662 109.099 112.749 109.111C114.535 109.129 116.398 109.17 117.96 110.022C119.476 110.85 120.563 112.366 122.155 113.03C122.355 113.112 122.566 113.182 122.778 113.159C123.307 113.112 123.636 112.554 123.8 112.049C124.423 110.11 124 107.954 123.083 106.138C122.167 104.323 120.774 102.79 119.382 101.303C118.871 100.757 118.336 100.199 117.655 99.8874C116.926 99.5584 116.104 99.5407 115.305 99.5407C113.689 99.5466 112.062 99.623 110.464 99.3703C105.723 98.6183 101.945 95.1403 98.4788 91.8151C95.7116 89.1655 92.9445 86.51 90.1715 83.8604C87.6923 87.2326 85.1425 90.552 82.5164 93.8185" fill="white" fill-opacity="0.1"/>
<path d="M81.7937 94.9173C83.0451 95.0583 84.3024 95.1817 85.5596 95.305C86.6641 95.4167 88.2386 95.2287 89.1904 95.8514C90.1421 96.4742 91.0704 97.4083 91.9751 98.1662C92.9445 98.9828 93.9139 99.7935 94.8832 100.61C96.4812 101.95 98.3142 103.254 99.5127 104.993C100.793 106.849 100.705 108.876 100.517 111.027C100.329 113.177 100.376 115.345 101.416 117.389C102.333 119.193 103.731 120.797 105.317 122.042C106.792 123.205 108.607 124.31 110.464 124.715C111.339 124.903 112.355 124.803 112.849 123.963C113.342 123.123 113.002 122.136 112.379 121.49C111.756 120.844 110.934 120.368 110.334 119.639C109.782 118.97 109.342 118.176 109.054 117.36C108.484 115.756 108.407 113.982 108.948 112.354C109.242 111.473 109.729 110.486 110.658 110.151C111.586 109.816 112.778 109.928 113.777 109.957C114.882 109.993 116.021 110.081 117.055 110.504C117.972 110.874 118.706 111.538 119.447 112.172C120.663 113.212 122.901 115.022 124.188 113.095C125.327 111.391 125.004 108.776 124.34 106.967C123.6 104.94 122.272 103.23 120.845 101.638C120.128 100.845 119.417 99.9815 118.518 99.394C117.619 98.8065 116.585 98.6773 115.546 98.6597C113.248 98.6068 110.998 98.7419 108.783 98.0193C106.862 97.3907 105.1 96.2862 103.508 95.0524C101.916 93.8187 100.335 92.3147 98.8254 90.8635L93.5261 85.7934C92.6272 84.9298 91.7284 84.072 90.8236 83.2084C90.3595 82.7678 89.7309 82.9147 89.3842 83.3964C86.952 86.7099 84.4492 89.9705 81.8819 93.1783C81.1592 94.083 82.4341 95.3755 83.1685 94.4649C85.8416 91.1397 88.4442 87.7615 90.9705 84.3247L89.5311 84.5127C92.8681 87.7145 96.1581 90.9752 99.5597 94.1124C102.421 96.7444 105.646 99.3 109.53 100.128C110.581 100.352 111.662 100.446 112.737 100.463C113.912 100.481 115.099 100.352 116.268 100.44C117.437 100.528 118.054 101.115 118.789 101.897C119.523 102.678 120.316 103.536 120.998 104.417C122.296 106.109 123.342 108.124 123.283 110.304C123.271 110.809 123.207 111.35 123.024 111.826C122.819 112.366 122.66 112.378 122.167 112.119C121.291 111.667 120.592 110.944 119.84 110.327C118.195 108.976 116.403 108.424 114.288 108.306C112.432 108.207 110.099 108.007 108.689 109.476C106.322 111.949 106.557 116.15 108.008 118.999C108.378 119.722 108.848 120.397 109.394 120.996C109.665 121.296 109.958 121.578 110.276 121.831C110.546 122.048 111.392 122.506 111.404 122.9C111.415 123.294 110.898 123.053 110.616 122.97C110.17 122.835 109.735 122.665 109.312 122.477C108.402 122.072 107.526 121.56 106.721 120.967C105.141 119.804 103.784 118.265 102.891 116.52C101.869 114.516 102.109 112.413 102.245 110.245C102.386 107.942 102.127 105.786 100.717 103.888C99.3071 101.991 97.4389 100.645 95.6881 99.1825C94.6424 98.3072 93.5907 97.4377 92.545 96.5623C91.6167 95.7868 90.665 94.7469 89.5487 94.2475C88.4325 93.7482 87.0225 93.8598 85.8534 93.8128C84.5021 93.754 83.1509 93.7305 81.7996 93.7012C81.0065 93.6835 81.0476 94.8174 81.7996 94.9055L81.7937 94.9173Z" fill="white" fill-opacity="0.1"/>
<path d="M36.9381 55.0203L39.764 59.4383C40.8097 61.0774 41.8849 62.7518 43.4006 63.9738C44.6109 64.9549 46.0796 65.6129 47.6189 65.8714C49.6457 66.2122 51.7549 65.8597 53.7524 66.3473C56.0847 66.9172 57.9824 68.5622 59.7801 70.1484L70.925 79.9891C72.7169 78.5673 74.5029 77.1397 76.2947 75.7179C76.753 75.3537 77.2465 74.9189 77.27 74.3373C77.2935 73.7674 76.847 73.2974 76.4357 72.8979C72.711 69.3201 68.9451 65.7069 64.5565 62.9809C63.3345 62.2231 61.9715 61.4182 61.525 60.0493C61.3194 59.4207 61.337 58.7451 61.3311 58.0812C61.3017 55.2553 60.7319 52.4353 59.6685 49.8151C59.1397 48.5108 58.4524 47.2124 57.3479 46.3371C56.8602 45.9552 56.308 45.6673 55.7616 45.3794C53.535 44.2221 51.2672 43.0471 48.7997 42.6123C49.3579 43.1293 49.9101 43.6463 50.4682 44.1633C52.5715 46.1197 54.7922 48.2817 55.2799 51.1134C55.6911 53.4576 54.7511 55.9544 53.0239 57.5936C51.2966 59.2327 48.8526 60.0376 46.4732 59.9436C44.0234 59.8437 41.6969 58.8626 39.5407 57.6993" fill="white" fill-opacity="0.1"/>
<path d="M36.5033 55.2726C37.8017 57.8518 39.2587 60.4544 41.0506 62.7339C42.7015 64.8371 44.9692 66.3588 47.6482 66.7641C49.0582 66.9756 50.48 66.8993 51.9017 66.9815C53.3235 67.0638 54.522 67.428 55.7087 68.1213C58.1527 69.5548 60.209 71.7168 62.3181 73.585C64.9736 75.935 67.635 78.285 70.3022 80.6233C70.69 80.964 71.1541 80.9405 71.5477 80.6233C73.181 79.3131 74.826 78.0089 76.471 76.7046C77.0702 76.2288 77.7576 75.747 78.022 74.9891C78.304 74.1784 78.0396 73.397 77.5108 72.7566C76.3828 71.3936 74.92 70.2186 73.6216 69.0201C72.241 67.7394 70.8251 66.4939 69.3505 65.3248C67.8758 64.1556 66.3953 63.0923 64.815 62.117C64.1981 61.7351 63.5695 61.3591 63.0525 60.848C62.4062 60.2076 62.2241 59.4909 62.2065 58.5979C62.1183 54.9025 61.525 50.9251 59.5803 47.7056C58.4817 45.8844 56.825 45.009 54.9861 44.0631C53.1472 43.1173 51.1321 42.189 49.0288 41.7954C48.2298 41.6426 47.4955 42.612 48.1828 43.2524C50.0276 44.9679 52.1191 46.6423 53.4527 48.816C54.7863 50.9898 54.8568 53.4044 53.5643 55.5488C52.3247 57.6168 50.0041 58.8388 47.6306 59.0268C44.9222 59.2383 42.349 58.169 40.0107 56.9176C38.9591 56.3536 38.0191 57.9516 39.0766 58.5215C43.195 60.7305 48.2063 62.0641 52.4011 59.2383C54.193 58.0339 55.5207 56.2068 56.026 54.0976C56.5312 51.9885 56.073 49.7208 54.898 47.8408C53.4821 45.573 51.3612 43.8223 49.4225 42.0186L48.5765 43.4756C50.3683 43.8105 52.031 44.4744 53.6642 45.2675C55.1976 46.0136 56.8896 46.6951 57.8766 48.1639C58.799 49.5386 59.3395 51.1954 59.7566 52.7875C60.2148 54.5265 60.444 56.3066 60.4675 58.1044C60.491 59.7259 60.7318 61.0948 61.9715 62.2463C63.123 63.3096 64.5858 64.0323 65.8666 64.9253C68.6807 66.8875 71.2363 69.1905 73.7273 71.5464C74.4265 72.2103 75.1315 72.8683 75.8188 73.5439C76.0773 73.8024 76.5121 74.1138 76.3182 74.5074C76.1596 74.8305 75.7248 75.0773 75.4605 75.2946C73.7508 76.6694 72.0353 78.0324 70.314 79.3895H71.5595C69.2365 77.3212 66.908 75.259 64.5741 73.2031C62.3886 71.2703 60.2618 69.2081 57.9118 67.4691C56.8896 66.7113 55.7792 66.0709 54.569 65.6773C53.2353 65.2425 51.8253 65.2073 50.4388 65.1838C49.0523 65.1603 47.6541 65.125 46.3146 64.655C45.0573 64.2144 43.947 63.4506 43.0246 62.4989C41.9906 61.4238 41.2092 60.1665 40.3808 58.9328C39.4056 57.4758 38.3951 56.054 37.3082 54.6793C36.9381 54.2151 36.2801 54.8085 36.521 55.2844L36.5033 55.2726Z" fill="white" fill-opacity="0.1"/>
<path d="M93.4615 42.6415C91.1644 41.2197 88.5148 40.9553 85.8651 40.8378C84.5374 40.7791 83.1626 40.7908 81.8525 40.5382C80.9948 40.3737 79.1853 39.6746 79.6611 38.4408C80.0489 37.4362 81.9583 37.1836 82.8278 36.9545C84.3083 36.5667 85.824 36.2612 87.3456 36.0908C90.1597 35.7795 92.9739 35.9616 95.6764 36.8252C98.3789 37.6888 100.817 39.3338 103.179 41.0317C103.666 41.3842 104.401 40.6733 104.025 40.1857C100.218 35.2037 93.1325 33.594 87.2046 34.3166C85.4774 34.5281 83.7619 34.8688 82.0816 35.3271C80.7656 35.6855 79.197 36.0556 78.351 37.2306C77.5696 38.3175 77.7341 39.7451 78.5331 40.7791C79.4966 42.0246 81.0946 42.3477 82.5751 42.5005C86.0414 42.8588 89.6721 42.4593 92.9739 43.7812C93.6377 44.0456 94.0196 43.0116 93.4497 42.6591L93.4615 42.6415Z" fill="white"/>
<path d="M92.7154 43.0289C90.7884 44.6974 88.879 46.3894 88.1387 48.9333C87.3985 51.4772 88.0976 53.6274 89.7191 55.5427C91.464 57.6107 93.579 59.3438 95.5119 61.2297C97.4447 63.1155 99.1661 64.9897 101.246 66.5642C103.431 68.215 106.416 69.2902 109.089 68.2092C110.017 67.8332 109.688 66.3997 108.666 66.6699C103.942 67.9213 100.276 63.8675 97.2744 60.8889C96.4519 60.0723 95.6117 59.2615 94.801 58.4273C93.9902 57.593 93.2324 56.6178 92.4099 55.7365C90.9352 54.162 89.4077 52.6169 89.7485 50.2787C90.1127 47.817 91.9575 45.6785 93.5202 43.8514C94.002 43.2874 93.2676 42.5531 92.7095 43.0407L92.7154 43.0289ZM105.476 42.5354C108.043 44.6152 110.669 46.6009 113.137 48.8041C114.265 49.8146 115.399 50.872 116.227 52.1528C116.638 52.7814 116.979 53.4571 117.196 54.1738C117.426 54.9376 117.467 55.7542 117.708 56.512C117.837 56.9174 118.483 57.0819 118.689 56.6413C119.388 55.1549 118.689 53.3337 117.954 51.9942C117.155 50.5431 115.986 49.3152 114.776 48.2048C112.138 45.7902 109.23 43.4695 106.104 41.7247C105.617 41.4544 105.012 42.1535 105.482 42.5295L105.476 42.5354Z" fill="white"/>
<path d="M112.232 61.2825C110.722 62.5398 109.577 64.126 108.901 65.9767C108.59 66.8285 108.278 67.8625 108.537 68.7732C108.836 69.813 109.882 70.6649 110.581 71.4404C111.962 72.962 113.337 74.6012 114.976 75.8584C116.362 76.9218 117.896 77.6738 119.617 76.957C121.456 76.1933 123.254 74.7069 124.646 73.3028C126.038 71.8987 127.078 70.3065 127.895 68.5675C128.647 66.9637 129.693 64.9133 128.976 63.1332C128.259 61.353 126.414 60.4072 124.922 59.4437L121.568 57.2699C120.675 56.6942 119.564 55.6602 118.436 55.666C117.396 55.6719 116.427 56.5767 115.657 57.1759C114.747 57.8927 113.854 58.6799 113.249 59.6728C112.814 60.3778 113.742 60.93 114.306 60.4894C114.976 59.9724 115.569 59.3614 116.221 58.8092C116.556 58.5272 116.897 58.251 117.255 57.9984C117.561 57.781 117.966 57.3933 118.342 57.3228C118.689 57.2582 119.024 57.5695 119.306 57.7458C119.705 57.9984 120.105 58.2569 120.51 58.5154C121.356 59.05 122.196 59.5847 123.042 60.1193C124.399 60.977 126.127 61.7702 127.184 63.0157C128.3 64.3258 127.448 66.0472 126.861 67.4219C125.533 70.5063 123.424 72.915 120.669 74.8127C119.999 75.2709 119.1 75.97 118.242 75.9348C117.667 75.9113 117.038 75.4883 116.574 75.1887C115.264 74.3309 114.365 73.0913 113.343 71.9339C112.585 71.0703 111.803 70.2243 111.028 69.3783C110.746 69.0728 110.311 68.7379 110.182 68.3267C110.047 67.8919 110.258 67.3103 110.37 66.8814C110.84 65.0895 111.745 63.4269 113.019 62.0815C113.525 61.5469 112.773 60.836 112.226 61.2884L112.232 61.2825ZM92.216 58.2099C88.8731 62.7219 84.9369 66.758 81.1005 70.8412C77.2641 74.9243 73.1751 79.1954 69.1919 83.349C65.2086 87.5027 61.1843 91.6857 57.1893 95.8628C53.2648 99.9635 49.2286 104.006 45.4628 108.259C43.8706 110.057 42.3255 112.142 42.0729 114.61C41.8203 117.077 43.3301 119.41 44.981 121.114C46.6319 122.817 48.741 124.157 50.7503 125.291C52.7595 126.425 55.4738 126.889 57.718 125.837C59.9623 124.785 61.3076 122.418 62.6824 120.485C64.3861 118.094 66.1016 115.709 67.8289 113.329C71.3128 108.535 74.8319 103.771 78.3569 99.0118C81.8819 94.253 85.4656 89.4297 89.0141 84.6415C92.5626 79.8534 96.2169 75.077 99.6949 70.2008C100.541 69.014 101.422 67.8449 102.292 66.6758C102.961 65.7769 101.446 64.9015 100.788 65.7945C93.955 75.0242 87.0636 84.2127 80.2193 93.4305C73.4395 102.56 66.6539 111.684 60.0739 120.961C58.752 122.823 57.2833 124.662 54.7864 124.603C52.4599 124.55 50.4859 123.005 48.647 121.742C46.8081 120.479 44.7695 118.675 44.0645 116.425C43.3595 114.175 44.7871 111.896 46.1854 110.21C47.895 108.142 49.8338 106.244 51.6726 104.293C53.5115 102.343 55.415 100.345 57.295 98.3773C61.1549 94.3353 65.0265 90.305 68.8923 86.2689C72.758 82.2328 76.612 78.1849 80.4425 74.1077C84.273 70.0304 87.8098 66.335 91.0351 62.058C91.8224 61.0123 92.5803 59.943 93.297 58.8444C93.7494 58.1512 92.6801 57.5754 92.2101 58.2099H92.216Z" fill="white"/>
<path d="M118.166 75.8591C117.855 74.5489 118.777 73.1683 119.411 72.0873C120.099 70.9182 120.91 69.8196 121.791 68.7856C122.672 67.7516 123.571 66.8586 124.581 66.0243C125.104 65.5896 125.645 65.1724 126.238 64.8376C126.884 64.4733 127.537 64.3323 128.265 64.2501C128.994 64.1678 129.193 63.1926 128.441 62.9517C126.867 62.4464 125.286 63.6156 124.135 64.5614C122.907 65.5661 121.779 66.6882 120.774 67.9161C119.77 69.1439 118.912 70.4482 118.166 71.8406C117.49 73.1096 116.597 74.6841 117.179 76.1411C117.42 76.7403 118.33 76.5288 118.172 75.8649L118.166 75.8591ZM97.2744 62.1879C98.8665 63.5921 100.729 64.9668 102.867 65.3839C105.006 65.8011 107.039 64.5027 108.59 63.2396C110.141 61.9764 111.474 60.2962 112.732 58.6747C113.989 57.0532 115.81 55.2907 116.192 53.1698C116.574 51.0489 115.863 48.9809 114.124 47.6767C113.495 47.2067 112.749 48.2231 113.296 48.7518C114.735 50.1442 115.334 52.3767 114.394 54.2097C113.83 55.3083 112.99 56.2836 112.262 57.2764C111.586 58.1988 110.893 59.1153 110.152 59.9848C108.725 61.6592 106.974 63.3159 104.824 63.9974C103.478 64.4204 102.262 63.9681 101.029 63.4217C99.9299 62.9399 98.8136 62.3583 97.8619 61.6181C97.4565 61.3067 96.8808 61.8413 97.2861 62.1938L97.2744 62.1879ZM64.5095 90.5701C66.6539 91.8332 68.6925 93.3724 70.6078 94.9587C71.5595 95.7459 72.4819 96.5802 73.3631 97.4438C73.8038 97.8786 74.2385 98.3192 74.6556 98.7774C75.0728 99.2357 75.4899 99.9348 76.1244 100.052C76.5944 100.14 77.1173 99.8467 77.0996 99.3062C77.0761 98.6012 76.5063 98.1371 76.0539 97.6494C75.6015 97.1618 75.1609 96.7036 74.6909 96.2453C73.7602 95.3319 72.7795 94.4709 71.7534 93.6662C69.6619 92.0271 67.4411 90.7639 65.0441 89.6359C64.4214 89.3422 63.8868 90.2117 64.4978 90.5701H64.5095ZM68.0228 81.3287C65.426 79.0257 62.794 76.7756 60.2031 74.4726C59.2514 73.6266 58.3114 72.7747 57.3831 71.9111C56.4549 71.0474 55.5971 70.0957 54.5925 69.3496C53.6466 68.6446 52.6009 68.5153 51.4494 68.5447C50.1158 68.5799 48.788 68.5564 47.4603 68.4448C45.4334 68.2686 43.336 67.8808 41.5089 66.9526C39.5878 65.9773 38.1778 64.3206 37.0556 62.5169C35.9335 60.7133 35.0405 58.3692 35.5869 56.1426C35.6868 55.7254 35.7866 54.9734 36.3389 55.0674C36.8911 55.1614 37.3494 55.5844 37.7606 55.8958C38.8181 56.6948 39.8639 57.4997 40.9214 58.3046C41.879 59.0389 42.8308 59.8379 43.9999 60.2198C45.169 60.6017 46.4733 60.3843 47.6424 60.0201C49.6693 59.3856 51.6726 58.4691 52.5128 56.3776C52.9123 55.3847 53.0063 54.2919 53.0239 53.2286C53.0474 52.0183 52.9886 51.0548 52.1544 50.1089C51.2438 49.0749 50.2861 48.0821 49.352 47.0657L48.0889 45.6968C47.7775 45.3619 46.955 44.7333 46.9374 44.2222C46.9021 43.1941 48.3826 42.8533 49.1229 42.8298C50.5153 42.7828 51.9076 43.1764 53.2119 43.6406C54.4398 44.0753 55.6383 44.6276 56.7369 45.3208C58.1821 46.2314 59.2044 47.8999 59.974 49.5684C61.0021 51.8009 61.5603 54.2684 61.619 56.7183C61.6484 57.8698 61.6836 58.9273 62.2006 59.9848C62.6178 60.8367 63.2699 61.5769 63.9631 62.2114C65.5318 63.6508 67.3413 64.8669 68.998 66.2064C71.0308 67.8456 73.04 69.5082 75.0199 71.2061C76.0128 72.0521 76.9939 72.9157 77.9515 73.7969C78.8151 74.5842 80.1018 73.3034 79.2381 72.5103C77.1995 70.6538 75.0728 68.9207 72.9401 67.1758C70.9955 65.5896 69.0744 63.9681 67.0593 62.4758C65.5435 61.3537 63.546 59.9789 63.3874 57.9168C63.2875 56.6067 63.3169 55.3083 63.1171 54.0041C62.9174 52.6998 62.6119 51.5189 62.183 50.3322C61.4134 48.2054 60.3089 45.8907 58.5288 44.4278C57.5829 43.6523 56.4608 43.0883 55.3445 42.5948C53.911 41.9603 52.4129 41.4257 50.856 41.1848C49.5106 40.9792 47.989 40.9204 46.7729 41.6431C45.31 42.5126 44.6814 44.3514 45.7741 45.7614C46.5908 46.8131 47.5778 47.7531 48.4825 48.7283C48.9349 49.2218 49.3873 49.7094 49.8455 50.2029C50.3038 50.6964 51.0558 51.2487 51.2261 51.8832C51.3613 52.3826 51.2673 53.0464 51.2438 53.5634C51.2261 54.1392 51.1733 54.7032 51.0205 55.2613C50.7209 56.3717 50.01 57.0943 49.0113 57.6113C47.9538 58.1577 46.579 58.6571 45.3805 58.6394C44.1115 58.6159 43.1128 57.7347 42.1551 57.0003C41.0683 56.1661 39.9755 55.3318 38.8886 54.4976C37.9956 53.8161 36.9088 53.0112 35.7103 53.2638C33.4073 53.7514 33.4308 57.4292 33.7421 59.2034C34.1593 61.5476 35.4694 63.6684 36.9499 65.4956C38.4304 67.3227 40.0695 68.4624 42.2021 69.2144C44.3348 69.9664 46.6143 70.2308 48.8585 70.3131C49.5341 70.3366 50.2098 70.3424 50.8854 70.3307C51.5081 70.3189 52.2014 70.2073 52.8124 70.3836C53.3529 70.5363 53.7524 70.9123 54.1578 71.2883C54.6806 71.7759 55.2094 72.2694 55.744 72.7453C59.0575 75.7239 62.4768 78.5733 66.0605 81.2171C66.4953 81.5402 66.93 81.8633 67.3589 82.1864C67.8583 82.5624 68.4928 81.7341 68.0286 81.3228L68.0228 81.3287ZM80.8185 95.1056C83.7678 97.5496 86.6818 100.023 89.4724 102.649C90.477 103.595 91.4816 104.535 92.5391 105.416C93.9726 106.615 96.0994 107.655 96.5929 109.576C96.8749 110.686 96.8514 111.873 97.01 113.007C97.1686 114.141 97.4036 115.292 97.762 116.391C98.467 118.582 99.595 120.638 101.117 122.371C103.96 125.591 108.954 127.806 113.254 126.572C114.241 126.29 115.199 125.691 115.534 124.674C115.898 123.576 115.393 122.507 114.7 121.666C113.889 120.685 112.802 119.898 111.827 119.081C111.322 118.653 110.81 118.23 110.305 117.801C109.9 117.454 109.389 117.096 109.177 116.585C108.966 116.073 109.042 115.474 109.048 114.951C109.048 114.358 109.071 113.765 109.201 113.183C109.442 112.125 110.064 111.35 111.057 110.921C111.985 110.522 113.025 110.422 114.024 110.363C115.123 110.304 116.38 110.151 117.291 110.892C118.201 111.632 119.024 112.59 119.975 113.353C120.827 114.035 121.838 114.992 122.919 115.257C124 115.521 124.975 114.599 125.422 113.659C125.868 112.719 125.962 111.603 126.003 110.539C126.103 108.066 125.962 105.622 124.781 103.395C123.771 101.492 122.155 99.8996 120.31 98.8127C118.184 97.5613 115.716 96.9856 113.26 96.9386C111.997 96.9151 110.664 97.2852 109.412 97.1266C108.161 96.9679 107.109 95.9104 106.146 95.2172C102.562 92.6322 99.0134 90.0119 95.5824 87.2272C94.6071 86.4341 93.6378 85.6292 92.6684 84.8243C91.699 84.0194 90.3419 85.3942 91.2995 86.1932C94.6365 88.9779 98.0381 91.6687 101.54 94.2361C103.402 95.6049 105.259 97.1207 107.244 98.3074C109.4 99.5882 111.921 98.6776 114.283 98.8656C118.695 99.2122 123.06 101.885 124.07 106.421C124.352 107.678 124.352 108.988 124.305 110.269C124.27 111.244 124.276 112.425 123.671 113.242C123.483 113.494 123.377 113.582 123.083 113.471C122.872 113.389 122.66 113.201 122.466 113.071C121.926 112.701 121.397 112.308 120.892 111.89C120.028 111.174 119.288 110.31 118.424 109.599C116.75 108.224 114.3 108.518 112.297 108.841C110.293 109.164 108.496 110.122 107.755 112.078C107.368 113.101 107.338 114.235 107.344 115.31C107.35 116.385 107.479 117.378 108.255 118.23C109.071 119.128 110.094 119.886 111.01 120.685C111.927 121.484 113.049 122.195 113.642 123.217C114.905 125.379 110.223 125.127 109.183 124.945C107.062 124.575 105.1 123.576 103.502 122.136C101.904 120.697 100.617 118.747 99.8359 116.684C99.4423 115.639 99.1368 114.564 98.9253 113.465C98.7138 112.366 98.6726 111.25 98.4846 110.151C98.2966 109.053 97.9383 108.031 97.2333 107.173C96.5635 106.362 95.6646 105.786 94.8363 105.158C93.7376 104.329 92.6919 103.436 91.6755 102.514C89.3196 100.381 86.999 98.2546 84.4786 96.3158C83.5151 95.5697 82.5105 94.8882 81.4941 94.2126C80.9654 93.8601 80.3015 94.6943 80.8068 95.1056H80.8185Z" fill="white"/>
<path d="M37.4375 65.2487C39.3175 66.7997 41.6499 67.7514 44.0763 67.9864C45.2924 68.1039 46.5203 68.0452 47.7129 67.7984C48.4238 67.6515 49.1229 67.4224 49.8514 67.3343C50.5799 67.2462 51.2614 67.3402 51.9018 67.6927C52.5715 68.0628 53.1473 68.5974 53.7289 69.085L55.7264 70.7653C55.8321 70.8534 55.9908 70.7007 55.885 70.6067C55.3034 70.1191 54.7218 69.6256 54.1401 69.1379C53.6173 68.6973 53.1003 68.2332 52.5421 67.8337C52.0193 67.4636 51.4435 67.1757 50.8031 67.1052C50.0981 67.0229 49.3931 67.1757 48.7116 67.3402C48.0301 67.5047 47.4074 67.6633 46.7435 67.7456C46.1325 67.8219 45.5156 67.8454 44.9046 67.8278C43.665 67.7867 42.4313 67.5575 41.2621 67.1522C39.9344 66.688 38.6889 65.9948 37.602 65.1018C37.4963 65.0137 37.3376 65.1664 37.4434 65.2604L37.4375 65.2487ZM50.9735 58.9507C54.052 61.5239 57.1305 64.0913 60.209 66.6645C63.2875 69.2378 66.366 71.8052 69.4445 74.3784L74.6263 78.7024C74.732 78.7906 74.8906 78.6378 74.7849 78.5438C71.7064 75.9705 68.6279 73.4032 65.5494 70.8299C62.4709 68.2567 59.3924 65.6893 56.3139 63.1161C54.5866 61.6767 52.8594 60.2314 51.1321 58.7921C51.0264 58.7039 50.8678 58.8567 50.9735 58.9507Z" fill="white"/>
<path d="M60.5968 74.8721C63.1642 72.5985 65.7609 70.3542 68.3753 68.1394C69.1097 67.5166 69.8499 66.8939 70.5902 66.2711C70.7018 66.1771 70.5432 66.0244 70.4315 66.1125C67.7995 68.3156 65.1969 70.5422 62.6119 72.7982C61.8834 73.4327 61.1608 74.0731 60.4382 74.7135C60.3324 74.8075 60.4852 74.9602 60.5968 74.8721ZM58.282 46.5664C59.3337 47.5945 59.8213 49.0339 59.9917 50.4674C60.1914 52.1359 59.9682 53.8102 59.9094 55.4787C59.8918 55.9311 59.8859 56.3835 59.9094 56.8359C59.927 57.2295 59.9329 57.6525 60.0798 58.0285C60.2795 58.5572 60.7319 58.9802 61.1314 59.368C61.948 60.1494 62.8352 60.8602 63.6988 61.5829C64.5624 62.3055 65.5612 63.0692 66.3484 63.9446C66.4424 64.0504 66.601 63.8917 66.507 63.786C65.8138 63.0222 64.9913 62.3701 64.204 61.7121C63.311 60.966 62.4004 60.2316 61.5368 59.4385C61.149 59.086 60.7437 58.71 60.4558 58.2752C60.209 57.9051 60.162 57.4821 60.1385 57.0474C60.115 56.6126 60.115 56.1426 60.1268 55.6902C60.1738 54.01 60.4088 52.318 60.2325 50.6377C60.0739 49.0867 59.5745 47.524 58.4348 46.4077C58.3349 46.3079 58.1763 46.4665 58.2762 46.5664H58.282ZM43.3654 114.945C45.4745 115.574 47.5073 116.444 49.4108 117.542C51.3143 118.641 53.0768 119.945 54.6748 121.443C55.5775 122.291 56.4234 123.198 57.2069 124.157C57.295 124.269 57.4537 124.11 57.3655 123.999C55.9673 122.289 54.3693 120.75 52.6185 119.405C50.8678 118.059 48.9349 116.914 46.9139 116.009C45.7859 115.504 44.6227 115.075 43.4359 114.722C43.3008 114.681 43.242 114.893 43.3772 114.934L43.3654 114.945Z" fill="white"/>
<path d="M49.3638 121.983C51.3613 122.03 52.8946 120.509 54.0931 119.093C55.7205 117.172 57.2891 115.198 58.8871 113.247C62.1595 109.252 65.4319 105.257 68.7043 101.268C71.9649 97.2908 75.2255 93.3134 78.4803 89.3301C81.735 85.3469 85.0015 81.3754 88.2563 77.3921C91.5286 73.3971 94.801 69.4021 98.0734 65.413C98.4788 64.9195 98.8841 64.426 99.2836 63.9325C99.3718 63.8209 99.219 63.6681 99.125 63.7739C95.8879 67.7219 92.6566 71.6699 89.4195 75.6179C86.1824 79.5659 82.9276 83.5433 79.6788 87.5089C76.4416 91.4569 73.2104 95.4049 69.9733 99.3529C66.7361 103.301 63.5049 107.249 60.2678 111.197C58.6521 113.171 57.0306 115.145 55.415 117.119C54.6983 117.988 54.0109 118.887 53.2354 119.704C52.5421 120.432 51.749 121.132 50.7973 121.496C50.3331 121.672 49.8514 121.76 49.3579 121.743C49.2169 121.743 49.2169 121.96 49.3579 121.966L49.3638 121.983Z" fill="white"/>
<path d="M79.7551 75.4059C80.466 75.4999 81.0887 75.8818 81.641 76.3165C82.1932 76.7513 82.7631 77.2565 83.3389 77.7089C84.5785 78.6783 85.8416 79.6065 86.9285 80.7463C87.5219 81.369 88.0682 82.0329 88.5735 82.7379C88.6557 82.8495 88.8437 82.7379 88.7615 82.6263C87.8515 81.3438 86.7792 80.1847 85.5714 79.1777C84.9251 78.6372 84.2436 78.1319 83.5739 77.6149C82.9687 77.1449 82.3989 76.6338 81.7937 76.1579C81.1886 75.682 80.5247 75.2825 79.7492 75.1827C79.6082 75.165 79.6082 75.3824 79.7492 75.4059H79.7551ZM85.3246 89.0183C88.2739 91.5857 91.1996 94.1824 94.096 96.8085C96.9924 99.4347 99.8652 102.09 102.715 104.775C104.313 106.279 105.899 107.795 107.479 109.316C107.579 109.416 107.738 109.258 107.638 109.158C104.824 106.444 101.98 103.759 99.1074 101.097C96.2345 98.4359 93.344 95.8098 90.4241 93.2072C88.785 91.7502 87.14 90.299 85.4832 88.8597C85.3775 88.7657 85.2189 88.9243 85.3246 89.0183ZM102.544 122.253C103.931 123.064 105.399 123.798 106.98 124.133C109.332 124.626 111.782 124.294 113.918 123.193C114.042 123.129 113.93 122.941 113.807 123.005C112.467 123.698 110.981 124.086 109.471 124.133C107.961 124.18 106.451 123.875 105.047 123.287C104.219 122.941 103.425 122.518 102.65 122.059C102.527 121.989 102.415 122.177 102.538 122.247L102.544 122.253Z" fill="white"/>
<path d="M109.712 119.234C107.133 117.759 105.952 114.451 106.381 111.596C106.504 110.762 106.815 109.975 107.456 109.399C108.037 108.882 108.778 108.512 109.5 108.242C110.881 107.73 112.397 107.589 113.848 107.807C115.475 108.054 117.032 108.735 118.266 109.834C118.372 109.928 118.53 109.775 118.424 109.675C116.127 107.631 112.743 106.973 109.823 107.895C109.083 108.13 108.355 108.465 107.714 108.911C107.017 109.385 106.514 110.094 106.298 110.909C105.887 112.395 106.058 114.099 106.551 115.544C107.097 117.136 108.126 118.57 109.606 119.41C109.729 119.48 109.841 119.292 109.718 119.222L109.712 119.234ZM122.619 102.349C123.377 103.53 123.671 104.916 123.712 106.303C123.73 107.002 123.694 107.695 123.624 108.388C123.547 109.14 123.453 109.898 123.242 110.627C122.989 111.49 122.484 112.19 121.938 112.889C121.85 113 122.008 113.153 122.096 113.047C122.578 112.442 123.048 111.825 123.324 111.097C123.6 110.368 123.706 109.587 123.806 108.817C123.982 107.378 124.041 105.897 123.73 104.47C123.559 103.683 123.26 102.919 122.825 102.237C122.748 102.12 122.56 102.231 122.637 102.349H122.619ZM78.8856 39.5569C81.312 40.5263 83.9381 39.7097 86.4233 39.4688C87.7216 39.3454 89.0318 39.3924 90.3125 39.6274C90.947 39.7449 91.5698 39.9035 92.1866 40.1092C92.7624 40.303 93.3675 40.5087 93.8845 40.8259C94.1724 41.008 94.4074 41.2548 94.4838 41.5955C94.5601 41.9187 94.5014 42.2653 94.3721 42.5649C94.096 43.1994 93.4968 43.6165 92.9504 44.0043C92.8329 44.0865 92.9504 44.2745 93.062 44.1923C93.5496 43.8457 94.0549 43.4873 94.3956 42.9762C94.6953 42.5297 94.848 41.9245 94.66 41.4017C94.472 40.8788 93.955 40.5792 93.4556 40.3559C92.8388 40.0857 92.1984 39.8565 91.5463 39.6744C90.242 39.316 88.879 39.1398 87.5277 39.1692C86.1765 39.1985 84.7959 39.4688 83.4329 39.6392C81.9348 39.833 80.3838 39.9035 78.9503 39.3278C78.821 39.2749 78.7622 39.4864 78.8915 39.5393L78.8856 39.5569ZM95.9408 59.714L100.823 53.4395C102.45 51.348 103.866 49.3682 105.664 47.5822C106.633 46.6187 107.679 45.7315 108.789 44.9267C108.901 44.8444 108.789 44.6505 108.678 44.7387C106.704 46.1663 104.959 47.8583 103.426 49.75C101.769 51.8004 100.177 53.9095 98.561 55.9893C97.6386 57.1819 96.7104 58.3687 95.788 59.5613C95.6999 59.6729 95.8585 59.8315 95.9466 59.7199L95.9408 59.714Z" fill="white"/>
<path d="M90.6709 45.9025C93.6084 47.3947 96.5165 48.9281 99.2778 50.7317C101.969 52.4942 104.542 54.4212 107.109 56.3659C108.531 57.441 109.982 58.4985 111.21 59.7969C111.31 59.9026 111.463 59.744 111.369 59.6382C110.299 58.4985 109.048 57.5526 107.802 56.6126C106.557 55.6726 105.223 54.6562 103.913 53.6986C101.299 51.7775 98.6139 49.9386 95.7821 48.3465C94.143 47.4241 92.4628 46.5664 90.7825 45.7145C90.6591 45.6499 90.5475 45.8379 90.6709 45.9025ZM112.99 72.8276C113.237 70.5129 113.977 68.2627 115.105 66.2359C116.233 64.209 117.731 62.4171 119.523 60.9601C120.539 60.1376 121.65 59.4326 122.825 58.8569C122.954 58.7922 122.842 58.6042 122.713 58.6689C120.592 59.697 118.701 61.1716 117.155 62.94C115.61 64.7084 114.406 66.7646 113.636 68.9795C113.202 70.225 112.914 71.5175 112.773 72.8276C112.755 72.9686 112.978 72.9686 112.996 72.8276H112.99Z" fill="white"/>
<path d="M112.585 61.8237C113.648 62.6991 114.694 63.598 115.792 64.4322C116.891 65.2665 118.119 65.9656 119.3 66.6882C119.999 67.1171 120.692 67.546 121.391 67.9748C121.515 68.0512 121.62 67.8573 121.503 67.7868C120.298 67.0466 119.088 66.3005 117.884 65.5602C117.308 65.2077 116.732 64.8493 116.186 64.4498C115.64 64.0503 115.105 63.6038 114.57 63.1691L112.743 61.671C112.632 61.5828 112.479 61.7356 112.585 61.8296V61.8237Z" fill="white"/>
<path d="M121.479 67.9508C121.62 67.9508 121.62 67.7275 121.479 67.7275C121.338 67.7275 121.338 67.9508 121.479 67.9508Z" fill="white"/>
</g>
<defs>
<clipPath id="clip0_2450_3806">
<rect width="162" height="162" rx="42" fill="white"/>
</clipPath>
</defs>
</svg>
