<?xml version="1.0" encoding="UTF-8"?><svg xmlns="http://www.w3.org/2000/svg" viewBox="0 0 180 180"><g fill="var(--color-secondary)"><path d="M64.95 42.52c16.2 4.19 32.14 9.35 47.73 15.43-.11 2.54.3 5.09 1.2 7.47 3.06-.55 5.05-4.33 3.76-7.16-1.16-2.55-4.1-3.68-6.75-4.57-11.9-3.98-23.8-7.97-35.69-11.95-1.53-.51-3.08-1.03-4.69-1.05s-3.31.55-4.28 1.83"/><path d="M64.67 43.54c16.06 4.55 32.21 9.29 47.67 15.65l-.95-1.25c-.14 2.68.27 5.31 1.18 7.83.26.72.9 1.11 1.67.95 3.47-.74 5.8-4.52 5.02-7.97-.92-4.08-5.44-5.63-8.92-6.81A5633 5633 0 0 0 79.36 41.5c-4.44-1.48-10.87-4.52-14.34.31-.93 1.29 1.11 2.81 2.18 1.69 1.27-1.32 3.13-1.47 4.84-1.1 2.13.46 4.2 1.3 6.26 1.99 4.22 1.42 8.46 2.82 12.69 4.23 4.31 1.43 8.62 2.87 12.92 4.3 2.11.7 4.23 1.42 6.34 2.11 1.53.5 3.1 1 4.44 1.91 1.33.91 2.2 2.3 1.89 3.94-.3 1.6-1.48 2.88-3.07 3.23l1.67.95a19.4 19.4 0 0 1-1.21-7.11c0-.61-.41-1.05-.95-1.25-15.72-5.78-31.47-11.36-47.79-15.21-1.33-.31-1.88 1.67-.56 2.05"/></g><g fill="var(--color-secondary)"><path d="M115.93 129.53c1.65 2.03 3.57 4.22 6.17 4.54 1.86.23 3.68-.55 5.38-1.34 11.3-5.27 21.99-11.79 33.31-17.01 1.69-.78 3.43-1.55 4.84-2.77s2.47-2.99 2.37-4.85c1.01 4.61-.8 9.52-3.89 13.1s-7.3 5.99-11.62 7.91c-5.55 2.46-11.39 4.19-17.06 6.36-5.9 2.27-11.62 5.02-17.07 8.22.54-1.73 1.09-3.48 1.21-5.29s-.21-3.71-1.29-5.18"/><path d="M115.16 129.98c2.18 3.04 4.66 6.02 8.83 5.46 2.09-.28 4.06-1.35 5.94-2.24 2.14-1.02 4.25-2.09 6.35-3.17 8.2-4.24 16.23-8.82 24.61-12.72 3.92-1.83 8.65-4.15 8.59-9.19l-2.9.39c1.65 8.19-5.29 14.48-11.85 17.85-7.63 3.91-16.08 5.98-23.95 9.34-4.54 1.94-8.95 4.17-13.21 6.66.77.59 1.54 1.18 2.31 1.78 1.19-3.8 2.21-8.13-.24-11.68-1.13-1.64-3.84-.09-2.7 1.58 1.94 2.84.84 6.26-.09 9.26-.41 1.33 1.15 2.45 2.31 1.78 4-2.33 8.12-4.44 12.36-6.29 4.29-1.87 8.72-3.36 13.13-4.92 7.93-2.81 16.66-6.05 21.75-13.17 2.68-3.75 3.95-8.41 3.03-12.96-.33-1.64-2.92-1.25-2.9.39.05 3.76-4.31 5.33-7.12 6.64-3.72 1.73-7.37 3.6-11 5.52-7.12 3.75-14.17 7.64-21.44 11.1-1.81.86-3.91 1.84-5.92 1.05-1.75-.69-3.23-2.16-4.48-3.52-.67-.72-1.98.25-1.39 1.07Z"/></g><g fill="var(--color-secondary)"><path d="M17.45 99.95c-2.65 2.4-2.17 6.92.03 9.75 2.45 3.15 6.36 4.71 10.09 6.1 24.11 8.94 48.85 16.06 73.55 23.18 2.39.69 5.26 1.27 7.1-.4 2.07-1.89 1.31-5.43-.46-7.6-2.26-2.79-5.68-4.36-9.02-5.68-5.64-2.23-11.43-4.02-17.22-5.81l-51.41-15.9c-4.11-1.27-8.22-2.54-12.41-3.52"/><path d="M16.9 99.01c-2.26 1.72-2.93 4.28-2.5 7.03.46 2.91 2.19 5.31 4.48 7.09 2.47 1.93 5.35 3.13 8.27 4.22 3.51 1.31 7.03 2.57 10.56 3.8 14.6 5.09 29.39 9.61 44.22 13.97q5.625 1.65 11.25 3.27c3.44 1 7 2.38 10.56 2.82 2.92.36 5.99-.65 7.04-3.65.93-2.65-.15-5.67-1.85-7.75-2.04-2.5-4.94-4.08-7.86-5.33-3.41-1.46-6.92-2.68-10.43-3.85-7.29-2.41-14.66-4.61-21.99-6.89-8.41-2.61-16.81-5.22-25.22-7.84-8.37-2.6-16.72-5.51-25.26-7.51-2.17-.51-3.1 2.83-.92 3.34 6.93 1.64 13.71 3.91 20.51 6.01l20.48 6.3 20.95 6.45c6.55 2.02 13.13 3.98 19.5 6.53 2.67 1.07 5.41 2.36 7.4 4.5 1.28 1.38 2.89 4.68.73 6.05-.98.62-2.31.47-3.4.26-1.66-.32-3.29-.87-4.91-1.34l-10.09-2.91c-13.6-3.94-27.17-7.99-40.61-12.44-7.36-2.44-14.8-4.84-21.99-7.75-2.77-1.12-5.73-2.44-7.49-4.99-1.53-2.22-1.92-5.5-.12-7.7.71-.87-.25-2.51-1.32-1.71Z"/></g><g fill="var(--color-secondary)"><path d="M48.28 90.62c-1.93-13.09-1.82-26.49.33-39.55 15.04 3.88 29.76 9.02 43.96 15.33 1.43.64 2.92 1.33 3.87 2.58 1.38 1.81 1.32 4.29 1.19 6.56l-1.89 33.58c-.05.92-.08 1.93.5 2.65.89 1.12 2.62.89 4.01.54 11.14-2.85 21.9-7.21 31.89-12.91-4.93 4.51-9.9 9.04-15.6 12.51s-12.27 5.84-18.94 5.6c-4.66-.17-9.17-1.6-13.62-3.02-21.85-6.96-43.7-13.93-65.55-20.89 8.81-4.06 17.62-8.11 26.44-12.17"/><path d="M49.24 90.36c-.87-6.44-1.05-13.03-.95-19.52s.7-12.96 1.78-19.36l-1.87 1.06c8.81 2.34 17.52 5.07 26.08 8.22 4.32 1.59 8.62 3.26 12.86 5.05 1.96.83 3.96 1.62 5.86 2.58 1.77.9 2.81 2.06 3.02 4.08s-.08 4.22-.2 6.29c-.14 2.39-.27 4.77-.4 7.16-.26 4.69-.51 9.38-.77 14.07-.13 2.39-.27 4.77-.39 7.16-.1 1.89-.44 4.32 1.03 5.81 1.24 1.26 3.07 1.25 4.69.93 1.99-.38 3.97-1.02 5.91-1.61 9.43-2.84 18.4-6.82 27.02-11.56l-1.85-2.4c-5.63 5-11.28 10.18-18.01 13.68-6.59 3.43-13.7 4.73-20.99 3.08-3.88-.88-7.65-2.2-11.43-3.41-3.96-1.27-7.92-2.53-11.87-3.8-7.76-2.48-15.51-4.96-23.27-7.44-8.86-2.83-17.73-5.67-26.6-8.49.14 1.05.27 2.09.41 3.14 8.8-4.07 17.61-8.14 26.41-12.21 1.94-.9.25-3.76-1.68-2.87L17.57 92.12c-1.43.66-.88 2.73.41 3.14 16.15 5.15 32.31 10.28 48.46 15.41 4.04 1.28 8.08 2.57 12.12 3.85 3.88 1.23 7.76 2.58 11.72 3.55 3.82.93 7.74 1.38 11.66.89 3.7-.45 7.22-1.55 10.61-3.08 7.91-3.58 14.42-9.52 20.68-15.41 1.27-1.19-.36-3.27-1.85-2.4-7.38 4.34-15.32 7.79-23.45 10.45q-3.015.99-6.09 1.83c-.89.24-4.11 1.58-4.53.14-.26-.9.07-2.2.13-3.12.08-1.15.13-2.3.2-3.46.14-2.39.28-4.77.41-7.16.27-4.61.53-9.22.8-13.83.13-2.3.26-4.61.38-6.91.1-1.83.2-3.7-.28-5.49-1.09-4.06-5.15-5.39-8.62-6.88-4.13-1.78-8.3-3.48-12.51-5.06-9.42-3.55-19.05-6.54-28.81-9-.73-.18-1.74.23-1.87 1.06-1.04 6.67-1.6 13.41-1.61 20.17s.74 13.39 1.78 20.05c.2 1.28 2.1.72 1.93-.53Z"/></g><path fill="var(--color-primary)" d="M48.59 49.67C60.32 44.6 72 39.44 83.64 34.18c1.67-.75.22-3.2-1.44-2.46-11.63 5.24-23.22 10.56-34.76 15.99-1.33.63-.17 2.52 1.14 1.96Z"/><path fill="var(--color-primary)" d="M46.43 48.88c-1.16 7.79-1.48 15.68-1.43 23.54.02 3.92.15 7.84.38 11.76.23 3.93.47 7.93 1.28 11.79.28 1.33 2.37 1.02 2.35-.32-.06-3.91-.52-7.82-.75-11.72s-.35-7.67-.38-11.51c-.05-7.76.39-15.5.77-23.25.06-1.24-2.02-1.57-2.21-.3Zm2.79 49.68c7.52 3.5 15.23 6.38 23.11 8.97 3.95 1.3 7.93 2.52 11.92 3.67 2 .57 4 1.12 6.02 1.65s3.99 1.11 5.99 1.21c1.24.06 1.83-1.87.65-2.42-1.82-.85-3.88-1.3-5.81-1.83s-4.01-1.1-6.01-1.67c-3.92-1.12-7.82-2.3-11.7-3.56-7.82-2.53-15.56-5.34-23.31-8.08-1.19-.42-2.03 1.52-.87 2.06Z"/><path fill="var(--color-primary)" d="M98.82 114.4c6.1-1.36 11.97-3.76 17.6-6.43 2.78-1.32 5.5-2.74 8.16-4.27q2.04-1.17 4.05-2.43c2.01-1.26 2.96-1.61 4-2.76.86-.96.04-2.86-1.37-2.35-1.37.5-2.55 1.49-3.78 2.26-1.33.84-2.68 1.66-4.03 2.45-2.65 1.54-5.36 3-8.11 4.37-5.55 2.76-11.31 4.99-17.01 7.39-1.07.45-.7 2.04.49 1.78Z"/><path fill="var(--color-primary)" d="M131.03 49.56c-.62 7.56-.51 15.17-.58 22.76-.03 3.79-.07 7.59-.07 11.38s-.19 7.64.3 11.38c.14 1.1 1.98 1.66 2.18.29.53-3.68.44-7.47.49-11.18.06-3.88.08-7.75.1-11.63.04-7.66.27-15.35-.24-23-.09-1.41-2.07-1.4-2.19 0Z"/><path fill="var(--color-primary)" d="M83.49 33.94c1.76.96 3.78 1.51 5.67 2.16 1.97.68 3.95 1.31 5.93 1.97 3.87 1.28 7.76 2.51 11.65 3.75 7.83 2.51 15.65 5.25 23.62 7.25 1.69.42 2.27-1.95.71-2.56-7.67-2.98-15.64-5.26-23.49-7.75-3.89-1.23-7.77-2.48-11.67-3.67-1.91-.58-3.81-1.18-5.73-1.75s-4.03-1.31-6.1-1.56c-1.17-.14-1.53 1.64-.58 2.15ZM47.8 50.83c8.51 2.39 16.97 4.95 25.4 7.63 4.13 1.31 8.25 2.68 12.37 4.05 2.13.71 4.25 1.46 6.37 2.21 2.06.73 4.22 1.79 6.38 2.16 1.17.2 1.92-1.29.83-1.97-1.82-1.13-4.08-1.74-6.08-2.49-2.11-.79-4.22-1.56-6.34-2.33-4.16-1.51-8.34-2.93-12.55-4.28-8.5-2.72-17.09-5.09-25.77-7.17-1.42-.34-2.01 1.79-.6 2.18Z"/><path fill="var(--color-primary)" d="M99.85 66.52c10.19-6.15 20.92-11.55 31.86-16.21 1.54-.66.21-2.9-1.32-2.25-11.02 4.67-21.48 10.28-31.54 16.77-1.06.68-.1 2.36.99 1.7Z"/><path fill="var(--color-primary)" d="M97.68 65.76c.14 7.93-.17 15.88-.11 23.81.03 3.97-.06 7.93-.2 11.9-.07 1.9-.14 3.8-.23 5.7s-.44 4.06-.09 5.97c.19 1.03 1.67.89 1.94 0 .53-1.76.39-3.88.48-5.72.09-1.98.18-3.97.25-5.95.14-3.97.26-7.94.41-11.9.3-7.96-.12-15.87-.4-23.81-.05-1.31-2.07-1.32-2.05 0m-86.6 40.06c-.04-3.41-.09-7.35 2.76-9.72 1.28-1.07 2.86-1.76 4.36-2.46 1.87-.86 3.75-1.72 5.62-2.58 7.72-3.54 15.41-7.15 23.11-10.73 1.67-.78.22-3.24-1.44-2.47-8.38 3.89-16.76 7.77-25.11 11.71-3.34 1.57-7.39 2.93-9.72 5.96-2.38 3.09-1.94 6.94-1.32 10.52.17.99 1.74.74 1.73-.23Zm-.37 4.84c1.62 6.5 8.2 8.65 13.86 10.52 6.95 2.3 13.9 4.6 20.86 6.89 14.07 4.63 28.15 9.24 42.16 14.03 3.83 1.31 7.7 2.64 11.6 3.74 1.84.52 3.72.93 5.58 1.41 1.99.52 3.97 1.05 6.02 1.28 1.73.19 1.91-2.42.39-2.92-3.35-1.09-6.78-1.84-10.11-3-3.2-1.11-6.44-2.1-9.65-3.16-6.71-2.21-13.49-4.22-20.21-6.41-13.53-4.41-27.05-8.82-40.58-13.2-3.63-1.18-7.34-2.21-10.91-3.55-2.97-1.11-6.26-2.95-7.47-6.06-.36-.94-1.79-.59-1.54.42Zm122.04-18.17c3.85 1.67 8.11 2.62 12.14 3.77 3.88 1.11 7.81 2.09 11.66 3.32 3.27 1.04 6.64 2.35 8.99 4.96 1.06 1.18 1.84 2.61 2.18 4.17.3 1.4-.29 3.11.37 4.38.27.51.91.59 1.38.36 1.59-.78 1.53-3.36 1.32-4.84-.24-1.71-.9-3.36-1.83-4.82-2.12-3.34-5.48-5.29-9.12-6.63-4.09-1.51-8.48-2.4-12.7-3.47-2.25-.57-4.49-1.17-6.75-1.7-2.33-.55-4.72-1.23-7.1-1.51-1.04-.12-1.51 1.59-.54 2.01"/><path fill="var(--color-primary)" d="M167.92 113.93c.32 5.2-4.7 8.25-8.81 10.11-5.05 2.29-10.13 4.51-15.12 6.96-4.98 2.45-9.85 5.08-14.75 7.69-4.04 2.15-8.19 3.8-12.45 5.45-1.41.55-2.85 1.06-4.37 1.13-2.37.11-4.79-.49-7.11-.92-1.5-.28-2.77 1.99-1.13 2.68 2.32.98 4.59 1.64 7.12 1.74 1.69.07 3.4-.19 5-.72 4.26-1.41 8.49-3.13 12.48-5.17 5.4-2.75 10.68-5.74 16.11-8.43s10.92-5.02 16.38-7.57c5.04-2.35 10.67-6.97 8.71-13.25-.34-1.09-2.15-.95-2.07.28ZM54.93 84.89c1.24 1.08 2.94 1.45 4.48.81 1.21-.51 3.42-2.51 1.96-3.86-.74-.69-1.82-.31-2.4.39s-.93 1.61-.75 2.53c.32 1.63 2.69 2.65 3.84 1.17l-2.13-1.24c-.21.76-.02 1.6.54 2.16s1.26.77 1.97 1c1.44.46 3.08.86 4.58.64.87-.13.97-1.48.24-1.86-.94-.49-1.99-.67-2.99-.99-.48-.15-.96-.29-1.43-.45-.11-.04-.33-.16-.44-.16-.02 0-.03.02 0 .04-.13-.26-.14-.16-.02.29.12-.62-.12-1.25-.74-1.5s-1.19 0-1.59.52c.14-.18.26-.25.49-.3-.13.02-.11.04-.03 0 .04-.02.09.07.11.08-.31-.15.24.1.02.1-.07 0 .05-.33.06-.35.08-.2.17-.16.04-.14h-.62l.11.02-.52-.3.09.08-.3-.52c.08-.39.06-.46-.05-.21-.05.1-.11.19-.17.28-.07.09-.16.18-.25.26-.25.22-.53.39-.86.48-.75.21-1.46-.04-2.06-.49-.87-.66-2 .8-1.17 1.52Zm.6 5.23c1.45.71 2.93 1.34 4.41 1.98.78.34 1.57.65 2.36.97.74.3 1.58.8 2.39.71.86-.09 1.25-.98.69-1.65-.55-.66-1.54-.89-2.31-1.2s-1.5-.61-2.25-.9c-1.51-.58-3.01-1.16-4.55-1.66-1.02-.33-1.71 1.26-.73 1.74Zm5.78-46.79c16.12 6.05 32.66 11.1 49.06 16.35 1.43.46 2.03-1.77.62-2.24C94.66 52 78.34 46.32 61.76 41.69c-1.07-.3-1.46 1.26-.45 1.64m8.78-3.84c16.12 6.05 32.66 11.1 49.06 16.35 1.43.46 2.03-1.77.62-2.24-16.33-5.44-32.65-11.12-49.23-15.75-1.07-.3-1.46 1.26-.45 1.64"/><path fill="var(--color-primary)" d="M110.71 59.87c-.02 1.35-.06 2.7-.04 4.05 0 .67.01 1.35.02 2.02 0 .7-.02 1.43.18 2.1.24.83 1.47.85 1.7 0 .18-.68.14-1.4.14-2.1s-.01-1.35-.02-2.02c-.01-1.35-.08-2.7-.13-4.05-.04-1.18-1.83-1.19-1.84 0Z"/><path fill="var(--color-primary)" d="M113.08 68.26c1.07-.46 2.16-.9 3.22-1.4s2.14-.94 3.15-1.51c.53-.3.75-1.06.41-1.58-.37-.58-.98-.67-1.58-.41-1.06.45-2.08 1.05-3.11 1.58s-2.04 1.12-3.05 1.69c-.45.25-.6.87-.34 1.3.29.49.83.55 1.3.34Z"/><path fill="var(--color-primary)" d="M118.43 55.64c-.05 1.42-.14 2.84-.23 4.25-.04.71-.1 1.41-.18 2.12-.08.75-.25 1.5-.13 2.25.14.93 1.69 1.13 2.07.27.33-.74.35-1.56.42-2.36.06-.73.11-1.47.14-2.2.06-1.46-.03-2.88-.2-4.33-.06-.51-.39-.95-.95-.95s-.93.43-.95.95ZM11.57 98.68c2.21-2.98 6.44-1.94 9.45-1.05 4.48 1.32 8.91 2.81 13.37 4.2l31.32 9.78 31.32 9.78c6.84 2.14 15.99 4.26 18.37 12.05.78 2.56 1.04 5.56.03 8.1-1.09 2.74-3.68 3.67-6.47 3.27-1.88-.27-2.68 2.62-.79 2.88 3.16.43 6.46-.06 8.59-2.66 1.85-2.27 2.4-5.35 2.21-8.22-.19-2.86-1-5.84-2.67-8.2-2.66-3.75-6.73-5.93-10.94-7.52-5.18-1.96-10.58-3.41-15.87-5.06l-17.32-5.4c-11.39-3.55-22.78-7.1-34.18-10.65-3.24-1.01-6.48-2.03-9.73-3.02-2.38-.73-4.75-1.56-7.18-2.1-3.87-.86-8.94-1.23-11.02 2.93-.51 1.02.85 1.78 1.51.88Z"/><g fill="var(--color-primary)"><path d="M22.89 101.78c-.58.04-1.08.15-1.6.42-.44.23-.86.56-1.2.93-.76.83-1.12 1.99-1.15 3.1-.05 2.12 1.36 4.23 3.28 5.08 1.03.46 2.16.63 3.27.35.94-.24 1.83-.83 2.44-1.57 1.21-1.47 1.57-3.41 1.05-5.24-.26-.93-.79-1.73-1.57-2.31-.83-.61-2.51-1.19-3.29-.27-.28.33-.47.92-.17 1.32.22.3.44.59.83.68.14.03.3.04.44.06-.27-.04-.08-.01-.02 0 .16.04.31.08.47.13.09.03.15.11-.05-.02.07.05.16.08.23.12 0 0 .14.08.14.09 0 0-.21-.2-.03-.02l.25.26c-.04.02-.16-.23-.05-.07l.11.17c.04.06.07.12.1.18l.04.07q.09.195-.03-.09c-.03.05.17.61.19.71.04.16-.06.02-.01-.1-.01.03.01.13.01.16.01.15.01.3.01.45 0 .13 0 .26-.02.39-.02.25 0 0 0-.04-.02.09-.03.17-.06.26-.04.16-.1.31-.14.46.08-.26.05-.1.01-.03-.05.1-.1.19-.15.28-.09.16-.19.3-.29.45.17-.24-.04.04-.13.12-.06.06-.48.4-.19.2-.14.1-.29.2-.44.28-.03.01-.33.12-.12.06s-.11.03-.13.03c-.12.03-.3.11-.42.1.3.04.12-.02 0-.01h-.28c-.03 0-.22-.01-.22-.02.18.03.22.03.11.01-.05 0-.11-.02-.16-.03-.16-.04-.32-.1-.48-.14-.21-.06.29.16-.02 0-.07-.04-.13-.07-.2-.1-.15-.08-.28-.18-.43-.27-.18-.12.23.23-.02-.02-.08-.08-.17-.15-.24-.23s-.32-.38-.14-.14c-.11-.16-.22-.32-.31-.5-.05-.1-.2-.48-.11-.21-.07-.21-.14-.42-.18-.64-.02-.08-.05-.35-.01-.04l-.03-.36c0-.2 0-.4.02-.6-.03.29-.01.08 0 .02.03-.11.05-.22.09-.33 0 0 .13-.34.05-.14-.08.17.08-.15.1-.18.1-.17.2-.35.31-.51.04-.05.15-.16 0 0 .08-.08.14-.16.22-.24.05-.05.11-.1.16-.15-.17.15.07-.04.11-.07l.23-.18c-.08.06-.08.07-.01.02.11-.07.21-.13.33-.18.91-.42.47-1.98-.52-1.91Z"/><path d="M23.79 103.56c1.07.22 1.6 1.37 1.71 2.36.12 1.14-.21 2.3-.92 3.19-.15.19.12.45.27.27.8-1.01 1.19-2.32 1.01-3.6-.15-1.11-.78-2.33-1.97-2.58-.24-.05-.34.31-.1.36"/></g><g fill="var(--color-primary)"><path d="M39.41 107.32c-.58.04-1.08.15-1.6.42-.44.23-.86.56-1.2.93-.76.83-1.12 1.99-1.15 3.1-.05 2.12 1.36 4.23 3.28 5.08 1.03.46 2.16.63 3.27.35.94-.24 1.83-.83 2.44-1.57 1.21-1.47 1.57-3.41 1.05-5.24-.26-.93-.79-1.73-1.57-2.31-.83-.61-2.51-1.19-3.29-.27-.28.33-.47.92-.17 1.32.22.3.44.59.83.68.14.03.3.04.44.06-.27-.04-.08-.01-.02 0 .16.04.31.08.47.13.09.03.15.11-.05-.02.07.05.16.08.23.12 0 0 .14.08.14.09 0 0-.21-.2-.03-.02l.25.26c-.04.02-.16-.23-.05-.07l.11.17c.04.06.07.12.1.18l.04.07q.09.195-.03-.09c-.03.05.17.61.19.71.04.16-.06.02-.01-.1-.01.03.01.13.01.16.01.15.01.3.01.45 0 .13 0 .26-.02.39-.02.25 0 0 0-.04-.02.09-.03.17-.06.26-.04.16-.1.31-.14.46.08-.26.05-.1.01-.03-.05.1-.1.19-.15.28-.09.16-.19.3-.29.45.17-.24-.04.04-.13.12-.06.06-.48.4-.19.2-.14.1-.29.2-.44.28-.03.01-.33.12-.12.06s-.11.03-.13.03c-.12.03-.3.11-.42.1.3.04.12-.02 0-.01h-.28c-.03 0-.22-.01-.22-.02.18.03.22.03.11.01-.05 0-.11-.02-.16-.03-.16-.04-.32-.1-.48-.14-.21-.06.29.16-.02 0-.07-.04-.13-.07-.2-.1-.15-.08-.28-.18-.43-.27-.18-.12.23.23-.02-.02-.08-.08-.17-.15-.24-.23s-.32-.38-.14-.14c-.11-.16-.22-.32-.31-.5-.05-.1-.2-.48-.11-.21-.07-.21-.14-.42-.18-.64-.02-.08-.05-.35-.01-.04l-.03-.36c0-.2 0-.4.02-.6-.03.29-.01.08 0 .02.03-.11.05-.22.09-.33 0 0 .13-.34.05-.14-.08.17.08-.15.1-.18.1-.17.2-.35.31-.51.04-.05.15-.16 0 0 .08-.08.14-.16.22-.24.05-.05.11-.1.16-.15-.17.15.07-.04.11-.07l.23-.18c-.08.06-.08.07-.01.02.11-.07.21-.13.33-.18.91-.42.47-1.98-.52-1.91Z"/><path d="M40.32 109.11c1.07.22 1.6 1.37 1.71 2.36.12 1.14-.21 2.3-.92 3.19-.15.19.12.45.27.27.8-1.01 1.19-2.32 1.01-3.6-.15-1.11-.78-2.33-1.97-2.58-.24-.05-.34.31-.1.36"/></g><g fill="var(--color-primary)"><path d="M55.94 112.87c-.58.04-1.08.15-1.6.42-.44.23-.86.56-1.2.93-.76.83-1.12 1.99-1.15 3.1-.05 2.12 1.36 4.23 3.28 5.08 1.03.46 2.16.63 3.27.35.94-.24 1.83-.83 2.44-1.57 1.21-1.47 1.57-3.41 1.05-5.24-.26-.93-.79-1.73-1.57-2.31-.83-.61-2.51-1.19-3.29-.27-.28.33-.47.92-.17 1.32.22.3.44.59.83.68.14.03.3.04.44.06-.27-.04-.08-.01-.02 0 .16.04.31.08.47.13.09.03.15.11-.05-.02.07.05.16.08.23.12 0 0 .14.08.14.09 0 0-.21-.2-.03-.02l.25.26c-.04.02-.16-.23-.05-.07l.11.17c.04.06.07.12.1.18l.04.07q.09.195-.03-.09c-.03.05.17.61.19.71.04.16-.06.02-.01-.1-.01.03.01.13.01.16.01.15.01.3.01.45 0 .13 0 .26-.02.39-.02.25 0 0 0-.04-.02.09-.03.17-.06.26-.04.16-.1.31-.14.46.08-.26.05-.1.01-.03-.05.1-.1.19-.15.28-.09.16-.19.3-.29.45.17-.24-.04.04-.13.12-.06.06-.48.4-.19.2-.14.1-.29.2-.44.28-.03.01-.33.12-.12.06s-.11.03-.13.03c-.12.03-.3.11-.42.1.3.04.12-.02 0-.01h-.28c-.03 0-.22-.01-.22-.02.18.03.22.03.11.01-.05 0-.11-.02-.16-.03-.16-.04-.32-.1-.48-.14-.21-.06.29.16-.02 0-.07-.04-.13-.07-.2-.1-.15-.08-.28-.18-.43-.27-.18-.12.23.23-.02-.02-.08-.08-.17-.15-.24-.23s-.32-.38-.14-.14c-.11-.16-.22-.32-.31-.5-.05-.1-.2-.48-.11-.21-.07-.21-.14-.42-.18-.64-.02-.08-.05-.35-.01-.04l-.03-.36c0-.2 0-.4.02-.6-.03.29-.01.08 0 .02.03-.11.05-.22.09-.33 0 0 .13-.34.05-.14-.08.17.08-.15.1-.18.1-.17.2-.35.31-.51.04-.05.15-.16 0 0 .08-.08.14-.16.22-.24.05-.05.11-.1.16-.15-.17.15.07-.04.11-.07l.23-.18c-.08.06-.08.07-.01.02.11-.07.21-.13.33-.18.91-.42.47-1.98-.52-1.91Z"/><path d="M56.85 114.65c1.07.22 1.6 1.37 1.71 2.36.12 1.14-.21 2.3-.92 3.19-.15.19.12.45.27.27.8-1.01 1.19-2.32 1.01-3.6-.15-1.11-.78-2.33-1.97-2.58-.24-.05-.34.31-.1.36"/></g><g fill="var(--color-primary)"><path d="M72.46 118.42c-.58.04-1.08.15-1.6.42-.44.23-.86.56-1.2.93-.76.83-1.12 1.99-1.15 3.1-.05 2.12 1.36 4.23 3.28 5.08 1.03.46 2.16.63 3.27.35.94-.24 1.83-.83 2.44-1.57 1.21-1.47 1.57-3.41 1.05-5.24-.26-.93-.79-1.73-1.57-2.31-.83-.61-2.51-1.19-3.29-.27-.28.33-.47.92-.17 1.32.22.3.44.59.83.68.14.03.3.04.44.06-.27-.04-.08-.01-.02 0 .16.04.31.08.47.13.09.03.15.11-.05-.02.07.05.16.08.23.12 0 0 .14.08.14.09 0 0-.21-.2-.03-.02l.25.26c-.04.02-.16-.23-.05-.07l.11.17c.04.06.07.12.1.18l.04.07q.09.195-.03-.09c-.03.05.17.61.19.71.04.16-.06.02-.01-.1-.01.03.01.13.01.16.01.15.01.3.01.45 0 .13 0 .26-.02.39-.02.25 0 0 0-.04-.02.09-.03.17-.06.26-.04.16-.1.31-.14.46.08-.26.05-.1.01-.03-.05.1-.1.19-.15.28-.09.16-.19.3-.29.45.17-.24-.04.04-.13.12-.06.06-.48.4-.19.2-.14.1-.29.2-.44.28-.03.01-.33.12-.12.06s-.11.03-.13.03c-.12.03-.3.11-.42.1.3.04.12-.02 0-.01h-.28c-.03 0-.22-.01-.22-.02.18.03.22.03.11.01-.05 0-.11-.02-.16-.03-.16-.04-.32-.1-.48-.14-.21-.06.29.16-.02 0-.07-.04-.13-.07-.2-.1-.15-.08-.28-.18-.43-.27-.18-.12.23.23-.02-.02-.08-.08-.17-.15-.24-.23s-.32-.38-.14-.14c-.11-.16-.22-.32-.31-.5-.05-.1-.2-.48-.11-.21-.07-.21-.14-.42-.18-.64-.02-.08-.05-.35-.01-.04l-.03-.36c0-.2 0-.4.02-.6-.03.29-.01.08 0 .02.03-.11.05-.22.09-.33 0 0 .13-.34.05-.14-.08.17.08-.15.1-.18.1-.17.2-.35.31-.51.04-.05.15-.16 0 0 .08-.08.14-.16.22-.24.05-.05.11-.1.16-.15-.17.15.07-.04.11-.07l.23-.18c-.08.06-.08.07-.01.02.11-.07.21-.13.33-.18.91-.42.47-1.98-.52-1.91Z"/><path d="M73.37 120.2c1.07.22 1.6 1.37 1.71 2.36.12 1.14-.21 2.3-.92 3.19-.15.19.12.45.27.27.8-1.01 1.19-2.32 1.01-3.6-.15-1.11-.78-2.33-1.97-2.58-.24-.05-.34.31-.1.36"/></g><g fill="var(--color-primary)"><path d="M88.99 123.96c-.58.04-1.08.15-1.6.42-.44.23-.86.56-1.2.93-.76.83-1.12 1.99-1.15 3.1-.05 2.12 1.36 4.23 3.28 5.08 1.03.46 2.16.63 3.27.35.94-.24 1.83-.83 2.44-1.57 1.21-1.47 1.57-3.41 1.05-5.24-.26-.93-.79-1.73-1.57-2.31-.83-.61-2.51-1.19-3.29-.27-.28.33-.47.92-.17 1.32.22.3.44.59.83.68.14.03.3.04.44.06-.27-.04-.08-.01-.02 0 .16.04.31.08.47.13.09.03.15.11-.05-.02.07.05.16.08.23.12 0 0 .14.08.14.09 0 0-.21-.2-.03-.02l.25.26c-.04.02-.16-.23-.05-.07l.11.17c.04.06.07.12.1.18l.04.07q.09.195-.03-.09c-.03.05.17.61.19.71.04.16-.06.02-.01-.1-.01.03.01.13.01.16.01.15.01.3.01.45 0 .13 0 .26-.02.39-.02.25 0 0 0-.04-.02.09-.03.17-.06.26-.04.16-.1.31-.14.46.08-.26.05-.1.01-.03-.05.1-.1.19-.15.28-.09.16-.19.3-.29.45.17-.24-.04.04-.13.12-.06.06-.48.4-.19.2-.14.1-.29.2-.44.28-.03.01-.33.12-.12.06s-.11.03-.13.03c-.12.03-.3.11-.42.1.3.04.12-.02 0-.01h-.28c-.03 0-.22-.01-.22-.02.18.03.22.03.11.01-.05 0-.11-.02-.16-.03-.16-.04-.32-.1-.48-.14-.21-.06.29.16-.02 0-.07-.04-.13-.07-.2-.1-.15-.08-.28-.18-.43-.27-.18-.12.23.23-.02-.02-.08-.08-.17-.15-.24-.23s-.32-.38-.14-.14c-.11-.16-.22-.32-.31-.5-.05-.1-.2-.48-.11-.21-.07-.21-.14-.42-.18-.64-.02-.08-.05-.35-.01-.04l-.03-.36c0-.2 0-.4.02-.6-.03.29-.01.08 0 .02.03-.11.05-.22.09-.33 0 0 .13-.34.05-.14-.08.17.08-.15.1-.18.1-.17.2-.35.31-.51.04-.05.15-.16 0 0 .08-.08.14-.16.22-.24.05-.05.11-.1.16-.15-.17.15.07-.04.11-.07l.23-.18c-.08.06-.08.07-.01.02.11-.07.21-.13.33-.18.91-.42.47-1.98-.52-1.91Z"/><path d="M89.9 125.74c1.07.22 1.6 1.37 1.71 2.36.12 1.14-.21 2.3-.92 3.19-.15.19.12.45.27.27.8-1.01 1.19-2.32 1.01-3.6-.15-1.11-.78-2.33-1.97-2.58-.24-.05-.34.31-.1.36"/></g><g fill="var(--color-primary)"><path d="M105.52 129.51c-.58.04-1.08.15-1.6.42-.44.23-.86.56-1.2.93-.76.83-1.12 1.99-1.15 3.1-.05 2.12 1.36 4.23 3.28 5.08 1.03.46 2.16.63 3.27.35.94-.24 1.83-.83 2.44-1.57 1.21-1.47 1.57-3.41 1.05-5.24-.26-.93-.79-1.73-1.57-2.31-.83-.61-2.51-1.19-3.29-.27-.28.33-.47.92-.17 1.32.22.3.44.59.83.68.14.03.3.04.44.06-.27-.04-.08-.01-.02 0 .16.04.31.08.47.13.09.03.15.11-.05-.02.07.05.16.08.23.12 0 0 .14.08.14.09 0 0-.21-.2-.03-.02l.25.26c-.04.02-.16-.23-.05-.07l.11.17c.04.06.07.12.1.18l.04.07q.09.195-.03-.09c-.03.05.17.61.19.71.04.16-.06.02-.01-.1-.01.03.01.13.01.16.01.15.01.3.01.45 0 .13 0 .26-.02.39-.02.25 0 0 0-.04-.02.09-.03.17-.06.26-.04.16-.1.31-.14.46.08-.26.05-.1.01-.03-.05.1-.1.19-.15.28-.09.16-.19.3-.29.45.17-.24-.04.04-.13.12-.06.06-.48.4-.19.2-.14.1-.29.2-.44.28-.03.01-.33.12-.12.06s-.11.03-.13.03c-.12.03-.3.11-.42.1.3.04.12-.02 0-.01h-.28c-.03 0-.22-.01-.22-.02.18.03.22.03.11.01-.05 0-.11-.02-.16-.03-.16-.04-.32-.1-.48-.14-.21-.06.29.16-.02 0-.07-.04-.13-.07-.2-.1-.15-.08-.28-.18-.43-.27-.18-.12.23.23-.02-.02-.08-.08-.17-.15-.24-.23s-.32-.38-.14-.14c-.11-.16-.22-.32-.31-.5-.05-.1-.2-.48-.11-.21-.07-.21-.14-.42-.18-.64-.02-.08-.05-.35-.01-.04l-.03-.36c0-.2 0-.4.02-.6-.03.29-.01.08 0 .02.03-.11.05-.22.09-.33 0 0 .13-.34.05-.14-.08.17.08-.15.1-.18.1-.17.2-.35.31-.51.04-.05.15-.16 0 0 .08-.08.14-.16.22-.24.05-.05.11-.1.16-.15-.17.15.07-.04.11-.07l.23-.18c-.08.06-.08.07-.01.02.11-.07.21-.13.33-.18.91-.42.47-1.98-.52-1.91Z"/><path d="M106.42 131.29c1.07.22 1.6 1.37 1.71 2.36.12 1.14-.21 2.3-.92 3.19-.15.19.12.45.27.27.8-1.01 1.19-2.32 1.01-3.6-.15-1.11-.78-2.33-1.97-2.58-.24-.05-.34.31-.1.36"/></g><path fill="var(--color-primary)" d="M102.64 120.32q9.855-4.11 19.53-8.64c9.675-4.53 12.79-6.18 19.08-9.47 3.53-1.85 7.04-3.75 10.53-5.69.21-.12.02-.44-.19-.32-6.21 3.45-12.49 6.77-18.84 9.95a471 471 0 0 1-19.15 9.05c-3.67 1.64-7.35 3.22-11.06 4.77-.22.09-.12.45.1.36Zm15.61 13.69 20.25-10.35 20.25-10.35c3.78-1.93 7.57-3.87 11.35-5.8.21-.11.03-.43-.19-.32l-20.25 10.35-20.25 10.35c-3.78 1.93-7.57 3.87-11.35 5.8-.21.11-.03.43.19.32m-36.79-19.54c2.18-1.1 4.36-2.2 6.55-3.3.22-.11.03-.43-.19-.32-2.18 1.1-4.36 2.2-6.55 3.3-.22.11-.03.43.19.32M62.1 108.4c2.19-1.2 4.5-2.17 6.88-2.9.23-.07.13-.43-.1-.36-2.42.74-4.75 1.72-6.97 2.93-.21.12-.02.44.19.32Zm-19.59-7.07c2.53-1.29 5.07-2.59 7.6-3.88.21-.11.03-.43-.19-.32-2.53 1.29-5.07 2.59-7.6 3.88-.21.11-.03.43.19.32m-21.49-6.22c6.72-2.88 13.37-5.95 19.91-9.2 1.85-.92 3.68-1.85 5.51-2.8.21-.11.02-.43-.19-.32-6.5 3.36-13.09 6.54-19.76 9.52-1.88.84-3.77 1.67-5.66 2.48-.22.09-.03.42.19.32m95.47-28.75v39.27c0 .24.38.24.38 0V66.36c0-.24-.38-.24-.38 0"/><path fill="var(--color-primary)" d="M100.23 89.51 112.74 83l12.51-6.51 7.08-3.69c.21-.11.02-.44-.19-.32l-12.51 6.51-12.51 6.51-7.08 3.69c-.21.11-.02.44.19.32M47.17 74.47c6.67 2.23 13.38 4.37 20.11 6.42 6.7 2.04 13.44 3.99 20.19 5.86 3.8 1.05 7.61 2.07 11.42 3.06.23.06.33-.3.1-.36-6.8-1.77-13.58-3.62-20.33-5.57s-13.45-3.97-20.13-6.1c-3.76-1.19-7.52-2.42-11.26-3.67-.23-.08-.33.29-.1.36"/><path fill="var(--color-primary)" d="M70.18 57.37v47.09c0 .24.38.24.38 0V57.37c0-.24-.38-.24-.38 0m1.85-1.99c3.33-1.73 6.67-3.47 10-5.2.21-.11.02-.44-.19-.32-3.33 1.73-6.67 3.47-10 5.2-.21.11-.02.44.19.32m21.27-11c3.14-1.52 6.29-3.05 9.43-4.57.22-.11.03-.43-.19-.32-3.14 1.52-6.29 3.05-9.43 4.57-.22.11-.03.43.19.32M16.08 99.43c-2.18 2.4-2.36 6.04-1.05 8.91 1.48 3.24 4.56 5.34 7.75 6.68 7.79 3.29 16.21 4.79 24.3 7.17 8.32 2.45 16.5 5.37 24.66 8.29 8.2 2.94 16.4 5.89 24.74 8.41q3.18.96 6.39 1.83c1.43.39 2.86.61 4.34.41 1.31-.17 2.63-.68 3.49-1.73s1.29-2.47 1.26-3.79c-.02-.88-.26-1.72-.61-2.52-.1-.22-.42-.03-.32.19.71 1.61.73 3.34-.04 4.93-.63 1.32-1.76 2.1-3.17 2.42s-2.81.24-4.15-.09c-2.02-.5-4.02-1.1-6.01-1.69-7.95-2.36-15.77-5.13-23.58-7.93-7.79-2.79-15.57-5.61-23.48-8.06-3.94-1.22-7.91-2.33-11.91-3.35-3.88-.99-7.78-1.97-11.57-3.26-3.5-1.19-7.18-2.5-9.79-5.24-2.3-2.41-3.47-5.94-2.29-9.17.29-.8.74-1.53 1.31-2.15.16-.18-.1-.44-.27-.27Zm2.13.3c6.5 2.05 13 4.1 19.49 6.15 6.53 2.06 13.05 4.12 19.58 6.17 6.5 2.05 13 4.1 19.49 6.15 6.26 1.97 12.55 3.86 18.77 5.95 2.71.91 5.4 1.89 7.97 3.14 2.18 1.06 4.33 2.33 6.03 4.08.39.4.76.83 1.08 1.29.14.19.46 0 .32-.19-1.33-1.85-3.18-3.24-5.14-4.38-2.35-1.37-4.88-2.41-7.43-3.34-2.84-1.04-5.74-1.93-8.63-2.84-3.26-1.03-6.53-2.06-9.79-3.09-6.59-2.08-13.17-4.15-19.76-6.23-6.56-2.07-13.11-4.13-19.67-6.2-6.59-2.08-13.17-4.15-19.76-6.23-.82-.26-1.65-.52-2.47-.78-.23-.07-.33.29-.1.36Z"/><path fill="var(--color-primary)" d="M19.27 99.67c-1.45 2.65-1.33 6.03.32 8.57.13.2.46.01.32-.19-1.57-2.43-1.7-5.65-.32-8.19.12-.21-.21-.4-.32-.19m5.94 12.41c3.46 1.72 7.15 2.97 10.94 3.67 1.06.2 2.14.35 3.21.47.24.03.24-.35 0-.38-4.85-.53-9.6-1.92-13.96-4.09-.22-.11-.41.22-.19.32Zm16.89 5.41c4.33 1.23 8.65 2.45 12.98 3.68.23.07.33-.3.1-.36-4.33-1.23-8.65-2.45-12.98-3.68-.23-.07-.33.3-.1.36m16.77 5.24c4.28 1.42 8.65 2.55 13.09 3.37.24.04.34-.32.1-.36a99 99 0 0 1-13.09-3.37c-.23-.08-.33.29-.1.36m16.83 5.23c4.21 1.58 8.51 2.92 12.88 4 .23.06.33-.3.1-.36-4.37-1.08-8.67-2.41-12.88-4-.23-.09-.32.28-.1.36m15.98 5.42c3.93 1.52 8.01 2.61 12.17 3.24.24.04.34-.32.1-.36a59 59 0 0 1-12.17-3.24c-.23-.09-.32.28-.1.36m17.53 5.53c.38.09.77.17 1.15.26.1.02.21-.03.23-.13.02-.09-.03-.21-.13-.23l-1.15-.26c-.1-.02-.21.03-.23.13-.02.09.03.21.13.23"/></svg>
