<?xml version="1.0" encoding="UTF-8"?><svg xmlns="http://www.w3.org/2000/svg" viewBox="0 0 180 180"><path fill="var(--color-secondary)" d="M62.73 139.26c2.04 1.32 4.41 2.2 6.65 3.12 2.39.98 4.78 1.95 7.19 2.89 4.72 1.86 9.47 3.65 14.21 5.45 9.4 3.57 18.81 7.12 28.22 10.68 2.64 1 5.29 2 7.93 3 1.32.5 2.64 1 3.97 1.5 1.4.53 2.73 1.13 4.24 1.28 1.86.18 2.07-2.3.86-3.17-1.01-.73-2.23-1.08-3.38-1.52s-2.33-.88-3.5-1.32c-2.33-.88-4.66-1.77-7-2.65-4.74-1.8-9.48-3.59-14.23-5.39-9.4-3.56-18.78-7.2-28.23-10.64-2.57-.94-5.14-1.88-7.73-2.78s-5.48-2.08-8.32-2.51c-1.22-.18-2 1.32-.87 2.06Z"/><g fill="var(--color-secondary)"><path d="M99.96 88.34c-2.22-.33-4.49-.3-6.69.11-.93.17-2.01.57-2.2 1.5-.11.53.14 1.08.52 1.47s.88.62 1.39.82c2.66 1.05 5.61 1.22 8.43.76.63-.1 1.27-.24 1.82-.56s1.01-.86 1.1-1.49c.12-.89-.53-1.75-1.33-2.15s-1.73-.46-2.64-.51"/><path d="M100.2 87.49c-.64-.13-1.26-.35-1.91-.46-.71-.13-1.45-.17-2.17-.19-1.26-.04-2.6-.02-3.83.3s-2.31 1.03-2.69 2.24c-.46 1.43.35 2.86 1.5 3.67 1.03.72 2.4 1.11 3.61 1.37 1.3.28 2.64.42 3.97.41 2.38-.03 5.77-.23 6.93-2.72 1.52-3.28-2.64-6.16-5.6-5.13-.99.35-1.44 1.92-.32 2.46.61.29 1.18.39 1.83.52.36.07.76.17 1 .39.03.03.25.31.22.26.12.2 0 .22.06.07-.08.24-.3.37-.56.49-.94.41-2.19.44-3.19.47-1.09.03-2.18-.02-3.25-.23-.92-.18-2.17-.38-2.93-.97.05.04-.38-.26-.27-.3.06-.02.04.16 0 .17-.2.06.16-.12 0 0 .21-.15.24-.15.41-.22 1-.38 2.18-.54 3.23-.65 1.2-.12 2.52-.31 3.72-.19.99.09 1.21-1.54.23-1.73Z"/></g><g fill="var(--color-secondary)"><path d="M16.73 76.63c-2.24-2.48-3.99-5.51-4.46-8.82s.49-6.91 2.94-9.18c2.43-2.26 6.1-2.94 9.31-2.12 3.22.82 5.98 3.03 7.88 5.75 4.43 6.34 3.96 15.67-1.08 21.54 9.4-5.56 18.8-11.12 28.2-16.69 1.48-.88 3.06-1.78 4.79-1.77 2.67.02 4.77 2.18 6.55 4.17 1.07 1.2 2.15 2.43 2.75 3.92s.61 3.32-.37 4.59c-.87 1.13-2.34 1.62-3.46 2.51-2.55 2.04-2.87 5.73-2.99 9-.07 1.99-.13 4.06.69 5.87s2.8 3.27 4.73 2.8c-2.25 2.32-3.04 5.96-1.94 9.01s4.03 5.35 7.25 5.69c3.45.37 7.33-1.24 10.22.69 2.95 1.97 3.39 6.86 6.77 7.93 2.29.72 4.67-.79 6.39-2.46s3.36-3.67 5.68-4.27c3.95-1.01 7.51 2.43 10.14 5.54 1.99 2.35 4 4.75 5.18 7.59 1.17 2.84 1.39 6.26-.2 8.9-16.05-5.04-32.1-10.09-48.15-15.13-3.11-.98-6.24-1.96-9.12-3.47-4.14-2.16-7.66-5.32-11.11-8.47a1086 1086 0 0 1-35.56-33.98"/><path d="M17.47 75.89c-2.4-3.09-4.58-7.02-4.28-11.05.32-4.18 3.27-7.42 7.51-7.75 7.91-.62 13.07 7.59 13.12 14.66.02 3.89-1.18 7.84-3.71 10.84-1.19 1.41.3 3.7 2.06 2.67 5.42-3.2 10.83-6.39 16.25-9.59 2.64-1.56 5.27-3.11 7.91-4.67 1.28-.76 2.56-1.52 3.85-2.27 1.13-.67 2.36-1.49 3.7-1.64 2.4-.27 4.32 2.05 5.74 3.65 1.28 1.44 3.68 4.03 2.34 6.11-.54.84-1.67 1.24-2.47 1.77-1.05.69-1.93 1.55-2.6 2.61-1.23 1.97-1.6 4.36-1.77 6.63-.22 2.84-.4 5.96.91 8.58 1.25 2.49 3.89 3.96 6.65 3.46-.57-.98-1.15-1.97-1.72-2.95-4.03 4.36-3.89 11.37.76 15.24 2.24 1.86 4.94 2.63 7.83 2.49 2.57-.13 5.96-1.16 7.96 1 1.53 1.66 2.2 3.95 3.71 5.64 1.86 2.08 4.65 2.56 7.18 1.49 2.77-1.17 4.37-3.66 6.71-5.41 2.53-1.89 5.18-.89 7.35 1.04a36.2 36.2 0 0 1 6.58 7.87c1.74 2.83 2.98 6.53 1.2 9.65l1.92-.78a5870 5870 0 0 0-47.14-15.04c-3.65-1.15-7.49-2.18-10.82-4.12-3.03-1.76-5.7-4.04-8.3-6.38-5.86-5.28-11.62-10.68-17.33-16.12-6.59-6.27-13.15-12.56-19.73-18.84-1.42-1.36-3.51.73-2.15 2.15 11.22 11.74 23.02 22.9 35.01 33.85 2.71 2.48 5.44 4.96 8.48 7.05 3.21 2.21 6.75 3.8 10.44 5.01 7.85 2.57 15.77 4.96 23.66 7.44 8.98 2.82 17.99 5.52 26.99 8.26.7.21 1.56-.14 1.92-.78 3.36-6.05.03-12.31-3.91-17.09-3.44-4.18-8.63-9.77-14.59-6.89-2.63 1.27-4.12 3.91-6.54 5.44-.95.61-2.17 1.16-3.3.69-.98-.41-1.57-1.41-2.08-2.28-1.17-1.98-2.15-4.15-4.14-5.46-2.61-1.71-5.74-1.12-8.65-.93-3.07.2-5.97-.74-7.57-3.55-1.49-2.62-.95-6 1.06-8.18 1.25-1.35 0-3.26-1.72-2.95-2.47.45-3.17-3.14-3.22-4.82-.06-2.35-.02-4.9.68-7.16.3-.95.77-1.86 1.53-2.52.9-.79 2.05-1.24 2.97-2.01 1.94-1.63 2.44-4.3 1.7-6.66s-2.64-4.41-4.36-6.19c-1.71-1.77-3.81-3.34-6.35-3.52-2.87-.2-5.4 1.62-7.75 3.01-2.7 1.6-5.41 3.21-8.11 4.81L30.48 82.29c.69.89 1.37 1.78 2.06 2.67 5.72-6.83 6.15-17.34.32-24.25-2.89-3.42-7.16-5.87-11.75-5.41-4.37.44-7.98 3.25-9.36 7.45-1.75 5.34.44 10.79 4.26 14.6.98.98 2.28-.45 1.48-1.48Z"/></g><g fill="var(--color-secondary)"><path d="M62.81 63.73c1.51 2.13 3.06 4.31 5.2 5.8s5.02 2.2 7.4 1.12c1.55-.7 2.7-2.06 4.17-2.92 3.3-1.93 8.05-.72 10.01 2.56 3.49-4.12 9.61-5.78 14.7-3.98-1.1 2.15 1.58 4.49 3.99 4.59s4.81-.95 7.2-.63c3.42.46 5.81 3.5 7.83 6.3-1.8.39-2.56 2.75-1.94 4.49.63 1.74 2.17 2.95 3.66 4.04s3.06 2.24 3.81 3.92c1.09 2.44.13 5.31-1.18 7.63-1.31 2.33-3.02 4.53-3.53 7.15-.5 2.54.05 5.54-1.74 7.4-1.13 1.17-2.87 1.49-4.15 2.49-2.4 1.87-2.48 5.57-1.29 8.37s3.34 5.06 4.92 7.65c1.58 2.6 2.56 5.94 1.17 8.64 14.46-9.69 28.6-19.85 42.39-30.47.47-.36.98-.81.99-1.4s-.48-1.04-.92-1.42L95.42 45.75c-.8-.67-1.68-1.39-2.73-1.41-.98-.03-1.85.55-2.66 1.11-9.98 6.92-19.95 13.84-29.93 20.76"/><path d="M61.82 64.31c2.99 4.4 7.7 10.05 13.78 7.76 2.45-.93 4.04-3.44 6.74-3.76 2.29-.27 4.72.78 5.95 2.74.49.77 1.7 1.06 2.36.3 3.28-3.74 8.51-5.15 13.22-3.56-.31-.76-.61-1.51-.92-2.27-.84 1.94-.33 3.89 1.26 5.3 1.81 1.61 3.98 1.85 6.3 1.52s4.65-1.02 6.85.28c1.9 1.12 3.29 3 4.55 4.76.32-.79.64-1.58.97-2.37-2.13.61-3.37 2.66-3.34 4.83.04 2.53 1.81 4.47 3.7 5.95 1.91 1.49 4.47 2.9 4.41 5.65s-1.88 5.04-3.18 7.29-2.04 4.46-2.23 7.05c-.08 1.07-.07 2.22-.44 3.25-.4 1.1-1.26 1.57-2.27 2.06-2.11 1.02-3.77 2.25-4.56 4.55-.71 2.08-.52 4.52.24 6.56 1.02 2.73 2.92 4.94 4.53 7.33 1.49 2.22 3.11 5.3 1.84 7.98-.66 1.39.78 3.33 2.31 2.31 10.56-7.1 20.99-14.42 31.22-21.99 2.46-1.82 4.91-3.66 7.34-5.52 1.28-.98 2.57-1.95 3.84-2.94 1.08-.84 2.03-1.86 1.78-3.34-.21-1.27-1.19-2.03-2.12-2.82-1.33-1.13-2.67-2.26-4-3.38-2.48-2.09-4.95-4.19-7.43-6.28-9.9-8.38-19.76-16.81-29.66-25.19L109.8 55.64l-7.44-6.27c-1.21-1.02-2.42-2.04-3.62-3.06-1.19-1-2.37-2.21-3.72-2.99-3.28-1.88-6.13.87-8.7 2.68-2.99 2.11-6 4.19-9.01 6.27-6.01 4.17-12.03 8.34-18.04 12.51-1.75 1.21-.09 4.1 1.68 2.87 5.06-3.51 10.11-7.02 15.17-10.53 5.02-3.49 9.98-7.15 15.13-10.44.48-.31 1-.69 1.6-.58.5.09.97.56 1.36.88 1.22 1.01 2.41 2.05 3.61 3.07 2.34 1.99 4.69 3.98 7.03 5.97 4.69 3.98 9.38 7.97 14.07 11.94 9.4 7.95 18.84 15.85 28.23 23.8l14.09 11.93 1.52 1.29c.35.29 1.35 1.44 1.79 1.53l.1.1c.18.23.22.09.11-.42.02 0-.52.45-.59.51-.62.51-1.28.98-1.92 1.47-2.43 1.86-4.88 3.7-7.33 5.53-10.72 8-21.62 15.76-32.74 23.2l2.31 2.31c2.39-5.04-.63-9.73-3.54-13.75-2.13-2.95-5.4-8.6-.77-11.01 2.16-1.12 4.01-2.07 4.81-4.54.68-2.1.31-4.37.94-6.47.72-2.44 2.46-4.43 3.58-6.68 1.15-2.3 1.94-5.04 1.14-7.59-.88-2.79-3.27-4.26-5.45-5.96-.94-.73-2.07-1.67-2.38-2.88-.2-.81 0-1.95.9-2.21.92-.26 1.59-1.51.97-2.37-2.21-3.05-4.83-6.41-8.8-7.04-2.3-.36-4.45.43-6.73.56-.96.06-1.84-.07-2.65-.63-.43-.3-1.18-.94-.92-1.56.4-.94.11-1.92-.92-2.27-5.67-1.89-12.25-.11-16.17 4.4l2.36.3c-2.72-4.27-8.74-5.54-12.85-2.5-1.08.8-2.08 1.87-3.33 2.41-1.36.59-2.9.42-4.25-.08-2.9-1.08-4.88-3.81-6.65-6.21-.86-1.17-2.83-.08-1.98 1.16Z"/></g><path fill="var(--color-primary)" d="M13.99 73.66c-2.62-3.31-3.93-8.42-2.09-12.38s5.8-5.55 9.82-5.09c7.23.83 12.53 7.77 13.15 14.69.29 3.24-.05 7.35-2.89 9.46-1.59 1.19-.01 3.9 1.57 2.68 6.63-5.07 5.25-16.14.76-22.18-2.83-3.8-7.06-6.87-11.84-7.5-4.83-.63-9.91 1.37-12.12 5.9-1.2 2.46-1.64 5.2-1.22 7.91.46 2.96 1.9 5.33 3.72 7.64.64.81 1.77-.33 1.14-1.14Z"/><path fill="var(--color-primary)" d="M14.09 57.5c6.17-3.29 12.16-6.93 18.2-10.47s12.04-7.13 18.06-10.71c6.01-3.58 12.03-7.16 18.04-10.75 3.01-1.79 6.01-3.58 9.01-5.38 2.76-1.65 5.49-3.45 8.43-4.76 5.19-2.32 10.84-1.76 15 2.3 4.1 4 5.16 10.22 1.79 15.04-1.53 2.18-3.74 3.83-5.92 5.31-2.61 1.77-5.27 3.47-7.91 5.21-5.8 3.83-11.6 7.66-17.4 11.5-6.38 4.22-12.78 8.41-19.13 12.67-6.26 4.2-12.5 8.44-19.06 12.17-1.86 1.06-.18 3.94 1.68 2.87 6.2-3.55 12.11-7.56 18.03-11.56s12.01-8.02 18.03-12.01c6.07-4.03 12.14-8.05 18.21-12.07 2.83-1.88 5.68-3.74 8.5-5.64 2.32-1.56 4.66-3.23 6.48-5.38 3.99-4.71 4.79-11.41 1.62-16.79-2.77-4.71-7.92-7.99-13.42-8.17-6.56-.21-12.42 4.21-17.78 7.42-6.29 3.77-12.57 7.56-18.85 11.33-7.14 4.29-14.28 8.59-21.4 12.91-7.12 4.31-14.31 8.57-21.24 13.19-1.08.72-.14 2.37 1.03 1.75Zm.22 19.2c6.22 6.75 12.41 13.51 18.95 19.97 6.57 6.49 13.33 12.77 20.32 18.81 1.87 1.61 3.75 3.21 5.65 4.79q1.5 1.245 3 2.46c1.5 1.215 1.91 1.7 3.06 2.19 1.06.45 2.72-.6 1.83-1.83-1.25-1.71-3.22-2.93-4.84-4.26-1.73-1.41-3.44-2.84-5.14-4.29-3.52-2.99-6.99-6.05-10.4-9.16-6.86-6.24-13.56-12.65-20.21-19.11-3.68-3.57-7.38-7.16-10.94-10.85-.81-.84-2.05.42-1.27 1.27Z"/><path fill="var(--color-primary)" d="M94.93 43.45c9.47 8.53 19.36 16.61 29.02 24.92 9.68 8.32 19.29 16.72 28.79 25.25 5.41 4.86 10.79 9.75 16.13 14.69.11-.83.21-1.66.32-2.49-15.25 11.59-31.5 21.76-48 31.43-1.95 1.14-.21 4.1 1.77 3.02 16.81-9.19 32.61-20.13 47.84-31.71.77-.58 1.15-1.73.32-2.49-18.87-17.42-38.05-34.59-57.99-50.79-5.6-4.55-11.17-9.14-16.98-13.41-.92-.68-2.07.82-1.22 1.58"/><g fill="var(--color-secondary)"><path d="M75.57 73.88c-.35 1.76-.47 3.56-.35 5.35.49-.57.99-1.14 1.29-1.83s.39-1.5.06-2.17c-.24-.48-.68-.86-.77-1.38"/><path d="M74.45 73.57c-.48 1.86-.68 3.74-.59 5.66.03.55.32 1.02.84 1.24.48.2 1.12.12 1.48-.28.44-.49.88-1 1.24-1.55.41-.64.65-1.35.74-2.1s-.07-1.45-.41-2.08c-.12-.22-.28-.43-.42-.64-.05-.07-.12-.27-.18-.31.02.02.12.31.05.12-.05-.15-.12-.33-.21-.47-.31-.49-.96-.82-1.54-.63-.23.07-.43.19-.6.35-.28.26-.35.61-.4.97-.08.63.36 1.22.7 1.72.06.09.12.18.17.27.02.04.09.21.02.02-.07-.2 0 0 0 .04.02.06.03.11.05.17.01.05.05.26.01.03s0-.02 0 .04v.22c0 .2 0-.04.02-.1-.02.05-.02.12-.03.18-.03.12-.06.23-.1.35-.05.18 0-.02.04-.08-.03.05-.05.12-.08.17q-.075.165-.18.33c-.13.23-.29.44-.44.66-.11.15.16-.2.04-.06l-.12.15-.27.33 2.32.96q-.12-1.32-.06-2.64c.02-.43.02-.86.05-1.29.01-.21.03-.41.05-.61l.03-.31c0-.05.06-.48.02-.2.04-.32.05-.6-.12-.89-.14-.24-.42-.47-.69-.53-.6-.14-1.26.18-1.42.81Z"/></g><path fill="var(--color-primary)" d="M71.42 108.02c.11.1.03.05.02-.03 0 .04.11.15.14.19.08.12.16.23.25.35.22.29.47.54.73.8.42.42.85.83 1.3 1.22s.87.75 1.32 1.12c.65.55 1.52 1.27 2.44 1 .54-.16.85-.62.89-1.17.06-.83-.7-1.47-1.28-1.94-.45-.36-.9-.73-1.34-1.1-.5-.42-1.01-.81-1.52-1.21-.2-.16.14.11 0 0-.05-.04-.1-.08-.16-.12-.18-.14-.35-.3-.55-.42-.11-.07-.23-.13-.34-.19-.07-.04-.14-.09-.21-.12-.13-.05.16.16-.04-.02-.45-.41-1.21-.48-1.65 0-.41.45-.48 1.21 0 1.65Z"/><path fill="var(--color-primary)" d="M77.91 112.74c.33.07.66.14 1 .11.37-.03.74-.07 1.11-.15.59-.12 1.17-.24 1.75-.4l1.73-.47c.8-.22 1.67-.4 2.14-1.16.37-.6.16-1.56-.5-1.89-.55-.27-1.01-.26-1.59-.13-.29.07-.58.15-.86.24-.57.17-1.14.34-1.71.52s-1.13.37-1.7.58q-.525.195-1.02.45c-.3.16-.54.38-.79.62-.53.49-.29 1.53.44 1.67Z"/><path fill="var(--color-primary)" d="M83.55 109.96c-.05.39.26.86.53 1.12.22.21.49.39.73.57.37.28.76.51 1.18.72.48.23.98.46 1.5.61.22.07.44.13.67.18.3.07.61.12.92.04.18-.05.36-.15.53-.24.5-.29.81-1.11.42-1.61-.11-.14-.2-.29-.32-.42-.21-.23-.49-.34-.78-.41-.24-.06-.47-.13-.7-.21-.45-.15-.9-.3-1.33-.48l.32.14c-.34-.15-.68-.3-1.02-.44l.31.13c-.33-.14-.65-.3-.97-.46-.25-.12-.63-.27-.92-.26-.2 0-.4.06-.57.16-.33.2-.46.5-.5.87Z"/><path fill="var(--color-primary)" d="M88.31 111.66c-.36.84-.13 1.71.06 2.58.16.72.41 1.45.66 2.14s.46 1.45.86 2.08c.49.76 1.21 1.23 2.04 1.54 1.35.5 2.92.62 4.35.57.79-.03 1.58-.13 2.35-.29 1.02-.2 1.88-.64 2.3-1.64l-.33.57.11-.13c.55-.63.42-1.82-.53-2.01.22.04-.27-.1-.38-.13-.22-.05-.45-.07-.67-.07-.37 0-.73.07-1.09.15l-.47.09-.19.03h-.03c-.29.04-.57.06-.86.07-1.27.06-2.26-.01-3.41-.35-.03 0-.32-.11-.2-.06.14.06-.22-.14-.25-.15.08.04.16.23.09.07-.05-.12-.14-.23-.19-.35.08.15.02.05-.02-.05-.06-.15-.11-.29-.16-.44-.13-.35-.27-.72-.41-1.05-.25-.6-.5-1.27-.81-1.86s-.68-1.39-1.31-1.71c-.47-.23-1.24-.18-1.48.39Z"/><path fill="var(--color-primary)" d="M100.64 118.72c.32-.36.68-.72.92-1.15.21-.37.43-.75.61-1.13.4-.86.8-1.76 1.04-2.67.19-.72-.24-1.58-.99-1.75-.8-.18-1.48.24-1.75.99s-.51 1.59-.79 2.38c-.13.38-.25.76-.38 1.14-.14.4-.2.83-.29 1.24s.06.9.45 1.1c.37.2.89.18 1.18-.15"/><path fill="var(--color-primary)" d="M102.05 114.6c.94-.15 1.85-.4 2.77-.62.44-.11.89-.21 1.33-.34.62-.18 1.37-.3 1.83-.78.71-.74.46-2.16-.63-2.4-.46-.1-.85-.03-1.28.1l-.7.22c-.45.14-.9.31-1.34.48-.97.36-1.96.7-2.9 1.14-.54.25-.71 1-.49 1.5.25.59.82.79 1.42.7Z"/><path fill="var(--color-primary)" d="M106.51 112.79c.48.37.95.72 1.46 1.03s.99.59 1.5.85 1.02.53 1.54.78l.75.36c.53.25 1.04.37 1.62.2s1.14-.91.88-1.56c-.21-.53-.5-.93-1-1.21-.24-.14-.5-.25-.74-.38-.53-.27-1.07-.52-1.61-.77-.62-.29-1.24-.55-1.87-.79-.55-.21-1.11-.37-1.68-.52-.53-.14-1.08.14-1.29.63-.23.54 0 1.03.45 1.37Z"/><path fill="var(--color-primary)" d="M113.25 115.92c.33-.12.66-.21.99-.31.09-.03.18-.05.27-.08.05-.02.57-.24.27-.11.24-.1.47-.2.71-.3.67-.3 1.3-.63 1.92-1.01.69-.42 1.34-.89 1.97-1.39s1.37-1.06 1.84-1.74c.4-.58.25-1.55-.26-2.02s-1.38-.67-2.02-.26-1.18 1.06-1.77 1.57c-.53.46-1.07.91-1.62 1.34-.03.02-.23.19-.07.06s-.05.03-.08.06c-.14.11-.28.21-.43.31-.29.21-.57.42-.86.63-.14.1-.29.2-.44.3-.1.07-.19.13-.28.2.05-.04-.32.25-.18.15.13-.1-.12.09-.15.11-.06.05-.13.09-.19.14-.16.11-.33.21-.5.31-.49.28-.68.9-.46 1.4s.8.84 1.33.65Z"/><path fill="var(--color-primary)" d="M120.69 110.54c.74-.98 1.04-2.15 1.34-3.32.14-.53.28-1.07.4-1.6.15-.64.41-1.37.4-2.02s-.46-1.33-1.12-1.48-1.42.08-1.73.7-.39 1.31-.54 1.97c-.12.56-.23 1.12-.34 1.69s-.2 1.13-.28 1.7c-.1.71-.06 1.42.08 2.12.08.38.45.65.81.7.42.06.73-.14.97-.47Z"/><path fill="var(--color-primary)" d="M122.51 103.05c-.46-1.16-.94-2.33-1.56-3.41-.29-.51-.59-1.02-.87-1.53-.35-.61-.68-1.54-1.34-1.86-.46-.23-.96-.27-1.42 0s-.65.71-.7 1.21.23.92.47 1.34c.15.26.3.53.45.79.29.51.58 1.02.89 1.52.65 1.07 1.45 2.06 2.29 2.98.31.34.91.41 1.3.17s.67-.76.49-1.21"/><path fill="var(--color-primary)" d="m118.77 98.25.05-.05-.43.25c.31-.11.56-.25.78-.49.19-.2.33-.44.49-.66.22-.31.47-.61.68-.92.43-.64.85-1.29 1.29-1.93.21-.31.25-.81.15-1.16s-.37-.73-.69-.9c-.35-.18-.77-.28-1.16-.15s-.67.36-.9.69c-.44.64-.84 1.3-1.18 2-.2.42-.36.88-.51 1.32-.06.18-.13.36-.18.55-.03.13-.06.36-.06.52 0 .12.03.24.05.35q.045.15 0-.09c-.02.37.25.73.58.86.36.15.75.07 1.03-.2Z"/><path fill="var(--color-primary)" d="M121.81 94.53c.17-.03.44-.13.62-.11-.15.02-.18.02-.09.01.04 0 .09-.01.13-.02.1-.01.2-.02.3-.04.49-.05.97-.1 1.46-.17l-.37.05c.87-.11 1.73-.22 2.59-.38.36-.07.74-.4.91-.7.19-.33.27-.81.15-1.18s-.35-.73-.7-.91c-.39-.2-.75-.22-1.18-.15-.78.12-1.53.34-2.28.6-.44.15-.87.35-1.29.54-.09.04-.19.08-.28.12l-.04.02c-.24.12-.51.21-.76.32-.22.09-.45.43-.5.65-.06.24-.04.48.06.71.22.52.75.74 1.29.63Z"/><path fill="var(--color-primary)" d="M127.22 92.72c.18-.24.21-.55.26-.84s.08-.57.09-.86c.01-.45.04-.9.02-1.34-.04-.89-.06-1.79-.11-2.68-.04-.78-.66-1.54-1.5-1.5-.78.03-1.54.66-1.5 1.5.04.91.11 1.82.17 2.74.03.45.11.9.17 1.34.08.64.18 1.39.64 1.88.24.26.6.36.95.31.37-.05.6-.24.82-.54Z"/><path fill="var(--color-primary)" d="M126.5 85.18c-.06-.03-.12-.07-.18-.1.09.07.08.06-.01-.01s-.18-.14-.26-.21c-.25-.2-.5-.41-.78-.58-.41-.24-.82-.46-1.24-.67-.95-.49-1.99-.83-3-1.17-.75-.25-1.67.28-1.84 1.05-.19.81.24 1.6 1.05 1.84.9.28 1.78.63 2.68.92.45.14.89.3 1.33.45.22.08.45.12.68.18.1.02.19.05.29.07.06.02.13.03.19.05-.1-.05-.09-.05.02 0 .5.24 1.17.16 1.45-.38.26-.5.14-1.16-.38-1.45Z"/><path fill="var(--color-primary)" d="M121.46 83.37c-.22-.8-.52-1.59-.9-2.33s-.8-1.5-1.34-2.15c-.2-.24-.65-.41-.96-.4s-.58.1-.82.29c-.52.4-.7 1.16-.35 1.74.19.32.43.61.64.91s.4.6.59.9c.39.62.79 1.23 1.18 1.85.28.45.84.65 1.34.44s.76-.74.62-1.26Z"/><path fill="var(--color-primary)" d="M118.74 80.1h.04c-.1 0-.21.02-.31.04.26-.03.48-.07.7-.21.06-.04.13-.08.19-.12.21-.14.4-.31.58-.48.24-.22.49-.44.71-.67l.66-.68.33-.34.17-.17c.1-.1.19-.22.27-.34.11-.17.17-.36.18-.55.02-.08.03-.16.02-.24-.03-.37-.14-.76-.43-1.03s-.64-.44-1.03-.43-.83.15-1.11.46l-.15.18-.32.39-.63.76c-.27.32-.51.66-.76 1-.1.13-.2.26-.28.41-.03.07-.07.14-.1.21-.05.11-.11.22-.14.33-.05.15-.04.26-.04.4 0 .35.17.67.44.88.11.1.24.17.38.2q.3.075.6 0Zm-14.5-8.6c.4.24.8.45 1.23.65.28.13.55.26.83.38-.36-.15.04.02.11.05.1.04.2.09.3.14.84.39 1.68.82 2.48 1.29.42.24 1.02.28 1.44 0 .46-.31.66-.68.7-1.23.04-.49-.3-.99-.7-1.23-.92-.53-1.86-.98-2.86-1.35s-1.97-.62-3.01-.61-1.38 1.38-.52 1.91"/><path fill="var(--color-primary)" d="M110 73.91c.51-.04 1.01-.07 1.5-.23s.96-.41 1.43-.63c.78-.36 1.54-.75 2.28-1.18l-.36.15h.04c-.13 0-.26.02-.39.04h.04c-.13-.02-.26-.03-.39-.05h.04c.86.29 1.82-.46 1.8-1.36-.01-.45-.18-.81-.48-1.15-.45-.51-1.26-.53-1.83-.24-.74.39-1.49.79-2.23 1.18-.36.19-.73.35-1.08.55-.44.25-.81.61-1.18.95-.33.31-.41.84-.24 1.25s.59.73 1.04.7Z"/><path fill="var(--color-primary)" d="M113.96 71.35c.88.92 1.76 1.85 2.71 2.71l1.38 1.26c.23.22.47.44.7.66.18.17.37.31.57.46.28.21.58.28.93.32.4.04.79-.22 1.02-.51.27-.35.3-.71.23-1.13s-.47-.87-.8-1.17c-.23-.22-.47-.44-.7-.66-.47-.43-.94-.86-1.42-1.29-1.01-.89-2.14-1.67-3.26-2.4-.47-.3-1.12-.13-1.44.29-.34.44-.3 1.06.09 1.47Zm-8.38-.77c.01-.85-.25-1.66-.47-2.47-.11-.37-.23-.74-.35-1.1-.06-.18-.12-.37-.19-.55-.09-.25-.17-.46-.37-.66s-.41-.31-.67-.39c-.55-.17-1.06.12-1.36.55-.41.58-.14 1.23.06 1.83.12.36.24.71.37 1.06.3.77.56 1.59 1.08 2.25.14.18.27.33.49.42.2.09.45.12.67.05.43-.14.75-.52.75-.99ZM82.9 68.59c.86.52 1.77.96 2.67 1.4.45.22.89.45 1.33.68.23.12.45.25.67.38.59.34 1.1.41 1.73.11.38-.18.7-.73.66-1.15-.04-.39-.13-.76-.42-1.05-.15-.15-.35-.27-.53-.37-.23-.12-.46-.24-.69-.35-.48-.24-.96-.46-1.45-.67-.55-.24-1.11-.44-1.68-.62-.24-.08-.49-.16-.74-.22-.33-.08-.68-.1-1.01-.15-.45-.06-.95.38-1.05.8-.11.48.07.97.5 1.23Z"/><path fill="var(--color-primary)" d="M88.62 71.2c.13.02.1.01-.07-.01.05 0 .09.02.14.03.16.03.32.05.48.05.18 0 .37-.02.55-.04.46-.04.91-.15 1.36-.23.36-.06.72-.11 1.08-.17.44-.07.99-.13 1.36-.37.49-.32.76-.84.68-1.42-.07-.54-.47-1.06-1.02-1.19-.34-.08-.59-.06-.93 0-.08.01-.16.03-.24.04-.19.03-.37.06-.56.1-.37.08-.73.18-1.09.28s-.73.18-1.09.31c-.24.09-.52.2-.75.32-.15.07-.25.16-.38.27-.04.03-.07.06-.11.09.13-.1.15-.12.05-.04-.37.27-.65.73-.49 1.21s.54.73 1.03.79Z"/><path fill="var(--color-primary)" d="M93.57 70.22c.17-.13.35-.22.51-.37.1-.1.2-.2.3-.29.27-.26.48-.58.71-.88l-.22.28c.42-.55.86-1.08 1.28-1.63l-.23.3c.11-.15.23-.29.34-.44.05-.07.11-.14.16-.2.06-.08.12-.15.18-.23.13-.17.22-.36.29-.57.08-.23.06-.55 0-.79-.09-.31-.28-.57-.53-.77-.46-.36-1.13-.42-1.64-.12-.47.29-.81.86-1.14 1.31-.22.3-.42.61-.61.93s-.37.62-.54.94c-.13.24-.22.51-.31.77s-.12.51-.15.78l.04-.29v.06c-.09.43 0 .84.37 1.12.15.12.31.18.5.21.21.03.5.01.68-.13Z"/><path fill="var(--color-primary)" d="m95.29 66.27.1.04-.31-.31c.31.68 1.28.68 1.92.7.59.02 1.18.03 1.76.06s1.13.05 1.7.11c.15.02.3.03.46.05.32.04-.21-.04.14.02.3.05.6.09.9.14.74.12 1.59-.19 1.78-1.01.16-.71-.21-1.63-1.01-1.78-1.27-.23-2.6-.35-3.9-.31-.68.02-1.37.11-2.04.21s-1.66.36-1.8 1.13l.22-.39-.08.07c-.38.3-.29 1.07.16 1.26ZM73.1 107.32c.07-.25.24-.51.31-.82.07-.36.09-.72.13-1.08.06-.57.14-1.15.2-1.72s.11-1.15.18-1.72c.03-.27.07-.55.1-.82-.04.28.02-.12.02-.17.03-.18.05-.36.08-.55.13-.85-.26-1.66-1.19-1.78-.92-.12-1.52.55-1.62 1.4-.13 1.19-.24 2.38-.31 3.57-.04.6-.03 1.19-.02 1.79 0 .34.01.68.06 1.02.02.13.03.27.06.39.06.22.16.32.2.49.22.91 1.54.86 1.79 0Z"/><path fill="var(--color-primary)" d="M73.63 100.45c.39-.4.8-.79 1.15-1.22s.69-.84 1.04-1.25c.78-.92 1.45-1.94 2.15-2.92.22-.31.26-.85.16-1.21s-.38-.76-.72-.94c-.36-.19-.81-.29-1.21-.16s-.69.37-.94.72c-.64.88-1.32 1.76-1.88 2.69-.27.45-.56.9-.83 1.35-.3.48-.53.99-.79 1.49-.28.53-.18 1.17.31 1.54s1.15.34 1.57-.09Z"/><path fill="var(--color-primary)" d="M77.82 93.73c-.07-.22-.13-.44-.21-.65-.09-.26-.23-.5-.32-.76.12.3-.03-.07-.05-.12-.04-.11-.08-.22-.13-.33-.07-.19-.14-.38-.22-.57-.16-.41-.3-.82-.42-1.24-.06-.2-.11-.39-.17-.59-.08-.3-.12-.62-.3-.88-.29-.43-.84-.73-1.38-.56-.2.07-.38.17-.54.31-.25.23-.31.54-.36.86-.04.3.09.64.17.93a18 18 0 0 0 .65 1.91c.2.48.42.94.67 1.39s.58.87.93 1.27c.65.73 1.97-.04 1.66-.97Z"/><path fill="var(--color-primary)" d="M67.84 87.07c.15.78 1.21 1.06 1.87 1.25.53.15 1.06.33 1.58.52s1.04.39 1.55.59c.14.06.13.05-.03-.02.07.03.13.06.2.08l.39.18c.2.09.41.22.62.28.29.08.61.07.9-.01.6-.17 1.16-.93.89-1.57-.14-.34-.29-.61-.58-.84-.15-.12-.31-.19-.48-.27-.35-.16-.71-.31-1.07-.46-.58-.24-1.16-.46-1.77-.62s-1.26-.34-1.89-.42c-.33-.04-.67-.09-1.01-.05s-.62.1-.88.33c-.28.26-.36.66-.29 1.02Z"/><path fill="var(--color-primary)" d="M69.56 86.95c.1-.3.15-.59.18-.91q.02-.14 0 0l.03-.21c.02-.1.04-.21.05-.31.09-.51.18-1.01.29-1.51s.23-.97.39-1.45c.08-.24.16-.47.26-.71l.06-.15c-.11.26-.08.19.08-.2.1-.33.09-.61.02-.94-.2-.86-1.27-1.24-2-.81-.69.4-.91 1.28-1.13 2-.17.57-.31 1.16-.39 1.75-.16 1.19-.22 2.57.33 3.68.17.35.63.52.99.48.41-.05.69-.33.83-.71Z"/><path fill="var(--color-primary)" d="M69.24 81.64c.32.14.53.18.88.12-.32.05-.04.03.04.02.21 0 .42-.02.63-.01.48 0 .97-.04 1.46-.07s.97-.07 1.46-.11c.24-.02.49-.04.73-.07.62-.07 1.08-.28 1.44-.81.3-.43.17-1.08-.19-1.44-.59-.59-1.34-.48-2.09-.41-.54.05-1.07.11-1.61.18-1.09.13-3.22.16-3.25 1.71 0 .32.19.75.51.89Z"/><path fill="var(--color-primary)" d="M76.23 80.4c.36-.4.72-.79 1.05-1.22l-.2.27c.27-.35.55-.69.82-1.03.14-.17.27-.34.4-.51.2-.25.42-.49.59-.76.35-.58.17-1.34-.35-1.74s-1.28-.36-1.77.11c-.3.28-.54.66-.79.98-.2.26-.39.53-.58.81s-.38.53-.53.81-.3.59-.45.89c-.26.52-.18 1.12.3 1.49.43.33 1.14.34 1.52-.09Z"/><path fill="var(--color-primary)" d="M78.9 75.78c-.38-1.57-1.14-3.03-1.82-4.49-.14-.29-.52-.55-.82-.63-.33-.09-.76-.05-1.05.14s-.55.47-.63.82c-.09.37-.03.71.14 1.05.65 1.35 1.26 2.76 2.17 3.96.17.23.36.44.66.51.25.06.48.04.72-.06.51-.22.77-.76.64-1.3Z"/><path fill="var(--color-primary)" d="M76.81 72.63c.41-.51.9-.98 1.4-1.41.11-.09.32-.2.39-.32-.14.11-.17.13-.09.07l.12-.09c.05-.04.11-.08.16-.11.29-.2.58-.39.87-.58s.58-.33.88-.48l.45-.21c.18-.09-.35.14-.04.02.08-.03.16-.06.23-.09.31-.12.63-.22.95-.3.16-.04.33-.07.49-.11.45-.11.8-.42 1.05-.8.44-.68.08-1.47-.5-1.9-.78-.57-2.06-.07-2.88.24-.76.29-1.49.65-2.17 1.11-1.35.91-2.39 2.13-3.13 3.57-.27.52-.17 1.13.3 1.49.41.32 1.16.36 1.52-.09Zm8.99 12.8c-.23 4.81 2.89 8.58 7.27 10.22 4.29 1.6 9.71.94 13.41-1.8 3.69-2.74 4.88-7.33 2.99-11.53-1.92-4.28-6.49-6.5-11-6.71-2.67-.12-5.45.46-7.77 1.81-1.05.61-2.05 1.41-2.85 2.33-.92 1.07-1.37 2.24-1.8 3.57-.44 1.36 1.75 2.33 2.34.99 2.82-6.39 13.34-7.71 17.47-1.95 1.94 2.7 1.82 6.23-.69 8.49s-6.45 2.89-9.68 2.21c-3.84-.81-7.27-3.89-7.87-7.88-.16-1.07-1.76-.74-1.81.25Z"/><path fill="var(--color-primary)" d="M88.67 90.45c2.61-1.5 5.63-2.48 8.67-2.23 1.35.11 2.72.54 3.92 1.17 1.4.73 2.37 1.81 3.59 2.75s3.03-.2 2.23-1.72c-.83-1.59-2.59-2.81-4.13-3.65-1.66-.9-3.46-1.45-5.34-1.65-3.73-.4-7.67.91-10.09 3.84-.66.79.16 2.05 1.15 1.48Zm-12.7-10.56c.03-.34.13-.69.17-1.03l.12-1.03c.08-.66.1-1.32.16-1.99.11-1.29.16-2.36.52-3.51.4-1.3-1.49-2.06-2.17-.92-.71 1.21-.66 2.83-.73 4.19-.03.69-.08 1.38-.07 2.06 0 .37.03.74.06 1.11s.12.74.14 1.11c.06 1.16 1.71 1.15 1.8 0Zm-6.82 14.32c.1-1.39.22-2.78.4-4.17.09-.69.18-1.32.24-2.04s.22-1.55.02-2.28c-.25-.95-1.78-1.27-2.24-.29-.35.75-.36 1.59-.43 2.41-.06.71-.07 1.41-.08 2.12-.02 1.42-.06 2.83-.1 4.25-.01.59.51 1.09 1.09 1.09.62 0 1.04-.5 1.09-1.09Z"/><path fill="var(--color-primary)" d="M67.26 94.3c-.15.7.04 1.46.54 1.99.53.56 1.32.8 2.03 1.06.57.21 1.16.37 1.74.53.62.17 1.24.34 1.88.44.4.06.77.07 1.13-.15.3-.18.6-.53.67-.88.18-.8-.24-1.56-1.03-1.81-1.03-.33-2.09-.56-3.13-.88-.59-.18-1.19-.37-1.81-.45.43.06-.03-.02-.12-.03-.18-.04-.35-.07-.53-.08q.285.045.09 0c-.11-.04-.1-.03.04.03-.05-.02-.09-.05-.13-.07.05.02.09.05.12.1-.19-.27-.48-.44-.82-.39-.3.05-.61.27-.68.59Zm53.16 7.08c.15 0 .3 0 .45.01l-.28-.04.76.12c.23.03.44.06.67.04.14-.01.28-.02.41-.04.38-.04.74-.11 1.11-.2l.38-.09c.16-.04.32-.11.47-.18.35-.19.55-.53.68-.9.15-.44 0-1.05-.36-1.35-.21-.18-.4-.31-.66-.39-.28-.09-.58-.05-.86.02-.13.03-.25.07-.38.1-.26.07-.53.12-.78.21-.33.11-.68.2-.99.37-.23.12-.46.25-.7.38l.25-.11c-.14.05-.29.1-.43.14-.46.15-.76.57-.69 1.06s.46.82.95.84Z"/><path fill="var(--color-primary)" d="M124.79 100.2c.15-.29.35-.51.52-.83.18-.35.35-.71.49-1.08.25-.64.47-1.29.68-1.94.2-.63.4-1.26.55-1.91.16-.69.45-1.53.4-2.24-.04-.58-.38-1.11-.97-1.27-.1-.03-.24-.04-.35-.05-.43-.03-.95.27-1.14.65-.32.65-.41 1.4-.59 2.1-.17.64-.32 1.28-.5 1.92s-.37 1.27-.58 1.9c-.11.31-.19.63-.27.95s-.13.72-.2.97c-.35 1.16 1.39 1.92 1.97.83Zm-4.83-18.96c.45-.69.84-1.41 1.18-2.15.36-.8.7-1.68.86-2.55.06-.33.05-.64-.12-.94-.15-.25-.44-.49-.73-.56-.64-.15-1.31.19-1.49.85-.1.38-.18.76-.29 1.14s-.25.77-.37 1.15-.25.73-.4 1.09c-.02.04-.03.08-.05.12.06-.13.06-.14.01-.03l-.12.27-.27.57c-.24.48-.15 1.14.37 1.41s1.1.11 1.41-.37ZM72.47 99.53c-.19.55.19 1.02.51 1.43.21.27.44.53.68.78.47.5.94.99 1.43 1.47s.92.93 1.4 1.37c.67.61 1.44 1.01 2.37.8.57-.13.92-.74.85-1.29s-.57-1.09-1.16-1.02c-.06 0-.26-.02-.08.02.21.05-.06-.03-.07-.03.03-.02.22.12.06.02a2 2 0 0 0-.18-.11c-.12-.07.16.15 0 0-.05-.05-.11-.1-.16-.15-.1-.1-.21-.2-.31-.31-.47-.47-.95-.94-1.42-1.41s-.95-.9-1.43-1.33c-.27-.24-.59-.51-.9-.71-.57-.35-1.35-.23-1.58.45Z"/><path fill="var(--color-primary)" d="M79.15 105.21c.86-.47 1.76-.87 2.64-1.31.44-.22.87-.44 1.32-.65s.94-.36 1.31-.65c.28-.22.55-.45.63-.82.07-.31.05-.6-.07-.9-.28-.66-.94-.93-1.63-.8-.33.07-.66.25-.97.39-.21.09-.41.2-.61.31-.45.23-.89.48-1.33.73-.86.49-1.66 1.13-2.45 1.73-.25.19-.44.37-.52.68-.08.27-.04.64.11.88.34.53 1 .71 1.56.41Z"/><path fill="var(--color-primary)" d="M82.85 101.87c.33.69 1.26.94 1.9 1.21.53.21 1.06.39 1.6.57s1.07.37 1.62.53c.66.2 1.57.63 2.24.37.4-.16.68-.36.85-.76.16-.37.16-.83-.07-1.17-.33-.49-.75-.68-1.29-.86-.29-.09-.58-.19-.87-.28-.54-.18-1.08-.33-1.63-.49s-1.09-.32-1.64-.44c-.27-.06-.54-.12-.8-.19-.08-.02-.81-.13-.46-.08-.29-.04-.53-.08-.82 0-.72.2-.95.97-.65 1.6Z"/><path fill="var(--color-primary)" d="M89.34 103.72c.12.64.22 1.29.33 1.94s.3 1.27.46 1.9.37 1.25.58 1.87c.26.77.47 1.62 1.08 2.19.44.41 1.05.54 1.61.3s.85-.75.91-1.35c.06-.74-.32-1.45-.58-2.13-.12-.31-.23-.61-.34-.92-.08-.21-.18-.42-.26-.63-.04-.08-.07-.17-.11-.25.05.13.06.14.02.04-.27-.65-.52-1.32-.81-1.96-.25-.54-.54-1.11-.74-1.6-.23-.55-.74-.95-1.36-.77s-.89.77-.77 1.36Z"/><path fill="var(--color-primary)" d="M92.54 111.64c.55.41 1.37.55 2.04.66s1.42.17 2.13.21c.63.03 1.27 0 1.9-.03.77-.04 1.52-.08 2.25-.35.64-.24 1.06-.78.97-1.48s-.65-1.09-1.33-1.17c-.18-.02-.19-.02-.05 0-.11-.02-.22-.03-.33-.05-.22-.03-.41-.01-.63 0-.29.02-.58.04-.87.05-.63.03-1.26.02-1.9.04s-1.26-.01-1.89 0-1.4-.04-2.02.19c-.89.34-1 1.37-.25 1.93Z"/><path fill="var(--color-primary)" d="M101.81 111.02c.31-.4.62-.81.92-1.22.28-.39.5-.8.72-1.23.45-.9.84-1.88 1.1-2.85.18-.67-.23-1.47-.93-1.63s-1.41.22-1.63.93c-.27.87-.55 1.72-.84 2.58-.14.42-.31.83-.43 1.25s-.27.86-.43 1.28c-.13.36.09.86.42 1.03s.85.18 1.11-.14Z"/><path fill="var(--color-primary)" d="M103.13 105.95c.28.08.55.15.85.14.32-.01.63-.04.95-.09.48-.08.97-.17 1.45-.26s.95-.21 1.43-.32c.25-.06.5-.11.74-.17l.31-.09c.31-.1.53-.23.78-.44.74-.63.35-2.01-.58-2.21-.44-.09-.82-.03-1.24.08-.24.06-.49.14-.73.21-.47.13-.94.25-1.41.41s-.93.31-1.39.47c-.3.11-.58.24-.86.38-.26.13-.45.33-.66.53-.44.44-.23 1.2.36 1.37Z"/><path fill="var(--color-primary)" d="M108.28 104.44c.36.59 1.05.97 1.64 1.31q.765.45 1.56.87l1.53.81c.72.38 1.52.78 2.35.6.6-.13 1.12-.93.87-1.53-.12-.28-.22-.52-.44-.74-.16-.16-.37-.29-.56-.42-.22-.16-.45-.29-.69-.42l-1.59-.82c-.51-.27-1.03-.51-1.56-.76-.33-.16-.68-.29-1.02-.43s-.68-.28-1.07-.26c-.86.05-1.51.97-1.02 1.77Z"/><path fill="var(--color-primary)" d="M115.75 107.65c.96-.49 1.9-1.03 2.8-1.62.51-.34 1-.71 1.47-1.1.42-.35.89-.7 1.25-1.11.21-.24.34-.49.39-.81.04-.28.01-.66-.17-.9-.06-.07-.15-.22-.22-.28-.27-.24-.62-.43-.99-.41-.4.02-.69.17-.99.41-.41.32-.77.72-1.17 1.06s-.79.69-1.19 1.03-.77.66-1.17.97c-.05.04-.2.19 0 0-.04.04-.1.08-.15.11-.1.08-.2.15-.3.22-.23.17-.45.33-.68.49-.48.33-.75.99-.4 1.53s.97.68 1.53.4Zm-37.96 3.99.75-7.18c.03-.24-.35-.24-.38 0l-.75 7.18c-.03.24.35.24.38 0m6.28-1.32c.46-2.59.71-5.21.75-7.83 0-.24-.37-.24-.38 0-.04 2.59-.28 5.18-.73 7.73-.04.24.32.34.36.1m5.15 2.05c.57-2.68.97-5.4 1.22-8.12.02-.24-.35-.24-.38 0-.25 2.7-.65 5.38-1.21 8.03-.05.24.31.34.36.1Zm2.48 5.67c.52-2.31.95-4.64 1.26-6.99.03-.24-.33-.34-.36-.1a83 83 0 0 1-1.26 6.99c-.05.23.31.34.36.1m8.17.6 1.5-8.19c.04-.24-.32-.34-.36-.1l-1.5 8.19c-.04.24.32.34.36.1m7.41-6.64c.13-2.4.37-4.8.72-7.17.04-.24-.33-.34-.36-.1-.36 2.41-.61 4.84-.74 7.27-.01.24.36.24.38 0"/><path fill="var(--color-primary)" d="M113.79 114.17c.48-2.32.95-4.63 1.43-6.95.05-.24-.31-.34-.36-.1-.48 2.32-.95 4.63-1.43 6.95-.05.24.31.34.36.1M73.55 96.7c.18-2.43.62-4.83 1.3-7.17.07-.23-.29-.33-.36-.1-.69 2.37-1.13 4.8-1.31 7.27-.02.24.36.24.38 0Zm23.82-10.71c.61-2.77 1.05-5.57 1.31-8.39.02-.24-.35-.24-.38 0-.26 2.79-.7 5.56-1.3 8.29-.05.24.31.34.36.1Z"/><path fill="var(--color-primary)" d="M87.07 86.85c2.18-2.55 5.38-4.18 8.73-4.48s6.56.77 9.1 2.84c1.41 1.14 2.57 2.57 3.39 4.18.11.22.43.03.32-.19-1.5-2.97-4.15-5.28-7.25-6.45-3.21-1.21-6.8-1.02-9.92.38-1.77.79-3.37 1.97-4.63 3.45-.16.18.11.45.27.27Zm-8.3-16.67c3.73 3.07 7.45 6.14 11.18 9.22.18.15.45-.11.27-.27-3.73-3.07-7.45-6.14-11.18-9.22-.18-.15-.45.11-.27.27m27.27 23.62c3.21 2.78 6.32 5.67 9.33 8.66.86.86 1.72 1.72 2.56 2.6.17.17.43-.09.27-.27a186 186 0 0 0-11.89-11.25c-.18-.16-.45.11-.27.27Zm-30.49 8.18c2.98-3.27 6.25-6.28 9.76-8.98 1-.77 2.01-1.5 3.04-2.22.2-.14 0-.46-.19-.32a75.7 75.7 0 0 0-10.23 8.5c-.91.9-1.79 1.82-2.65 2.76-.16.18.1.44.27.27Zm29.61-23.08c4.13-2.06 8.46-3.7 12.92-4.88.23-.06.13-.42-.1-.36a68 68 0 0 0-13.01 4.92c-.22.11-.03.43.19.32m-41.34 58.99c.22-2.82 1.01-5.49 1.93-8.16.46-1.33.9-2.67 1.23-4.04.13-.56.17-1.41.49-1.89.39-.59.96-.37 1.56-.2 3.08.85 6.09 2 9.13 3 3.07 1.01 6.14 2.03 9.21 3.08 12.25 4.18 24.4 8.64 36.44 13.38 3.01 1.19 6.01 2.39 9.01 3.61 1.45.59 2.93 1.14 4.35 1.79 1.28.59 1.9 1.22 1.98 2.67.16 3.03-.12 6.15-.19 9.19-.03 1.44.22 3.81-.87 4.96-.66.7-1.73.5-2.58.58-.64.07-1.26.22-1.9.24-.84.02-1.58-.35-2.34-.65-2.95-1.13-5.91-2.25-8.87-3.35-6-2.24-12.02-4.44-18.03-6.65-13.45-4.93-26.89-9.91-40.26-15.06-1.48-.57-2.56 1.94-1.09 2.58 12.76 5.64 26.08 10.1 39.18 14.89 6.62 2.42 13.23 4.85 19.84 7.3 3.18 1.18 6.34 2.45 9.54 3.57 1.48.52 2.85.17 4.36.12 1.22-.04 2.37-.06 3.46-.72 1.9-1.15 2.39-3.42 2.56-5.47.25-2.97.2-5.99.28-8.97.08-3 .12-5.95-2.82-7.62-1.38-.78-2.96-1.29-4.41-1.89-1.65-.68-3.29-1.35-4.95-2.01a795 795 0 0 0-39.79-14.81c-3.75-1.28-7.51-2.54-11.28-3.76-1.85-.6-3.7-1.18-5.55-1.75-1.67-.51-3.56-1.38-5.33-1.37-3.76.02-3.86 4.63-4.57 7.35-.85 3.31-1.73 6.6-1.55 10.05.06 1.19 1.75 1.18 1.84 0Z"/><path fill="var(--color-primary)" d="M64.27 137.48c4.9 1.85 9.79 3.71 14.69 5.56s9.79 3.71 14.69 5.56 9.75 3.69 14.62 5.53c4.9 1.85 9.79 3.71 14.69 5.56s9.79 3.71 14.69 5.56l1.83.69c.23.09.32-.28.1-.36-4.9-1.85-9.79-3.71-14.69-5.56s-9.79-3.71-14.69-5.56c-4.87-1.84-9.75-3.69-14.62-5.53-4.9-1.85-9.79-3.71-14.69-5.56s-9.79-3.71-14.69-5.56l-1.83-.69c-.23-.09-.32.28-.1.36m9.86-7.17c.13-1.88.61-3.73 1.4-5.45.1-.22-.22-.41-.32-.19-.82 1.78-1.32 3.68-1.45 5.64-.02.24.36.24.38 0Zm7.4-.41c-.03-.76.21-1.5.68-2.11.06-.08.01-.21-.07-.26-.1-.06-.19-.01-.26.07-.5.65-.76 1.48-.73 2.3 0 .24.38.24.38 0m7.3 3.17c-.05-.98.18-1.95.67-2.8.12-.21-.2-.4-.32-.19-.52.9-.77 1.94-.72 2.99.01.24.39.24.38 0Zm7.6 1.79c.06-.69.43-1.36 1-1.77.08-.06.12-.16.07-.26-.05-.08-.17-.13-.26-.07-.68.49-1.11 1.25-1.18 2.09 0 .1.09.19.19.19.11 0 .18-.09.19-.19Zm7.15 5.78c.12-1.71.45-3.41.96-5.05.07-.23-.29-.33-.36-.1-.52 1.67-.85 3.4-.97 5.15-.02.24.36.24.38 0Zm7.71-.14c.1-.84.38-1.65.8-2.38.12-.21-.2-.4-.32-.19-.46.79-.74 1.67-.85 2.57-.01.1.09.19.19.19.11 0 .18-.09.19-.19Zm7.71 2.48c.07-.58.36-1.12.77-1.52.17-.17-.09-.43-.27-.27a3.05 3.05 0 0 0-.88 1.79c-.01.1.1.19.19.19.11 0 .17-.09.19-.19m7.44 3.86c.06-1.02.34-2.02.8-2.94.11-.21-.21-.4-.32-.19-.5.97-.79 2.03-.85 3.12-.01.24.36.24.38 0Zm6.42.96c.28-.32.55-.64.83-.96.06-.07.08-.19 0-.27-.07-.06-.2-.08-.27 0l-.83.96c-.06.07-.08.19 0 .27.07.06.2.08.27 0m3.17 1.57c.24 0 .24-.38 0-.38s-.24.38 0 .38M64.14 61.3c3.46 2.97 6.91 5.94 10.37 8.91.18.16.45-.11.27-.27-3.46-2.97-6.91-5.94-10.37-8.91-.18-.16-.45.11-.27.27m54.24 50.12c5.59 3.96 10.94 8.25 16.03 12.83 1.44 1.3 2.86 2.62 4.26 3.97.17.17.44-.1.27-.27a179 179 0 0 0-15.67-13.42c-1.54-1.17-3.11-2.32-4.69-3.44-.2-.14-.38.19-.19.32ZM51.81 34c4.5.22 8.86 2.13 12.14 5.21 3.42 3.22 5.45 7.68 5.77 12.36.18 2.66-.18 5.34-1.11 7.85-.08.23.28.32.36.1 1.68-4.56 1.52-9.74-.35-14.21-1.8-4.29-5.21-7.77-9.39-9.78a19.5 19.5 0 0 0-7.41-1.9c-.24-.01-.24.36 0 .38Z"/><path fill="var(--color-primary)" d="M35.46 63.49 48.75 55l13.29-8.49 13.29-8.49c4.43-2.83 8.82-5.64 13.23-8.46l13.29-8.49 1.66-1.06c.2-.13.01-.45-.19-.32l-13.29 8.49-13.29 8.49-13.29 8.49c-4.43 2.83-8.82 5.64-13.23 8.46l-13.29 8.49-1.66 1.06c-.2.13-.01.45.19.32m-10.31-7.81c-1.53.41-2.66 1.62-3.27 3.04-.7 1.63-.66 3.41-.16 5.1.58 1.93 1.68 3.65 2.82 5.29 1.19 1.71 2.47 3.35 3.83 4.92a56 56 0 0 0 4.98 5.03c.18.16.45-.1.27-.27-2.98-2.65-5.67-5.6-8.02-8.82-2.08-2.85-4.68-6.48-3.69-10.22.44-1.68 1.59-3.24 3.33-3.71.23-.06.13-.42-.1-.36Zm12.21 26.2c3.51 3.41 7.05 6.78 10.64 10.11s7.22 6.61 10.88 9.85c3.67 3.24 7.38 6.43 11.12 9.58 3.75 3.15 7.53 6.25 11.35 9.3 3.8 3.04 7.64 6.03 11.52 8.98.48.37.97.74 1.46 1.1.19.15.38-.18.19-.32q-5.865-4.425-11.61-9c-3.83-3.04-7.62-6.14-11.38-9.27q-5.61-4.68-11.1-9.51c-3.66-3.21-7.29-6.47-10.87-9.78s-7.13-6.65-10.63-10.04c-.44-.42-.87-.85-1.31-1.27-.17-.17-.44.1-.27.27Zm62.86 50.13c3.82-2.21 7.63-4.45 11.42-6.72s7.56-4.56 11.32-6.89q5.64-3.48 11.22-7.05c3.72-2.38 7.43-4.78 11.12-7.21s7.36-4.89 11.01-7.37c.45-.31.9-.61 1.35-.92.2-.14.01-.46-.19-.32-3.65 2.49-7.31 4.95-11 7.39-3.68 2.44-7.39 4.85-11.1 7.23a920 920 0 0 1-33.93 20.72c-.47.27-.94.55-1.41.82-.21.12-.02.45.19.32"/><path fill="var(--color-primary)" d="M36.97 97.66a393 393 0 0 0 31.77-21.01c2.87-2.11 5.72-4.26 8.54-6.45.19-.15-.08-.41-.27-.27-5.02 3.9-10.13 7.67-15.33 11.32-5.18 3.63-10.45 7.14-15.81 10.52-3 1.9-6.03 3.75-9.08 5.56-.21.12-.02.45.19.32Zm45.97-31.04 18.24-12.51 5.15-3.53c.2-.14.01-.46-.19-.32L87.9 62.77c-1.72 1.18-3.44 2.36-5.15 3.53-.2.14-.01.46.19.32m-68.63 9.47c5.06-2.98 9.95-6.24 14.66-9.76 1.31-.98 2.6-1.98 3.88-3 .19-.15-.08-.41-.27-.27A162 162 0 0 1 18.31 73.2c-1.39.88-2.78 1.73-4.2 2.56-.21.12-.02.45.19.32Z"/></svg>
