<svg width="480" height="196" viewBox="0 0 480 196" fill="none" xmlns="http://www.w3.org/2000/svg">
<rect width="477" height="196" transform="translate(1.5)" fill="#F7F7F7"/>
<path d="M208.228 83.0598L220.581 73.7105C222.886 71.9659 226.108 72.113 228.245 74.0608L239.552 84.3716C241.381 86.0387 241.273 88.9488 239.325 90.4752L226.323 100.667C224.378 102.191 221.61 102.066 219.811 100.372L207.9 89.162C206.097 87.4649 206.254 84.554 208.228 83.0598Z" fill="white" stroke="white" stroke-width="2"/>
<path d="M224.313 95.8569C227.682 93.2092 231.05 90.5615 234.41 87.9139C235.147 87.3342 235.954 86.5979 235.867 85.6735C235.813 85.0469 235.35 84.5377 234.92 84.0755C232.311 81.3339 229.71 78.5844 227.102 75.8427C225.95 74.6364 224.642 73.3439 222.974 73.2342C221.329 73.1245 219.872 74.1977 218.579 75.2239C216.049 77.2214 213.511 79.2189 210.981 81.2242C210.025 81.9762 208.991 82.8849 208.936 84.099C208.882 85.3759 209.931 86.3942 210.895 87.2245C213.55 89.5197 210.613 88.4857 213.268 90.7809C214.255 91.6347 219.527 96.93 220.82 97.1415C222.104 97.353 225.034 95.5044 225.159 94.204" fill="#D3E3FF"/>
<path d="M224.705 96.5383C227.83 94.2353 230.979 91.9793 234.073 89.6293C235.217 88.7598 236.627 87.8825 236.972 86.3863C237.371 84.6395 235.875 83.3862 234.802 82.2582C232.248 79.5635 229.781 76.72 227.086 74.1663C226.013 73.148 224.768 72.2629 223.264 72.0905C221.76 71.9182 220.334 72.5213 219.112 73.3595C216.096 75.4197 213.307 77.8793 210.448 80.1432C209.32 81.0362 208.137 82.0232 207.824 83.5037C207.511 84.9842 208.341 86.4098 209.391 87.4517C209.814 87.8668 210.362 88.5405 210.863 88.8382C211.169 89.0183 210.801 88.94 210.934 88.8382C210.895 88.8695 210.965 88.564 210.926 88.752C210.73 89.7077 211.216 90.444 211.866 91.102C213.104 92.3632 214.459 93.546 215.759 94.7445C216.636 95.5513 217.522 96.3503 218.462 97.0788C219.112 97.588 219.817 98.1833 220.663 98.3165C222.747 98.6612 226.279 96.4757 226.217 94.204C226.185 92.9585 224.548 92.8332 224.141 93.922C223.914 94.5173 223.036 95.0892 222.519 95.3947C222.159 95.6062 221.775 95.8177 221.368 95.9038C221.141 95.9508 221.195 95.9273 220.984 95.9508C221.062 95.943 221.133 96.0213 221.023 95.9352C219.856 95.05 218.72 94.1962 217.623 93.2013C216.535 92.2065 215.477 91.1725 214.388 90.1698C214.145 89.9427 213.887 89.739 213.652 89.504C213.534 89.3865 213.409 89.222 213.284 89.1202C213.033 88.9165 213.252 89.2377 213.26 89.2377C213.166 89.1593 213.221 89.4178 213.26 89.2768C213.299 89.1358 213.323 88.9792 213.323 88.8225C213.331 88.4543 213.229 88.1097 213.049 87.7885C212.587 86.966 211.749 86.4177 211.091 85.7675C210.057 84.7413 209.876 83.8483 210.965 82.7987C211.976 81.8195 213.166 81.0048 214.263 80.1353C215.477 79.1718 216.691 78.2162 217.905 77.2527C218.971 76.4067 220.028 75.4353 221.25 74.8165C222.472 74.1977 223.663 74.3779 224.768 75.2239C225.731 75.9602 226.53 76.9315 227.36 77.8088L230.862 81.4983C231.489 82.1642 232.123 82.8222 232.75 83.488C233.298 84.0677 234.144 84.7022 234.528 85.4072C234.849 86.0025 234.465 86.3393 234.027 86.731C233.408 87.295 232.726 87.7963 232.076 88.3212C229.264 90.6085 226.53 92.982 223.757 95.3085C223.083 95.8725 223.984 97.071 224.705 96.5383Z" fill="#D3E3FF"/>
<path d="M275.715 121.715C278.676 120.313 281.716 118.864 284.003 116.506C286.29 114.148 287.708 110.67 286.737 107.545C286.087 105.453 284.497 103.808 282.961 102.257C277.924 97.1497 272.88 92.0424 267.843 86.9351C266.112 85.1804 264.326 83.3866 262.086 82.3604C259.845 81.3342 257.009 81.2246 255.059 82.7286C253.054 84.2796 252.482 87.0682 252.466 89.5984C252.45 92.1286 252.834 94.7292 252.145 97.1732C251.056 101.059 247.562 103.706 244.288 106.048C240.411 108.821 236.533 111.602 232.656 114.375C231.426 115.26 230.133 116.169 228.629 116.396C227.133 116.623 225.378 115.95 224.901 114.508C222.308 116.811 218.422 117.563 215.156 116.381C215.219 115.824 215.281 115.276 215.336 114.72C211.513 116.725 207.15 113.459 204.08 110.427C198.33 104.748 192.228 98.3325 191.632 90.2799C191.343 86.3946 192.408 82.5014 194.155 79.0156C198.667 69.9994 207.957 63.5447 217.984 62.4637C228.01 61.3827 238.46 65.7067 244.789 73.5636C246.803 76.0546 248.456 78.9137 251.009 80.8407C253.563 82.7677 257.464 83.4649 259.853 81.3342C253.665 73.0936 246.842 65.3307 239.471 58.1241C235.013 53.7687 229.546 49.3272 223.342 49.9461C217.569 50.5179 213.245 55.2571 209.257 59.4636C199.468 69.795 188.312 78.7399 176.099 86.0499C173.608 87.5382 170.905 89.1597 169.864 91.87C168.101 96.4839 172.041 101.16 175.645 104.544C180.415 109.017 186.361 113.835 192.729 112.346C195.22 111.767 197.617 110.216 200.132 110.678C203.492 111.297 205.231 115.401 204.534 118.746C203.837 122.091 201.455 124.794 199.16 127.324C205.795 134.499 212.43 141.682 219.057 148.858C221.752 151.772 224.854 154.889 228.809 155.116C232.452 155.328 235.703 153.017 238.609 150.816C251.056 141.392 263.503 131.977 275.943 122.553" fill="#D3E3FF"/>
<path d="M276.139 122.451C279.374 120.986 283.071 119.404 285.405 116.615C287.614 113.983 288.985 110.317 287.81 106.926C287.223 105.226 286.134 103.816 284.928 102.508C283.51 100.972 282.006 99.5152 280.541 98.0269L271.204 88.5485C268.493 85.799 265.814 82.4934 262.148 81.0129C258.976 79.7282 255.098 80.1825 252.975 83.0652C250.853 85.9479 251.205 89.6844 251.26 93.0684C251.291 94.9719 251.135 96.844 250.21 98.5517C249.419 100.009 248.283 101.223 247.045 102.312C243.716 105.249 239.854 107.662 236.251 110.247C234.355 111.602 232.507 113.083 230.517 114.297C229.444 114.947 226.835 115.965 226.146 114.187C225.786 113.255 224.775 112.949 224 113.623C221.658 115.636 218.399 116.153 215.501 115.166L216.441 116.404C216.503 115.848 216.566 115.299 216.621 114.743C216.738 113.694 215.461 113.255 214.686 113.631C210.832 115.527 206.672 111.195 204.228 108.751C201.244 105.758 198.267 102.664 196.027 99.053C193.794 95.4497 192.51 91.3999 192.956 87.1307C193.403 82.8615 195.4 78.6785 197.993 75.2475C202.623 69.1375 209.774 64.8762 217.381 63.8579C225.277 62.8004 233.611 65.3149 239.729 70.383C241.469 71.8294 243.038 73.4693 244.406 75.271C245.855 77.1824 247.194 79.219 248.957 80.8719C252.106 83.825 257.151 85.3369 260.762 82.2897C261.161 81.9529 261.294 81.1304 260.965 80.6917C256.923 75.3259 252.639 70.1402 248.095 65.1895C245.839 62.7299 243.528 60.3329 241.155 57.9907C239.016 55.8757 236.799 53.8234 234.316 52.1079C231.833 50.3924 229.201 49.1469 226.279 48.7552C223.358 48.3635 220.718 48.9354 218.203 50.1809C213.025 52.7502 209.312 57.6695 205.302 61.6802C196.254 70.7042 186.134 78.5375 175.167 85.0862C172.887 86.4492 170.475 87.9532 169.119 90.3189C167.662 92.8725 167.882 95.7944 169.065 98.4029C170.318 101.16 172.496 103.479 174.673 105.531C176.843 107.576 179.123 109.558 181.645 111.148C184.066 112.675 186.784 113.819 189.666 113.991C191.139 114.077 192.635 113.858 194.045 113.419C195.455 112.981 196.951 112.221 198.487 112.025C200.946 111.712 202.576 113.498 203.116 115.738C203.751 118.347 202.544 120.853 201.056 122.937C200.186 124.159 199.168 125.271 198.165 126.384C197.656 126.948 197.641 127.754 198.165 128.318C202.858 133.387 207.542 138.463 212.234 143.531C214.529 146.014 216.785 148.536 219.127 150.972C221.023 152.939 223.115 154.795 225.676 155.821C231.622 158.195 236.831 153.863 241.296 150.487C246.842 146.288 252.388 142.082 257.942 137.883C264.161 133.167 270.381 128.459 276.609 123.744C277.196 123.305 277.478 122.584 277.094 121.903C276.765 121.331 275.833 120.979 275.253 121.417C264.624 129.462 253.986 137.507 243.356 145.552C240.849 147.447 238.39 149.437 235.797 151.207C233.611 152.704 231.011 154.161 228.253 153.73C225.7 153.33 223.6 151.583 221.822 149.821C219.621 147.651 217.584 145.309 215.493 143.037C210.362 137.483 205.239 131.93 200.108 126.376L200.108 128.311C203.617 124.441 207.597 119.451 205.419 113.913C204.565 111.751 202.85 109.832 200.476 109.377C197.335 108.774 194.719 110.686 191.734 111.171C186.063 112.096 180.885 107.591 177.047 104.035C173.522 100.776 167.913 94.9327 172.511 90.2405C174.438 88.2665 177.094 87.0289 179.405 85.5719C182.045 83.9112 184.63 82.1644 187.175 80.3549C192.251 76.7359 197.116 72.8192 201.73 68.6362C203.995 66.5757 206.202 64.452 208.349 62.2677C210.346 60.231 212.242 58.0925 214.334 56.1499C216.261 54.3639 218.422 52.664 220.945 51.8024C223.585 50.9094 226.295 51.0817 228.88 52.0687C231.551 53.087 233.925 54.8809 236.063 56.753C238.413 58.8132 240.599 61.0692 242.761 63.3174C248.447 69.2174 253.768 75.4591 258.694 82.0077L258.897 80.4097C257.44 81.6474 255.341 81.4829 253.657 80.8405C251.636 80.0729 250.108 78.4044 248.8 76.7437C247.429 75.0047 246.207 73.156 244.727 71.5032C243.317 69.9365 241.735 68.5344 240.043 67.2811C233.235 62.2364 224.391 60.0587 216.033 61.4452C207.894 62.7925 200.476 67.563 195.604 74.1744C192.862 77.903 190.927 82.3289 190.395 86.9427C189.862 91.5565 191.155 95.9354 193.434 99.8364C195.933 104.106 199.411 107.701 202.912 111.148C206.265 114.446 211.083 118.237 215.971 115.84L214.036 114.728C213.973 115.284 213.91 115.832 213.856 116.388C213.801 116.944 214.302 117.461 214.796 117.626C218.587 118.926 222.778 118.01 225.794 115.425L223.647 114.861C224.971 118.268 228.927 118.198 231.661 116.592C233.384 115.581 234.966 114.297 236.588 113.137C238.319 111.9 240.043 110.662 241.774 109.424C244.664 107.356 247.798 105.398 250.234 102.79C252.67 100.181 253.853 96.9459 253.814 93.2485C253.782 90.2562 253.077 86.0184 255.725 83.8172C258.545 81.475 262.493 83.7154 264.741 85.7207C267.82 88.4702 270.624 91.58 273.53 94.5175C276.436 97.455 279.53 100.549 282.499 103.589C283.784 104.905 285.131 106.346 285.625 108.171C286.118 109.996 285.664 111.955 284.763 113.584C282.734 117.266 278.896 119.2 275.269 120.986C274.274 121.472 275.144 122.898 276.131 122.459L276.139 122.451Z" fill="#D3E3FF"/>
<path d="M278.52 140.758C279.107 138.455 280.306 136.065 280.079 133.637C279.969 132.423 279.522 131.35 278.778 130.386C278.034 129.423 277.094 128.78 275.982 128.216C275.426 127.934 274.572 128.561 275.026 129.172C275.637 129.979 276.272 130.747 276.914 131.53C277.517 132.266 277.917 133.159 277.956 134.115C278.042 136.3 277.016 138.384 277.212 140.57C277.274 141.282 278.324 141.517 278.52 140.75L278.52 140.758Z" fill="#1F71E3"/>
<path d="M276.953 140.813C273.366 143.351 269.982 146.163 266.457 148.78C264.71 150.072 262.939 151.341 261.153 152.587C259.36 153.832 257.409 154.913 255.842 156.441C255.325 156.942 255.85 157.992 256.579 157.71C258.615 156.918 260.378 155.571 262.172 154.341C264.013 153.072 265.822 151.756 267.608 150.401C271.133 147.722 274.611 144.957 277.627 141.69C278.026 141.252 277.494 140.445 276.961 140.829L276.953 140.813Z" fill="#1F71E3"/>
<path d="M256.132 156.785C255.505 156.644 254.934 156.393 254.362 156.103C254.08 155.962 253.806 155.798 253.547 155.625C253.155 155.367 253.085 155.273 252.701 154.999C252.685 154.991 252.552 154.889 252.662 154.975C252.599 154.928 252.529 154.873 252.466 154.818C252.349 154.724 252.239 154.623 252.129 154.521C251.871 154.286 251.628 154.027 251.401 153.761C251.346 153.698 251.291 153.636 251.244 153.565C251.119 153.408 251.197 153.502 251.221 153.534C251.119 153.401 251.025 153.267 250.931 153.126C250.751 152.844 250.578 152.555 250.429 152.257C250.1 151.599 249.583 150.346 248.62 150.917C247.656 151.489 248.338 152.797 248.722 153.487C249.411 154.724 250.39 155.766 251.534 156.597C252.811 157.529 254.432 157.873 255.975 157.928C256.626 157.952 256.774 156.926 256.132 156.785Z" fill="#1F71E3"/>
<path d="M248.675 149.805C247.884 149.805 247.884 151.027 248.675 151.027C249.466 151.027 249.466 149.805 248.675 149.805ZM247.437 151.685C245.095 153.675 242.737 155.641 240.418 157.662C238.491 159.331 236.517 160.952 234.175 162.018C231.833 163.075 229.326 163.341 226.882 162.456C224.642 161.642 222.77 159.997 221.07 158.375C216.934 154.443 212.876 150.409 208.78 146.429C205.458 143.202 201.941 139.959 199.364 136.081C197.202 132.838 196.63 127.488 199.278 124.331C200.092 123.36 198.855 122.115 197.883 122.937C196.27 124.3 195.698 126.572 195.51 128.593C195.322 130.614 195.557 132.893 196.301 134.844C197.084 136.896 198.541 138.659 199.936 140.319C201.534 142.223 203.249 144.032 205.027 145.771C209.61 150.252 214.216 154.701 218.814 159.158C220.639 160.921 222.558 162.715 224.846 163.858C227.266 165.065 229.898 165.339 232.53 164.681C235.46 163.952 238.029 162.213 240.277 160.263C243.074 157.842 245.737 155.242 248.448 152.719C249.129 152.085 248.126 151.121 247.437 151.709L247.437 151.685Z" fill="#1F71E3"/>
<path d="M198.361 124.661C199.67 123.439 201.009 122.248 202.2 120.909C202.662 120.392 203.21 119.851 203.007 119.091C202.936 118.825 202.748 118.574 202.56 118.378C202.482 118.3 202.262 117.987 202.411 118.292C202.568 118.629 202.403 118.065 202.38 118.01C201.761 116.561 199.685 116.843 198.479 116.968C196.802 117.141 195.275 117.579 193.708 118.183C190.575 119.389 187.175 121.159 183.846 119.569C180.877 118.151 178.606 115.355 176.318 113.075C173.35 110.122 170.475 106.863 167.106 104.365C166.433 103.863 165.446 104.858 165.939 105.532C168.321 108.759 171.407 111.509 174.227 114.352C176.671 116.82 179.091 119.796 182.201 121.457C185.554 123.243 188.938 122.608 192.275 121.144C194.029 120.376 195.682 119.389 197.492 118.754C197.97 118.59 198.471 118.418 198.98 118.363C199.247 118.331 200.014 118.23 200.21 118.457C200.304 118.559 200.265 119.256 200.375 119.467C200.484 119.679 200.727 119.82 200.852 120.008L200.735 119.107C200.782 118.841 200.617 119.185 200.531 119.271C200.327 119.491 200.139 119.734 199.944 119.961C199.599 120.36 199.254 120.76 198.902 121.159C198.212 121.95 197.609 122.789 197.03 123.666C196.497 124.481 197.664 125.303 198.338 124.676L198.361 124.661Z" fill="#1F71E3"/>
<path d="M167.161 104.161C166.77 102.147 166.668 100.048 166.574 97.9958C166.48 95.9435 166.715 93.8911 167.678 92.0816C169.543 88.5958 173.373 86.3085 176.42 83.9663C183.893 78.2401 191.28 72.3965 198.706 66.6077C202.395 63.725 206.093 60.8502 209.782 57.9675C211.631 56.5262 213.472 55.0848 215.321 53.6513C216.966 52.3666 218.595 51.0271 220.397 49.954C221.995 48.9983 223.812 48.215 225.715 48.3873C226.695 48.4735 227.313 48.8025 228.144 49.296C230.361 50.6042 232.272 52.4293 234.121 54.2075C236.572 56.5653 238.922 59.025 241.351 61.4142C243.348 63.3882 245.479 65.1507 247.993 66.4432C248.926 66.921 249.607 65.6755 248.8 65.0723C247.892 64.3987 247.116 63.6232 246.388 62.7615C245.463 61.6727 244.421 60.717 243.419 59.7065C241.163 57.4426 238.985 55.1083 236.706 52.868C234.669 50.8705 232.554 48.8652 230.157 47.2907C227.635 45.6378 224.877 45.1443 221.955 46.1548C217.78 47.604 214.334 50.9331 210.903 53.6121C207.009 56.6515 203.108 59.6908 199.215 62.738C191.476 68.7775 183.729 74.8091 175.997 80.8643C173.937 82.478 171.861 84.076 169.864 85.7601C168.203 87.1623 166.613 88.7446 165.587 90.6795C164.498 92.724 164.106 95.0348 164.2 97.3378C164.302 99.868 165.171 102.132 165.822 104.544C166.057 105.422 167.333 105.046 167.169 104.176L167.161 104.161ZM277.259 129.752C280.353 128.037 283.22 125.82 286.016 123.666C287.246 122.718 288.413 121.684 289.001 120.211C289.588 118.738 289.604 116.945 289.142 115.409C288.938 114.72 287.708 114.579 287.599 115.409C287.411 116.788 287.646 118.339 287.035 119.631C286.424 120.924 285.163 121.739 284.074 122.553C281.473 124.512 278.763 126.376 276.28 128.475C275.559 129.086 276.483 130.191 277.267 129.752L277.259 129.752Z" fill="#1F71E3"/>
<path d="M288.084 115.887C289.62 113.991 290.943 111.798 290.693 109.26C290.442 106.722 289.024 104.474 287.591 102.5C284.473 98.2148 280.337 94.8464 276.593 91.1413C268.705 83.3471 260.981 75.4041 252.999 67.7039C248.675 63.5288 244.28 59.1578 239.189 55.9304C238.311 55.3743 237.418 56.6119 238.108 57.3326C241.633 61.0299 245.588 64.3199 249.372 67.7588C253.265 71.2994 257.049 74.9576 260.793 78.6628C264.545 82.3758 268.25 86.1436 271.948 89.9114C275.543 93.5774 279.436 96.9536 282.946 100.69C284.786 102.648 286.447 104.771 287.638 107.192C288.977 109.918 288.398 112.432 286.878 114.947C286.439 115.675 287.528 116.576 288.092 115.879L288.084 115.887Z" fill="#1F71E3"/>
<path d="M287.089 113.521C280.408 118.574 273.702 123.587 267.114 128.765L247.218 144.408C243.896 147.017 240.575 149.617 237.246 152.202C234.348 154.458 231.238 157.137 227.337 155.735C225.606 155.109 224.062 153.949 222.637 152.813C221.125 151.607 219.691 150.307 218.305 148.952C215.516 146.226 212.916 143.304 210.291 140.421C207.205 137.045 204.04 133.716 201.032 130.269C199.951 129.031 198.455 127.465 199.027 125.718C199.497 124.269 200.508 122.968 201.369 121.723C201.996 120.814 200.594 119.757 199.85 120.548C198.032 122.491 195.886 125.569 197.131 128.295C197.899 129.987 199.184 131.397 200.421 132.752C201.941 134.429 203.469 136.097 204.996 137.766C210.566 143.868 215.916 150.495 222.621 155.414C225.7 157.678 229.272 159.104 232.992 157.506C234.763 156.746 236.275 155.547 237.771 154.357C239.549 152.947 241.319 151.529 243.097 150.119C250.116 144.557 257.182 139.05 264.216 133.512C272.167 127.261 280.008 120.885 287.841 114.485C288.382 114.046 287.653 113.091 287.089 113.514L287.089 113.521Z" fill="#1F71E3"/>
<path d="M201.15 121.856C203.312 119.584 205.936 116.921 205.153 113.49C204.174 109.213 199.176 109.847 195.972 110.67C194.069 111.156 192.306 112.088 190.41 112.613C188.35 113.184 186.361 113.122 184.371 112.323C180.337 110.717 177.72 106.918 175.002 103.722C173.271 101.677 171.501 99.6641 169.801 97.5961C168.696 96.2645 167.498 94.267 168.939 92.716C169.864 91.729 168.712 90.3346 167.537 90.8986C165.837 91.7211 165.305 93.703 165.61 95.4576C165.947 97.3768 167.287 98.8886 168.509 100.33C170.107 102.21 171.705 104.09 173.295 105.97C174.673 107.591 176.044 109.221 177.666 110.607C180.768 113.263 184.536 115.636 188.805 115.26C190.81 115.088 192.682 114.312 194.507 113.521C196.333 112.73 198.181 111.727 200.21 111.915C202.49 112.127 203.422 114.258 202.67 116.263C202.098 117.783 200.946 119.373 199.905 120.61C199.192 121.456 200.351 122.678 201.142 121.848L201.15 121.856Z" fill="#1F71E3"/>
<path d="M275.716 139.684C276.029 138.713 276.295 137.749 276.287 136.723C276.28 135.697 275.99 134.593 275.504 133.668C274.642 132.008 272.653 130.966 270.796 131.365C269.872 131.561 269.018 132.102 268.25 132.642C267.483 133.183 266.754 133.856 266.535 134.788C266.057 136.802 268.29 137.655 268.799 139.355C269.104 140.366 268.713 141.541 269.308 142.473C269.95 143.476 271.486 143.797 272.175 142.677C272.676 141.862 271.697 140.992 270.914 141.415C270.953 141.392 271 141.415 271.031 141.4C271.094 141.368 270.937 141.462 270.969 141.345C270.976 141.306 271.047 141.611 271.008 141.345C271 141.267 270.976 141.188 270.976 141.11C270.961 140.906 270.976 140.703 270.976 140.499C270.976 139.802 270.875 139.089 270.616 138.431C270.334 137.718 269.958 137.084 269.433 136.527C269.159 136.23 268.485 135.775 268.493 135.329C268.493 134.953 269.01 134.585 269.269 134.389C269.786 133.989 270.381 133.551 270.992 133.331C271.446 133.167 271.987 133.12 272.371 133.449C272.755 133.778 273.068 134.318 273.326 134.773C273.695 135.431 273.875 136.128 274.055 136.856C274.243 137.632 274.368 138.494 274.219 139.285C274.039 140.256 275.394 140.648 275.708 139.692L275.716 139.684Z" fill="#1F71E3"/>
<path d="M274.705 138.948C274.086 139.293 273.491 139.645 272.896 140.021C272.3 140.397 271.728 140.812 271.156 141.22C270.953 141.361 270.796 141.525 270.734 141.776C270.671 141.995 270.702 142.293 270.828 142.489C270.953 142.685 271.141 142.857 271.384 142.912C271.627 142.967 271.901 142.967 272.097 142.818C272.708 142.348 273.326 141.886 273.914 141.392C274.462 140.93 274.979 140.46 275.496 139.966C275.731 139.747 275.739 139.363 275.543 139.113C275.347 138.862 274.995 138.784 274.705 138.948Z" fill="#1F71E3"/>
<path d="M270.162 143.664C270.475 142.692 270.741 141.729 270.734 140.703C270.726 139.677 270.436 138.572 269.95 137.648C269.089 135.987 267.099 134.945 265.242 135.345C264.318 135.541 263.464 136.081 262.697 136.622C261.929 137.162 261.2 137.836 260.981 138.768C260.503 140.781 262.736 141.635 263.245 143.335C263.55 144.345 263.159 145.52 263.754 146.452C264.396 147.455 265.932 147.776 266.621 146.656C267.122 145.841 266.143 144.972 265.36 145.395C265.399 145.371 265.446 145.395 265.477 145.379C265.54 145.348 265.383 145.442 265.415 145.324C265.423 145.285 265.493 145.591 265.454 145.324C265.446 145.246 265.423 145.168 265.423 145.089C265.407 144.886 265.423 144.682 265.423 144.478C265.423 143.781 265.321 143.068 265.062 142.41C264.78 141.698 264.404 141.063 263.879 140.507C263.605 140.209 262.932 139.755 262.939 139.308C262.939 138.932 263.456 138.564 263.715 138.368C264.232 137.969 264.827 137.53 265.438 137.311C265.893 137.146 266.433 137.099 266.817 137.428C267.201 137.757 267.514 138.298 267.773 138.752C268.141 139.41 268.321 140.107 268.501 140.836C268.689 141.611 268.814 142.473 268.666 143.264C268.485 144.236 269.841 144.627 270.154 143.672L270.162 143.664Z" fill="#1F71E3"/>
<path d="M269.151 142.928C268.532 143.272 267.937 143.625 267.342 144.001C266.746 144.377 266.174 144.792 265.603 145.199C265.399 145.34 265.242 145.505 265.18 145.755C265.117 145.975 265.148 146.272 265.274 146.468C265.399 146.664 265.587 146.836 265.83 146.891C266.073 146.946 266.347 146.946 266.543 146.797C267.154 146.327 267.772 145.865 268.36 145.372C268.908 144.909 269.425 144.439 269.942 143.946C270.177 143.727 270.185 143.343 269.989 143.092C269.794 142.841 269.441 142.763 269.151 142.928Z" fill="#1F71E3"/>
<path d="M264.608 147.651C264.921 146.68 265.188 145.716 265.18 144.69C265.172 143.664 264.882 142.559 264.396 141.635C263.535 139.974 261.545 138.933 259.689 139.332C258.764 139.528 257.91 140.068 257.143 140.609C256.375 141.149 255.647 141.823 255.427 142.755C254.949 144.768 257.182 145.622 257.691 147.322C257.997 148.333 257.605 149.508 258.2 150.44C258.843 151.442 260.378 151.764 261.067 150.643C261.569 149.829 260.589 148.959 259.806 149.382C259.845 149.359 259.892 149.382 259.924 149.367C259.986 149.335 259.83 149.429 259.861 149.312C259.869 149.273 259.939 149.578 259.9 149.312C259.892 149.233 259.869 149.155 259.869 149.077C259.853 148.873 259.869 148.669 259.869 148.466C259.869 147.769 259.767 147.056 259.508 146.398C259.226 145.685 258.85 145.05 258.326 144.494C258.051 144.197 257.378 143.742 257.386 143.296C257.386 142.92 257.903 142.552 258.161 142.356C258.678 141.956 259.273 141.518 259.884 141.298C260.339 141.134 260.879 141.087 261.263 141.416C261.647 141.745 261.96 142.285 262.219 142.74C262.587 143.398 262.767 144.095 262.947 144.823C263.135 145.599 263.261 146.46 263.112 147.252C262.932 148.223 264.287 148.615 264.6 147.659L264.608 147.651Z" fill="#1F71E3"/>
<path d="M263.597 146.915C262.979 147.26 262.383 147.612 261.788 147.988C261.193 148.364 260.621 148.779 260.049 149.187C259.845 149.328 259.689 149.492 259.626 149.743C259.563 149.962 259.595 150.26 259.72 150.456C259.845 150.651 260.033 150.824 260.276 150.879C260.519 150.933 260.793 150.933 260.989 150.785C261.6 150.315 262.219 149.852 262.806 149.359C263.355 148.897 263.872 148.427 264.389 147.933C264.624 147.714 264.631 147.33 264.436 147.079C264.24 146.829 263.887 146.75 263.597 146.915Z" fill="#1F71E3"/>
<path d="M267.71 109.941C268.893 109.925 269.605 108.766 269.707 107.701C269.809 106.635 269.175 105.664 268.36 105.069C266.691 103.839 264.052 104.904 263.699 106.949C263.605 107.497 263.621 108.069 263.817 108.594C263.918 108.86 264.036 109.119 264.2 109.346C264.381 109.596 264.545 109.8 264.858 109.894C265.054 109.954 265.263 109.959 265.462 109.91C265.704 109.847 265.963 109.62 266.002 109.369C266.065 108.978 266.002 108.672 265.751 108.351C265.657 108.226 265.791 108.398 265.798 108.406C265.791 108.374 265.751 108.343 265.736 108.312C265.689 108.233 265.657 108.139 265.603 108.069C265.61 108.085 265.681 108.288 265.634 108.139C265.626 108.108 265.61 108.069 265.595 108.038C265.571 107.967 265.556 107.897 265.54 107.826C265.54 107.795 265.532 107.748 265.516 107.716C265.516 107.732 265.532 107.959 265.532 107.803C265.532 107.716 265.524 107.638 265.532 107.552L265.532 107.442C265.532 107.317 265.493 107.654 265.516 107.536L265.563 107.325C265.579 107.278 265.595 107.239 265.603 107.192C265.626 107.098 265.673 107.145 265.563 107.27C265.61 107.215 265.642 107.113 265.681 107.051C265.697 107.019 265.72 106.988 265.744 106.957C265.806 106.855 265.61 107.113 265.689 107.019C265.736 106.964 265.783 106.91 265.838 106.855C265.861 106.831 266.065 106.659 265.924 106.769C265.806 106.87 265.9 106.784 265.939 106.769L266.057 106.698C266.12 106.667 266.198 106.635 266.253 106.596C266.12 106.698 266.073 106.667 266.167 106.635C266.198 106.62 266.237 106.612 266.268 106.596C266.339 106.573 266.409 106.557 266.48 106.541C266.511 106.541 266.558 106.534 266.59 106.526C266.355 106.596 266.433 106.549 266.543 106.541L266.872 106.541C266.872 106.549 266.597 106.487 266.77 106.526C266.841 106.541 266.912 106.559 266.981 106.581C267.016 106.59 267.051 106.603 267.083 106.62C267.248 106.675 266.919 106.534 267.02 106.596C267.083 106.635 267.154 106.667 267.208 106.706C267.24 106.722 267.271 106.745 267.302 106.769C267.404 106.831 267.138 106.628 267.232 106.714C267.287 106.761 267.342 106.808 267.396 106.863L267.475 106.941C267.577 107.058 267.475 106.949 267.443 106.894C267.522 107.019 267.6 107.137 267.671 107.27C267.741 107.411 267.639 107.199 267.639 107.184C267.639 107.223 267.671 107.278 267.686 107.317C267.71 107.395 267.725 107.474 267.741 107.56C267.78 107.716 267.725 107.474 267.725 107.466C267.725 107.521 267.741 107.575 267.741 107.63L267.741 107.873C267.741 107.998 267.78 107.662 267.757 107.779C267.749 107.826 267.741 107.865 267.725 107.912C267.718 107.944 267.71 107.983 267.694 108.014L267.671 108.092C267.647 108.155 267.663 108.124 267.71 107.998C267.663 108.038 267.631 108.155 267.592 108.21C267.577 108.241 267.514 108.343 267.592 108.226C267.671 108.108 267.592 108.226 267.561 108.257C267.561 108.257 267.483 108.32 267.483 108.327C267.483 108.327 267.757 108.069 267.357 108.421L267.287 108.492C267.177 108.602 267.436 108.39 267.287 108.492C267.005 108.68 266.817 109.04 266.926 109.385C267.036 109.73 267.334 109.972 267.686 109.965L267.71 109.941ZM259.477 116.129C260.66 116.114 261.373 114.954 261.474 113.889C261.576 112.824 260.942 111.852 260.127 111.257C258.459 110.027 255.819 111.093 255.466 113.137C255.372 113.685 255.388 114.257 255.584 114.782C255.686 115.048 255.803 115.307 255.968 115.534C256.148 115.785 256.312 115.988 256.626 116.082C256.822 116.142 257.03 116.148 257.229 116.098C257.472 116.035 257.73 115.808 257.769 115.558C257.832 115.166 257.769 114.86 257.519 114.539C257.425 114.414 257.558 114.586 257.566 114.594C257.558 114.563 257.519 114.531 257.503 114.5C257.456 114.422 257.425 114.328 257.37 114.257C257.378 114.273 257.448 114.477 257.401 114.328C257.393 114.296 257.378 114.257 257.362 114.226C257.338 114.155 257.323 114.085 257.307 114.014C257.307 113.983 257.299 113.936 257.284 113.905C257.284 113.92 257.299 114.148 257.299 113.991C257.299 113.905 257.291 113.826 257.299 113.74L257.299 113.631C257.299 113.505 257.26 113.842 257.284 113.725L257.331 113.513C257.346 113.466 257.362 113.427 257.37 113.38C257.393 113.286 257.44 113.333 257.331 113.458C257.378 113.403 257.409 113.302 257.448 113.239C257.464 113.208 257.487 113.176 257.511 113.145C257.573 113.043 257.378 113.302 257.456 113.208C257.503 113.153 257.55 113.098 257.605 113.043C257.628 113.02 257.832 112.847 257.691 112.957C257.573 113.059 257.667 112.973 257.707 112.957L257.824 112.886C257.887 112.855 257.965 112.824 258.02 112.785C257.887 112.886 257.84 112.855 257.934 112.824C257.965 112.808 258.004 112.8 258.036 112.785C258.106 112.761 258.177 112.745 258.247 112.73C258.278 112.73 258.325 112.722 258.357 112.714C258.122 112.785 258.2 112.738 258.31 112.73L258.639 112.73C258.639 112.738 258.365 112.675 258.537 112.714C258.608 112.729 258.679 112.747 258.748 112.769C258.784 112.779 258.818 112.792 258.85 112.808C259.015 112.863 258.686 112.722 258.788 112.785C258.85 112.824 258.921 112.855 258.976 112.894C259.007 112.91 259.038 112.933 259.07 112.957C259.171 113.02 258.905 112.816 258.999 112.902C259.054 112.949 259.109 112.996 259.164 113.051L259.242 113.129C259.344 113.247 259.242 113.137 259.211 113.082C259.289 113.208 259.367 113.325 259.438 113.458C259.508 113.599 259.406 113.388 259.406 113.372C259.406 113.411 259.438 113.466 259.453 113.505C259.477 113.584 259.493 113.662 259.508 113.748C259.547 113.905 259.493 113.662 259.493 113.654C259.493 113.709 259.508 113.764 259.508 113.819L259.508 114.061C259.508 114.187 259.547 113.85 259.524 113.967C259.516 114.014 259.508 114.054 259.493 114.101C259.485 114.132 259.477 114.171 259.461 114.202L259.438 114.281C259.414 114.343 259.43 114.312 259.477 114.187C259.43 114.226 259.399 114.343 259.359 114.398C259.344 114.43 259.281 114.531 259.359 114.414C259.438 114.296 259.359 114.414 259.328 114.445C259.328 114.445 259.25 114.508 259.25 114.516C259.25 114.516 259.524 114.257 259.124 114.61L259.054 114.68C258.944 114.79 259.203 114.578 259.054 114.68C258.772 114.868 258.584 115.229 258.694 115.573C258.803 115.918 259.101 116.161 259.453 116.153L259.477 116.129ZM227.932 133.457C229.115 133.441 229.828 132.282 229.93 131.216C230.031 130.151 229.397 129.18 228.582 128.584C226.914 127.355 224.274 128.42 223.921 130.464C223.827 131.013 223.843 131.585 224.039 132.109C224.141 132.376 224.258 132.634 224.423 132.861C224.603 133.112 224.767 133.316 225.081 133.41C225.277 133.47 225.485 133.475 225.684 133.425C225.927 133.363 226.185 133.136 226.224 132.885C226.287 132.493 226.224 132.188 225.974 131.867C225.88 131.741 226.013 131.914 226.021 131.921C226.013 131.89 225.974 131.859 225.958 131.827C225.911 131.749 225.88 131.655 225.825 131.585C225.833 131.6 225.903 131.804 225.856 131.655C225.848 131.624 225.833 131.585 225.817 131.553C225.794 131.483 225.778 131.412 225.762 131.342C225.762 131.31 225.754 131.263 225.739 131.232C225.739 131.248 225.754 131.475 225.754 131.318C225.754 131.232 225.747 131.154 225.754 131.068L225.754 130.958C225.754 130.833 225.715 131.169 225.739 131.052L225.786 130.84C225.801 130.793 225.817 130.754 225.825 130.707C225.848 130.613 225.895 130.66 225.786 130.786C225.833 130.731 225.864 130.629 225.903 130.566C225.919 130.535 225.942 130.504 225.966 130.472C226.029 130.37 225.833 130.629 225.911 130.535C225.958 130.48 226.005 130.425 226.06 130.37C226.083 130.347 226.287 130.175 226.146 130.284C226.029 130.386 226.123 130.3 226.162 130.284L226.279 130.214C226.342 130.182 226.42 130.151 226.475 130.112C226.342 130.214 226.295 130.182 226.389 130.151C226.42 130.135 226.459 130.128 226.491 130.112C226.561 130.088 226.632 130.073 226.702 130.057C226.734 130.057 226.781 130.049 226.812 130.041C226.577 130.112 226.655 130.065 226.765 130.057L227.094 130.057C227.094 130.065 226.82 130.002 226.992 130.041C227.063 130.056 227.134 130.075 227.204 130.096C227.239 130.106 227.273 130.119 227.305 130.135C227.47 130.19 227.141 130.049 227.243 130.112C227.305 130.151 227.376 130.182 227.431 130.222C227.462 130.237 227.493 130.261 227.525 130.284C227.627 130.347 227.36 130.143 227.454 130.229C227.509 130.276 227.564 130.323 227.619 130.378L227.697 130.457C227.799 130.574 227.697 130.464 227.666 130.41C227.744 130.535 227.822 130.652 227.893 130.786C227.963 130.927 227.862 130.715 227.862 130.699C227.862 130.739 227.893 130.793 227.909 130.833C227.932 130.911 227.948 130.989 227.963 131.075C228.003 131.232 227.948 130.989 227.948 130.981C227.948 131.036 227.963 131.091 227.963 131.146L227.963 131.389C227.963 131.514 228.003 131.177 227.979 131.295C227.971 131.342 227.963 131.381 227.948 131.428C227.94 131.459 227.932 131.498 227.916 131.53L227.893 131.608C227.869 131.671 227.885 131.639 227.932 131.514C227.885 131.553 227.854 131.671 227.815 131.726C227.799 131.757 227.736 131.859 227.815 131.741C227.893 131.624 227.815 131.741 227.783 131.773C227.783 131.773 227.705 131.835 227.705 131.843C227.705 131.843 227.979 131.585 227.58 131.937L227.509 132.008C227.399 132.117 227.658 131.906 227.509 132.008C227.227 132.196 227.039 132.556 227.149 132.901C227.258 133.245 227.556 133.488 227.909 133.48L227.932 133.457ZM252.811 133.457C253.994 133.441 254.706 132.282 254.808 131.216C254.91 130.151 254.276 129.18 253.461 128.584C251.792 127.355 249.153 128.42 248.8 130.464C248.706 131.013 248.722 131.585 248.918 132.109C249.019 132.376 249.137 132.634 249.301 132.861C249.482 133.112 249.646 133.316 249.959 133.41C250.155 133.47 250.364 133.475 250.563 133.425C250.805 133.363 251.064 133.136 251.103 132.885C251.166 132.493 251.103 132.188 250.852 131.867C250.758 131.741 250.892 131.914 250.899 131.921C250.892 131.89 250.852 131.859 250.837 131.827C250.79 131.749 250.758 131.655 250.704 131.585C250.711 131.6 250.782 131.804 250.735 131.655C250.727 131.624 250.711 131.585 250.696 131.553C250.672 131.483 250.657 131.412 250.641 131.342C250.641 131.31 250.633 131.263 250.617 131.232C250.617 131.248 250.633 131.475 250.633 131.318C250.633 131.232 250.625 131.154 250.633 131.068L250.633 130.958C250.633 130.833 250.594 131.169 250.617 131.052L250.664 130.84C250.68 130.793 250.696 130.754 250.704 130.707C250.727 130.613 250.774 130.66 250.664 130.786C250.711 130.731 250.743 130.629 250.782 130.566C250.798 130.535 250.821 130.504 250.845 130.472C250.907 130.37 250.711 130.629 250.79 130.535C250.837 130.48 250.884 130.425 250.939 130.37C250.962 130.347 251.166 130.175 251.025 130.284C250.907 130.386 251.001 130.3 251.04 130.284L251.158 130.214C251.221 130.182 251.299 130.151 251.354 130.112C251.221 130.214 251.174 130.182 251.268 130.151C251.299 130.135 251.338 130.128 251.369 130.112C251.44 130.088 251.51 130.073 251.581 130.057C251.612 130.057 251.659 130.049 251.691 130.041C251.456 130.112 251.534 130.065 251.644 130.057L251.973 130.057C251.973 130.065 251.698 130.002 251.871 130.041C251.942 130.056 252.013 130.075 252.082 130.096C252.117 130.106 252.152 130.119 252.184 130.135C252.349 130.19 252.02 130.049 252.121 130.112C252.184 130.151 252.255 130.182 252.309 130.222C252.341 130.237 252.372 130.261 252.403 130.284C252.505 130.347 252.239 130.143 252.333 130.229C252.388 130.276 252.443 130.323 252.497 130.378L252.576 130.457C252.678 130.574 252.576 130.464 252.544 130.41C252.623 130.535 252.701 130.652 252.772 130.786C252.842 130.927 252.74 130.715 252.74 130.699C252.74 130.739 252.772 130.793 252.787 130.833C252.811 130.911 252.826 130.989 252.842 131.075C252.881 131.232 252.826 130.989 252.826 130.981C252.826 131.036 252.842 131.091 252.842 131.146L252.842 131.389C252.842 131.514 252.881 131.177 252.858 131.295C252.85 131.342 252.842 131.381 252.826 131.428C252.819 131.459 252.811 131.498 252.795 131.53L252.772 131.608C252.748 131.671 252.764 131.639 252.811 131.514C252.764 131.553 252.732 131.671 252.693 131.726C252.678 131.757 252.615 131.859 252.693 131.741C252.772 131.624 252.693 131.741 252.662 131.773C252.662 131.773 252.584 131.835 252.584 131.843C252.584 131.843 252.858 131.585 252.458 131.937L252.388 132.008C252.278 132.117 252.537 131.906 252.388 132.008C252.106 132.196 251.918 132.556 252.027 132.901C252.137 133.245 252.435 133.488 252.787 133.48L252.811 133.457ZM237.967 124.934C239.149 124.918 239.862 123.759 239.964 122.694C240.066 121.628 239.431 120.657 238.617 120.062C236.948 118.832 234.308 119.897 233.956 121.942C233.862 122.49 233.878 123.062 234.073 123.587C234.175 123.853 234.293 124.112 234.457 124.339C234.637 124.589 234.802 124.793 235.115 124.887C235.311 124.947 235.52 124.952 235.718 124.903C235.961 124.84 236.22 124.613 236.259 124.362C236.322 123.971 236.259 123.665 236.008 123.344C235.914 123.219 236.047 123.391 236.055 123.399C236.047 123.367 236.008 123.336 235.993 123.305C235.946 123.226 235.914 123.132 235.859 123.062C235.867 123.078 235.938 123.281 235.891 123.132C235.883 123.101 235.867 123.062 235.852 123.031C235.828 122.96 235.812 122.89 235.797 122.819C235.797 122.788 235.789 122.741 235.773 122.709C235.773 122.725 235.789 122.952 235.789 122.796C235.789 122.709 235.781 122.631 235.789 122.545L235.789 122.435C235.789 122.31 235.75 122.647 235.773 122.529L235.82 122.318C235.836 122.271 235.852 122.232 235.859 122.185C235.883 122.091 235.93 122.138 235.82 122.263C235.867 122.208 235.899 122.106 235.938 122.044C235.953 122.012 235.977 121.981 236 121.95C236.063 121.848 235.867 122.106 235.946 122.012C235.993 121.957 236.04 121.903 236.094 121.848C236.118 121.824 236.322 121.652 236.181 121.762C236.063 121.863 236.157 121.777 236.196 121.762L236.314 121.691C236.376 121.66 236.455 121.628 236.51 121.589C236.376 121.691 236.329 121.66 236.423 121.628C236.455 121.613 236.494 121.605 236.525 121.589C236.596 121.566 236.666 121.55 236.737 121.534C236.768 121.534 236.815 121.527 236.846 121.519C236.611 121.589 236.69 121.542 236.799 121.534L237.128 121.534C237.128 121.542 236.854 121.48 237.027 121.519C237.098 121.534 237.169 121.552 237.238 121.574C237.273 121.583 237.307 121.596 237.34 121.613C237.504 121.668 237.175 121.527 237.277 121.589C237.34 121.628 237.41 121.66 237.465 121.699C237.497 121.715 237.528 121.738 237.559 121.762C237.661 121.824 237.395 121.621 237.489 121.707C237.544 121.754 237.598 121.801 237.653 121.856L237.732 121.934C237.833 122.051 237.732 121.942 237.7 121.887C237.779 122.012 237.857 122.13 237.927 122.263C237.998 122.404 237.896 122.192 237.896 122.177C237.896 122.216 237.927 122.271 237.943 122.31C237.967 122.388 237.982 122.467 237.998 122.553C238.037 122.709 237.982 122.467 237.982 122.459C237.982 122.514 237.998 122.568 237.998 122.623L237.998 122.866C237.998 122.991 238.037 122.655 238.014 122.772C238.006 122.819 237.998 122.858 237.982 122.905C237.974 122.937 237.967 122.976 237.951 123.007L237.927 123.085C237.904 123.148 237.92 123.117 237.967 122.991C237.92 123.031 237.888 123.148 237.849 123.203C237.833 123.234 237.771 123.336 237.849 123.219C237.927 123.101 237.849 123.219 237.818 123.25C237.818 123.25 237.739 123.313 237.739 123.32C237.739 123.32 238.014 123.062 237.614 123.414L237.544 123.485C237.434 123.595 237.692 123.383 237.544 123.485C237.262 123.673 237.074 124.033 237.183 124.378C237.293 124.723 237.591 124.965 237.943 124.958L237.967 124.934ZM244.468 113.56C245.651 113.544 246.364 112.385 246.466 111.32C246.568 110.254 245.933 109.283 245.118 108.688C243.45 107.458 240.81 108.523 240.458 110.568C240.364 111.116 240.379 111.688 240.575 112.213C240.677 112.479 240.794 112.738 240.959 112.965C241.139 113.215 241.304 113.419 241.617 113.513C241.813 113.573 242.021 113.578 242.22 113.529C242.463 113.466 242.721 113.239 242.761 112.988C242.823 112.597 242.761 112.291 242.51 111.97C242.416 111.845 242.549 112.017 242.557 112.025C242.549 111.993 242.51 111.962 242.494 111.931C242.447 111.852 242.416 111.758 242.361 111.688C242.369 111.704 242.439 111.907 242.392 111.758C242.385 111.727 242.369 111.688 242.353 111.657C242.33 111.586 242.314 111.516 242.298 111.445C242.298 111.414 242.291 111.367 242.275 111.335C242.275 111.351 242.291 111.578 242.291 111.422C242.291 111.335 242.283 111.257 242.291 111.171L242.291 111.061C242.291 110.936 242.251 111.273 242.275 111.155L242.322 110.944C242.338 110.897 242.353 110.858 242.361 110.811C242.385 110.717 242.432 110.764 242.322 110.889C242.369 110.834 242.4 110.732 242.439 110.67C242.455 110.638 242.479 110.607 242.502 110.576C242.565 110.474 242.369 110.732 242.447 110.638C242.494 110.583 242.541 110.529 242.596 110.474C242.62 110.45 242.823 110.278 242.682 110.388C242.565 110.489 242.659 110.403 242.698 110.388L242.815 110.317C242.878 110.286 242.956 110.254 243.011 110.215C242.878 110.317 242.831 110.286 242.925 110.254C242.956 110.239 242.996 110.231 243.027 110.215C243.097 110.192 243.168 110.176 243.238 110.16C243.27 110.16 243.317 110.153 243.348 110.145C243.113 110.215 243.191 110.168 243.301 110.16L243.63 110.16C243.63 110.168 243.356 110.106 243.528 110.145C243.6 110.16 243.67 110.178 243.74 110.2C243.775 110.209 243.809 110.222 243.842 110.239C244.006 110.294 243.677 110.153 243.779 110.215C243.842 110.254 243.912 110.286 243.967 110.325C243.998 110.341 244.03 110.364 244.061 110.388C244.163 110.45 243.896 110.247 243.99 110.333C244.045 110.38 244.1 110.427 244.155 110.482L244.233 110.56C244.335 110.677 244.233 110.568 244.202 110.513C244.28 110.638 244.359 110.756 244.429 110.889C244.5 111.03 244.398 110.818 244.398 110.803C244.398 110.842 244.429 110.897 244.445 110.936C244.468 111.014 244.484 111.093 244.5 111.179C244.539 111.335 244.484 111.093 244.484 111.085C244.484 111.14 244.5 111.194 244.5 111.249L244.5 111.492C244.5 111.617 244.539 111.281 244.515 111.398C244.507 111.445 244.5 111.484 244.484 111.531C244.476 111.563 244.468 111.602 244.453 111.633L244.429 111.711C244.406 111.774 244.421 111.743 244.468 111.617C244.421 111.657 244.39 111.774 244.351 111.829C244.335 111.86 244.272 111.962 244.351 111.845C244.429 111.727 244.351 111.845 244.319 111.876C244.319 111.876 244.241 111.939 244.241 111.946C244.241 111.946 244.515 111.688 244.116 112.04L244.045 112.111C243.936 112.221 244.194 112.009 244.045 112.111C243.763 112.299 243.575 112.659 243.685 113.004C243.795 113.349 244.092 113.591 244.445 113.584L244.468 113.56ZM189.596 102.554C190.779 102.539 191.491 101.379 191.593 100.314C191.695 99.2486 191.061 98.2773 190.246 97.6819C188.577 96.4521 185.938 97.5174 185.585 99.5619C185.491 100.11 185.507 100.682 185.703 101.207C185.804 101.473 185.922 101.732 186.086 101.959C186.267 102.21 186.431 102.413 186.744 102.507C186.94 102.567 187.149 102.573 187.348 102.523C187.59 102.46 187.849 102.233 187.888 101.982C187.951 101.591 187.888 101.285 187.637 100.964C187.543 100.839 187.677 101.011 187.684 101.019C187.677 100.988 187.637 100.956 187.622 100.925C187.575 100.847 187.543 100.753 187.489 100.682C187.496 100.698 187.567 100.901 187.52 100.753C187.512 100.721 187.496 100.682 187.481 100.651C187.457 100.58 187.442 100.51 187.426 100.439C187.426 100.408 187.418 100.361 187.402 100.33C187.402 100.345 187.418 100.572 187.418 100.416C187.418 100.33 187.41 100.251 187.418 100.165L187.418 100.055C187.418 99.9301 187.379 100.267 187.402 100.149L187.449 99.9379C187.465 99.8909 187.481 99.8518 187.489 99.8048C187.512 99.7108 187.559 99.7578 187.449 99.8831C187.496 99.8283 187.528 99.7264 187.567 99.6638C187.583 99.6324 187.606 99.6011 187.63 99.5698C187.692 99.4679 187.496 99.7264 187.575 99.6324C187.622 99.5776 187.669 99.5228 187.724 99.4679C187.747 99.4444 187.951 99.2721 187.81 99.3818C187.692 99.4836 187.786 99.3974 187.825 99.3818L187.943 99.3113C188.006 99.2799 188.084 99.2486 188.139 99.2094C188.006 99.3113 187.959 99.2799 188.053 99.2486C188.084 99.2329 188.123 99.2251 188.154 99.2094C188.225 99.1859 188.295 99.1703 188.366 99.1546C188.397 99.1546 188.444 99.1468 188.476 99.1389C188.241 99.2094 188.319 99.1624 188.429 99.1546L188.758 99.1546C188.758 99.1624 188.483 99.0998 188.656 99.1389C188.727 99.1539 188.798 99.1722 188.867 99.1938C188.902 99.2034 188.937 99.2165 188.969 99.2329C189.134 99.2878 188.805 99.1468 188.906 99.2094C188.969 99.2486 189.04 99.2799 189.094 99.3191C189.126 99.3348 189.157 99.3583 189.188 99.3818C189.29 99.4444 189.024 99.2408 189.118 99.3269C189.173 99.3739 189.228 99.4209 189.282 99.4758L189.361 99.5541C189.463 99.6716 189.361 99.5619 189.329 99.5071C189.408 99.6324 189.486 99.7499 189.557 99.8831C189.627 100.024 189.525 99.8126 189.525 99.7969C189.525 99.8361 189.557 99.8909 189.572 99.9301C189.596 100.008 189.611 100.087 189.627 100.173C189.666 100.33 189.611 100.087 189.611 100.079C189.611 100.134 189.627 100.189 189.627 100.243L189.627 100.486C189.627 100.612 189.666 100.275 189.643 100.392C189.635 100.439 189.627 100.478 189.611 100.525C189.604 100.557 189.596 100.596 189.58 100.627L189.557 100.706C189.533 100.768 189.549 100.737 189.596 100.612C189.549 100.651 189.517 100.768 189.478 100.823C189.463 100.854 189.4 100.956 189.478 100.839C189.557 100.721 189.478 100.839 189.447 100.87C189.447 100.87 189.369 100.933 189.369 100.941C189.369 100.941 189.643 100.682 189.243 101.035L189.173 101.105C189.063 101.215 189.322 101.003 189.173 101.105C188.891 101.293 188.703 101.653 188.812 101.998C188.922 102.343 189.22 102.586 189.572 102.578L189.596 102.554Z" fill="#1F71E3"/>
<path d="M278.747 112.385C280.102 112.612 281.449 111.994 282.1 110.764C282.797 109.44 282.46 107.834 281.528 106.722C280.596 105.609 279.021 105.241 277.627 105.508C276.232 105.774 274.987 106.824 274.658 108.171C274.47 108.939 274.58 109.73 274.909 110.443C275.238 111.155 275.958 111.868 276.789 111.9C277.619 111.931 278.011 110.866 277.454 110.302C277.337 110.184 277.219 110.098 277.086 110.004C277.047 109.973 277 109.949 276.961 109.918C276.977 109.926 277.078 110.027 277.016 109.949C276.984 109.91 276.937 109.879 276.906 109.839C276.883 109.816 276.789 109.683 276.859 109.792C276.93 109.902 276.859 109.792 276.843 109.769C276.812 109.714 276.773 109.659 276.749 109.597C276.734 109.565 276.671 109.409 276.718 109.542C276.765 109.675 276.718 109.51 276.702 109.479C276.679 109.409 276.616 109.275 276.64 109.213C276.601 109.338 276.64 109.354 276.648 109.252L276.648 109.095C276.648 108.939 276.695 109.095 276.632 109.142C276.648 109.134 276.655 109.009 276.663 108.986C276.679 108.931 276.695 108.876 276.71 108.829C276.757 108.641 276.702 108.821 276.687 108.852C276.718 108.751 276.781 108.649 276.828 108.555C276.875 108.469 276.93 108.39 276.977 108.312C277.055 108.179 276.851 108.445 276.961 108.335C277.008 108.288 277.055 108.234 277.102 108.179C277.172 108.108 277.243 108.046 277.313 107.983C277.423 107.881 277.165 108.077 277.29 107.999C277.329 107.975 277.36 107.952 277.392 107.928C277.486 107.865 277.588 107.818 277.682 107.764C277.729 107.74 277.854 107.654 277.65 107.764C277.713 107.724 277.791 107.709 277.854 107.693C277.956 107.662 278.05 107.638 278.152 107.615C278.206 107.607 278.269 107.583 278.324 107.583C278.285 107.583 278.097 107.599 278.3 107.591C278.402 107.591 278.504 107.583 278.606 107.591C278.661 107.591 278.723 107.599 278.778 107.599C278.911 107.599 278.59 107.552 278.794 107.599C278.896 107.623 278.998 107.638 279.092 107.67C279.146 107.685 279.201 107.701 279.256 107.724C279.287 107.74 279.46 107.811 279.327 107.748C279.209 107.685 279.342 107.756 279.358 107.764C279.413 107.795 279.46 107.818 279.515 107.85C279.569 107.881 279.616 107.912 279.663 107.944C279.836 108.046 279.601 107.873 279.679 107.959C279.75 108.03 279.82 108.093 279.891 108.163C279.93 108.202 279.961 108.249 280 108.288C279.851 108.124 279.953 108.218 279.977 108.273C280.032 108.367 280.094 108.461 280.149 108.563C280.165 108.602 280.188 108.641 280.204 108.672C280.267 108.782 280.149 108.492 280.204 108.68C280.235 108.79 280.274 108.892 280.298 109.001C280.306 109.04 280.314 109.08 280.321 109.127C280.361 109.275 280.321 108.939 280.321 109.087C280.321 109.181 280.337 109.283 280.329 109.377C280.329 109.401 280.329 109.518 280.321 109.542C280.345 109.416 280.345 109.385 280.329 109.471C280.329 109.495 280.321 109.526 280.314 109.55C280.29 109.667 280.251 109.785 280.212 109.902C280.188 109.965 280.126 110.043 280.22 109.879C280.188 109.933 280.157 109.996 280.126 110.059C280.102 110.09 280.086 110.129 280.063 110.161C279.938 110.372 280.188 110.027 280.024 110.215C279.953 110.294 279.875 110.372 279.797 110.45C279.757 110.49 279.718 110.529 279.679 110.56C279.663 110.576 279.499 110.709 279.585 110.638C279.663 110.576 279.562 110.654 279.546 110.662C279.475 110.701 279.413 110.748 279.342 110.787C279.311 110.803 279.272 110.826 279.233 110.842C279.154 110.873 279.311 110.826 279.17 110.858C279.115 110.873 279.068 110.889 279.013 110.897C278.99 110.897 278.778 110.928 278.904 110.92C278.535 110.96 278.214 111.179 278.167 111.571C278.128 111.907 278.332 112.33 278.7 112.393L278.747 112.385Z" fill="#1F71E3"/>
<path d="M278.614 108.571C277.987 108.571 277.979 109.55 278.614 109.55C279.248 109.55 279.248 108.571 278.614 108.571Z" fill="#1F71E3"/>
<path d="M229.499 151.137C230.854 151.364 232.201 150.746 232.851 149.516C233.549 148.192 233.212 146.586 232.28 145.474C231.34 144.361 229.773 143.993 228.379 144.26C226.984 144.526 225.739 145.576 225.41 146.923C225.222 147.691 225.331 148.482 225.66 149.195C225.989 149.907 226.71 150.62 227.54 150.652C228.371 150.683 228.762 149.618 228.206 149.054C228.089 148.936 227.971 148.85 227.838 148.756C227.799 148.725 227.752 148.701 227.713 148.67C227.728 148.678 227.83 148.779 227.768 148.701C227.736 148.662 227.689 148.631 227.658 148.591C227.634 148.568 227.54 148.435 227.611 148.544C227.681 148.654 227.611 148.544 227.595 148.521C227.564 148.466 227.525 148.411 227.501 148.349C227.486 148.317 227.423 148.161 227.47 148.294C227.517 148.427 227.47 148.262 227.454 148.231C227.431 148.161 227.368 148.027 227.392 147.965C227.352 148.09 227.392 148.106 227.399 148.004L227.399 147.847C227.399 147.691 227.446 147.847 227.384 147.894C227.399 147.886 227.407 147.761 227.415 147.738C227.431 147.683 227.446 147.628 227.462 147.581C227.509 147.393 227.454 147.573 227.439 147.604C227.47 147.503 227.533 147.401 227.58 147.307C227.627 147.221 227.681 147.142 227.728 147.064C227.807 146.931 227.603 147.197 227.713 147.087C227.76 147.04 227.807 146.986 227.854 146.931C227.924 146.86 227.995 146.798 228.065 146.735C228.175 146.633 227.916 146.829 228.042 146.751C228.081 146.727 228.112 146.704 228.144 146.68C228.238 146.617 228.339 146.57 228.433 146.516C228.48 146.492 228.606 146.406 228.402 146.516C228.465 146.476 228.543 146.461 228.606 146.445C228.708 146.414 228.802 146.39 228.903 146.367C228.958 146.359 229.021 146.335 229.076 146.335C229.037 146.335 228.849 146.351 229.052 146.343C229.154 146.343 229.256 146.335 229.358 146.343C229.413 146.343 229.475 146.351 229.53 146.351C229.663 146.351 229.342 146.304 229.546 146.351C229.648 146.375 229.749 146.39 229.843 146.422C229.898 146.437 229.953 146.453 230.008 146.476C230.039 146.492 230.212 146.563 230.078 146.5C229.961 146.437 230.094 146.508 230.11 146.516C230.165 146.547 230.212 146.57 230.266 146.602C230.321 146.633 230.368 146.664 230.415 146.696C230.588 146.798 230.353 146.625 230.431 146.711C230.501 146.782 230.572 146.845 230.642 146.915C230.682 146.954 230.713 147.001 230.752 147.04C230.603 146.876 230.705 146.97 230.729 147.025C230.783 147.119 230.846 147.213 230.901 147.315C230.917 147.354 230.94 147.393 230.956 147.424C231.018 147.534 230.901 147.244 230.956 147.432C230.987 147.542 231.026 147.644 231.05 147.753C231.058 147.792 231.065 147.832 231.073 147.879C231.112 148.027 231.073 147.691 231.073 147.839C231.073 147.933 231.089 148.035 231.081 148.129C231.081 148.153 231.081 148.27 231.073 148.294C231.097 148.168 231.097 148.137 231.081 148.223C231.081 148.247 231.073 148.278 231.065 148.302C231.042 148.419 231.003 148.537 230.964 148.654C230.94 148.717 230.877 148.795 230.971 148.631C230.94 148.685 230.909 148.748 230.877 148.811C230.854 148.842 230.838 148.881 230.815 148.913C230.689 149.124 230.94 148.779 230.776 148.967C230.705 149.046 230.627 149.124 230.548 149.202C230.509 149.242 230.47 149.281 230.431 149.312C230.415 149.328 230.251 149.461 230.337 149.39C230.415 149.328 230.313 149.406 230.298 149.414C230.227 149.453 230.165 149.5 230.094 149.539C230.063 149.555 230.024 149.578 229.984 149.594C229.906 149.625 230.063 149.578 229.922 149.61C229.867 149.625 229.82 149.641 229.765 149.649C229.742 149.649 229.53 149.68 229.655 149.672C229.287 149.712 228.966 149.931 228.919 150.323C228.88 150.659 229.084 151.082 229.452 151.145L229.499 151.137Z" fill="#1F71E3"/>
<path d="M229.366 147.323C228.739 147.323 228.731 148.302 229.366 148.302C230 148.302 230 147.323 229.366 147.323Z" fill="#1F71E3"/>
<path d="M174.399 96.6558C175.754 96.883 177.102 96.2641 177.752 95.0343C178.449 93.7105 178.112 92.1047 177.18 90.9923C176.248 89.88 174.673 89.5118 173.279 89.7781C171.955 90.0288 170.639 91.0941 170.31 92.4415C170.122 93.2091 170.232 94.0003 170.561 94.7132C170.89 95.426 171.61 96.1388 172.441 96.1701C173.263 96.1936 173.663 95.1362 173.107 94.5722C172.989 94.4547 172.872 94.3685 172.738 94.2745C172.699 94.2431 172.652 94.2196 172.613 94.1883C172.629 94.1961 172.731 94.298 172.668 94.2196C172.637 94.1805 172.59 94.1491 172.558 94.11C172.535 94.0865 172.441 93.9533 172.511 94.063C172.582 94.1726 172.511 94.063 172.496 94.0395C172.464 93.9847 172.425 93.9298 172.402 93.8671C172.386 93.8358 172.323 93.6791 172.37 93.8123C172.417 93.9455 172.37 93.781 172.355 93.7496C172.331 93.6791 172.268 93.546 172.292 93.4833C172.253 93.6087 172.292 93.6243 172.3 93.5225L172.3 93.3658C172.3 93.2092 172.347 93.3658 172.284 93.4128C172.3 93.405 172.308 93.2797 172.315 93.2562C172.331 93.2013 172.347 93.1465 172.362 93.0995C172.409 92.9115 172.355 93.0916 172.339 93.123C172.37 93.0211 172.433 92.9193 172.48 92.8253C172.527 92.7391 172.582 92.6608 172.629 92.5825C172.707 92.4493 172.503 92.7156 172.613 92.606C172.66 92.559 172.707 92.5041 172.754 92.4493C172.825 92.3788 172.895 92.3161 172.966 92.2535C173.075 92.1516 172.817 92.3475 172.942 92.2691C172.981 92.2456 173.013 92.2221 173.044 92.1986C173.138 92.136 173.24 92.089 173.334 92.0341C173.381 92.0106 173.506 91.9245 173.302 92.0341C173.365 91.995 173.443 91.9793 173.506 91.9636C173.608 91.9323 173.702 91.9088 173.804 91.8853C173.859 91.8775 173.921 91.854 173.976 91.854C173.937 91.854 173.749 91.8696 173.953 91.8618C174.054 91.8618 174.156 91.854 174.258 91.8618C174.313 91.8618 174.376 91.8696 174.43 91.8696C174.564 91.8696 174.242 91.8226 174.446 91.8696C174.548 91.8931 174.65 91.9088 174.744 91.9402C174.799 91.9558 174.853 91.9715 174.908 91.995C174.94 92.0107 175.112 92.0811 174.979 92.0185C174.861 91.9558 174.994 92.0263 175.01 92.0341C175.065 92.0655 175.112 92.089 175.167 92.1203C175.222 92.1516 175.269 92.183 175.316 92.2143C175.488 92.3161 175.253 92.1438 175.331 92.23C175.402 92.3005 175.472 92.3631 175.543 92.4336C175.582 92.4728 175.613 92.5198 175.652 92.559C175.504 92.3945 175.605 92.4885 175.629 92.5433C175.684 92.6373 175.746 92.7313 175.801 92.8332C175.817 92.8723 175.84 92.9115 175.856 92.9428C175.919 93.0525 175.801 92.7627 175.856 92.9507C175.887 93.0603 175.927 93.1621 175.95 93.2718C175.958 93.311 175.966 93.3502 175.974 93.3972C176.013 93.546 175.974 93.2091 175.974 93.358C175.974 93.452 175.989 93.5538 175.981 93.6478C175.981 93.6713 175.981 93.7888 175.974 93.8123C175.997 93.687 175.997 93.6556 175.981 93.7418C175.981 93.7653 175.974 93.7966 175.966 93.8201C175.942 93.9376 175.903 94.0551 175.864 94.1726C175.84 94.2353 175.778 94.3137 175.872 94.1492C175.84 94.204 175.809 94.2666 175.778 94.3293C175.754 94.3606 175.739 94.3998 175.715 94.4312C175.59 94.6427 175.84 94.298 175.676 94.486C175.605 94.5643 175.527 94.6426 175.449 94.721C175.41 94.7601 175.37 94.7993 175.331 94.8306C175.316 94.8463 175.151 94.9795 175.237 94.909C175.316 94.8463 175.214 94.9246 175.198 94.9325C175.128 94.9716 175.065 95.0186 174.994 95.0578C174.963 95.0735 174.924 95.097 174.885 95.1126C174.806 95.144 174.963 95.097 174.822 95.1283C174.767 95.144 174.72 95.1596 174.665 95.1675C174.642 95.1675 174.43 95.1988 174.556 95.191C174.188 95.2301 173.866 95.4495 173.819 95.8411C173.78 96.178 173.984 96.601 174.352 96.6636L174.399 96.6558Z" fill="#1F71E3"/>
<path d="M174.266 92.8333C173.639 92.8333 173.632 93.8125 174.266 93.8125C174.901 93.8125 174.901 92.8333 174.266 92.8333Z" fill="#1F71E3"/>
<path d="M224.721 58.2418C226.076 58.4689 227.423 57.8501 228.073 56.6203C228.77 55.2964 228.434 53.6906 227.501 52.5783C226.569 51.4659 224.995 51.0978 223.6 51.3641C222.206 51.6304 220.961 52.6801 220.632 54.0274C220.444 54.7951 220.553 55.5863 220.882 56.2991C221.211 57.0119 221.932 57.7248 222.762 57.7561C223.593 57.7874 223.984 56.7221 223.428 56.1581C223.311 56.0406 223.193 55.9544 223.06 55.8604C223.021 55.8291 222.974 55.8056 222.935 55.7743C222.95 55.7821 223.052 55.8839 222.989 55.8056C222.958 55.7664 222.911 55.7351 222.88 55.6959C222.856 55.6724 222.762 55.5393 222.833 55.6489C222.903 55.7586 222.833 55.6489 222.817 55.6254C222.786 55.5706 222.747 55.5158 222.723 55.4531C222.707 55.4218 222.645 55.2651 222.692 55.3982C222.739 55.5314 222.692 55.3669 222.676 55.3356C222.653 55.2651 222.59 55.1319 222.613 55.0692C222.574 55.1946 222.613 55.2103 222.621 55.1084L222.621 54.9518C222.621 54.7951 222.668 54.9518 222.606 54.9988C222.621 54.9909 222.629 54.8656 222.637 54.8421C222.653 54.7873 222.668 54.7324 222.684 54.6854C222.731 54.4974 222.676 54.6776 222.66 54.7089C222.692 54.6071 222.754 54.5053 222.801 54.4113C222.848 54.3251 222.903 54.2468 222.95 54.1684C223.029 54.0353 222.825 54.3016 222.935 54.1919C222.982 54.1449 223.029 54.0901 223.076 54.0353C223.146 53.9648 223.217 53.9021 223.287 53.8394C223.397 53.7376 223.138 53.9334 223.264 53.8551C223.303 53.8316 223.334 53.8081 223.365 53.7846C223.459 53.7219 223.561 53.6749 223.655 53.6201C223.702 53.5966 223.828 53.5104 223.624 53.6201C223.687 53.5809 223.765 53.5652 223.828 53.5496C223.929 53.5182 224.023 53.4948 224.125 53.4713C224.18 53.4634 224.243 53.4399 224.298 53.4399C224.258 53.4399 224.07 53.4556 224.274 53.4478C224.376 53.4478 224.478 53.4399 224.58 53.4478C224.634 53.4478 224.697 53.4556 224.752 53.4556C224.885 53.4556 224.564 53.4086 224.768 53.4556C224.869 53.4791 224.971 53.4947 225.065 53.5261C225.12 53.5417 225.175 53.5574 225.23 53.5809C225.261 53.5966 225.433 53.6671 225.3 53.6044C225.183 53.5418 225.316 53.6123 225.332 53.6201C225.386 53.6514 225.433 53.6749 225.488 53.7063C225.543 53.7376 225.59 53.7689 225.637 53.8003C225.809 53.9021 225.574 53.7298 225.653 53.8159C225.723 53.8864 225.794 53.9491 225.864 54.0196C225.903 54.0588 225.935 54.1058 225.974 54.1449C225.825 53.9804 225.927 54.0744 225.95 54.1293C226.005 54.2233 226.068 54.3172 226.123 54.4191C226.138 54.4582 226.162 54.4974 226.178 54.5287C226.24 54.6384 226.123 54.3486 226.178 54.5366C226.209 54.6463 226.248 54.7481 226.272 54.8578C226.279 54.8969 226.287 54.9361 226.295 54.9831C226.334 55.1319 226.295 54.7951 226.295 54.9439C226.295 55.0379 226.311 55.1398 226.303 55.2338C226.303 55.2573 226.303 55.3747 226.295 55.3982C226.319 55.2729 226.319 55.2416 226.303 55.3278C226.303 55.3513 226.295 55.3826 226.287 55.4061C226.264 55.5236 226.225 55.6411 226.185 55.7586C226.162 55.8213 226.099 55.8996 226.193 55.7351C226.162 55.7899 226.131 55.8526 226.099 55.9153C226.076 55.9466 226.06 55.9858 226.037 56.0171C225.911 56.2286 226.162 55.8839 225.997 56.0719C225.927 56.1502 225.849 56.2286 225.77 56.3069C225.731 56.3461 225.692 56.3853 225.653 56.4166C225.637 56.4323 225.473 56.5654 225.559 56.4949C225.637 56.4323 225.535 56.5106 225.52 56.5184C225.449 56.5576 225.386 56.6046 225.316 56.6438C225.285 56.6594 225.245 56.6829 225.206 56.6986C225.128 56.7299 225.285 56.6829 225.144 56.7143C225.089 56.7299 225.042 56.7456 224.987 56.7534C224.963 56.7534 224.752 56.7848 224.877 56.7769C224.509 56.8161 224.188 57.0354 224.141 57.4271C224.102 57.7639 224.305 58.1869 224.674 58.2496L224.721 58.2418Z" fill="#1F71E3"/>
<path d="M224.587 54.4193C223.961 54.4193 223.953 55.3984 224.587 55.3984C225.222 55.3984 225.222 54.4193 224.587 54.4193Z" fill="#1F71E3"/>
<path d="M217.294 99.6096C218.015 100.73 218.83 101.889 220.075 102.445C221.321 103.001 222.668 102.806 223.906 102.265C225.3 101.662 226.467 100.675 227.619 99.7036C228.99 98.5443 230.4 97.4241 231.818 96.3196C233.235 95.2151 234.692 94.1028 236.11 92.967C237.348 91.98 238.75 91.0086 239.768 89.7788C240.724 88.6273 241.092 87.2016 240.372 85.823C239.604 84.3581 238.139 83.1283 237.011 81.9376C234.434 79.2195 231.739 76.611 229.076 73.9712C227.071 71.9815 224.744 70.0466 221.752 71.1511C220.162 71.7386 218.822 72.8823 217.451 73.8537C215.994 74.8798 214.545 75.9138 213.111 76.9635C211.678 78.0131 210.213 79.1333 208.811 80.2848C207.699 81.2013 206.43 82.0943 205.513 83.2145C204.557 84.3738 204.064 85.87 204.651 87.3191C205.239 88.7683 206.547 89.912 207.573 91.0713C210.08 93.8913 212.908 96.4136 215.634 99.0221C216.605 99.9465 218.031 98.5208 217.107 97.5495C215.18 95.5285 213.088 93.672 211.122 91.6823C210.205 90.758 209.344 89.7866 208.474 88.8231C207.785 88.0555 206.477 87.045 206.547 85.8935C206.61 84.8516 207.675 84.0448 208.404 83.4338C209.516 82.4938 210.636 81.5538 211.78 80.6608C214.224 78.7495 216.77 76.9713 219.3 75.1775C220.365 74.4176 221.438 73.462 222.723 73.0938C223.843 72.7727 224.862 73.1408 225.77 73.8145C226.914 74.6605 227.885 75.8042 228.896 76.799C230.056 77.9341 231.21 79.0752 232.358 80.2222C233.416 81.2797 234.473 82.3528 235.499 83.4416C236.016 83.99 236.518 84.5383 237.019 85.1023C237.52 85.6663 238.217 86.246 238.476 86.9275C238.899 88.079 237.371 89.0581 236.627 89.6848C235.437 90.6875 234.222 91.6666 233 92.638C230.4 94.706 227.823 96.7896 225.277 98.9281C224.243 99.7976 222.895 100.871 221.462 100.863C220.169 100.863 219.065 99.7036 218.234 98.8498C217.764 98.3641 216.903 98.9986 217.287 99.5861L217.294 99.6096Z" fill="#1F71E3"/>
<path d="M249.45 94.8076C251.119 94.2749 252.176 92.8727 252.451 91.1651C252.764 89.1362 251.918 87.1857 250.735 85.5721C249.372 83.7156 247.641 82.1176 246.035 80.4804C244.429 78.8432 242.91 77.3314 241.319 75.7961C238.264 72.8429 235.115 69.9916 231.919 67.2029C230.376 65.8556 228.849 64.3281 227.055 63.3097C225.325 62.3271 223.284 62.044 221.352 62.5186C219.394 62.9964 217.764 64.2654 216.19 65.4561C214.138 67.0227 212.078 68.5816 210.025 70.1482C206.014 73.1954 202.012 76.2504 198.001 79.2976C194.836 81.7024 191.303 84.6634 192.682 89.1205C193.27 91.0319 194.546 92.6612 195.902 94.0947C197.594 95.8964 199.442 97.5649 201.228 99.2804C205.341 103.244 209.453 107.216 213.566 111.179C215.32 112.871 217.091 115.018 219.472 115.824C221.399 116.475 223.757 115.856 224.72 113.968C225.378 112.691 223.545 111.602 222.786 112.84C221.924 114.25 219.95 113.553 218.9 112.809C217.216 111.61 215.79 109.942 214.302 108.508L204.636 99.1707C203.046 97.6354 201.463 96.1001 199.873 94.5726C198.51 93.2566 197.045 91.964 195.98 90.3817C195.04 88.9795 194.39 87.2954 195.071 85.6347C195.714 84.0681 197.178 82.9322 198.471 81.9296C201.98 79.2114 205.529 76.5481 209.062 73.8534C212.43 71.2841 215.72 68.5346 219.229 66.1611C220.569 65.2524 221.987 64.5631 223.647 64.6884C225.496 64.8216 226.906 66.0201 228.253 67.1794C231.042 69.5764 233.799 72.0047 236.494 74.5036C239.667 77.4489 242.753 80.4882 245.761 83.5981C247.257 85.1412 249.035 86.6922 249.842 88.7367C250.43 90.2251 250.367 92.3479 248.769 93.1861C247.884 93.6482 248.495 95.1131 249.45 94.8076Z" fill="#1F71E3"/>
<path d="M248.659 95.6061C250.688 96.5305 245.918 99.5855 245.236 100.134C243.098 101.826 240.967 103.518 238.828 105.21C236.69 106.902 234.551 108.602 232.389 110.27C231.293 111.116 230.196 111.946 229.084 112.769C228.817 112.965 226.608 114.602 226.608 113.576C226.608 111.986 224.204 111.993 224.149 113.576C224.094 115.048 225.386 116.176 226.812 116.255C228.528 116.349 229.906 115.088 231.183 114.124C234.23 111.837 237.215 109.471 240.191 107.105C243.168 104.74 246.16 102.398 249.121 100.016C250.21 99.1468 251.534 97.9483 251.338 96.4051C251.189 95.2301 250.351 94.0003 249.059 94.0943C248.338 94.1413 247.86 95.238 248.651 95.5983L248.659 95.6061Z" fill="#1F71E3"/>
<path d="M248.996 93.335C247.704 93.9381 246.513 94.8703 245.361 95.7006C244.21 96.531 243.011 97.4005 241.844 98.2621C239.565 99.9463 237.301 101.662 235.045 103.393C232.836 105.093 230.635 106.8 228.449 108.532C226.185 110.325 223.781 112.033 221.642 113.968C220.874 114.665 221.916 116.067 222.77 115.433C225.05 113.733 227.172 111.79 229.397 110.02C231.661 108.218 233.933 106.44 236.228 104.678C238.476 102.946 240.748 101.247 243.027 99.5468C244.139 98.7165 245.252 97.8861 246.372 97.0558C247.492 96.2255 248.777 95.3716 249.764 94.3376C250.281 93.7971 249.631 93.053 248.996 93.3506L248.996 93.335ZM215.211 111.79C214.255 112.252 213.409 112.581 212.328 112.378C211.224 112.166 210.213 111.399 209.399 110.654C207.409 108.829 205.592 106.8 203.704 104.866C201.816 102.931 199.756 100.824 197.782 98.7948C196.991 97.988 193.113 94.8625 194.923 93.5386C196.066 92.7005 195.04 90.8126 193.787 91.5959C192.682 92.2853 192.173 93.4994 192.267 94.7841C192.377 96.2881 193.34 97.4709 194.335 98.5206C196.803 101.106 199.333 103.636 201.832 106.189C203.085 107.474 204.346 108.759 205.599 110.051C206.688 111.171 207.761 112.323 209.054 113.208C210.879 114.461 214.882 115.198 216.002 112.581C216.229 112.049 215.759 111.524 215.203 111.782L215.211 111.79ZM249.967 85.9795C251.189 85.7601 251.941 84.5773 251.918 83.3788C251.887 81.8748 250.821 80.7938 249.842 79.7755C247.304 77.1513 244.735 74.5663 242.173 71.9656C240.896 70.6653 239.612 69.365 238.335 68.0646C237.183 66.8975 236.079 65.6363 234.794 64.6101C232.703 62.9416 229.53 62.4168 227.799 64.8843C226.992 66.0436 228.888 67.1403 229.695 65.9888C231.026 64.0853 233.651 66.4275 234.653 67.4301C236.572 69.3415 238.468 71.2841 240.372 73.2111L246.004 78.9138C246.489 79.4073 251.362 83.5903 249.497 84.2718C248.432 84.6635 248.847 86.1753 249.967 85.9716L249.967 85.9795ZM219.112 64.6336C218.987 63.3725 218.062 62.3855 216.848 62.0486C215.344 61.6335 214.091 62.4481 212.924 63.302C209.876 65.5345 206.9 67.8688 203.892 70.1561C200.907 72.4278 197.907 74.6916 194.938 76.9946C193.818 77.8641 192.69 78.9529 192.706 80.4804C192.721 81.8043 193.56 82.9323 194.899 83.0655C195.925 83.1751 196.317 81.5771 195.424 81.1306C193.379 80.1044 198.15 77.1983 198.902 76.6265L205.576 71.5035C207.746 69.835 209.916 68.1586 212.085 66.4901C213.104 65.7068 214.106 64.7041 215.234 64.0853C216.3 63.4978 217.154 64.0775 217.718 65.0175C218.07 65.6128 219.19 65.4091 219.112 64.6415L219.112 64.6336ZM287.638 116.114C284.144 118.911 280.651 121.707 277.149 124.488C273.648 127.269 270.138 130.05 266.629 132.823C263.104 135.604 259.571 138.384 256.038 141.157C248.974 146.689 241.89 152.196 234.786 157.678C234.348 158.015 233.909 158.359 233.47 158.696C233.322 158.814 233.47 159.064 233.619 158.947C237.16 156.221 240.693 153.487 244.218 150.745C249.505 146.633 251.307 145.231 254.848 142.458C258.388 139.693 261.913 136.912 265.446 134.131C268.979 131.35 272.496 128.561 276.013 125.765C279.53 122.968 283.04 120.172 286.549 117.36L287.849 116.318C287.998 116.2 287.787 115.997 287.638 116.106L287.638 116.114ZM248.816 150.761C248.918 149.5 249.137 148.254 249.466 147.04C249.513 146.86 249.231 146.782 249.184 146.962C248.847 148.207 248.628 149.476 248.526 150.761C248.51 150.949 248.808 150.949 248.824 150.761L248.816 150.761Z" fill="#1F71E3"/>
<path d="M257.503 149.774C257.096 150.283 256.665 150.8 256.109 151.152C255.498 151.536 254.816 151.575 254.15 151.293C253.484 151.011 252.889 150.557 252.325 150.11C251.761 149.664 251.283 149.225 250.805 148.732C250.249 148.152 249.74 147.518 249.286 146.852C249.176 146.695 248.925 146.844 249.035 147.001C249.889 148.254 250.931 149.374 252.121 150.314C253.187 151.152 254.565 152.225 255.975 151.56C256.696 151.223 257.229 150.588 257.714 149.977C257.832 149.828 257.628 149.625 257.503 149.766L257.503 149.774Z" fill="#1F71E3"/>
<path d="M254.503 156.925C254.495 155.092 254.487 153.259 254.472 151.419C254.472 151.231 254.174 151.231 254.174 151.419C254.182 153.252 254.19 155.085 254.205 156.925C254.205 157.113 254.503 157.113 254.503 156.925ZM277.737 133.112C277.141 133.77 276.507 134.389 275.833 134.969C275.692 135.094 275.896 135.298 276.045 135.18C276.718 134.6 277.353 133.982 277.948 133.324C278.073 133.183 277.87 132.979 277.737 133.112ZM249.999 133.12L247.578 135L246.348 135.956C246.027 136.206 245.69 136.441 245.424 136.747C244.907 137.342 244.884 138.055 245.299 138.713C245.526 139.073 245.831 139.387 246.121 139.7L247.132 140.804C247.915 141.658 248.706 142.512 249.49 143.374C249.615 143.515 249.826 143.303 249.701 143.162C248.44 141.791 247.14 140.444 245.918 139.034C245.659 138.736 245.401 138.4 245.314 138C245.228 137.601 245.393 137.217 245.659 136.919C245.91 136.637 246.223 136.41 246.521 136.183L247.672 135.29C248.518 134.632 249.364 133.982 250.21 133.324C250.359 133.206 250.148 133.002 249.999 133.112L249.999 133.12ZM238.264 124.347C239.197 125.193 240.137 126.054 240.943 127.018C241.39 127.55 241.86 128.154 241.993 128.851C242.252 130.143 240.826 131.122 239.949 131.796C237.638 133.566 235.303 135.305 233.008 137.107C230.713 138.909 228.308 140.859 226.005 142.786C223.381 144.972 220.796 147.204 218.25 149.468C218.109 149.593 218.321 149.805 218.462 149.68C223.115 145.536 227.893 141.533 232.781 137.671C235.162 135.791 237.591 133.966 240.011 132.125C240.951 131.412 242.377 130.449 242.322 129.101C242.291 128.357 241.844 127.684 241.406 127.12C240.552 126.023 239.502 125.075 238.476 124.143C238.335 124.018 238.131 124.221 238.264 124.354L238.264 124.347Z" fill="#1F71E3"/>
<path d="M233.032 158.962C230.204 159.926 227.102 159.307 224.509 157.96C221.822 156.557 219.629 154.419 217.537 152.273C215.313 149.993 213.096 147.69 210.879 145.403C208.803 143.256 206.727 141.118 204.644 138.972C202.466 136.723 200.28 134.475 198.103 132.227C197.813 131.929 197.523 131.624 197.225 131.326C197.092 131.193 196.889 131.397 197.014 131.538L203.743 138.478C205.858 140.664 207.973 142.841 210.088 145.027L216.809 151.959C218.908 154.129 221.062 156.315 223.694 157.85C226.185 159.307 229.193 160.137 232.068 159.542C232.421 159.471 232.765 159.37 233.102 159.26C233.282 159.197 233.204 158.915 233.024 158.978L233.032 158.962ZM202.999 113.184C199.983 112.323 196.975 113.693 194.257 114.892C192.847 115.519 191.405 116.137 189.878 116.419C188.429 116.686 186.948 116.607 185.522 116.255C182.679 115.542 180.165 113.874 177.901 112.064C175.637 110.255 173.302 108.085 171.195 105.907C169.088 103.729 167.059 101.364 165.211 98.9197L164.529 98.0032C164.419 97.8544 164.161 98.0032 164.278 98.1521C166.096 100.62 168.054 102.985 170.146 105.226C172.253 107.475 174.492 109.596 176.851 111.578C179.068 113.443 181.48 115.19 184.238 116.169C185.569 116.639 186.987 116.913 188.405 116.874C189.933 116.827 191.405 116.396 192.815 115.824C195.667 114.68 198.557 112.926 201.753 113.239C202.145 113.278 202.536 113.357 202.912 113.466C203.093 113.521 203.171 113.231 202.991 113.184L202.999 113.184ZM224.885 128.89C224.102 127.621 223.24 126.266 221.814 125.655C221.164 125.373 220.436 125.279 219.746 125.467C219.01 125.663 218.383 126.133 217.764 126.556C214.952 128.483 212.218 130.512 209.571 132.65C208.075 133.856 206.61 135.086 205.168 136.355C205.027 136.481 205.231 136.684 205.38 136.567C207.824 134.42 210.354 132.36 212.955 130.394C214.255 129.415 215.571 128.459 216.903 127.527C217.545 127.081 218.187 126.603 218.861 126.203C219.535 125.804 220.248 125.569 221.031 125.725C222.77 126.07 223.788 127.66 224.65 129.055C224.752 129.211 225.002 129.07 224.901 128.906L224.885 128.89Z" fill="#1F71E3"/>
<path d="M186.791 98.2852C186.11 97.4784 185.389 96.6324 184.418 96.1702C183.494 95.7316 182.514 95.7159 181.606 96.2016C181.136 96.4522 180.721 96.7891 180.298 97.1102C179.856 97.4482 179.42 97.7929 178.989 98.1442C178.112 98.8571 177.25 99.5934 176.404 100.345C175.44 101.215 174.503 102.114 173.592 103.04C173.459 103.173 173.671 103.385 173.804 103.252C175.307 101.722 176.886 100.268 178.535 98.8962C179.365 98.2069 180.204 97.5254 181.081 96.8909C181.488 96.5933 181.927 96.3191 182.42 96.1938C182.914 96.0684 183.447 96.1154 183.932 96.2877C185.052 96.6716 185.844 97.6194 186.588 98.4967C186.713 98.6377 186.917 98.4341 186.799 98.2852L186.791 98.2852ZM279.711 97.0163C276.789 99.2723 273.898 101.567 271.023 103.878C270.201 104.544 269.378 105.21 268.556 105.884C268.407 106.001 268.619 106.213 268.767 106.095C271.627 103.761 274.509 101.458 277.415 99.1783C278.246 98.5281 279.084 97.8779 279.922 97.2278C280.071 97.1103 279.859 96.9066 279.711 97.0163ZM257.237 111.876L252.028 106.479C251.33 105.75 250.304 104.928 250.719 103.8C251.08 102.813 252.121 102.155 252.905 101.528C256.853 98.4263 260.801 95.3164 264.749 92.2144C266.981 90.4598 269.214 88.7051 271.439 86.9504C271.587 86.8329 271.376 86.6293 271.227 86.7389L258.999 96.3583L252.842 101.199C252.028 101.842 251.04 102.476 250.555 103.424C250.359 103.808 250.265 104.231 250.343 104.654C250.429 105.139 250.735 105.547 251.064 105.907C252.012 106.949 253.022 107.936 253.994 108.946C254.965 109.957 256.015 111.038 257.017 112.08C257.151 112.213 257.354 112.009 257.229 111.868L257.237 111.876ZM231.426 79.5714C226.444 83.3941 221.454 87.2089 216.472 91.0316L212.211 94.2981C212.062 94.4077 212.211 94.6662 212.359 94.5487C217.341 90.7261 222.331 86.9113 227.313 83.0886C228.731 81.9998 230.157 80.9109 231.575 79.8221C231.723 79.7124 231.575 79.4539 231.426 79.5714Z" fill="#1F71E3"/>
<path d="M231.395 94.7374C226.952 90.1197 222.319 85.6899 217.506 81.4599C216.143 80.2614 214.764 79.0786 213.378 77.9114C213.237 77.7939 213.025 77.9976 213.166 78.1229C215.628 80.1849 218.046 82.2977 220.42 84.4601C222.78 86.6149 225.096 88.8165 227.368 91.0636C228.661 92.3404 229.93 93.6329 231.191 94.9411C231.324 95.0742 231.528 94.8706 231.402 94.7296L231.395 94.7374Z" fill="#1F71E3"/>
<path d="M241.492 92.0427C238.108 94.7844 234.732 97.5339 231.348 100.276L228.849 102.304C228.073 102.939 227.298 103.581 226.491 104.169C225.018 105.226 223.303 106.205 221.43 106.096C219.574 105.994 218.054 104.788 216.73 103.597C215.14 102.171 213.581 100.706 212.015 99.2651C210.448 97.8237 208.803 96.3119 207.197 94.8392C206.406 94.1107 205.615 93.3822 204.824 92.6616C204.142 92.0349 203.445 91.4082 202.834 90.7111C202.254 90.0452 201.753 89.2932 201.502 88.4472C201.283 87.7187 201.228 86.9432 201.361 86.1912C201.604 84.7499 202.45 83.4887 203.414 82.4156C204.377 81.3424 205.552 80.3476 206.688 79.3919C208.184 78.1386 209.665 76.8696 211.192 75.6554C212.798 74.3786 214.435 73.1566 216.08 71.9346C217.467 70.9084 218.893 69.8509 220.522 69.2477C221.337 68.9501 222.19 68.7699 223.052 68.7777C224.008 68.7934 224.932 69.0441 225.786 69.4593C226.64 69.8744 227.423 70.3992 228.183 70.9632C228.943 71.5272 229.726 72.1382 230.478 72.7492C233.492 75.1997 236.305 77.8872 238.891 80.7862C240.168 82.2197 241.445 83.6924 242.565 85.2669C243.082 85.9954 243.497 86.7631 243.685 87.6404C243.826 88.2984 243.912 88.9721 243.904 89.6457C243.897 90.1862 243.834 90.9226 243.364 91.2751C243.215 91.3847 243.364 91.6432 243.513 91.5257C243.998 91.1654 244.139 90.5466 244.186 89.9747C244.241 89.2854 244.163 88.5804 244.038 87.8989C243.889 87.0842 243.615 86.3401 243.176 85.6351C242.659 84.8047 242.032 84.0527 241.421 83.2929C238.907 80.1831 236.142 77.2769 233.149 74.6214C231.661 73.2976 230.11 72.0286 228.512 70.8379C226.914 69.6472 225.324 68.6367 223.373 68.5036C221.611 68.3861 219.927 69.0597 218.438 69.9527C216.824 70.9241 215.328 72.1069 213.832 73.2428C212.117 74.5431 210.425 75.8747 208.764 77.2534C207.448 78.3501 206.116 79.4467 204.839 80.5904C202.685 82.5174 200.406 85.1181 201.142 88.2357C201.565 90.0139 202.928 91.3221 204.228 92.5127C205.889 94.0402 207.558 95.5677 209.218 97.1031C210.879 98.6384 212.524 100.142 214.185 101.662C214.976 102.391 215.759 103.119 216.558 103.84C217.232 104.451 217.937 105.038 218.72 105.508C219.503 105.978 220.334 106.299 221.235 106.386C222.135 106.472 223.044 106.307 223.882 105.986C225.692 105.305 227.204 104.036 228.684 102.829C232.17 100.001 235.648 97.1736 239.134 94.3457C239.995 93.6486 240.849 92.9514 241.711 92.2542C241.86 92.1367 241.648 91.9252 241.5 92.0427L241.492 92.0427ZM264.545 131.327C261.968 128.828 259.399 126.329 256.821 123.823C254.244 121.324 251.675 118.825 249.098 116.318C247.649 114.908 246.2 113.498 244.743 112.088C244.609 111.955 244.398 112.167 244.531 112.3C247.108 114.799 249.678 117.297 252.255 119.804C254.832 122.303 257.401 124.802 259.978 127.308C261.427 128.718 262.877 130.128 264.334 131.538C264.467 131.672 264.678 131.46 264.545 131.327ZM250.218 67.5714L242.369 73.8929C242.22 74.0104 242.432 74.2219 242.581 74.1044L250.43 67.7829C250.578 67.6654 250.367 67.4539 250.218 67.5714ZM185.507 121.081L190.254 114.806C190.371 114.658 190.113 114.509 190.003 114.658L185.256 120.932C185.139 121.081 185.397 121.23 185.507 121.081ZM208.96 147.628C209.555 146.046 210.448 144.597 211.584 143.351C211.709 143.21 211.506 143.006 211.372 143.14C210.197 144.424 209.281 145.92 208.67 147.542C208.607 147.722 208.889 147.793 208.952 147.62L208.96 147.628ZM228.269 163.961L229.593 157.623C229.632 157.435 229.35 157.357 229.311 157.545C228.872 159.66 228.433 161.775 227.987 163.882C227.948 164.07 228.23 164.149 228.269 163.961Z" fill="#1F71E3"/>
<path d="M308.767 194.927C308.876 195.023 308.985 195.128 309.066 195.233C309.136 195.457 309.143 195.724 309.111 195.991C309.108 195.991 309.105 195.991 309.102 195.991C309.057 195.579 308.922 195.172 308.767 194.927ZM306.814 194.898C306.654 195.135 306.507 195.538 306.449 195.948C306.425 195.675 306.442 195.402 306.522 195.179C306.603 195.082 306.709 194.986 306.814 194.898ZM308.312 194.598C308.327 194.604 308.345 194.617 308.367 194.63C308.318 194.607 308.272 194.588 308.238 194.575C308.264 194.583 308.29 194.59 308.312 194.598ZM307.209 194.62C307.233 194.607 307.252 194.595 307.269 194.588C307.287 194.582 307.31 194.576 307.333 194.569C307.3 194.582 307.257 194.599 307.209 194.62ZM307.46 194.534C307.468 194.532 307.476 194.53 307.481 194.528C307.487 194.527 307.495 194.526 307.502 194.524C307.49 194.527 307.476 194.531 307.46 194.534ZM222.312 1.5C256.635 1.5 286.644 20.0384 302.916 47.6836L303.377 48.4678L304.286 48.4209C305.552 48.3554 306.826 48.3223 308.107 48.3223C348.361 48.3223 381 81.0409 381 121.41C381 161.779 348.361 194.498 308.107 194.498H307.712L307.65 194.499H307.61L307.571 194.498H307.564L144.661 194.489H144.637C144.284 194.495 143.93 194.498 143.575 194.498C109.02 194.498 81.0002 166.411 81 131.755C81 101.309 102.627 75.9293 131.312 70.2148L132.207 70.0361L132.46 69.1592C143.741 30.0725 179.702 1.50014 222.312 1.5ZM307.57 194.513H307.572C307.575 194.512 307.577 194.512 307.58 194.512C307.577 194.512 307.574 194.512 307.57 194.513ZM307.655 194.503C307.661 194.502 307.671 194.502 307.675 194.502C307.676 194.502 307.679 194.501 307.681 194.501C307.674 194.501 307.665 194.502 307.655 194.503Z" stroke="#1F71E3" stroke-opacity="0.3" stroke-width="3"/>
<path d="M46.6613 167.253C46.4109 167.257 46.16 167.26 45.9086 167.26M46.6613 167.253C46.4944 167.256 46.3273 167.261 46.16 167.26C46.0763 167.26 45.9925 167.26 45.9086 167.26M46.6613 167.253L80.5 167.255M45.9086 167.26C21.3824 167.26 1.5 147.325 1.5 122.734C1.5 101.13 16.8466 83.1189 37.2059 79.0631C45.1488 51.5416 70.4699 31.4189 100.478 31.4189C113.668 31.4189 125.951 35.3061 136.252 42" stroke="#1F71E3" stroke-opacity="0.3" stroke-width="3"/>
<path d="M426.671 167.259C426.697 167.259 426.716 167.26 426.741 167.26M426.671 167.259L426.7 167.259M426.671 167.259C426.68 167.259 426.69 167.259 426.7 167.259M426.671 167.259L426.629 167.26L426.592 167.26L426.564 167.26L372 167.256M426.671 167.259L426.726 167.26C426.718 167.26 426.709 167.259 426.7 167.259M426.671 167.259C426.682 167.259 426.691 167.259 426.7 167.259M426.741 167.26L426.76 167.259M426.741 167.26C426.734 167.26 426.72 167.26 426.712 167.26C426.708 167.26 426.704 167.259 426.7 167.259M426.741 167.26C426.78 167.26 426.818 167.26 426.857 167.26M426.76 167.259L426.843 167.259M426.76 167.259C426.74 167.259 426.72 167.259 426.7 167.259M426.843 167.259L426.857 167.26M426.843 167.259L426.941 167.26M426.857 167.26L426.941 167.26M426.857 167.26C426.885 167.26 426.913 167.26 426.941 167.26M426.941 167.26C455.416 167.26 478.5 144.115 478.5 115.565C478.5 87.0143 455.416 63.8697 426.941 63.8697C426.034 63.8697 425.133 63.8932 424.239 63.9395C412.782 44.476 391.651 31.4189 367.478 31.4189C353.026 31.4189 339.661 36.0864 328.8 44" stroke="#1F71E3" stroke-opacity="0.3" stroke-width="3"/>
</svg>
