<?xml version="1.0" encoding="UTF-8"?><svg xmlns="http://www.w3.org/2000/svg" viewBox="0 0 180 180"><path fill="var(--color-secondary)" d="M29.83 114.27c.71 3.31 4.66 4.7 7.68 3.99 1.84-.43 3.42-1.56 4.89-2.69 1.84-1.42 3.62-2.93 5.43-4.41 3.73-3.06 7.44-6.14 11.16-9.21 1.86-1.54 3.73-3.06 5.61-4.58 1.47-1.2 2.99-2.37 4-4.01 1.09-1.78 1.33-3.92.42-5.82s-2.72-3.15-4.71-2.22c-.88.41-1.11 1.93-.33 2.54.98.78 2.13 1.14 1.74 2.67-.41 1.62-2.2 2.84-3.41 3.86-3.61 3.06-7.25 6.1-10.89 9.13s-7.24 6.01-10.81 9.07c-1.4 1.2-2.89 2.36-4.7 2.86-1.5.42-3.4-.17-3.92-1.77-.45-1.37-2.46-.81-2.15.59Z"/><g fill="var(--color-secondary)"><path d="M85.4 60.36c5.59-.14 9.9 5.98 15.49 5.77 2.23-.08 4.28-1.19 6.22-2.3a177.2 177.2 0 0 0 34.59-25.99c2.16-2.08 4.35-4.36 5.11-7.27.91-3.52-.71-7.55-3.81-9.45 2.63 1.11 5.3 2.24 8.14 2.52s5.92-.44 7.86-2.53c1-1.07 1.65-2.44 2.73-3.42s2.9-1.45 3.95-.44c1.31 1.25.39 3.45-.71 4.89a29.96 29.96 0 0 1-13.84 10.01c.86 2.05.36 4.46-.76 6.38s-2.8 3.44-4.44 4.93c-13.6 12.27-27.71 24.85-45.06 30.74a46.2 46.2 0 0 0-10.96-11.39"/><path d="M85.4 61.53c5.02.19 8.58 4.99 13.46 5.88 3.11.57 5.92-.59 8.59-2.09 2.86-1.61 5.65-3.33 8.4-5.11a179.4 179.4 0 0 0 23.29-17.95c2.26-2.06 4.63-4.13 6.54-6.54 1.98-2.51 3.18-5.44 2.7-8.66-.44-2.97-2.15-5.57-4.66-7.19l-1.47 2.51c3.79 1.6 7.7 3.32 11.91 2.72 1.86-.27 3.65-.95 5.12-2.14s2.12-3.03 3.55-4.17c.35-.28 1.29-.84 1.74-.43s-.03 1.34-.24 1.76c-.85 1.68-2.4 3.16-3.77 4.42a28.3 28.3 0 0 1-9.88 5.94c-.82.29-1.54 1.2-1.2 2.12 1.57 4.26-2.64 7.66-5.43 10.17-3.23 2.92-6.48 5.82-9.79 8.65-6.53 5.57-13.36 10.84-20.82 15.11-4.16 2.38-8.5 4.4-13.03 5.96l1.99.81c-3.17-4.64-7.03-8.7-11.67-11.9-1.5-1.04-3.42 1.4-1.97 2.55 4.04 3.19 7.69 6.86 10.59 11.13.42.62 1.23 1.07 1.99.81 17.69-6.04 31.88-18.59 45.52-30.9 3.7-3.34 7.99-7.87 5.93-13.3l-1.2 2.12a32.8 32.8 0 0 0 9.18-5.08c2.53-1.99 5.46-4.63 6.68-7.68.57-1.41.69-3.04-.19-4.35s-2.6-1.79-4.13-1.45c-3.54.78-4.25 4.97-7.46 6.28-3.92 1.59-8.31-.11-11.95-1.66-1.68-.72-3.08 1.46-1.47 2.51a7.4 7.4 0 0 1 3.32 5.76c.14 2.72-1.41 4.99-3.18 6.9-3.99 4.29-8.6 8.14-13.14 11.82-4.65 3.77-9.5 7.29-14.51 10.56-2.5 1.63-5.03 3.2-7.61 4.7-2.37 1.38-4.97 3.02-7.83 2.44-2.43-.49-4.53-2.01-6.65-3.2-2.25-1.26-4.63-2.28-7.26-2.18-1.51.06-1.51 2.29 0 2.34Z"/></g><g fill="var(--color-secondary)"><path d="M15.33 118.87c4.99-.03 8.89 4.44 10.81 9.05s2.63 9.71 5.12 14.04c2.7 4.68 7.25 7.99 11.95 10.65 11.03 6.27 23.85 9.74 36.48 8.57s24.99-7.25 32.63-17.38c7.65-10.12 10.04-24.33 5.01-35.97-3.7-8.55-10.83-15.11-15.69-23.06-3.51-5.74-5.93-12.36-10.97-16.82-3.52-3.11-8.17-4.92-12.87-5 3.95-1.06 8.53 2.19 8.61 6.28s-4.64 7.55-8.44 6.04-4.71-7.56-1.41-9.98A47.5 47.5 0 0 0 62 75.81c4.05-.62 8.1 1.42 11.11 4.2s5.25 6.27 7.87 9.42c2.4 2.89 5.14 5.51 7.23 8.62 4.97 7.4 5.74 17.44 1.94 25.52-3.8 8.07-12.01 13.89-20.89 14.78-6.71.68-13.52-1.32-19.34-4.74s-10.72-8.21-15.08-13.36c-2.86-3.38-6.11-7.25-10.53-7.37-3.39-.09-6.65 2.48-7.37 5.79"/><path d="M15.33 120c3.52.12 6.16 2.67 7.96 5.51 2 3.15 2.79 6.83 3.88 10.35s2.61 7.15 5.11 10.14c2.38 2.85 5.42 5.11 8.57 7.04 13.31 8.16 29.81 12.11 45.23 8.77 13.9-3.01 26.68-12.04 32.33-25.34 2.81-6.63 3.85-13.88 2.8-21.01-1.1-7.47-4.95-13.8-9.46-19.71-2.33-3.05-4.77-6.02-6.95-9.18s-3.84-6.44-5.63-9.74c-1.72-3.18-3.61-6.32-6.14-8.93a21.66 21.66 0 0 0-9.66-5.76c-1.8-.5-3.68-.76-5.55-.8l.43 3.2c2.42-.59 5.1.77 6.17 3.01 1.1 2.33-.21 4.81-2.37 5.94s-4.41.49-5.45-1.65c-.91-1.88-.61-4.14 1.07-5.44 1.49-1.15-.41-3.13-1.88-2.44A49.4 49.4 0 0 0 60.9 74.71c-.84.89-.33 2.89 1.12 2.7 5.43-.71 9.74 3.04 12.97 6.94 1.68 2.03 3.2 4.2 4.88 6.22 1.73 2.08 3.63 4.01 5.34 6.11 6.15 7.52 7.66 18.38 3.05 27.08-4.33 8.18-13.24 13.36-22.49 13.05-10.81-.36-20.06-7.2-27.12-14.86-3.46-3.75-6.61-8.79-11.75-10.37-4.99-1.53-10.35 1.62-11.57 6.66-.51 2.11 2.74 3.01 3.25.9s2.08-3.73 4.13-4.31c2.16-.61 4.28.27 6.01 1.57 1.88 1.42 3.39 3.31 4.91 5.09 1.77 2.08 3.61 4.11 5.58 6.01 7.82 7.55 18.2 13.46 29.41 12.61 9.45-.72 18.34-6.54 22.63-15.02 4.55-8.98 3.73-20.37-2.16-28.55-1.84-2.55-4.03-4.81-6.09-7.17s-3.8-4.87-5.77-7.25c-3.71-4.48-9.03-8.68-15.22-7.86l1.12 2.7c4.08-4.31 8.87-7.77 14.23-10.3l-1.88-2.44c-4.53 3.54-2.5 11.87 3.16 12.9 6.47 1.18 11.89-6.46 8.04-12-2.07-2.97-5.74-4.53-9.3-3.71-1.84.43-1.36 3.14.43 3.2 3.6.12 7.08 1.26 10.07 3.28s5.11 4.94 6.92 7.98c1.8 3.03 3.31 6.22 5.11 9.24s4.06 6 6.28 8.85c4.4 5.65 9.04 11.36 10.99 18.38 1.82 6.53 1.43 13.52-.64 19.94-4.28 13.24-16.05 22.49-29.23 25.96-14.73 3.88-30.44.32-43.48-7.07-3.06-1.74-6.02-3.72-8.46-6.27-2.56-2.69-4.06-5.91-5.18-9.41-2.02-6.34-3.86-13.72-10.49-16.77-1.38-.63-2.85-.95-4.37-.95s-1.45 2.2 0 2.25Z"/></g><path fill="var(--color-primary)" d="M27.56 147.21c.15-4.47-3.16-8.51-5.65-11.93-1.43-1.96-2.9-3.9-4.37-5.84-.73-.97-1.47-1.93-2.22-2.9s-1.42-2.06-2.55-2.65c-.95-.5-2.02.32-1.78 1.37.26 1.12.97 1.92 1.66 2.8s1.4 1.81 2.1 2.72c1.41 1.82 2.81 3.65 4.19 5.49s2.76 3.55 4.09 5.36c1.24 1.68 2.45 3.43 2.57 5.58.07 1.25 1.91 1.26 1.95 0Z"/><path fill="var(--color-primary)" d="M13.12 125.66c.19-1.09.34-2.19.4-3.3l.09-1.55c.03-.61.09-1.23-.01-1.84-.09-.55-.75-1-1.28-.98-.57.03-1.15.39-1.28.98s-.1 1.2-.1 1.78v1.55c0 1.04.06 2.06.18 3.09.06.51.35.93.89 1.01.46.06 1.03-.23 1.12-.73Z"/><path fill="var(--color-primary)" d="M13.28 120.02c.97-.61 1.84-1.38 2.75-2.07s1.89-1.35 2.84-2c1.92-1.32 3.94-2.48 6.02-3.52.76-.38.97-1.45.56-2.15-.45-.78-1.38-.94-2.15-.56-2.15 1.05-4.2 2.32-6.14 3.72-.99.72-1.92 1.51-2.83 2.33s-1.85 1.72-2.57 2.76c-.63.91.6 2.06 1.5 1.5Z"/><path fill="var(--color-primary)" d="M24.19 111.15c6.17 4.96 10.91 11.21 16.59 16.66 1.36 1.31 2.79 2.63 4.35 3.7s3.5 1.95 5.29 2.72c3.7 1.61 7.26 3.09 11.29 3.63 7.78 1.05 16.39-1.12 22.45-6.18 6.26-5.22 7.77-13.63 4.85-21.05-3.25-8.26-11.44-14.14-20.11-15.33-1.92-.26-2.81 2.41-.83 3 6.65 1.96 13.51 5.16 16.94 11.52 3.32 6.17 2.56 14.1-2.71 18.89-5.32 4.84-13 6.34-19.98 6.01-3.54-.17-7.6-.72-10.73-2.5-3.04-1.73-5.78-4.23-8.3-6.65-5.69-5.49-10.52-12.59-17.8-16.12-1.02-.5-2.32.88-1.31 1.69Zm37.79-24.62c-.21-2.72-1.27-5.36-.89-8.12s2.51-4.62 4.65-6.34c2.47-1.99 5.17-3.74 7.81-5.5 1.32-.88 2.58-1.85 3.91-2.72.66-.44 1.33-.87 1.99-1.3.75-.49 1.34-1.15 2.08-1.63 1.11-.72.11-2.46-1.04-1.78-.82.48-1.73.76-2.56 1.27l-2.22 1.38c-1.55.97-3.12 1.88-4.64 2.89-2.87 1.91-5.78 3.8-8.59 5.8-2.57 1.82-4.31 4.35-4.58 7.54-.25 2.97.63 6.5 2.22 9.02.49.78 1.93.53 1.85-.5Z"/><path fill="var(--color-primary)" d="M81.07 61.09c4.74 1.95 8.96 4.69 12.32 8.59 1.62 1.88 2.95 4 4.05 6.22.55 1.12.97 2.28 1.41 3.45s1.08 2.29 1.65 3.45c.44.89 1.63.35 1.7-.46.14-1.43.16-2.78-.24-4.17s-.99-2.69-1.61-3.96c-1.21-2.47-2.84-4.75-4.69-6.79-3.65-4.02-8.63-7.34-14.01-8.39-1.38-.27-1.83 1.55-.57 2.06Z"/><path fill="var(--color-primary)" d="M100.67 84.15c8.72 7.11 15.48 16.79 18.18 27.78 2.47 10.02 1.36 20.7-3.09 30.02-4.32 9.05-11.42 16.52-20.29 21.22-9.94 5.27-21.48 6.14-32.41 4-6.71-1.32-13.35-3.6-19.41-6.79s-11.87-7.1-15.91-12.63a1.345 1.345 0 0 0-2.32 1.36c1.36 3 3.84 5.34 6.38 7.37s5.1 3.76 7.82 5.4c5.57 3.36 11.47 6 17.76 7.69 11.78 3.18 24.75 3.12 36.08-1.71 20.21-8.62 32.64-30.94 29.27-52.63-2.03-13.08-9.57-25.57-21.01-32.44-.82-.49-1.83.73-1.05 1.36M84.94 60.78c11.99-11.39 24.37-22.26 38.32-31.23 1.88-1.21 3.86-2.37 5.63-3.73.96-.74 1.84-1.45 2.89-2.08 1.01-.6 2.06-1.13 2.96-1.89.69-.58-.05-1.76-.87-1.5-1.99.63-3.66 2.02-5.62 2.76-1.88.71-3.59 1.83-5.31 2.86-3.56 2.14-6.98 4.55-10.34 6.98-6.8 4.91-13.3 10.21-19.4 15.96-3.45 3.26-6.68 6.75-9.72 10.39-.85 1.01.48 2.41 1.47 1.47Zm51.71-40.21c2.08.03 4.26 1.44 5.93 2.55 1.92 1.28 3.66 2.9 5.06 4.73s2.6 3.97 3.21 6.23c.29 1.08.45 2.17.42 3.29-.03 1.06-.51 2.52-.13 3.51.29.76 1.15 1.27 1.93.78 1.25-.79 1.52-2.68 1.58-4.04s-.11-2.66-.41-3.94c-.67-2.85-2.1-5.45-3.91-7.73-1.73-2.18-3.89-4.16-6.35-5.48-1.14-.62-2.4-1.09-3.67-1.39s-2.41-.23-3.66-.22c-1.11.01-1.11 1.7 0 1.72Z"/><path fill="var(--color-primary)" d="M151.65 39.77c-6.41 5.05-12.68 10.28-19.19 15.21-6.49 4.91-13.2 9.53-20.11 13.83-3.97 2.47-8.05 4.74-12.08 7.11-1.91 1.12-.22 3.97 1.73 2.95 7.32-3.82 14.36-8.37 21.18-13.02 6.84-4.67 13.47-9.64 19.82-14.96 3.57-3 6.98-6.2 10.18-9.59.98-1.04-.46-2.36-1.52-1.52Zm-7.82-17.84c1.39-.66 2.48-2.05 3.6-3.08 1.16-1.06 2.36-2.08 3.62-3.02a47 47 0 0 1 5.96-3.78c.69-.37 1.74-.92 1.86-1.77.07-.49-.04-.97-.5-1.24-1.41-.82-3.57.86-4.77 1.58-1.45.88-2.85 1.83-4.2 2.86s-2.65 2.1-3.89 3.26-2.66 2.4-3.2 4c-.32.93.77 1.53 1.53 1.17Z"/><path fill="var(--color-primary)" d="M157.44 11.32c1.21.37 2.6.67 3.63 1.16 1.24.59 2.08 1.24 2.97 2.23.77.86 1.4 1.99 1.75 3.09.2.63.35 1.28.44 1.93-.03-.23.03.29.02.28l.03.54c.02.43.05.86.13 1.29.11.63.82 1.08 1.42 1.08.68 0 1.2-.47 1.42-1.08.56-1.53.17-3.61-.34-5.1-.55-1.6-1.41-3.1-2.57-4.34-2.1-2.25-5.77-4.1-8.9-3.27-1.1.29-1.04 1.85 0 2.17Z"/><path fill="var(--color-primary)" d="M166.66 21.06c-2.16 1.97-4.37 3.88-6.65 5.7s-4.66 3.3-7.12 4.76c-1.84 1.09-.2 3.88 1.67 2.86 2.7-1.48 5.22-3.35 7.58-5.32 2.35-1.96 4.4-4.24 6.15-6.74.7-1-.8-2.02-1.63-1.26m-137.19 91.8c1.74-.65 3.3-1.92 4.81-2.99s3.08-2.2 4.61-3.31c3.09-2.25 6.13-4.54 9.15-6.88 6.1-4.72 12.19-9.52 17.99-14.62 1.37-1.2-.62-3.14-1.99-1.99-5.79 4.88-11.55 9.77-17.51 14.43-3.02 2.36-6.06 4.68-9.13 6.98q-2.175 1.635-4.38 3.24c-1.49 1.09-3.28 2.14-4.47 3.56-.55.65-.05 1.94.92 1.58"/><path fill="var(--color-primary)" d="M64.6 85.54q.57.09 1.11.27c.09.03.58.22.28.1l.35.15c.14.05.15.06.05.02-.18-.07.23.11.26.12.33.16.64.35.94.56.07.05.13.1.2.14.01 0 .33.25.13.09s.11.09.12.1c.09.08.18.16.27.25.15.14.29.29.42.44.03.03.16.17.16.19 0-.05-.17-.24-.03-.04.23.35.47.69.66 1.06.05.1.14.23.16.34 0-.04-.13-.35-.03-.06.07.2.14.39.2.59.05.16.09.32.12.49l.06.31c.02.13.02.08-.02-.14l.03.25c.05.57-.03 1.2.28 1.71.4.66 1.09 1 1.84.81 1.6-.4 1.33-2.44 1.1-3.65-.33-1.76-1.27-3.46-2.62-4.63-1.59-1.37-3.61-2.11-5.72-1.92-.62.06-1.13.43-1.22 1.08-.07.56.28 1.26.89 1.36Z"/><path fill="var(--color-primary)" d="M70.23 91.71c-2.97 1.68-5.64 4.15-8.33 6.25-2.75 2.15-5.5 4.28-8.25 6.42-5.84 4.53-11.72 9-17.64 13.43-1.49 1.12-.04 3.67 1.48 2.54 5.96-4.44 11.88-8.92 17.76-13.46 2.7-2.09 5.38-4.2 8.05-6.32s5.96-4.35 8.36-6.99c.89-.98-.23-2.53-1.43-1.85ZM83 65.29c-2.89-2.17-7.46-.01-8.3 3.3-.56 2.23.69 4.06 2.44 5.31 1.65 1.18 3.86 1.8 5.86 1.26.99-.27 2-.84 2.64-1.64.71-.87 1.5-2.28.84-3.38-.42-.7-1.31-.75-1.89-.24-.19.16-.33.37-.43.59-.04.1-.07.19-.11.29 0 .01-.09.21-.03.08.07-.14-.06.1-.07.13-.03.06-.07.11-.1.17 0 .01-.13.19-.04.07.1-.13-.12.13-.14.15-.09.1-.19.19-.29.27-.07.06-.14.11-.2.17.02-.02.18-.13.04-.03-.13.09-.26.18-.39.25l-.18.09c-.03.01-.28.12-.13.06.17-.06-.1.03-.13.04-.06.02-.13.04-.19.06s-.13.03-.19.05c-.03 0-.3.05-.15.03s-.12 0-.12 0h-.24c-.21 0-.42 0-.63-.03-.18-.02-.03 0 0 0l-.31-.06c-.15-.04-.31-.08-.46-.13-.42-.13-.48-.16-.89-.39-.3-.16-.59-.35-.86-.55.16.12-.11-.1-.15-.14-.14-.13-.28-.27-.41-.41-.02-.02-.16-.21-.04-.04l-.12-.18c-.09-.14-.17-.28-.23-.43.08.19-.03-.14-.04-.2 0 0-.03-.24-.02-.12v-.28c0 .01.03-.24.01-.12s.04-.13.03-.12c.04-.12.11-.37.13-.43s.13-.26.2-.37c.03-.05.07-.1.1-.16.03-.04.2-.25.05-.08.18-.21.37-.39.57-.57.11-.1 0 0-.02 0 .05-.04.1-.07.15-.11.14-.09.28-.18.43-.26.05-.03.11-.06.17-.09.33-.18-.1.03.1-.05.16-.06.32-.11.48-.16.14-.04.28-.07.43-.1.02 0 .23-.03.06-.01.08-.01.17-.02.25-.02.68-.04 1.18 0 1.81.16.43.12.9-.11 1.07-.52.18-.45 0-.85-.37-1.13Z"/><path fill="var(--color-primary)" d="M80.86 67.81c-.1.04-.19.07-.28.12s-.17.12-.24.18c-.11.09-.2.21-.27.32-.12.2-.15.41-.17.64a1.45 1.45 0 0 0 .73 1.32c.1.06.21.1.31.14.04.01.07.03.11.03.21.04.38.06.58 0 .11-.03.21-.08.31-.13l.19-.15.15-.19.09-.22c.04-.12.04-.25.02-.37 0-.08-.02-.16-.06-.23a.45.45 0 0 0-.12-.21.46.46 0 0 0-.17-.17.76.76 0 0 0-.32-.17c-.03 0-.05-.01-.08-.02-.1-.04-.22-.04-.33-.05l.26.03c-.05 0-.1-.02-.15-.04l.23.1s-.09-.05-.14-.08l.19.15-.13-.13.15.19s-.05-.08-.07-.12l.09.23s-.03-.09-.04-.14l.03.25v-.15l-.03.24c.02-.11.03-.22.04-.32l-.03.24c0-.05.02-.1.04-.15l-.09.2s.04-.08.07-.12l-.13.17.03-.03.13-.16a.63.63 0 0 0 .1-.3.4.4 0 0 0 0-.22c0-.11-.04-.21-.1-.3a.9.9 0 0 0-.29-.29.63.63 0 0 0-.3-.1.7.7 0 0 0-.32.01Zm-67.38 51.22c3.51 1.48 6.62 3.83 9.02 6.79 2.57 3.18 4.23 7.03 4.83 11.08.35 2.39.33 4.83-.08 7.21-.04.24.32.34.36.1.72-4.26.26-8.7-1.35-12.71a23.4 23.4 0 0 0-6.99-9.43 23.3 23.3 0 0 0-5.6-3.36c-.22-.09-.41.23-.19.32"/><path fill="var(--color-primary)" d="M27.42 144.27c6.63 5.24 13.8 9.85 21.51 13.32 7.18 3.23 14.86 5.46 22.74 5.97 7.78.51 15.6-.75 22.78-3.8 3.56-1.51 7.01-3.4 10.07-5.78 2.99-2.33 5.67-5.07 8.01-8.04 4.64-5.9 8.35-13.07 9.02-20.65.04-.43.07-.87.08-1.3 0-.27-.05-.79.02-.98l-.34.04v.14c0 .08-.03.22.03.1h.32s-.01-.16-.01-.12c-.03-.24-.41-.24-.38 0 .01.1.01.22.06.31.06.12.26.12.32 0 .07-.14.06-.49-.03-.62a.188.188 0 0 0-.34.04c-.08.21-.02.53-.02.74-.01.48-.04.96-.07 1.44-.07.91-.19 1.81-.36 2.71-.34 1.84-.85 3.64-1.48 5.39-1.32 3.63-3.2 7.06-5.41 10.23-2.18 3.12-4.71 6-7.56 8.53-2.84 2.52-6.01 4.56-9.41 6.25a49.1 49.1 0 0 1-22.58 5.1c-7.77-.11-15.42-1.97-22.59-4.89-7.7-3.13-14.88-7.45-21.53-12.42q-1.305-.975-2.58-1.98c-.19-.15-.45.12-.27.27m31.5-65.2c.02-.98.43-1.87 1.23-2.44.75-.54 1.69-.78 2.6-.82 2.14-.1 4.32.87 6.12 1.93 2.08 1.22 3.94 2.83 5.48 4.68.75.9 1.42 1.87 1.98 2.91s.91 2.11 1.21 3.23c.32 1.19.65 2.41 1.42 3.4s1.87 1.65 2.88 2.37c1.97 1.41 3.7 3.16 5.12 5.11 2.87 3.95 4.51 8.77 4.49 13.67s-1.73 10.07-4.79 14.08c-.38.5-.78.97-1.2 1.44-.16.18.1.44.27.27 3.47-3.84 5.58-8.82 6.01-13.97s-.87-10.06-3.54-14.31a23.9 23.9 0 0 0-4.91-5.64c-.98-.81-2.08-1.47-3.06-2.28-.53-.44-1-.93-1.35-1.52s-.57-1.23-.76-1.88c-.34-1.17-.62-2.34-1.13-3.46s-1.12-2.05-1.82-2.98c-1.5-1.97-3.35-3.68-5.43-5.02-1.85-1.2-4.05-2.26-6.28-2.41-1.76-.11-3.89.48-4.65 2.24-.19.44-.27.91-.28 1.39 0 .24.37.24.38 0Z"/><path fill="var(--color-primary)" d="M77.12 99.08c.31-.72.77-1.37 1.16-2.04.77-1.34 1.42-2.74 2.01-4.16.09-.22-.27-.32-.36-.1-.59 1.42-1.25 2.8-2.01 4.13-.38.66-.82 1.29-1.12 1.99-.09.22.23.41.32.19Z"/><path fill="var(--color-primary)" d="M80.21 92.98c5-3.66 10.18-7.08 15.53-10.22 1.52-.89 3.06-1.77 4.61-2.61.21-.12.02-.44-.19-.32-5.43 2.98-10.72 6.24-15.82 9.76-1.45 1-2.89 2.03-4.32 3.07-.19.14 0 .47.19.32m-52.84 51.35c4.89-3.53 9.47-7.47 13.93-11.53 1.07-.97 2.14-1.96 3.2-2.93.18-.16-.09-.43-.27-.27-4.13 3.79-8.28 7.58-12.67 11.07-1.44 1.14-2.9 2.26-4.39 3.33-.19.14 0 .47.19.32Zm-10.81-19.95h-.08c.24.31.48.63.72.94v-.02l-1.68.45c.25.21.44.3.77.33.1 0 .34.07 0 0 .14.03.29.05.44.09.13.03.25.07.38.11.07.02.14.06.21.08-.36-.12-.11-.04-.02 0 .13.07.27.14.39.22.05.03.09.06.14.1.25.18-.17-.15-.02-.02.23.2.44.41.63.65l-.2-.25c.23.3.43.62.58.96l-.13-.31c.07.16.12.31.17.48.02.07.04.15.05.22.06.28.2.5.38.71.29.33.81.44 1.22.32.46-.13.71-.46.88-.88.16-.4 0-.93-.15-1.33-.12-.31-.25-.62-.43-.91-.37-.6-.85-1.06-1.41-1.47a5 5 0 0 0-1.59-.75c-.68-.18-1.75-.33-2.3.22-.43.43-.37 1.14.1 1.51.44.34 1.22.27 1.49-.28l.02-.04-1.03.27.07.03c.44.23.99.03 1.12-.46s-.25-.93-.74-.97Zm17.02-13.65c.34.1.57.18.85.32.15.08.31.16.45.25.09.06.18.11.26.17.05.04.12.1.03.02.27.22.52.45.78.68.13.12.26.24.38.36.07.08.14.15.21.23.02.02.2.24.1.12s.1.14.1.14c.05.08.1.15.15.23.1.16.19.31.27.48.04.08.08.16.12.25.1.21-.03-.08.02.05.06.17.13.34.19.52s.1.35.14.53c.02.09.03.18.05.27.05.24 0-.11 0 .05.03.39.05.76.02 1.15-.04.66.61 1.29 1.26 1.26.72-.03 1.21-.55 1.26-1.26.13-1.93-.53-3.8-1.76-5.26-.25-.29-.52-.56-.82-.81-.45-.36-.88-.6-1.41-.82-.79-.32-1.59-.52-2.44-.58-.96-.07-1.1 1.38-.22 1.64Z"/><path fill="var(--color-primary)" d="m33.26 116.7 14.28-11.46c4.74-3.81 9.48-7.61 14.23-11.42l8.04-6.45c.19-.15-.08-.41-.27-.27L55.26 98.56c-4.74 3.81-9.48 7.61-14.23 11.42l-8.04 6.45c-.19.15.08.41.27.27"/><path fill="var(--color-primary)" d="M59.26 89.59c1.66.17 3.24.98 4.34 2.24s1.72 3.07 1.62 4.8c-.01.24.36.24.38 0 .1-1.84-.52-3.68-1.73-5.07s-2.84-2.17-4.6-2.35c-.24-.03-.24.35 0 .38ZM85.59 59.9c3.24.4 6.35 1.76 8.86 3.86s4.44 5.06 5.38 8.28c.53 1.84.75 3.76.65 5.67-.01.24.36.24.38 0 .19-3.48-.7-6.99-2.5-9.98s-4.35-5.21-7.39-6.65c-1.7-.8-3.51-1.33-5.37-1.56-.24-.03-.24.35 0 .38Z"/><path fill="var(--color-primary)" d="M90.61 64.12c3.27-3.08 6.62-6.07 10.05-8.96s6.97-5.72 10.57-8.43 7.24-5.3 10.97-7.8 7.52-4.9 11.38-7.19 7.78-4.48 11.76-6.56c.49-.26.99-.51 1.48-.77.21-.11.03-.43-.19-.32q-6.015 3.09-11.85 6.51c-3.89 2.28-7.71 4.66-11.47 7.15-3.74 2.48-7.42 5.06-11.02 7.73-3.6 2.68-7.13 5.45-10.57 8.32s-6.85 5.86-10.15 8.93c-.41.38-.81.76-1.22 1.14-.18.17.09.43.27.27Z"/><path fill="var(--color-primary)" d="M108.39 37.18c3.96.88 7.69 2.71 10.81 5.31a25.4 25.4 0 0 1 7.23 9.9c.88 2.17 1.47 4.45 1.73 6.77.03.24.4.24.38 0-.47-4.2-1.98-8.27-4.36-11.76s-5.52-6.25-9.19-8.19a26 26 0 0 0-6.48-2.39c-.24-.05-.34.31-.1.36ZM131.5 22.4c3.6 1.15 6.88 3.21 9.49 5.93 2.78 2.9 4.72 6.52 5.64 10.43.53 2.25.71 4.57.54 6.88-.02.24.36.24.38 0 .31-4.18-.55-8.42-2.45-12.15-1.77-3.48-4.45-6.46-7.68-8.63a23 23 0 0 0-5.82-2.81c-.23-.07-.33.29-.1.36Zm13.34-2c4.19.75 7.63 3.9 8.7 8.03.31 1.2.41 2.44.31 3.67-.02.24.36.24.38 0 .37-4.45-1.98-8.78-5.92-10.89-1.05-.56-2.19-.96-3.36-1.17-.24-.04-.34.32-.1.36Z"/><path fill="var(--color-primary)" d="M147.7 25.11a83.4 83.4 0 0 1 15.46-11.36c.21-.12.02-.44-.19-.32a84.5 84.5 0 0 0-12.32 8.58c-1.09.92-2.16 1.86-3.21 2.84-.18.16.09.43.27.27Z"/><path fill="var(--color-primary)" d="M149.4 15.68c2.37-.06 4.72.68 6.65 2.06s3.35 3.45 4 5.75c.36 1.28.49 2.6.38 3.93-.02.24.35.24.38 0 .21-2.44-.41-4.93-1.72-6.99s-3.3-3.62-5.59-4.45c-1.31-.48-2.7-.7-4.09-.67-.24 0-.24.38 0 .38ZM84.9 128.25c3.52 2.16 6.97 4.42 10.37 6.76 3.39 2.34 6.72 4.77 9.98 7.29 1.85 1.43 3.68 2.89 5.49 4.37.19.15.45-.11.27-.27a232.5 232.5 0 0 0-25.91-18.49c-.21-.13-.39.2-.19.32Zm26.53 19.57a7.02 7.02 0 0 1-1.8 4.3c-.16.18.1.44.27.27a7.37 7.37 0 0 0 1.91-4.56c.01-.24-.36-.24-.38 0Z"/></svg>
