<?xml version="1.0" encoding="UTF-8"?><svg xmlns="http://www.w3.org/2000/svg" viewBox="0 0 180 180"><g fill="var(--color-secondary)"><path d="M121.78 28.22c3.35-2.22 8.34.15 9.7 3.93s-.21 8.11-2.89 11.11c-2.68 2.99-7.58 4.67-11.1 6.6-13.5 7.37-25.98 16.31-33.26 29.86-7.24 13.48-6.92 29.58-6.43 44.87-5.76 1.1-12.01-.81-16.17-4.93-2.2 4.52-1.79 10.21 1.04 14.36s7.97 6.62 12.98 6.23c2.8-.22 5.57-1.26 8.35-.88s5.57 3.13 4.52 5.74c-.65 1.61-2.43 2.41-4.09 2.9-10.7 3.19-23.11-.49-30.34-8.99-2.99 7.11.44 15.86 6.72 20.33s14.69 5.15 22.18 3.34c4.36-1.05 8.89-3.22 10.73-7.3 1.2-2.67 1.06-5.73.89-8.65-.23-3.97-.47-8-1.78-11.75-1.01-2.88-2.62-5.51-3.66-8.38-2.11-5.86-1.65-12.31-.96-18.5l1.2 10.32c-.56-10.44-1.05-21.29 2.98-30.93 3.68-8.8 10.88-15.77 18.97-20.83s17.12-8.39 26.07-11.69c3.81 2.51 9.09 1.3 12.78-1.38 6.18-4.48 9.23-12.88 7.37-20.29-1.87-7.41-8.53-13.36-16.1-14.37-7.57-1.02-10.95 2-19.65 8.67"/><path d="M122.3 29.11c2.92-1.66 6.79.44 7.89 3.39 1.41 3.77-.76 8.23-3.66 10.67-2.96 2.49-6.81 3.73-10.16 5.56-3.62 1.98-7.17 4.08-10.6 6.38-6.66 4.46-12.92 9.65-17.86 16-5.3 6.82-8.77 14.62-10.38 23.1-1.91 10.01-1.65 20.25-1.3 30.38l1.16-1.52c-5.25.95-10.79-.87-14.6-4.56-.69-.67-2.09-.64-2.55.33-2.38 5.08-2.15 11.29 1.05 15.99 3.07 4.51 8.53 7.32 14 7.03 2.95-.16 6.46-1.79 9.35-.73 1.05.39 2.26 1.29 2.51 2.45.26 1.23-.88 2-1.85 2.45-4.52 2.06-10.39 1.89-15.12.79-5.8-1.35-11.04-4.43-14.93-8.94-.88-1.02-2.29-.31-2.7.71-2.52 6.19-.65 13.26 3.4 18.34 4.47 5.61 11.71 8.16 18.71 8.31 6.53.14 14.87-1.41 19.14-6.86 2.43-3.11 2.7-6.96 2.52-10.77-.2-4.15-.41-8.43-1.68-12.42-1.41-4.46-4.08-8.31-4.92-12.97-.84-4.65-.38-9.47.13-14.13h-3.23c.4 3.44.81 6.88 1.2 10.32.23 2.01 3.33 2.11 3.22 0-.6-11.33-1.19-23.42 4.5-33.67 5.24-9.43 14.31-15.96 23.81-20.63 6-2.95 12.28-5.25 18.54-7.57l-1.26-.16c5.46 3.41 12.41.86 16.68-3.28 4.2-4.07 6.59-10.01 6.43-15.85-.31-11.34-11.23-21.1-22.59-19.89-6.28.67-11.25 5.3-16.05 8.98-1.47 1.13-.02 3.67 1.47 2.52 3.81-2.92 7.82-6.71 12.52-8.12 4.2-1.26 8.97-.27 12.68 1.93 4.32 2.55 7.48 6.82 8.44 11.77s-.28 9.93-3.09 13.95c-2.78 3.98-8.2 7.6-13.23 5.97-.6-.19-1.06-.54-1.62-.79-.78-.34-1.33-.14-2.11.15-1.57.58-3.13 1.16-4.69 1.75-2.9 1.1-5.78 2.24-8.62 3.47-10.62 4.59-20.81 10.82-27.68 20.35-3.85 5.35-6.13 11.55-7.06 18.06-1 6.99-.68 14.05-.3 21.08h3.22c-.4-3.44-.8-6.88-1.19-10.32-.24-2.07-3-2.08-3.23 0-.42 3.79-.76 7.61-.48 11.42.28 3.84 1.27 7.37 2.9 10.85s3.06 6.93 3.53 10.86c.2 1.68.3 3.36.4 5.04.11 1.9.27 3.86.02 5.75-.91 6.8-8.42 9.15-14.31 9.78-6.25.67-13.21-.45-18.09-4.71-4.93-4.31-7.44-11.4-4.92-17.65-.9.24-1.8.48-2.7.71 7.4 8.56 19.68 12.43 30.67 9.71 2.52-.62 5.48-1.67 6.43-4.35.98-2.75-.84-5.51-3.22-6.82-3.06-1.69-6.49-.74-9.73-.22-2.91.46-5.82.1-8.45-1.28-5.96-3.15-8.51-10.58-5.62-16.73l-2.55.33c4.71 4.57 11.3 6.45 17.73 5.3.65-.12 1.17-.88 1.16-1.52-.28-9.4-.57-18.94 1.06-28.25 1.57-8.95 5.12-17.24 10.88-24.3 5.41-6.62 12.12-11.93 19.34-16.45 3.58-2.24 7.24-4.32 11.05-6.15 3.75-1.79 7.32-3.71 9.56-7.34 2.28-3.7 3.14-8.94.26-12.57-2.38-3.01-6.9-4.48-10.26-2.21-1.09.73-.13 2.44 1.04 1.78Z"/></g><g fill="var(--color-secondary)"><path d="M35.72 105.2c2.38 1.12 5.43-.77 6.01-3.33s-.88-5.28-3.03-6.77c1.54 1.13 3.71.24 5.36-.72 5.12-2.96 10.93-6.14 15.45-9.96-2.72 8.74-4.28 17.9-2.7 26.91.23 1.29.47 2.7-.19 3.83-.79 1.34-2.53 1.72-3.76 2.68-1.31 1.03-1.96 2.67-2.76 4.14-1.67 3.08-4.17 5.61-6.64 8.1 2.94-8.27.34-18.22-6.28-24"/><path d="M35.24 106.02c2.79 1.52 6.28-.24 7.47-3.03 1.45-3.4-.57-7.08-3.31-9.1l-1.41 2.41c1.82 1.15 3.89.7 5.73-.16 1.91-.9 3.73-2.08 5.56-3.14 3.91-2.27 7.75-4.68 11.27-7.53l-2.48-1.44c-2.82 8.66-4.3 17.95-2.88 27.02.14.92.52 2.08.22 3-.24.74-.95 1.07-1.6 1.42-1.64.89-2.9 1.86-3.88 3.5-1.04 1.75-1.87 3.56-3.13 5.17-1.35 1.73-2.92 3.28-4.46 4.84.88.51 1.76 1.02 2.64 1.54 3.09-8.88.36-19.31-6.67-25.55-1.54-1.36-3.81.89-2.26 2.26 6.22 5.54 8.59 14.57 5.89 22.45-.52 1.52 1.57 2.62 2.64 1.54 1.54-1.56 3.08-3.13 4.45-4.85 1.33-1.67 2.31-3.45 3.32-5.31.48-.88.99-1.68 1.85-2.24.66-.43 1.4-.73 2.06-1.17 1.72-1.15 2.49-2.88 2.3-4.94-.21-2.26-.69-4.47-.79-6.76-.11-2.34-.03-4.69.19-7.02.46-4.81 1.63-9.5 2.98-14.12.44-1.51-1.41-2.37-2.48-1.44-2.91 2.51-6.16 4.56-9.45 6.51-1.63.97-3.28 1.91-4.92 2.86-1.31.75-3.18 2.1-4.69 1.15s-2.83 1.37-1.41 2.41c1.67 1.21 3.04 3.43 2.41 5.55-.55 1.87-2.57 2.98-4.43 2.43-1.03-.3-1.69 1.22-.73 1.74"/></g><g fill="var(--color-secondary)"><path d="M112.41 74.71c-1.88 2.02-1.43 5.42.26 7.61s4.28 3.45 6.77 4.64c3.71 1.77 7.43 3.54 11.14 5.31 1.73.82 3.54 1.66 5.45 1.6 3.37-.11 6.47-3.01 9.74-2.19-4.49 2.79-9.06 5.64-12.54 9.61-3.49 3.97-5.81 9.31-4.95 14.53-3.7-2.32-7.39-4.64-11.09-6.96-3.25-2.04-6.51-4.09-9.95-5.81-4.01-2-8.55-3.56-12.92-2.58-1.03-10.19 4.19-20.75 12.92-26.11.71-.44 1.46-.85 2.29-.94s1.75.18 2.19.88"/><path d="M111.71 74.01c-2.62 2.52-2.08 6.58 0 9.28 2.47 3.21 6.59 4.72 10.13 6.41l6.69 3.18c1.87.89 3.76 1.93 5.82 2.29s3.87-.12 5.73-.85c1.67-.66 3.47-1.63 5.31-1.23-.12-.89-.23-1.79-.35-2.68-4.94 2.92-9.96 5.97-13.62 10.5-3.51 4.35-5.55 9.72-4.71 15.34.8-.61 1.59-1.22 2.39-1.84-5.73-3.55-11.35-7.32-17.18-10.69-5.42-3.14-11.61-6.26-18.05-4.89l2.15 1.64c-.54-5.33.61-10.66 3.22-15.34 1.29-2.3 2.89-4.39 4.79-6.22.99-.95 5.22-5.06 6.51-3.45 1.33 1.66 3.66-.69 2.34-2.34-2.51-3.14-6.63-.28-8.96 1.52-2.6 2.01-4.81 4.47-6.6 7.23-3.54 5.45-5.28 12.11-4.71 18.59.1 1.15 1 1.87 2.15 1.64 5.93-1.18 11.78 2.22 16.69 5.12 5.41 3.2 10.69 6.62 15.99 9.99 1.32.84 2.58-.54 2.39-1.84-.7-4.78 1.57-9.59 4.68-13.1 3.37-3.8 7.77-6.59 11.99-9.34.98-.64.96-2.41-.35-2.68-3.5-.71-6.11 1.51-9.4 2.08-1.93.33-3.75-.52-5.45-1.32-1.86-.88-3.71-1.77-5.57-2.65-3.34-1.59-7.07-2.95-10.1-5.11-2.46-1.77-4.39-5.2-2.38-8.04.67-.94-.77-1.96-1.56-1.2Z"/></g><g fill="var(--color-secondary)"><path d="M154.89 103.35c-5.91 3.28-10.25 9.26-11.54 15.89-.58 2.96-.42 6.41 1.79 8.46 1.78 1.66 4.52 1.96 6.84 1.23 2.31-.74 4.24-2.37 5.85-4.19 3.35-3.81 5.55-8.63 6.21-13.67.31-2.36.26-4.9-.99-6.92-1.24-2.03-3.99-3.27-6.11-2.18"/><path d="M154.68 102.57c-5.09 1.64-8.73 6.09-10.84 10.82-1.94 4.34-3.61 10.71-.13 14.75 1.67 1.93 4.35 2.81 6.85 2.55 2.76-.29 5.2-1.87 7.15-3.77 4.08-3.96 6.78-9.46 7.62-15.06.47-3.13.46-6.69-1.69-9.24-1.7-2.02-4.92-3.17-7.29-1.66-1.1.7-.41 2.55.91 2.16 1.95-.58 3.85.3 4.8 2.11 1.06 2.01.84 4.55.44 6.71-.82 4.48-2.85 8.76-5.94 12.13-1.54 1.68-3.39 3.2-5.67 3.69-1.95.41-4.18.05-5.4-1.65-2.34-3.27-.72-8.42.88-11.65 2.1-4.24 5.59-7.45 9.09-10.51.61-.53-.03-1.6-.79-1.36Z"/></g><g fill="var(--color-secondary)"><path d="M25.34 104.02c5.91 3.28 10.25 9.26 11.54 15.89.58 2.96.42 6.41-1.79 8.46-1.78 1.66-4.52 1.96-6.84 1.23-2.31-.74-4.24-2.37-5.85-4.19-3.35-3.81-5.55-8.63-6.21-13.67-.31-2.36-.26-4.9.99-6.92 1.24-2.03 3.99-3.27 6.11-2.18"/><path d="M24.77 104.59c3.08 2.7 6.16 5.47 8.29 9.03 1.96 3.28 3.63 7.91 2.38 11.72-1.61 4.91-7.56 3.31-10.47.67-3.36-3.04-5.7-7.25-6.83-11.61-.63-2.43-1.12-5.26-.3-7.7.75-2.22 2.84-3.6 5.14-2.92 1.31.39 2.02-1.45.91-2.16-2.12-1.35-4.93-.55-6.7 1.04-2.09 1.88-2.66 4.92-2.52 7.61.29 5.78 2.75 11.44 6.48 15.82 3.39 3.98 9.1 7.3 14.06 3.89 4.53-3.11 3.56-9.6 1.96-14.04-1.97-5.47-5.85-10.86-11.61-12.71-.76-.24-1.4.82-.79 1.36"/></g><g fill="var(--color-primary)"><path d="M58.83 127.73c.05-4.76.37-9.53.43-14.29.06-4.67.12-9.33.21-14 .15-8.5.91-16.82 4.42-24.66C70.42 60.2 83.1 49.51 96.62 41.61c4.13-2.41 8.37-4.61 12.67-6.7 4.37-2.12 8.87-3.99 13.19-6.21 1.26-.65.37-2.87-.98-2.33-4.06 1.61-8.01 3.55-11.95 5.44s-7.92 3.89-11.77 6.03c-7.38 4.11-14.46 8.86-20.64 14.64-5.69 5.31-10.58 11.46-14.13 18.4-3.9 7.62-5.54 15.74-5.86 24.26-.2 5.36-.18 10.74-.22 16.1-.04 5.51.21 11.01.22 16.51 0 1.09 1.68 1.09 1.69 0Zm66.58-101.71c6.74-.18 12.11 6.41 14.69 11.94 1.22 2.61 2.04 5.39 2.07 8.28.01 1.35-.2 2.68-.74 3.94-.57 1.33-1.53 2.1-2.44 3.16s.21 2.41 1.43 1.85c2.94-1.34 4.04-5.36 4.46-8.24.5-3.45-.56-7.05-1.95-10.18-1.53-3.43-3.9-6.79-6.85-9.15-3.18-2.55-6.82-3.65-10.87-3.06-.83.12-.63 1.48.2 1.46"/><path d="M139.49 52.64c-6.87 3.36-13.56 7.01-20.25 10.7-5.9 3.26-12.07 6.29-17.34 10.56-5.01 4.06-8.37 9.26-9.93 15.53-1.53 6.18-1.73 12.72-1.86 19.05-.08 4-.07 8-.13 12s-.27 8.2-.33 12.3c-.02 1.49 2.46 1.91 2.67.36 1.8-13.22-.27-26.74 2.04-39.92 1.08-6.17 3.42-11.52 8.1-15.8 4.83-4.42 10.82-7.44 16.48-10.63 7.22-4.08 14.43-8.16 21.45-12.6.99-.62.13-2.06-.91-1.55Z"/><path d="M119.3 27.89c-1.04-3.29 2.17-5.42 4.38-7.13 2.61-2.02 5.24-3.91 8.54-4.58 5.6-1.13 11.59 1.51 15.57 5.39 4.28 4.16 7.31 9.72 8.5 15.57.99 4.86.6 9.89-2.95 13.64-4.24 4.48-11.75 8.49-17.56 4.58-1.77-1.19-3.28 1.58-1.64 2.81 6.21 4.63 14.34.89 19.59-3.32 2.37-1.91 4.27-4.33 5.33-7.2 1.04-2.81 1.1-5.88.71-8.82-1.72-12.87-12.89-27.96-27.43-25.1-1.98.39-3.9 1.19-5.71 2.08-1.85.91-3.82 1.87-5.47 3.1-3.05 2.28-5.79 5.9-3.73 9.78.54 1.02 2.22.32 1.87-.79ZM56.92 130.06c.24 1.84.51 3.38 1.48 5 .88 1.46 2.07 2.7 3.41 3.74 3.24 2.5 7.28 3.49 11.31 3.78 4.13.3 8.86.31 12.75-1.25 3.39-1.36 6.27-4.07 6.3-7.92.01-1.32-1.87-1.52-2.26-.31-2.17 6.8-10.79 6.68-16.57 6.35-3.25-.18-6.56-.79-9.36-2.54-2.26-1.41-4.81-4.07-5.17-6.85-.16-1.19-2.05-1.2-1.89 0"/><path d="M57.75 125.64c-2.22.06-4.05 1.52-5.17 3.36-1.34 2.18-1.51 4.74-1.39 7.24.14 2.82.01 5.6.02 8.42s-.32 6 .24 8.85c.19.98 1.78.97 1.97 0 .5-2.46.25-5.12.27-7.62.01-2.45-.1-4.9-.06-7.35.08-4.08.5-8.94 4.66-10.85 1.01-.46.48-2.07-.55-2.04Z"/><path d="M52.08 154.81c2.29 6.16 9.3 10.08 15.38 11.35 3.76.78 7.65.97 11.48.81 3.77-.15 7.54-.75 10.98-2.37 3.33-1.57 5.97-4.22 7.17-7.74.43-1.27-1.42-1.95-2.1-.88-4.46 7.03-13.46 7.95-21.03 7.63-4.05-.17-8.17-.91-11.88-2.6-1.62-.74-3.18-1.65-4.54-2.8-1.46-1.23-2.5-2.65-3.63-4.17-.61-.83-2.26-.39-1.83.77"/><path d="M92.17 128.5c1.68.66 2.76 2.75 3.12 4.4.5 2.29.21 4.8.16 7.13-.1 4.87-.42 9.8-.07 14.66.12 1.67 2.38 1.62 2.56 0 .65-5.64.51-11.43.62-17.11.09-4.38-.55-10.27-5.85-11.08-1.31-.2-1.79 1.5-.55 1.99Zm28.48-106.31c3.08-2.31 7.15-2.94 10.87-2.13 3.78.82 7.13 3.08 9.74 5.89 2.83 3.04 4.82 6.77 6.4 10.59 1.65 4 3.2 8.45 2.42 12.83-.58 3.28-2.74 6.6-6.01 7.7-.39.13-.79.23-1.19.29-.24.04-.14.4.1.36 3.49-.56 6.05-3.54 7.09-6.77 1.37-4.23.14-8.83-1.39-12.84-1.53-4.02-3.44-7.97-6.19-11.31-2.5-3.04-5.78-5.56-9.57-6.75-3.67-1.15-7.85-.92-11.22 1-.43.25-.84.52-1.24.82-.19.14 0 .47.19.32"/><path d="M53.68 132.42c-.95 3.81.92 7.72 3.72 10.27 1.4 1.27 3.08 2.22 4.78 3.02s3.61 1.45 5.5 1.91c3.86.94 7.9 1.19 11.84.78 1.92-.2 3.83-.55 5.69-1.08s3.56-1.21 5.15-2.23c3.08-1.97 5.64-5.06 6.28-8.73q.12-.675.15-1.35c.01-.24-.36-.24-.38 0-.17 3.71-2.41 6.97-5.33 9.13-2.96 2.19-6.63 3.21-10.23 3.73-3.81.55-7.73.46-11.51-.27-3.65-.7-7.25-1.99-10.33-4.1-3.05-2.09-5.44-5.73-5.19-9.54.03-.48.11-.95.23-1.42.06-.23-.3-.33-.36-.1Z"/><path d="M77.17 140.46c.29-8.7-.12-17.41-.05-26.11.07-8.61.57-17.32 2.83-25.67 1.11-4.13 2.66-8.14 4.73-11.88 2.17-3.95 4.92-7.51 8.04-10.75 6.22-6.47 13.7-11.58 21.5-15.97 7.82-4.4 16-8.1 24.12-11.89l2.94-1.38c.22-.1.03-.43-.19-.32-8.18 3.86-16.45 7.52-24.42 11.82-7.89 4.25-15.53 9.14-22.06 15.34-3.23 3.07-6.19 6.44-8.6 10.2-2.33 3.63-4.15 7.57-5.5 11.66-2.7 8.19-3.5 16.87-3.71 25.45-.21 8.78.22 17.57.08 26.35-.02 1.05-.04 2.11-.08 3.16 0 .24.37.24.38 0Z"/><path d="M69.99 64.25c4.73-.05 9.45 1.17 13.58 3.49s7.25 5.43 9.63 9.26c1.31 2.11 2.33 4.4 3.02 6.79.07.23.43.13.36-.1-1.24-4.3-3.55-8.28-6.65-11.5-3.26-3.38-7.4-5.86-11.9-7.19-2.61-.77-5.32-1.15-8.04-1.13-.24 0-.24.38 0 .38m41.66-31.36c4.68.25 9.19 2.31 12.53 5.58 3.52 3.45 5.5 8.2 5.63 13.12.07 2.82-.45 5.66-1.59 8.25-.1.22.23.41.32.19 2.07-4.7 2.18-10.18.37-14.97-1.72-4.56-5.19-8.28-9.54-10.46a19.5 19.5 0 0 0-7.72-2.07c-.24-.01-.24.36 0 .38ZM57.7 117.35c3.73 3.11 8.19 5.28 12.91 6.42s9.62 1.26 14.35.33a31 31 0 0 0 7.71-2.61c.22-.11.03-.43-.19-.32-4.29 2.13-9.08 3.17-13.86 3.18-4.75 0-9.52-1-13.84-2.98a30.3 30.3 0 0 1-6.81-4.28c-.18-.15-.45.11-.27.27Z"/></g><path fill="var(--color-primary)" d="M14.52 94.82c-7.25 6.38-7.25 17.64-3.31 25.78 2.16 4.46 5.46 8.43 9.2 11.66 3.76 3.25 8.48 6.01 13.63 5.49 4.91-.5 9.6-3.84 13.07-7.15.85-.82 1.59-1.74 2.35-2.65s1.48-1.77 1.92-2.89c.85-2.19.72-4.66.43-6.95-1.04-8.49-4.18-16.87-10.85-22.56-3.39-2.89-8.05-5.45-12.61-5.55-1.94-.04-3.85.54-5.65 1.23-2.6 1-5.11 2.22-7.66 3.34-1.19.53-.34 2.6.9 2.13 2.14-.82 4.23-1.71 6.35-2.57 1.49-.61 3.04-1.24 4.65-1.48 3.32-.51 6.98 1.18 9.72 2.89 6.47 4.03 10.47 11.22 12.09 18.52.44 1.97.72 3.98.96 5.98.27 2.26.33 4.26-1.28 6.04-2.97 3.26-6.74 6.58-10.94 8.11-8.89 3.25-17.52-5.11-21.92-11.95-2.62-4.06-4.15-8.6-4.1-13.46.05-4.45 1.44-9.21 4.33-12.67.75-.9-.4-2.08-1.29-1.29Z"/><path fill="var(--color-primary)" d="M34.51 93.25c4.9-2.55 9.6-5.47 14.34-8.3 2.34-1.39 4.67-2.8 7-4.2 1.13-.68 2.27-1.35 3.41-2.02 1.2-.71 2.58-1.37 3.55-2.38.82-.85 0-2.37-1.18-2.02-1.28.38-2.42 1.21-3.55 1.9-1.12.7-2.24 1.39-3.37 2.08-2.39 1.47-4.79 2.92-7.18 4.38-4.71 2.89-9.48 5.7-14.02 8.86-1.02.71-.14 2.27.99 1.69Zm17.38 28.82c1.14-.8 2.31-1.57 3.43-2.4.55-.4 1.08-.83 1.62-1.24l.86-.66.4-.31c.28-.22.47-.42.68-.71.3-.4.18-1.05-.1-1.41s-.87-.65-1.34-.46c-.3.13-.55.24-.81.44-.13.1-.27.21-.4.32l-.85.67c-.55.44-1.11.86-1.65 1.31-1.08.89-2.11 1.83-3.17 2.75-.92.8.3 2.42 1.32 1.71Zm40.34-18.22c.72.24 1.45.1 2.21.11.83 0 1.65.07 2.47.21 1.63.28 3.21.71 4.75 1.3 3.1 1.18 6.06 2.8 8.99 4.34 6.03 3.18 11.9 6.64 17.65 10.31 1.74 1.11 3.32-1.64 1.61-2.75-6.11-3.97-12.42-7.62-18.89-10.98-3.11-1.61-6.25-3.24-9.62-4.25-1.62-.48-3.29-.83-4.99-.83-1.46 0-3.46.03-4.57 1.08-.5.47-.21 1.26.39 1.46m15.18-31.2c2.39 1.33 5.26 1.99 7.79 3.03 2.29.94 4.55 1.93 6.78 3.03 5.03 2.48 9.87 5.32 14.7 8.16 1.69.99 3.37 1.99 5.07 2.96.97.56 1.94 1.12 2.92 1.67 1.05.6 2.14 1.41 3.34 1.63 1.32.24 2.19-1.19 1.29-2.22-1.27-1.46-3.58-2.35-5.23-3.32s-3.22-1.88-4.83-2.82c-2.71-1.58-5.42-3.17-8.16-4.71-4.53-2.55-9.15-4.9-14.03-6.74-1.4-.53-2.82-.98-4.25-1.4-1.57-.47-3.24-1.05-4.88-1.14-1.01-.06-1.36 1.4-.51 1.88Z"/><path fill="var(--color-primary)" d="M131.49 123.36c0-1.97-.24-3.92-.11-5.9s.48-3.95 1.05-5.87c1.14-3.86 3.02-7.54 5.61-10.63 2.52-3 5.64-5.54 9.26-7.1 1.94-.84 4.12-1.51 6.24-1.43 2.37.09 4.57 1.21 6.65 2.27 4.1 2.08 7.06 5.39 7.96 9.96.68 3.46.34 7.08-.59 10.45-1.89 6.87-6.41 13.4-12.87 16.67-3.56 1.8-7.8 2.43-11.68 1.41-4.66-1.22-8.82-4.6-10.43-9.21-.62-1.78-3.47-1.02-2.85.79 3.16 9.13 13.62 13.74 22.7 11.11 8.1-2.34 14.08-9.39 17.06-17.03 3.17-8.14 3.19-18.6-4.13-24.53-2.09-1.69-4.56-2.93-7.05-3.92-2.62-1.04-5.32-1.32-8.08-.69-4.41 1.01-8.46 3.39-11.76 6.45-3.72 3.46-6.59 7.92-8.24 12.72-1.55 4.51-2.41 10.44-.45 14.93.38.86 1.71.38 1.7-.46ZM13.69 99.05c2.52-3.54 7.45-2.47 10.68-.73 3.4 1.83 6.49 4.25 9.14 7.06 5.3 5.63 10.24 14.31 7.93 22.26-1.24 4.28-4.92 7.6-9.53 7.38-1.64-.08-1.61 2.4 0 2.53 4.55.36 8.83-2.46 10.91-6.41 2.35-4.47 2.14-9.74.5-14.4-3.03-8.62-9.88-16.68-18.17-20.65-4.32-2.06-10.18-2.58-13.11 2-.66 1.04.94 1.93 1.63.95Z"/><path fill="var(--color-primary)" d="M166.85 97.25c-6.11-5.52-15.72-.02-20.73 4.45-3.47 3.1-6.04 7.21-7.63 11.56-1.65 4.53-2.45 9.87-1.13 14.58 1.29 4.62 6.05 9.68 11.33 8.2 1.32-.37 1.09-2.45-.33-2.42-1.95.04-3.64-.25-5.24-1.46-1.69-1.29-2.74-3.18-3.27-5.22-1.07-4.09-.34-8.66 1.01-12.59 2.42-7.02 7.72-12.77 14.57-15.65 3.26-1.37 7.21-2.19 10.31 0 .85.6 1.87-.74 1.11-1.44Z"/><path fill="var(--color-primary)" d="M154.68 102.57c-5.09 1.64-8.73 6.09-10.84 10.82-1.94 4.34-3.61 10.71-.13 14.75 1.67 1.93 4.35 2.81 6.85 2.55 2.76-.29 5.2-1.87 7.15-3.77 4.08-3.96 6.78-9.46 7.62-15.06.47-3.13.46-6.69-1.69-9.24-1.7-2.02-4.92-3.17-7.29-1.66-1.1.7-.41 2.55.91 2.16 1.95-.58 3.85.3 4.8 2.11 1.06 2.01.84 4.55.44 6.71-.82 4.48-2.85 8.76-5.94 12.13-1.54 1.68-3.39 3.2-5.67 3.69-1.95.41-4.18.05-5.4-1.65-2.34-3.27-.72-8.42.88-11.65 2.1-4.24 5.59-7.45 9.09-10.51.61-.53-.03-1.6-.79-1.36Zm-129.91 2.02c3.08 2.7 6.16 5.47 8.29 9.03 1.96 3.28 3.63 7.91 2.38 11.72-1.61 4.91-7.56 3.31-10.47.67-3.36-3.04-5.7-7.25-6.83-11.61-.63-2.43-1.12-5.26-.3-7.7.75-2.22 2.84-3.6 5.14-2.92 1.31.39 2.02-1.45.91-2.16-2.12-1.35-4.93-.55-6.7 1.04-2.09 1.88-2.66 4.92-2.52 7.61.29 5.78 2.75 11.44 6.48 15.82 3.39 3.98 9.1 7.3 14.06 3.89 4.53-3.11 3.56-9.6 1.96-14.04-1.97-5.47-5.85-10.86-11.61-12.71-.76-.24-1.4.82-.79 1.36m13.44 3.31c2.34-1.42 4.68-2.84 7.01-4.26.21-.13.02-.45-.19-.32-2.34 1.42-4.68 2.84-7.01 4.26-.21.13-.02.45.19.32m38.43 34.65c.61 1.75 1 3.56 1.14 5.41.02.24.39.24.38 0-.14-1.88-.53-3.73-1.15-5.51-.08-.23-.44-.13-.36.1Z"/><path fill="var(--color-primary)" d="M77.75 148.37v15.88c0 .24.37.24.38 0v-15.88c0-.24-.37-.24-.38 0M141.8 37.43c1.98.12 3.95.23 5.93.35.24.01.24-.36 0-.38-1.98-.12-3.95-.23-5.93-.35-.24-.01-.24.36 0 .38m6.86.39c2.34-1.53 4.67-3.06 7.01-4.59.2-.13.01-.46-.19-.32-2.34 1.53-4.67 3.06-7.01 4.59-.2.13-.01.46.19.32M46.25 102.6c4.07-2.49 8.14-4.98 12.22-7.47.21-.13.02-.45-.19-.32-4.07 2.49-8.14 4.98-12.22 7.47-.21.13-.02.45.19.32m48.58-13.21c2.65-.66 5.4-.23 7.98.5s4.98 1.77 7.36 2.9c2.44 1.17 4.85 2.42 7.27 3.64 2.52 1.27 5.03 2.54 7.55 3.81 2.81 1.42 5.62 2.84 8.44 4.26.21.11.4-.21.19-.32-5.11-2.58-10.21-5.16-15.32-7.74-2.47-1.25-4.92-2.51-7.41-3.72-2.39-1.16-4.82-2.24-7.36-3.01-2.83-.87-5.87-1.42-8.8-.69-.23.06-.13.42.1.36Z"/><path fill="var(--color-primary)" d="M112.8 108.01c-.35-4.31.28-8.66 1.77-12.71 1.49-4.06 3.85-7.82 6.92-10.87 1.75-1.74 4-3.48 6.62-3.23.24.02.24-.35 0-.38-2.28-.22-4.34 1.05-5.99 2.5-1.66 1.46-3.11 3.19-4.36 5a31.1 31.1 0 0 0-4.99 12.26c-.42 2.45-.54 4.95-.34 7.43.02.24.39.24.38 0Zm41.5-3.19c-.75 5.32-3.24 10.34-6.98 14.18a25 25 0 0 1-3.46 2.96c-.2.14 0 .46.19.32 4.44-3.13 7.8-7.69 9.54-12.84.5-1.47.86-2.99 1.07-4.53.03-.24-.33-.34-.36-.1Zm-127.41.49c-.06 5.24 2.15 10.42 5.87 14.09 1.04 1.03 2.21 1.94 3.46 2.7.21.13.4-.2.19-.32-4.4-2.67-7.56-7.19-8.69-12.2-.32-1.4-.47-2.83-.45-4.27 0-.24-.37-.24-.38 0"/></svg>
