<svg preserveAspectRatio="none" width="297" height="175" viewBox="0 0 297 175" fill="none" xmlns="http://www.w3.org/2000/svg">
<g clip-path="url(#clip0_2651_4496)">
<path opacity="0.6" d="M-0.000160857 3.50046C-0.000197719 20.1671 -0.000234581 36.8338 -0.000271443 53.5005C5.03096 53.5005 9.84866 53.5005 14.8765 53.5005C103.927 53.5007 193.072 53.4997 282.134 53.5001C287.107 53.5001 292.007 53.5001 297 53.5001C297 36.8335 297 20.1668 297 3.50015C292.007 3.50012 287.108 3.5001 282.134 3.50008C193.071 3.49971 103.927 3.50066 14.8765 3.50048C9.84874 3.50048 5.03106 3.50047 -0.000160857 3.50046Z" fill="url(#paint0_linear_2651_4496)"/>
<path opacity="0.3" d="M-5.39823e-05 55.5007C-2.35168e-05 62.8341 6.94868e-06 70.1674 3.74142e-05 77.5007C4.98236 77.5007 9.96468 77.5007 14.947 77.5007C24.298 77.5006 33.649 77.5006 43.0001 77.5005C112.925 74.1713 179.358 103.856 254 102.5C263.351 102.5 272.702 102.5 282.053 102.5C287.035 102.5 292.018 102.5 297 102.5C297 95.1666 297 87.8332 297 80.4999C292.018 80.4999 287.035 80.4999 282.053 80.4999C272.702 80.4999 263.351 80.4999 254 80.4999C185.503 82.3258 116.543 52.3235 43 55.5005C33.649 55.5006 24.2979 55.5006 14.9469 55.5007C9.96459 55.5007 4.98227 55.5007 -5.39823e-05 55.5007Z" fill="url(#paint1_linear_2651_4496)"/>
<path opacity="0.3" d="M7.43113e-06 79.4998C7.01376e-06 88.8332 6.59638e-06 98.1665 6.179e-06 107.5C5.17159 107.5 10.3432 107.5 15.5148 107.5C24.6765 107.5 33.8383 107.5 43 107.5C113.244 100.424 167.714 179.618 253.999 173.499C263.161 173.499 272.323 173.499 281.485 173.499C286.657 173.499 291.828 173.499 297 173.499C297 164.166 297 154.833 297 145.499C291.828 145.499 286.657 145.499 281.485 145.499C272.323 145.499 263.161 145.499 253.999 145.499C182.012 153.697 130.421 75.4631 43 79.4998C33.8383 79.4998 24.6765 79.4998 15.5148 79.4998C10.3432 79.4998 5.17159 79.4998 7.43113e-06 79.4998Z" fill="url(#paint2_linear_2651_4496)"/>
<path opacity="0.3" d="M-8.43794e-06 134.5C-7.07172e-06 147.166 -5.7055e-06 159.833 -4.33927e-06 172.5C5.00424 172.483 10.0085 172.466 15.0127 172.45C24.3418 172.419 33.671 172.388 43.0001 172.357C121.237 175.351 185.769 135.109 254 139.643C263.329 139.612 272.658 139.581 281.987 139.55C286.992 139.533 291.996 139.516 297 139.5C297 127.5 297 115.5 297 103.5C291.996 103.483 286.992 103.466 281.987 103.45C272.658 103.419 263.329 103.387 254 103.356C176.896 98.9533 109.894 139.073 43.0001 134.643C33.671 134.612 24.3418 134.581 15.0127 134.55C10.0085 134.533 5.00423 134.516 -8.43794e-06 134.5Z" fill="url(#paint3_linear_2651_4496)"/>
<path opacity="0.6" d="M-5.46132e-06 114.001C-4.59568e-06 120.334 -3.73004e-06 126.667 -2.8644e-06 133.001C5.12597 133.001 10.252 133.001 15.3779 133.001C24.5853 133.001 33.7927 133.001 43 133.001C125.384 137.607 180.856 67.1192 254 74.5001C263.207 74.5001 272.415 74.5001 281.622 74.5001C286.748 74.5001 291.874 74.5001 297 74.5001C297 68.1668 297 61.8334 297 55.5001C291.874 55.5001 286.748 55.5001 281.622 55.5001C272.415 55.5001 263.207 55.5001 254 55.5001C172.272 49.218 115.005 120.231 43 114.001C33.7926 114.001 24.5853 114.001 15.3779 114.001C10.2519 114.001 5.12597 114.001 -5.46132e-06 114.001Z" fill="url(#paint4_linear_2651_4496)"/>
</g>
<defs>
<linearGradient id="paint0_linear_2651_4496" x1="50" y1="28" x2="248" y2="28" gradientUnits="userSpaceOnUse">
<stop stop-color="#0060E5"/>
<stop offset="1" stop-color="#F64632"/>
</linearGradient>
<linearGradient id="paint1_linear_2651_4496" x1="51" y1="67.5" x2="249" y2="96" gradientUnits="userSpaceOnUse">
<stop stop-color="#1F71E3"/>
<stop offset="1" stop-color="#FF8D1C"/>
</linearGradient>
<linearGradient id="paint2_linear_2651_4496" x1="54" y1="92" x2="247" y2="162" gradientUnits="userSpaceOnUse">
<stop stop-color="#1F71E3"/>
<stop offset="1" stop-color="#555659"/>
</linearGradient>
<linearGradient id="paint3_linear_2651_4496" x1="51" y1="153" x2="247" y2="119.5" gradientUnits="userSpaceOnUse">
<stop stop-color="#2697DD"/>
<stop offset="1" stop-color="#FF8D1C"/>
</linearGradient>
<linearGradient id="paint4_linear_2651_4496" x1="47.5" y1="127" x2="249" y2="65" gradientUnits="userSpaceOnUse">
<stop stop-color="#2697DD"/>
<stop offset="1" stop-color="#F64632"/>
</linearGradient>
<clipPath id="clip0_2651_4496">
<rect width="297" height="175" fill="white"/>
</clipPath>
</defs>
</svg>
