<svg width="55" height="175" viewBox="0 0 55 175" fill="none" xmlns="http://www.w3.org/2000/svg">
<g clip-path="url(#clip0_2652_4533)">
<rect width="28" height="175" fill="#F7F7F7"/>
<rect x="1.5" y="1.69238" width="52" height="107" rx="12" fill="#1F71E3" stroke="#F7F7F7" stroke-width="3"/>
<rect x="1.5" y="113" width="52" height="61" rx="12" fill="#2697DD" stroke="#F7F7F7" stroke-width="3"/>
<path d="M18.3213 26.1587C16.1123 26.1587 14.5 24.6035 14.5 21.4995V21.4868C14.5 18.4844 15.9536 16.6816 18.3403 16.6816C20.1113 16.6816 21.4443 17.7036 21.7173 19.1191L21.73 19.1826H19.8384L19.8193 19.1255C19.5908 18.5732 19.083 18.1987 18.334 18.1987C16.9946 18.1987 16.4106 19.4746 16.3408 21.0933C16.3345 21.2202 16.3281 21.3472 16.3281 21.4424H16.3662C16.728 20.5918 17.6294 19.9697 18.8672 19.9697C20.6382 19.9697 21.8506 21.2266 21.8506 22.9404V22.9531C21.8506 24.8257 20.3589 26.1587 18.3213 26.1587ZM16.6201 22.9976C16.6201 23.918 17.3564 24.6353 18.2959 24.6353C19.229 24.6353 19.9844 23.9243 19.9844 23.0229V23.0103C19.9844 22.0581 19.2671 21.3853 18.3149 21.3853C17.3564 21.3853 16.6201 22.0518 16.6201 22.9849V22.9976Z" fill="white" fill-opacity="0.9"/>
<path d="M27.4746 26V24.3179H22.917V22.7183L26.5923 16.8403H29.2964V22.7881H30.5024V24.3179H29.2964V26H27.4746ZM24.5864 22.8389H27.5127V18.2241H27.4683L24.5864 22.7881V22.8389Z" fill="white" fill-opacity="0.9"/>
<path d="M33.6509 21.6582C32.248 21.6582 31.3848 20.7188 31.3848 19.208V19.2017C31.3848 17.6973 32.248 16.7515 33.6509 16.7515C35.0537 16.7515 35.9106 17.6973 35.9106 19.2017V19.208C35.9106 20.7188 35.0537 21.6582 33.6509 21.6582ZM34.8823 26H33.2637L39.0146 16.8403H40.6206L34.8823 26ZM33.6509 20.4521C34.1016 20.4521 34.3491 20.0269 34.3491 19.2144V19.208C34.3491 18.3892 34.1016 17.9702 33.6509 17.9702C33.1938 17.9702 32.9463 18.3892 32.9463 19.208V19.2144C32.9463 20.0269 33.1938 20.4521 33.6509 20.4521ZM40.2461 26.0889C38.8433 26.0889 37.9736 25.1431 37.9736 23.6323V23.626C37.9736 22.1216 38.8433 21.1821 40.2461 21.1821C41.6489 21.1821 42.5059 22.1216 42.5059 23.626V23.6323C42.5059 25.1431 41.6489 26.0889 40.2461 26.0889ZM40.2461 24.8765C40.6968 24.8765 40.938 24.4512 40.938 23.6387V23.6323C40.938 22.8198 40.6968 22.3945 40.2461 22.3945C39.7891 22.3945 39.5415 22.8198 39.5415 23.6323V23.6387C39.5415 24.4512 39.7891 24.8765 40.2461 24.8765Z" fill="white" fill-opacity="0.9"/>
<path d="M14.6079 136V134.686L17.8452 131.658C19.0259 130.554 19.2734 130.103 19.2734 129.468V129.456C19.2671 128.707 18.6958 128.173 17.8833 128.173C16.9438 128.173 16.3091 128.789 16.2837 129.614L16.2773 129.671H14.5V129.621C14.5 127.894 15.9346 126.682 17.8706 126.682C19.8066 126.682 21.1396 127.786 21.1396 129.348V129.36C21.1396 130.471 20.6128 131.195 19.0322 132.648L17.1152 134.4V134.477H21.2666V136H14.6079Z" fill="white" fill-opacity="0.9"/>
<path d="M26.1099 136.159C23.9009 136.159 22.2886 134.604 22.2886 131.5V131.487C22.2886 128.484 23.7422 126.682 26.1289 126.682C27.8999 126.682 29.2329 127.704 29.5059 129.119L29.5186 129.183H27.627L27.6079 129.125C27.3794 128.573 26.8716 128.199 26.1226 128.199C24.7832 128.199 24.1992 129.475 24.1294 131.093C24.123 131.22 24.1167 131.347 24.1167 131.442H24.1548C24.5166 130.592 25.418 129.97 26.6558 129.97C28.4268 129.97 29.6392 131.227 29.6392 132.94V132.953C29.6392 134.826 28.1475 136.159 26.1099 136.159ZM24.4087 132.998C24.4087 133.918 25.145 134.635 26.0845 134.635C27.0176 134.635 27.7729 133.924 27.7729 133.023V133.01C27.7729 132.058 27.0557 131.385 26.1035 131.385C25.145 131.385 24.4087 132.052 24.4087 132.985V132.998Z" fill="white" fill-opacity="0.9"/>
<path d="M33.0225 131.658C31.6196 131.658 30.7563 130.719 30.7563 129.208V129.202C30.7563 127.697 31.6196 126.751 33.0225 126.751C34.4253 126.751 35.2822 127.697 35.2822 129.202V129.208C35.2822 130.719 34.4253 131.658 33.0225 131.658ZM34.2539 136H32.6353L38.3862 126.84H39.9922L34.2539 136ZM33.0225 130.452C33.4731 130.452 33.7207 130.027 33.7207 129.214V129.208C33.7207 128.389 33.4731 127.97 33.0225 127.97C32.5654 127.97 32.3179 128.389 32.3179 129.208V129.214C32.3179 130.027 32.5654 130.452 33.0225 130.452ZM39.6177 136.089C38.2148 136.089 37.3452 135.143 37.3452 133.632V133.626C37.3452 132.122 38.2148 131.182 39.6177 131.182C41.0205 131.182 41.8774 132.122 41.8774 133.626V133.632C41.8774 135.143 41.0205 136.089 39.6177 136.089ZM39.6177 134.876C40.0684 134.876 40.3096 134.451 40.3096 133.639V133.632C40.3096 132.82 40.0684 132.395 39.6177 132.395C39.1606 132.395 38.9131 132.82 38.9131 133.632V133.639C38.9131 134.451 39.1606 134.876 39.6177 134.876Z" fill="white" fill-opacity="0.9"/>
</g>
<defs>
<clipPath id="clip0_2652_4533">
<rect width="55" height="175" fill="white"/>
</clipPath>
</defs>
</svg>
