<svg preserveAspectRatio="none" width="297" height="175" viewBox="0 0 297 175" fill="none" xmlns="http://www.w3.org/2000/svg">
<g clip-path="url(#clip0_2651_4496)">
<path opacity="0.6" d="M-0.000157042 3.50046C-0.000193904 20.1671 -0.000230767 36.8338 -0.000267629 53.5005C5.03096 53.5005 9.84866 53.5005 14.8765 53.5005C103.927 53.5007 193.072 53.4997 282.134 53.5001C287.107 53.5001 292.007 53.5001 297 53.5001C297 36.8335 297 20.1668 297 3.50015C292.007 3.50012 287.108 3.5001 282.134 3.50008C193.071 3.49971 103.927 3.50066 14.8765 3.50048C9.84874 3.50048 5.03106 3.50047 -0.000157042 3.50046Z" fill="url(#paint0_linear_2651_4496)"/>
<path opacity="0.3" d="M-5.33927e-05 55.5004C-2.29272e-05 62.8337 7.53826e-06 70.167 3.80037e-05 77.5004C4.9768 77.5003 9.95356 77.5003 14.9303 77.5003C24.2869 77.5003 33.6435 77.5002 43.0001 77.5002L42.6074 77.4932C112.568 77.649 180.297 101.401 253.804 101.498L254 101.5C263.357 101.5 272.713 101.5 282.07 101.5C287.046 101.5 292.023 101.5 297 101.5C297 94.1667 297 86.8333 297 79.5C292.023 79.5 287.046 79.5 282.07 79.5C272.713 79.5 263.357 79.5 254 79.5L254.196 79.5018C185.145 79.7242 116.042 55.8607 43.3926 55.5072L43 55.5002C33.6434 55.5002 24.2868 55.5003 14.9302 55.5003C9.95347 55.5003 4.97671 55.5003 -5.33927e-05 55.5004Z" fill="url(#paint1_linear_2651_4496)"/>
<path opacity="0.3" d="M7.43113e-06 79.4998C7.01376e-06 88.8332 6.59638e-06 98.1665 6.179e-06 107.5C5.1523 107.5 10.3046 107.5 15.4569 107.5C24.6379 107.5 33.819 107.5 43 107.5L42.2642 107.48C112.846 105.166 170.237 172.79 252.905 173.456L253.999 173.499C263.181 173.499 272.362 173.499 281.543 173.499C286.695 173.499 291.848 173.499 297 173.499C297 164.166 297 154.833 297 145.499C291.848 145.499 286.695 145.499 281.543 145.499C272.362 145.499 263.181 145.499 253.999 145.499L255.094 145.542C183.034 146.936 127.957 79.7945 43.7358 79.5192L43 79.4998C33.819 79.4998 24.6379 79.4998 15.4569 79.4998C10.3046 79.4998 5.1523 79.4998 7.43113e-06 79.4998Z" fill="url(#paint2_linear_2651_4496)"/>
<path opacity="0.3" d="M1.34511e-06 135C3.71015e-07 147.667 -6.03076e-07 160.333 -1.57717e-06 173C5.00177 172.983 10.0035 172.967 15.0053 172.95C24.3369 172.919 33.6684 172.888 43 172.857L43.687 172.844C120.496 172.687 185.691 136.771 254.274 139.641L254 139.643C263.332 139.612 272.663 139.581 281.995 139.55C286.997 139.534 291.998 139.517 297 139.5C297 127.5 297 115.5 297 103.5C291.998 103.484 286.997 103.467 281.995 103.45C272.663 103.419 263.332 103.388 254 103.357L253.727 103.359C177.481 100.541 109.848 136.488 42.313 135.156L43 135.143C33.6684 135.112 24.3369 135.081 15.0053 135.05C10.0035 135.033 5.00177 135.017 1.34511e-06 135Z" fill="url(#paint3_linear_2651_4496)"/>
<path opacity="0.6" d="M-5.46132e-06 114.001C-4.59568e-06 120.334 -3.73004e-06 126.667 -2.8644e-06 133.001C5.11263 133.001 10.2252 133.001 15.3379 133.001C24.5586 133.001 33.7793 133.001 43 133.001L43.4472 132.99C123.754 133.68 181.684 71.7162 254.472 74.4884L254 74.5001C263.221 74.5001 272.441 74.5001 281.662 74.5001C286.775 74.5001 291.887 74.5001 297 74.5001C297 68.1668 297 61.8334 297 55.5001C291.887 55.5001 286.775 55.5001 281.662 55.5001C272.441 55.5001 263.221 55.5001 254 55.5001L253.528 55.5118C173.731 53.833 114.495 116.155 42.5528 114.011L43 114.001C33.7793 114.001 24.5586 114.001 15.3379 114.001C10.2252 114.001 5.11262 114.001 -5.46132e-06 114.001Z" fill="url(#paint4_linear_2651_4496)"/>
</g>
<defs>
<linearGradient id="paint0_linear_2651_4496" x1="50" y1="28" x2="248" y2="28" gradientUnits="userSpaceOnUse">
<stop stop-color="#0060E5"/>
<stop offset="1" stop-color="#F64632"/>
</linearGradient>
<linearGradient id="paint1_linear_2651_4496" x1="51" y1="67.5" x2="249" y2="96" gradientUnits="userSpaceOnUse">
<stop stop-color="#1F71E3"/>
<stop offset="1" stop-color="#FF8D1C"/>
</linearGradient>
<linearGradient id="paint2_linear_2651_4496" x1="54" y1="92" x2="247" y2="162" gradientUnits="userSpaceOnUse">
<stop stop-color="#1F71E3"/>
<stop offset="1" stop-color="#555659"/>
</linearGradient>
<linearGradient id="paint3_linear_2651_4496" x1="51" y1="153" x2="247" y2="119.5" gradientUnits="userSpaceOnUse">
<stop stop-color="#2697DD"/>
<stop offset="1" stop-color="#FF8D1C"/>
</linearGradient>
<linearGradient id="paint4_linear_2651_4496" x1="47.5" y1="127" x2="249" y2="65" gradientUnits="userSpaceOnUse">
<stop stop-color="#2697DD"/>
<stop offset="1" stop-color="#F64632"/>
</linearGradient>
<clipPath id="clip0_2651_4496">
<rect width="297" height="175" fill="white"/>
</clipPath>
</defs>
</svg>
