<svg width="55" height="175" viewBox="0 0 55 175" fill="none" xmlns="http://www.w3.org/2000/svg">
<g clip-path="url(#clip0_2652_4513)">
<rect x="27" width="28" height="175" fill="#F7F7F7"/>
<rect x="1.5" y="79.6924" width="52" height="60" rx="12" fill="#FF8E1C"/>
<rect x="1.5" y="79.6924" width="52" height="60" rx="12" fill="#F7F7F7" fill-opacity="0.5"/>
<rect x="1.5" y="79.6924" width="52" height="60" rx="12" stroke="#F7F7F7" stroke-width="3"/>
<rect x="1" y="144" width="52" height="30" rx="12" fill="#555659"/>
<rect x="1" y="144" width="52" height="30" rx="12" fill="#F7F7F7" fill-opacity="0.5"/>
<rect x="1" y="144" width="52" height="30" rx="12" stroke="#F7F7F7" stroke-width="3"/>
<rect x="1.5" y="1.69238" width="52" height="74" rx="12" fill="#F64632" stroke="#F7F7F7" stroke-width="3"/>
<path d="M18.0576 26.0005V24.3184H13.5V22.7188L17.1753 16.8408H19.8794V22.7886H21.0854V24.3184H19.8794V26.0005H18.0576ZM15.1694 22.8394H18.0957V18.2246H18.0513L15.1694 22.7886V22.8394Z" fill="white" fill-opacity="0.9"/>
<path d="M25.624 26.1592C23.6309 26.1592 22.3105 24.9976 22.1963 23.4678L22.1899 23.3726H23.9609L23.9736 23.417C24.1069 24.1089 24.748 24.6421 25.6304 24.6421C26.6333 24.6421 27.3379 23.9565 27.3379 22.979V22.9663C27.3315 22.0015 26.627 21.3223 25.6367 21.3223C25.167 21.3223 24.7671 21.4619 24.4561 21.7095C24.272 21.8491 24.126 22.0269 24.0181 22.2173H22.3486L22.7676 16.8408H28.6138V18.3643H24.291L24.0688 20.9414H24.1069C24.4878 20.3257 25.2432 19.9512 26.1699 19.9512C27.9092 19.9512 29.166 21.2017 29.166 22.9282V22.9409C29.166 24.8579 27.7188 26.1592 25.624 26.1592Z" fill="white" fill-opacity="0.9"/>
<path d="M32.3589 21.6587C30.9561 21.6587 30.0928 20.7192 30.0928 19.2085V19.2021C30.0928 17.6978 30.9561 16.752 32.3589 16.752C33.7617 16.752 34.6187 17.6978 34.6187 19.2021V19.2085C34.6187 20.7192 33.7617 21.6587 32.3589 21.6587ZM33.5903 26.0005H31.9717L37.7227 16.8408H39.3286L33.5903 26.0005ZM32.3589 20.4526C32.8096 20.4526 33.0571 20.0273 33.0571 19.2148V19.2085C33.0571 18.3896 32.8096 17.9707 32.3589 17.9707C31.9019 17.9707 31.6543 18.3896 31.6543 19.2085V19.2148C31.6543 20.0273 31.9019 20.4526 32.3589 20.4526ZM38.9541 26.0894C37.5513 26.0894 36.6816 25.1436 36.6816 23.6328V23.6265C36.6816 22.1221 37.5513 21.1826 38.9541 21.1826C40.3569 21.1826 41.2139 22.1221 41.2139 23.6265V23.6328C41.2139 25.1436 40.3569 26.0894 38.9541 26.0894ZM38.9541 24.877C39.4048 24.877 39.646 24.4517 39.646 23.6392V23.6328C39.646 22.8203 39.4048 22.395 38.9541 22.395C38.4971 22.395 38.2495 22.8203 38.2495 23.6328V23.6392C38.2495 24.4517 38.4971 24.877 38.9541 24.877Z" fill="white" fill-opacity="0.9"/>
<path d="M17.0674 103.159C14.9917 103.159 13.6333 102.067 13.5063 100.486L13.5 100.404H15.3281L15.3408 100.474C15.4233 101.127 16.0708 101.616 17.061 101.616C18.0449 101.616 18.6797 101.089 18.6797 100.34V100.328C18.6797 99.4517 18.0259 98.9692 16.9214 98.9692H15.874V97.6045H16.896C17.8545 97.6045 18.4766 97.0967 18.4766 96.354V96.3413C18.4766 95.5986 17.9497 95.1543 17.0483 95.1543C16.1533 95.1543 15.5439 95.6177 15.4678 96.3286L15.4614 96.3857H13.7031L13.7095 96.3096C13.8364 94.7227 15.125 93.6816 17.0483 93.6816C19.0225 93.6816 20.292 94.6465 20.292 96.0874V96.1001C20.292 97.2427 19.4541 97.9854 18.3813 98.2075V98.2456C19.7397 98.3726 20.6284 99.1597 20.6284 100.404V100.417C20.6284 102.054 19.2065 103.159 17.0674 103.159Z" fill="white" fill-opacity="0.7"/>
<path d="M25.5034 103.159C23.2944 103.159 21.6821 101.604 21.6821 98.4995V98.4868C21.6821 95.4844 23.1357 93.6816 25.5225 93.6816C27.2935 93.6816 28.6265 94.7036 28.8994 96.1191L28.9121 96.1826H27.0205L27.0015 96.1255C26.7729 95.5732 26.2651 95.1987 25.5161 95.1987C24.1768 95.1987 23.5928 96.4746 23.5229 98.0933C23.5166 98.2202 23.5103 98.3472 23.5103 98.4424H23.5483C23.9102 97.5918 24.8115 96.9697 26.0493 96.9697C27.8203 96.9697 29.0327 98.2266 29.0327 99.9404V99.9531C29.0327 101.826 27.541 103.159 25.5034 103.159ZM23.8022 99.9976C23.8022 100.918 24.5386 101.635 25.478 101.635C26.4111 101.635 27.1665 100.924 27.1665 100.023V100.01C27.1665 99.0581 26.4492 98.3853 25.4971 98.3853C24.5386 98.3853 23.8022 99.0518 23.8022 99.9849V99.9976Z" fill="white" fill-opacity="0.7"/>
<path d="M32.416 98.6582C31.0132 98.6582 30.1499 97.7188 30.1499 96.208V96.2017C30.1499 94.6973 31.0132 93.7515 32.416 93.7515C33.8188 93.7515 34.6758 94.6973 34.6758 96.2017V96.208C34.6758 97.7188 33.8188 98.6582 32.416 98.6582ZM33.6475 103H32.0288L37.7798 93.8403H39.3857L33.6475 103ZM32.416 97.4521C32.8667 97.4521 33.1143 97.0269 33.1143 96.2144V96.208C33.1143 95.3892 32.8667 94.9702 32.416 94.9702C31.959 94.9702 31.7114 95.3892 31.7114 96.208V96.2144C31.7114 97.0269 31.959 97.4521 32.416 97.4521ZM39.0112 103.089C37.6084 103.089 36.7388 102.143 36.7388 100.632V100.626C36.7388 99.1216 37.6084 98.1821 39.0112 98.1821C40.4141 98.1821 41.271 99.1216 41.271 100.626V100.632C41.271 102.143 40.4141 103.089 39.0112 103.089ZM39.0112 101.876C39.4619 101.876 39.7031 101.451 39.7031 100.639V100.632C39.7031 99.8198 39.4619 99.3945 39.0112 99.3945C38.5542 99.3945 38.3066 99.8198 38.3066 100.632V100.639C38.3066 101.451 38.5542 101.876 39.0112 101.876Z" fill="white" fill-opacity="0.7"/>
<path d="M16.5264 164V156.599H16.4883L14.1523 158.186V156.484L16.52 154.84H18.4243V164H16.5264Z" fill="white" fill-opacity="0.7"/>
<path d="M23.9341 154.682C26.1431 154.682 27.7554 156.23 27.7554 159.334V159.347C27.7554 162.35 26.3018 164.159 23.915 164.159C22.144 164.159 20.811 163.13 20.5381 161.715L20.5254 161.658H22.417L22.436 161.708C22.6646 162.261 23.1724 162.635 23.9214 162.635C25.2607 162.635 25.8447 161.359 25.9146 159.741C25.9209 159.62 25.9272 159.493 25.9209 159.392H25.8892C25.5273 160.242 24.626 160.864 23.3882 160.864C21.6172 160.864 20.4048 159.614 20.4048 157.894V157.881C20.4048 156.008 21.8965 154.682 23.9341 154.682ZM23.9404 159.449C24.8989 159.449 25.6353 158.782 25.6353 157.849V157.843C25.6353 156.916 24.8989 156.205 23.9595 156.205C23.0264 156.205 22.271 156.91 22.271 157.817V157.83C22.271 158.782 22.9883 159.449 23.9404 159.449Z" fill="white" fill-opacity="0.7"/>
<path d="M31.0498 159.658C29.647 159.658 28.7837 158.719 28.7837 157.208V157.202C28.7837 155.697 29.647 154.751 31.0498 154.751C32.4526 154.751 33.3096 155.697 33.3096 157.202V157.208C33.3096 158.719 32.4526 159.658 31.0498 159.658ZM32.2812 164H30.6626L36.4136 154.84H38.0195L32.2812 164ZM31.0498 158.452C31.5005 158.452 31.748 158.027 31.748 157.214V157.208C31.748 156.389 31.5005 155.97 31.0498 155.97C30.5928 155.97 30.3452 156.389 30.3452 157.208V157.214C30.3452 158.027 30.5928 158.452 31.0498 158.452ZM37.645 164.089C36.2422 164.089 35.3726 163.143 35.3726 161.632V161.626C35.3726 160.122 36.2422 159.182 37.645 159.182C39.0479 159.182 39.9048 160.122 39.9048 161.626V161.632C39.9048 163.143 39.0479 164.089 37.645 164.089ZM37.645 162.876C38.0957 162.876 38.3369 162.451 38.3369 161.639V161.632C38.3369 160.82 38.0957 160.395 37.645 160.395C37.188 160.395 36.9404 160.82 36.9404 161.632V161.639C36.9404 162.451 37.188 162.876 37.645 162.876Z" fill="white" fill-opacity="0.7"/>
</g>
<defs>
<clipPath id="clip0_2652_4513">
<rect width="55" height="175" fill="white"/>
</clipPath>
</defs>
</svg>
