<svg width="832" height="126" viewBox="0 0 832 126" fill="none" xmlns="http://www.w3.org/2000/svg">
<path d="M832 47.5003H532C526.056 47.4992 520.494 44.5653 517.141 39.6576L512.251 32.5018C505.836 23.1144 495.2 17.5 483.83 17.5L348.168 17.5003C336.799 17.5003 326.163 23.1142 319.748 32.5011L314.858 39.656C311.505 44.5637 305.944 47.4992 300 47.5003H0" stroke="black" stroke-opacity="0.12" stroke-width="3"/>
<path d="M832 52.4999L528.306 52.5C520.212 52.5 512.556 48.8206 507.5 42.5C502.444 36.1794 494.788 32.5 486.694 32.5H345.306C337.212 32.5 329.556 36.1794 324.5 42.5C319.443 48.8206 311.788 52.4999 303.694 52.4999H0" stroke="black" stroke-opacity="0.12" stroke-width="3"/>
<path d="M832 57.5L517.556 57.5006C513.607 57.5006 509.747 56.3317 506.461 54.1413L501.539 50.8593C498.253 48.6689 494.393 47.5 490.444 47.5H341.556C337.607 47.5 333.747 48.6688 330.462 50.859L325.539 54.141C322.253 56.3312 318.393 57.5 314.445 57.5H0" stroke="black" stroke-opacity="0.12" stroke-width="3"/>
<path d="M832 62.5H0" stroke="black" stroke-opacity="0.12" stroke-width="3"/>
<path d="M832 67.5L517.555 67.5006C513.607 67.5006 509.747 68.6694 506.461 70.8596L501.538 74.1416C498.253 76.3318 494.393 77.5006 490.444 77.5006L341.556 77.5C337.607 77.5 333.747 76.3312 330.462 74.141L325.539 70.859C322.253 68.6688 318.393 67.5 314.445 67.5H0" stroke="black" stroke-opacity="0.12" stroke-width="3"/>
<path d="M832 72.5L528.306 72.5006C520.212 72.5006 512.557 76.18 507.5 82.5006C502.444 88.8212 494.788 92.5005 486.694 92.5005H345.306C337.212 92.5005 329.556 88.8206 324.5 82.5C319.443 76.1794 311.788 72.5 303.694 72.5H0" stroke="black" stroke-opacity="0.12" stroke-width="3"/>
<path d="M832 77.5L532 77.5006C526.056 77.5017 520.496 80.4372 517.142 85.3449L512.252 92.4998C505.837 101.887 495.201 107.501 483.832 107.501L348.168 107.5C336.799 107.5 326.163 101.886 319.748 92.4992L314.858 85.3443C311.505 80.4366 305.944 77.5011 300 77.5H0" stroke="black" stroke-opacity="0.12" stroke-width="3"/>
<path d="M832 47.5003H532C526.056 47.4992 520.494 44.5653 517.141 39.6576L512.251 32.5018C505.836 23.1144 495.2 17.5 483.83 17.5L348.168 17.5003C336.799 17.5003 326.163 23.1142 319.748 32.5011L314.858 39.656C311.505 44.5637 305.944 47.4992 300 47.5003H0" stroke="white" stroke-opacity="0.5" stroke-width="2"/>
<path d="M832 52.4999L528.306 52.5C520.212 52.5 512.556 48.8206 507.5 42.5C502.444 36.1794 494.788 32.5 486.694 32.5H345.306C337.212 32.5 329.556 36.1794 324.5 42.5C319.443 48.8206 311.788 52.4999 303.694 52.4999H0" stroke="white" stroke-opacity="0.5" stroke-width="2"/>
<path d="M832 57.5L517.556 57.5006C513.607 57.5006 509.747 56.3317 506.461 54.1413L501.539 50.8593C498.253 48.6689 494.393 47.5 490.444 47.5H341.556C337.607 47.5 333.747 48.6688 330.462 50.859L325.539 54.141C322.253 56.3312 318.393 57.5 314.445 57.5H0" stroke="white" stroke-opacity="0.5" stroke-width="2"/>
<path d="M832 62.5H0" stroke="white" stroke-opacity="0.5" stroke-width="2"/>
<path d="M832 67.5L517.555 67.5006C513.607 67.5006 509.747 68.6694 506.461 70.8596L501.538 74.1416C498.253 76.3318 494.393 77.5006 490.444 77.5006L341.556 77.5C337.607 77.5 333.747 76.3312 330.462 74.141L325.539 70.859C322.253 68.6688 318.393 67.5 314.445 67.5H0" stroke="white" stroke-opacity="0.5" stroke-width="2"/>
<path d="M832 72.5L528.306 72.5006C520.212 72.5006 512.557 76.18 507.5 82.5006C502.444 88.8212 494.788 92.5005 486.694 92.5005H345.306C337.212 92.5005 329.556 88.8206 324.5 82.5C319.443 76.1794 311.788 72.5 303.694 72.5H0" stroke="white" stroke-opacity="0.5" stroke-width="2"/>
<path d="M832 77.5L532 77.5006C526.056 77.5017 520.496 80.4372 517.142 85.3449L512.252 92.4998C505.837 101.887 495.201 107.501 483.832 107.501L348.168 107.5C336.799 107.5 326.163 101.886 319.748 92.4992L314.858 85.3443C311.505 80.4366 305.944 77.5011 300 77.5H0" stroke="white" stroke-opacity="0.5" stroke-width="2"/>
<circle cx="260" cy="63" r="40" fill="#F04832"/>
<circle cx="416" cy="63" r="61.5" fill="#F04832" stroke="#F04832" stroke-width="3"/>
<circle cx="416" cy="63" r="59" stroke="white" stroke-width="2"/>
<circle cx="572" cy="63" r="40" fill="#F04832"/>
<path d="M406 37V41M396 51H392M440 51H436M396 61H392M440 61H436M396 71H392M440 71H436M406 81V85M416 37V41M416 81V85M426 37V41M426 81V85M402 81H430C431.591 81 433.117 80.3679 434.243 79.2426C435.368 78.1174 436 76.5913 436 75V47C436 45.4087 435.368 43.8826 434.243 42.7574C433.117 41.6321 431.591 41 430 41H402C400.409 41 398.883 41.6321 397.757 42.7574C396.632 43.8826 396 45.4087 396 47V75C396 76.5913 396.632 78.1174 397.757 79.2426C398.883 80.3679 400.409 81 402 81ZM404 49H428V73H404V49Z" stroke="#FDFDFD" stroke-width="2" stroke-linecap="round" stroke-linejoin="round"/>
<path d="M246.5 65.5H273.5M246.5 65.5C244.909 65.5 243.383 64.8679 242.257 63.7426C241.132 62.6174 240.5 61.0913 240.5 59.5M246.5 65.5C244.909 65.5 243.383 66.1321 242.257 67.2574C241.132 68.3826 240.5 69.9087 240.5 71.5C240.5 73.0913 241.132 74.6174 242.257 75.7426C243.383 76.8679 244.909 77.5 246.5 77.5H273.5C275.091 77.5 276.617 76.8679 277.743 75.7426C278.868 74.6174 279.5 73.0913 279.5 71.5C279.5 69.9087 278.868 68.3826 277.743 67.2574C276.617 66.1321 275.091 65.5 273.5 65.5M273.5 65.5C275.091 65.5 276.617 64.8679 277.743 63.7426C278.868 62.6174 279.5 61.0913 279.5 59.5M240.5 59.5C240.5 57.9087 241.132 56.3826 242.257 55.2574C243.383 54.1321 244.909 53.5 246.5 53.5H273.5C275.091 53.5 276.617 54.1321 277.743 55.2574C278.868 56.3826 279.5 57.9087 279.5 59.5M240.5 59.5C240.5 57.5527 241.132 55.6579 242.3 54.1L247.474 47.2C248.103 46.3617 248.918 45.6813 249.855 45.2126C250.793 44.744 251.826 44.5 252.874 44.5H267.126C269.25 44.5 271.25 45.5 272.526 47.2L277.7 54.1C278.868 55.6579 279.5 57.5527 279.5 59.5M273.5 71.5H273.516V71.516H273.5V71.5ZM273.5 59.5H273.516V59.516H273.5V59.5ZM267.5 71.5H267.516V71.516H267.5V71.5ZM267.5 59.5H267.516V59.516H267.5V59.5Z" stroke="#FDFDFD" stroke-width="2" stroke-linecap="round" stroke-linejoin="round"/>
<path d="M584 79C580.228 77.7025 576.193 77 572 77C567.807 77 563.772 77.7025 560 79M560 71H584C587.314 71 590 68.3137 590 65V53C590 49.6863 587.314 47 584 47H560C556.686 47 554 49.6863 554 53V65C554 68.3137 556.686 71 560 71Z" stroke="#FDFDFD" stroke-width="2" stroke-linecap="round" stroke-linejoin="round"/>
<rect y="37" width="220" height="51" fill="url(#paint0_linear_137_420)"/>
<rect x="832" y="88" width="220" height="51" transform="rotate(-180 832 88)" fill="url(#paint1_linear_137_420)"/>
<defs>
<linearGradient id="paint0_linear_137_420" x1="220" y1="63" x2="2.56718e-06" y2="63" gradientUnits="userSpaceOnUse">
<stop stop-color="white" stop-opacity="0"/>
<stop offset="1" stop-color="white"/>
</linearGradient>
<linearGradient id="paint1_linear_137_420" x1="1052" y1="114" x2="832" y2="114" gradientUnits="userSpaceOnUse">
<stop stop-color="white" stop-opacity="0"/>
<stop offset="1" stop-color="white"/>
</linearGradient>
</defs>
</svg>
